<svg width="71" height="71" viewBox="0 0 71 71" fill="none" xmlns="http://www.w3.org/2000/svg">
<g clip-path="url(#clip0_362_3225)">
<path fill-rule="evenodd" clip-rule="evenodd" d="M5.20462 0.0546875H64.9516C67.7665 0.0546875 70.0781 2.36627 70.0781 5.18119V64.9282C70.0781 67.7431 67.7665 70.0547 64.9516 70.0547H5.20462C2.38971 70.0547 0.078125 67.7431 0.078125 64.9282V5.18119C0.078125 2.36627 2.38971 0.0546875 5.20462 0.0546875Z" fill="#C61724"/>
<path d="M38.8145 41.0449C38.9082 41.3262 38.9668 41.5488 38.9902 41.7129C39.0137 41.877 38.9824 42.002 38.8965 42.0879C38.8105 42.166 38.6582 42.2129 38.4395 42.2285C38.2207 42.252 37.9199 42.2637 37.5371 42.2637C37.1387 42.2637 36.8262 42.2559 36.5996 42.2402C36.3809 42.2324 36.2129 42.2129 36.0957 42.1816C35.9785 42.1426 35.8965 42.0918 35.8496 42.0293C35.8027 41.9668 35.7637 41.8848 35.7324 41.7832L34.7129 38.7363H29.0176L28.0566 41.7012C28.0254 41.8105 27.9824 41.9043 27.9277 41.9824C27.8809 42.0527 27.7988 42.1113 27.6816 42.1582C27.5723 42.1973 27.4121 42.2246 27.2012 42.2402C26.998 42.2559 26.7285 42.2637 26.3926 42.2637C26.0332 42.2637 25.752 42.252 25.5488 42.2285C25.3457 42.2051 25.2051 42.1504 25.127 42.0645C25.0488 41.9707 25.0215 41.8418 25.0449 41.6777C25.0684 41.5137 25.127 41.2949 25.2207 41.0215L29.8965 27.5684C29.9434 27.4355 29.998 27.3301 30.0605 27.252C30.123 27.166 30.2207 27.1035 30.3535 27.0645C30.4941 27.0176 30.6855 26.9902 30.9277 26.9824C31.1699 26.9668 31.4902 26.959 31.8887 26.959C32.3496 26.959 32.7168 26.9668 32.9902 26.9824C33.2637 26.9902 33.4746 27.0176 33.623 27.0645C33.7793 27.1035 33.8887 27.166 33.9512 27.252C34.0215 27.3379 34.0801 27.4551 34.127 27.6035L38.8145 41.0449ZM31.8535 29.9238H31.8418L29.6973 36.3691H33.998L31.8535 29.9238ZM44.041 41.7715C44.041 41.8496 44.0137 41.9199 43.959 41.9824C43.9121 42.0449 43.8301 42.0957 43.7129 42.1348C43.5957 42.1738 43.4395 42.2051 43.2441 42.2285C43.0488 42.252 42.7988 42.2637 42.4941 42.2637C42.1973 42.2637 41.9473 42.252 41.7441 42.2285C41.5488 42.2051 41.3926 42.1738 41.2754 42.1348C41.1582 42.0957 41.0723 42.0449 41.0176 41.9824C40.9707 41.9199 40.9473 41.8496 40.9473 41.7715V27.4512C40.9473 27.373 40.9707 27.3027 41.0176 27.2402C41.0723 27.1777 41.1582 27.127 41.2754 27.0879C41.4004 27.0488 41.5605 27.0176 41.7559 26.9941C41.9512 26.9707 42.1973 26.959 42.4941 26.959C42.7988 26.959 43.0488 26.9707 43.2441 26.9941C43.4395 27.0176 43.5957 27.0488 43.7129 27.0879C43.8301 27.127 43.9121 27.1777 43.959 27.2402C44.0137 27.3027 44.041 27.373 44.041 27.4512V41.7715Z" fill="white"/>
<path d="M60.0674 32.1738C61.797 32.1738 63.1992 30.7716 63.1992 29.042C63.1992 27.3123 61.797 25.9102 60.0674 25.9102C58.3377 25.9102 56.9355 27.3123 56.9355 29.042C56.9355 30.7716 58.3377 32.1738 60.0674 32.1738Z" stroke="white" stroke-width="2" stroke-miterlimit="10"/>
<path d="M56.9358 29.041H52.0703" stroke="white" stroke-width="2" stroke-miterlimit="10"/>
<path d="M60.0674 44.1972C61.797 44.1972 63.1992 42.7951 63.1992 41.0654C63.1992 39.3358 61.797 37.9336 60.0674 37.9336C58.3377 37.9336 56.9355 39.3358 56.9355 41.0654C56.9355 42.7951 58.3377 44.1972 60.0674 44.1972Z" stroke="white" stroke-width="2" stroke-miterlimit="10"/>
<path d="M56.9358 41.0645H52.0703" stroke="white" stroke-width="2" stroke-miterlimit="10"/>
<path d="M10.0703 32.1738C11.8 32.1738 13.2021 30.7716 13.2021 29.042C13.2021 27.3123 11.8 25.9102 10.0703 25.9102C8.34064 25.9102 6.93848 27.3123 6.93848 29.042C6.93848 30.7716 8.34064 32.1738 10.0703 32.1738Z" stroke="white" stroke-width="2" stroke-miterlimit="10"/>
<path d="M13.2021 29.041H18.0863" stroke="white" stroke-width="2" stroke-miterlimit="10"/>
<path d="M10.0703 44.1972C11.8 44.1972 13.2021 42.7951 13.2021 41.0654C13.2021 39.3358 11.8 37.9336 10.0703 37.9336C8.34064 37.9336 6.93848 39.3358 6.93848 41.0654C6.93848 42.7951 8.34064 44.1972 10.0703 44.1972Z" stroke="white" stroke-width="2" stroke-miterlimit="10"/>
<path d="M13.2021 41.0645H18.0863" stroke="white" stroke-width="2" stroke-miterlimit="10"/>
<path d="M41.0908 63.1738C42.8205 63.1738 44.2226 61.7716 44.2226 60.042C44.2226 58.3123 42.8205 56.9102 41.0908 56.9102C39.3612 56.9102 37.959 58.3123 37.959 60.042C37.959 61.7716 39.3612 63.1738 41.0908 63.1738Z" stroke="white" stroke-width="2" stroke-miterlimit="10"/>
<path d="M41.0908 56.9104V52.0449" stroke="white" stroke-width="2" stroke-miterlimit="10"/>
<path d="M29.0664 63.1738C30.7961 63.1738 32.1982 61.7716 32.1982 60.042C32.1982 58.3123 30.7961 56.9102 29.0664 56.9102C27.3367 56.9102 25.9346 58.3123 25.9346 60.042C25.9346 61.7716 27.3367 63.1738 29.0664 63.1738Z" stroke="white" stroke-width="2" stroke-miterlimit="10"/>
<path d="M29.0664 56.9104V52.0449" stroke="white" stroke-width="2" stroke-miterlimit="10"/>
<path d="M41.0908 13.1777C42.8205 13.1777 44.2226 11.7755 44.2226 10.0459C44.2226 8.31623 42.8205 6.91406 41.0908 6.91406C39.3612 6.91406 37.959 8.31623 37.959 10.0459C37.959 11.7755 39.3612 13.1777 41.0908 13.1777Z" stroke="white" stroke-width="2" stroke-miterlimit="10"/>
<path d="M41.0908 13.1777V18.0619" stroke="white" stroke-width="2" stroke-miterlimit="10"/>
<path d="M29.0664 13.1777C30.7961 13.1777 32.1982 11.7755 32.1982 10.0459C32.1982 8.31623 30.7961 6.91406 29.0664 6.91406C27.3367 6.91406 25.9346 8.31623 25.9346 10.0459C25.9346 11.7755 27.3367 13.1777 29.0664 13.1777Z" stroke="white" stroke-width="2" stroke-miterlimit="10"/>
<path d="M29.0664 13.1777V18.0619" stroke="white" stroke-width="2" stroke-miterlimit="10"/>
<path d="M43.9796 20.709H26.0089C23.1158 20.709 20.7705 23.0543 20.7705 25.9473V43.918C20.7705 46.8111 23.1158 49.1564 26.0089 49.1564H43.9796C46.8726 49.1564 49.2179 46.8111 49.2179 43.918V25.9473C49.2179 23.0543 46.8726 20.709 43.9796 20.709Z" stroke="white" stroke-width="2" stroke-miterlimit="10"/>
</g>
<defs>
<clipPath id="clip0_362_3225">
<rect width="70" height="70" fill="white" transform="translate(0.078125 0.0546875)"/>
</clipPath>
</defs>
</svg>
