<svg width="71" height="70" viewBox="0 0 71 70" fill="none" xmlns="http://www.w3.org/2000/svg">
<g clip-path="url(#clip0_364_23816)">
<path fill-rule="evenodd" clip-rule="evenodd" d="M6.04837 0H65.7954C68.6103 0 70.9219 2.31158 70.9219 5.1265V64.8735C70.9219 67.6884 68.6103 70 65.7954 70H6.04837C3.23346 70 0.921875 67.6884 0.921875 64.8735V5.1265C0.921875 2.31158 3.23346 0 6.04837 0Z" fill="#C61724"/>
<path d="M23.8519 57.0266V50.0732H47.7507V57.0266H23.8519ZM47.7694 12.9574V16.1265H23.8706V12.9574H47.7694ZM48.7387 42.7843C48.1981 42.7843 47.7507 43.2317 47.7507 43.7723V48.1345H23.8519V18.0839H47.7507V22.5952C47.7507 23.1358 48.1981 23.5646 48.7387 23.5646C49.2794 23.5646 49.7268 23.1172 49.7268 22.5952V11.988C49.7268 11.4474 49.2794 11 48.7387 11H22.8825C22.3419 11 21.8945 11.4474 21.8945 11.988V58.0146C21.8945 58.5553 22.3419 59.0027 22.8825 59.0027H48.7387C49.2794 59.0027 49.7268 58.5553 49.7268 58.0146V43.7723C49.7268 43.2317 49.2794 42.7843 48.7387 42.7843Z" fill="#FBFBFC"/>
<path d="M37.2911 53.4835C37.2911 54.3038 36.62 54.9562 35.8184 54.9562C35.0168 54.9562 34.3457 54.2851 34.3457 53.4835C34.3457 52.6819 35.0168 51.9922 35.8184 51.9922C36.62 51.9922 37.2911 52.6633 37.2911 53.4835Z" fill="#FBFBFC"/>
<path d="M37.5158 38.0658C37.2549 39.5944 35.8008 40.6197 34.2722 40.3587C32.7435 40.0977 31.7182 38.6437 31.9979 37.115C32.2589 35.5864 33.7129 34.5611 35.2415 34.8221C36.7702 35.0831 37.7955 36.5371 37.5158 38.0658ZM40.6663 35.4C40.4799 34.8967 39.9206 34.6357 39.4173 34.8221L38.7835 35.0458C38.6903 34.8967 38.5971 34.7662 38.4852 34.617L38.914 34.0951C39.2682 33.6849 39.2123 33.0511 38.7835 32.7156C38.3734 32.3614 37.7582 32.4173 37.404 32.8461L36.9752 33.368C36.8261 33.2935 36.677 33.2189 36.5092 33.1443L36.621 32.4919C36.7143 31.9513 36.3601 31.4479 35.8194 31.3547C35.2788 31.2615 34.7755 31.6157 34.6823 32.1563L34.5704 32.8088C34.4027 32.8088 34.2163 32.8274 34.0485 32.8647L33.8248 32.2309C33.6384 31.7276 33.0791 31.4666 32.5758 31.653C32.0724 31.8394 31.8115 32.3987 31.9979 32.9206L32.2216 33.5545C32.0724 33.6477 31.9419 33.7409 31.7928 33.8527L31.2708 33.424C30.8607 33.0698 30.2455 33.1257 29.8913 33.5545C29.5372 33.9646 29.5931 34.5984 30.0218 34.9339L30.5438 35.3627C30.4692 35.5118 30.3947 35.6796 30.3201 35.8288L29.6676 35.7169C29.127 35.6237 28.6237 35.9779 28.5305 36.5185C28.4373 37.0591 28.7915 37.5624 29.3321 37.6557L29.9846 37.7675C29.9846 37.9353 30.0032 38.1217 30.0405 38.2895L29.4067 38.5132C28.9033 38.6996 28.6423 39.2588 28.8288 39.7808C29.0152 40.2841 29.5744 40.5451 30.0778 40.3587L30.7116 40.135C30.8048 40.2841 30.898 40.4146 31.0099 40.5638L30.5811 41.0857C30.2269 41.4959 30.2828 42.111 30.7116 42.4652C31.1217 42.8194 31.7369 42.7635 32.0911 42.3347L32.5198 41.8128C32.669 41.8873 32.8368 41.9619 32.9859 42.0365L32.874 42.6889C32.7808 43.2296 33.135 43.7329 33.6756 43.8261C34.2162 43.9193 34.7196 43.5651 34.8128 43.0245L34.9246 42.372C35.0924 42.372 35.2788 42.3534 35.4466 42.3161L35.6703 42.9499C35.8567 43.4533 36.416 43.7142 36.9193 43.5278C37.4226 43.3414 37.6836 42.7821 37.4972 42.2602L37.2735 41.6264C37.4226 41.5331 37.5531 41.4399 37.7023 41.3281L38.2242 41.7568C38.6344 42.111 39.2495 42.0551 39.6037 41.6264C39.9579 41.2162 39.902 40.5824 39.4732 40.2469L38.9513 39.8181C39.0258 39.669 39.1004 39.5012 39.175 39.3521L39.8274 39.4639C40.368 39.5571 40.8714 39.2029 40.9646 38.6623C41.0578 38.1217 40.7036 37.6184 40.163 37.5252L39.5105 37.4133C39.5105 37.2455 39.4919 37.0591 39.4546 36.8913L40.0884 36.6676C40.5918 36.4812 40.8527 35.922 40.6663 35.4Z" fill="#FBFBFC"/>
<path d="M52.6163 33.0883C52.6163 35.2321 50.8826 36.9658 48.7575 36.9658C46.6323 36.9658 44.8986 35.2321 44.8986 33.0883C44.8986 30.9445 46.6323 29.2108 48.7575 29.2108C50.8826 29.2108 52.6163 30.9445 52.6163 33.0883ZM55.5617 32.1189H54.4805C54.4246 31.7647 54.3314 31.4105 54.2009 31.0749L55.1516 30.5343C55.6177 30.2547 55.7854 29.6582 55.5058 29.1921C55.2262 28.7261 54.6296 28.5583 54.1636 28.8379L53.2129 29.3785C52.9892 29.0989 52.7282 28.8379 52.4485 28.6142L52.9892 27.6635C53.2501 27.1974 53.101 26.6009 52.635 26.3213C52.1689 26.0417 51.5724 26.2094 51.2928 26.6755L50.7521 27.6262C50.4166 27.4957 50.0624 27.4025 49.7082 27.3466V26.2654C49.7082 25.7247 49.2608 25.2773 48.7202 25.2773C48.1796 25.2773 47.7322 25.7247 47.7322 26.2654V27.3466C47.378 27.4025 47.0238 27.4957 46.6882 27.6262L46.1476 26.6755C45.868 26.2094 45.2715 26.0417 44.8054 26.3213C44.3394 26.5823 44.1716 27.1974 44.4512 27.6635L44.9918 28.6142C44.7122 28.8379 44.4512 29.0989 44.2275 29.3785L43.2768 28.8379C42.8107 28.5583 42.2142 28.7261 41.9346 29.1921C41.6549 29.6582 41.8227 30.2547 42.2888 30.5343L43.2395 31.0749C43.109 31.4105 43.0158 31.7647 42.9599 32.1189H41.8786C41.338 32.1189 40.8906 32.5663 40.8906 33.1069C40.8906 33.6475 41.338 34.0949 41.8786 34.0949H42.9599C43.0158 34.4491 43.109 34.8033 43.2395 35.1389L42.2888 35.6795C41.8227 35.9405 41.6549 36.5556 41.9346 37.0217C42.2142 37.4877 42.8107 37.6555 43.2768 37.3759L44.2275 36.8353C44.4512 37.1149 44.7122 37.3759 44.9918 37.5996L44.4512 38.5503C44.1902 39.0164 44.3394 39.6129 44.8054 39.8925C45.2715 40.1535 45.868 40.0044 46.1476 39.5383L46.6882 38.5876C47.0238 38.7181 47.378 38.8113 47.7322 38.8672V39.9671C47.7322 40.5077 48.1796 40.9365 48.7202 40.9365C49.2608 40.9365 49.7082 40.5077 49.7082 39.9671V38.8672C50.0624 38.8113 50.4166 38.7181 50.7521 38.5876L51.2928 39.5383C51.5724 40.0044 52.1689 40.1721 52.635 39.8925C53.101 39.6129 53.2688 39.0164 52.9892 38.5503L52.4485 37.5996C52.7282 37.3759 52.9892 37.1149 53.2129 36.8353L54.1636 37.3759C54.6296 37.6555 55.2262 37.4877 55.5058 37.0217C55.7854 36.5556 55.6177 35.9591 55.1516 35.6795L54.2009 35.1389C54.3314 34.8033 54.4246 34.4491 54.4805 34.0949H55.5617C56.1023 34.0949 56.5497 33.6475 56.5497 33.1069C56.5497 32.5663 56.1023 32.1189 55.5617 32.1189Z" fill="#FBFBFC"/>
</g>
<defs>
<clipPath id="clip0_364_23816">
<rect width="70" height="70" fill="white" transform="translate(0.921875)"/>
</clipPath>
</defs>
</svg>
