<svg width="71" height="70" viewBox="0 0 71 70" fill="none" xmlns="http://www.w3.org/2000/svg">
<g clip-path="url(#clip0_364_24101)">
<path d="M65.7954 0H6.04837C3.21709 0 0.921875 2.29521 0.921875 5.1265V64.8735C0.921875 67.7048 3.21709 70 6.04837 70H65.7954C68.6267 70 70.9219 67.7048 70.9219 64.8735V5.1265C70.9219 2.29521 68.6267 0 65.7954 0Z" fill="#C61724"/>
<path d="M19.2891 50.3672H16.5449V40.0254C15.5423 40.9629 14.3607 41.6562 13 42.1055V39.6152C13.7161 39.3809 14.4941 38.9382 15.334 38.2871C16.1738 37.6296 16.75 36.8646 17.0625 35.9922H19.2891V50.3672ZM29.3086 50.3672H26.5645V40.0254C25.5618 40.9629 24.3802 41.6562 23.0195 42.1055V39.6152C23.7357 39.3809 24.5137 38.9382 25.3535 38.2871C26.1934 37.6296 26.7695 36.8646 27.082 35.9922H29.3086V50.3672ZM38.0586 35.9922C39.4453 35.9922 40.5293 36.487 41.3105 37.4766C42.2415 38.6484 42.707 40.5918 42.707 43.3066C42.707 46.015 42.2383 47.9616 41.3008 49.1465C40.526 50.123 39.4453 50.6113 38.0586 50.6113C36.6654 50.6113 35.5423 50.0775 34.6895 49.0098C33.8366 47.9355 33.4102 46.0247 33.4102 43.2773C33.4102 40.582 33.8789 38.6419 34.8164 37.457C35.5911 36.4805 36.6719 35.9922 38.0586 35.9922ZM38.0586 38.2676C37.7266 38.2676 37.4303 38.375 37.1699 38.5898C36.9095 38.7982 36.7077 39.1758 36.5645 39.7227C36.3757 40.4323 36.2812 41.627 36.2812 43.3066C36.2812 44.9863 36.3659 46.1419 36.5352 46.7734C36.7044 47.3984 36.916 47.8151 37.1699 48.0234C37.4303 48.2318 37.7266 48.3359 38.0586 48.3359C38.3906 48.3359 38.6868 48.2318 38.9473 48.0234C39.2077 47.8086 39.4095 47.4277 39.5527 46.8809C39.7415 46.1777 39.8359 44.9863 39.8359 43.3066C39.8359 41.627 39.7513 40.4746 39.582 39.8496C39.4128 39.2181 39.1979 38.7982 38.9375 38.5898C38.6836 38.375 38.3906 38.2676 38.0586 38.2676ZM49.1914 35.9922C50.5781 35.9922 51.6621 36.487 52.4434 37.4766C53.3743 38.6484 53.8398 40.5918 53.8398 43.3066C53.8398 46.015 53.3711 47.9616 52.4336 49.1465C51.6589 50.123 50.5781 50.6113 49.1914 50.6113C47.7982 50.6113 46.6751 50.0775 45.8223 49.0098C44.9694 47.9355 44.543 46.0247 44.543 43.2773C44.543 40.582 45.0117 38.6419 45.9492 37.457C46.724 36.4805 47.8047 35.9922 49.1914 35.9922ZM49.1914 38.2676C48.8594 38.2676 48.5632 38.375 48.3027 38.5898C48.0423 38.7982 47.8405 39.1758 47.6973 39.7227C47.5085 40.4323 47.4141 41.627 47.4141 43.3066C47.4141 44.9863 47.4987 46.1419 47.668 46.7734C47.8372 47.3984 48.0488 47.8151 48.3027 48.0234C48.5632 48.2318 48.8594 48.3359 49.1914 48.3359C49.5234 48.3359 49.8197 48.2318 50.0801 48.0234C50.3405 47.8086 50.5423 47.4277 50.6855 46.8809C50.8743 46.1777 50.9688 44.9863 50.9688 43.3066C50.9688 41.627 50.8841 40.4746 50.7148 39.8496C50.5456 39.2181 50.3307 38.7982 50.0703 38.5898C49.8164 38.375 49.5234 38.2676 49.1914 38.2676ZM59.9434 50.3672L54.8262 36.0508H57.9609L61.584 46.6465L65.0898 36.0508H68.1562L63.0293 50.3672H59.9434Z" fill="white"/>
<path d="M10.3555 25.5576V8.42578H14.7549L17.3834 20.1142L19.9933 8.42578H24.3928V25.5576H21.671V12.0609L18.7816 25.5576H15.948L13.0772 12.0609V25.5576H10.3555Z" fill="white"/>
<path d="M29.3705 16.9272L26.8352 16.3866C27.1148 15.1935 27.5995 14.2987 28.3079 13.7208C28.9977 13.1429 30.0416 12.8633 31.4024 12.8633C32.6514 12.8633 33.5649 13.0311 34.1801 13.3853C34.7953 13.7394 35.224 14.1682 35.4664 14.7088C35.7087 15.2494 35.8392 16.2188 35.8392 17.6542L35.8019 21.4944C35.8019 22.5943 35.8392 23.3959 35.9324 23.9179C36.0256 24.4398 36.1934 24.9991 36.4357 25.577H33.6767C33.6022 25.3533 33.509 25.0364 33.4158 24.6076C33.3785 24.4212 33.3412 24.2907 33.3226 24.2161C32.8379 24.7568 32.3345 25.1669 31.7939 25.4465C31.2533 25.7261 30.6754 25.8566 30.0602 25.8566C28.979 25.8566 28.1215 25.5024 27.5063 24.8127C26.8911 24.1229 26.5742 23.2468 26.5742 22.1842C26.5742 21.4758 26.7234 20.8606 27.003 20.3014C27.2826 19.7421 27.6927 19.332 28.1961 19.0337C28.6994 18.7355 29.4451 18.4931 30.4144 18.2694C31.7194 17.9898 32.6142 17.7102 33.1175 17.4678V17.1509C33.1175 16.5171 32.987 16.0697 32.726 15.8087C32.465 15.5477 31.9617 15.3986 31.2347 15.3986C30.7313 15.3986 30.3585 15.5104 30.0789 15.7341C29.7993 15.9765 29.5755 16.3679 29.4078 16.9458L29.3705 16.9272ZM33.0989 19.593C32.7447 19.7421 32.1854 19.9099 31.4024 20.0963C30.6195 20.2827 30.1162 20.4878 29.8925 20.6742C29.5196 20.9725 29.3518 21.3639 29.3518 21.83C29.3518 22.296 29.501 22.6875 29.7806 23.0231C30.0602 23.3586 30.4331 23.5264 30.8991 23.5264C31.4024 23.5264 31.8871 23.34 32.3345 22.9485C32.6701 22.6502 32.8938 22.296 33.0056 21.8673C33.0802 21.5876 33.1175 21.047 33.1175 20.2641V19.6116L33.0989 19.593Z" fill="white"/>
<path d="M37.2363 25.5561L41.0393 19.1619L37.4041 13.1406H40.7969L42.6611 16.5521L44.6185 13.1406H47.8808L44.3202 19.0314L48.2164 25.5747H44.8049L42.6611 21.7345L40.4986 25.5747H37.2363V25.5561Z" fill="white"/>
<path d="M49.8574 25.5583V22.2773H52.6351V25.5583H49.8574Z" fill="white"/>
</g>
<defs>
<clipPath id="clip0_364_24101">
<rect width="70" height="70" fill="white" transform="translate(0.921875)"/>
</clipPath>
</defs>
</svg>
