<svg width="73" height="73" viewBox="0 0 73 73" fill="none" xmlns="http://www.w3.org/2000/svg">
<g clip-path="url(#clip0_364_23667)">
<path fill-rule="evenodd" clip-rule="evenodd" d="M6.08547 0.453125H67.5395C70.4349 0.453125 72.8125 2.83075 72.8125 5.72609V67.1802C72.8125 70.0755 70.4349 72.4531 67.5395 72.4531H6.08547C3.19013 72.4531 0.8125 70.0755 0.8125 67.1802V5.72609C0.8125 2.83075 3.19013 0.453125 6.08547 0.453125Z" fill="#C72530"/>
<path d="M19.0109 20.8361V46.2998C19.0109 46.2998 18.3015 48.639 21.0051 48.639H53.5057C53.5057 48.639 55.2698 48.7541 55.2698 46.875V20.8169C55.2698 20.8169 55.4232 18.6694 57.7049 18.7653C59.9867 18.8611 59.8141 20.8745 59.8141 20.8745V47.2777C59.8141 47.2777 60.1593 52.9916 54.1768 52.9916H20.3915C20.3915 52.9916 14.1406 53.8737 14.1406 46.7408V20.7786C14.1406 20.7786 14.294 18.7461 16.7292 18.7461C19.1643 18.7461 19.0109 20.7978 19.0109 20.7978" fill="#D62829"/>
<path d="M19.0109 20.8361V46.2998C19.0109 46.2998 18.3015 48.639 21.0051 48.639H53.5057C53.5057 48.639 55.2698 48.7541 55.2698 46.875V20.8169C55.2698 20.8169 55.4232 18.6694 57.7049 18.7653C59.9867 18.8611 59.8141 20.8745 59.8141 20.8745V47.2777C59.8141 47.2777 60.1593 52.9916 54.1768 52.9916H20.3915C20.3915 52.9916 14.1406 53.8737 14.1406 46.7408V20.7786C14.1406 20.7786 14.294 18.7461 16.7292 18.7461C19.1643 18.7461 19.0109 20.7978 19.0109 20.7978V20.8361Z" stroke="white" stroke-width="2.5" stroke-linecap="round" stroke-linejoin="round"/>
<path d="M19.0078 20.8359H55.2667" stroke="white" stroke-width="2.5" stroke-linecap="round" stroke-linejoin="round"/>
<path d="M37.1304 28.1211L33.8516 34.7938H40.1791L36.977 41.2172" fill="#D62829"/>
<path d="M37.1304 28.1211L33.8516 34.7938H40.1791L36.977 41.2172" stroke="white" stroke-width="2.5" stroke-linecap="round" stroke-linejoin="round"/>
<path d="M45.545 25.7627C45.545 26.2037 45.1998 26.5489 44.7588 26.5489C44.3178 26.5489 43.9727 26.2037 43.9727 25.7627C43.9727 25.3217 44.3178 24.9766 44.7588 24.9766C45.1998 24.9766 45.545 25.3217 45.545 25.7627Z" fill="#F5F6F5"/>
<path d="M45.545 25.7627C45.545 26.2037 45.1998 26.5489 44.7588 26.5489C44.3178 26.5489 43.9727 26.2037 43.9727 25.7627C43.9727 25.3217 44.3178 24.9766 44.7588 24.9766C45.1998 24.9766 45.545 25.3217 45.545 25.7627Z" stroke="white" stroke-width="0.79" stroke-miterlimit="10"/>
<path d="M49.9551 25.7627C49.9551 26.2037 49.61 26.5489 49.169 26.5489C48.728 26.5489 48.3828 26.2037 48.3828 25.7627C48.3828 25.3217 48.728 24.9766 49.169 24.9766C49.61 24.9766 49.9551 25.3217 49.9551 25.7627Z" fill="#F5F6F5"/>
<path d="M49.9551 25.7627C49.9551 26.2037 49.61 26.5489 49.169 26.5489C48.728 26.5489 48.3828 26.2037 48.3828 25.7627C48.3828 25.3217 48.728 24.9766 49.169 24.9766C49.61 24.9766 49.9551 25.3217 49.9551 25.7627Z" stroke="white" stroke-width="0.79" stroke-miterlimit="10"/>
</g>
<defs>
<clipPath id="clip0_364_23667">
<rect width="72" height="72" fill="white" transform="translate(0.8125 0.453125)"/>
</clipPath>
</defs>
</svg>
