<svg width="37" height="37" viewBox="0 0 37 37" fill="none" xmlns="http://www.w3.org/2000/svg">
<g clip-path="url(#clip0_402_5149)">
<path fill-rule="evenodd" clip-rule="evenodd" d="M26.4201 13.6727C26.35 13.5048 26.1865 13.3849 25.9996 13.3849H20.4171L25.9296 4.46179C26.023 4.31787 26.023 4.12598 25.9296 3.98206C25.8361 3.83813 25.696 3.74219 25.5091 3.74219H17.9879C17.8011 3.74219 17.6376 3.83813 17.5675 4.00604L10.5135 18.494C10.4434 18.638 10.4434 18.8299 10.5135 18.9738C10.6069 19.1177 10.7471 19.2137 10.9106 19.2137H15.7456L10.5135 32.0466C10.4201 32.2625 10.5135 32.5263 10.7004 32.6462C10.7704 32.6942 10.8639 32.7182 10.9573 32.7182C11.0974 32.7182 11.2142 32.6702 11.3077 32.5503L26.3733 14.1764C26.4901 14.0325 26.5135 13.8406 26.4434 13.6727" fill="#D4191A"/>
</g>
<defs>
<clipPath id="clip0_402_5149">
<rect width="16" height="29" fill="white" transform="translate(10.4668 3.71875)"/>
</clipPath>
</defs>
</svg>
