<svg width="37" height="37" viewBox="0 0 37 37" fill="none" xmlns="http://www.w3.org/2000/svg">
<g clip-path="url(#clip0_402_5144)">
<path fill-rule="evenodd" clip-rule="evenodd" d="M18.4547 19.0262C17.7915 19.0262 17.2511 18.4858 17.2511 17.8225C17.2511 17.1593 17.7915 16.6188 18.4547 16.6188C19.118 16.6188 19.6584 17.1593 19.6584 17.8225C19.6584 18.4858 19.118 19.0262 18.4547 19.0262ZM21.8447 16.0293C23.294 15.4152 25.2101 15.0221 27.986 15.1204C26.6595 13.4254 25.4558 12.1972 24.7434 10.9443C22.7782 12.0743 21.3288 13.2534 20.248 14.4571C19.7567 14.1869 19.1917 14.0395 18.6021 14.015C18.7987 12.4674 19.3882 10.625 20.8621 8.24219H16.0719C15.728 11.0917 15.9491 13.0569 16.4404 14.6045C15.9491 14.9239 15.5315 15.3415 15.2122 15.8328C13.9593 14.9239 12.682 13.6219 11.38 11.8287C10.7168 13.3026 10.0781 14.2852 8.97266 15.145C11.2572 16.8399 13.075 17.6506 14.6717 18.0191C14.6717 18.6086 14.8683 19.1736 15.1139 19.6649C13.6646 20.279 11.7485 20.6721 8.97266 20.5738C10.2992 22.2688 11.5029 23.497 12.2152 24.7499C14.1804 23.6199 15.6298 22.4408 16.7106 21.2371C17.2019 21.5073 17.7669 21.6547 18.3565 21.6792C18.16 23.2268 17.5704 25.0692 16.0965 27.452H20.8867C21.2306 24.6025 21.0095 22.6373 20.5182 21.0897C21.0095 20.7703 21.4271 20.3527 21.7465 19.8614C22.9993 20.7703 24.2766 22.0723 25.5786 23.8655C26.2418 22.3916 26.8805 21.409 27.986 20.5492C25.7014 18.8543 23.8836 18.0436 22.2869 17.6751C22.2869 17.0856 22.0904 16.5206 21.8447 16.0293Z" fill="#D4191A"/>
<path fill-rule="evenodd" clip-rule="evenodd" d="M28.7718 8.24331C28.3788 8.24331 28.0594 7.92396 28.0594 7.53092C28.0594 7.13788 28.3788 6.81854 28.7718 6.81854C29.1649 6.81854 29.4842 7.13788 29.4842 7.53092C29.4842 7.92396 29.1649 8.24331 28.7718 8.24331ZM28.7718 28.8533C28.3788 28.8533 28.0594 28.534 28.0594 28.141C28.0594 27.7479 28.3788 27.4286 28.7718 27.4286C29.1649 27.4286 29.4842 27.7479 29.4842 28.141C29.4842 28.534 29.1649 28.8533 28.7718 28.8533ZM18.4545 28.3866C12.6326 28.3866 7.89157 23.6701 7.89157 17.8237C7.89157 11.9772 12.6326 7.28527 18.4545 7.28527C24.2764 7.28527 29.0175 12.0017 29.0175 17.8482C29.0175 23.6947 24.2764 28.4112 18.4545 28.4112V28.3866ZM8.13722 28.8533C7.74418 28.8533 7.42483 28.534 7.42483 28.141C7.42483 27.7479 7.74418 27.4286 8.13722 27.4286C8.53026 27.4286 8.8496 27.7479 8.8496 28.141C8.8496 28.534 8.53026 28.8533 8.13722 28.8533ZM8.13722 6.79397C8.53026 6.79397 8.8496 7.11332 8.8496 7.50636C8.8496 7.8994 8.53026 8.21874 8.13722 8.21874C7.74418 8.21874 7.42483 7.8994 7.42483 7.50636C7.42483 7.11332 7.74418 6.79397 8.13722 6.79397ZM28.5262 5.83594H8.38287C7.32657 5.83594 6.4668 6.69571 6.4668 7.75201V27.8953C6.4668 28.9516 7.32657 29.8114 8.38287 29.8114H28.5262C29.5825 29.8114 30.4422 28.9516 30.4422 27.8953V7.75201C30.4422 6.69571 29.5825 5.83594 28.5262 5.83594Z" fill="#D4191A"/>
</g>
<defs>
<clipPath id="clip0_402_5144">
<rect width="24" height="24" fill="white" transform="translate(6.4668 5.83594)"/>
</clipPath>
</defs>
</svg>
