<svg width="71" height="70" viewBox="0 0 71 70" fill="none" xmlns="http://www.w3.org/2000/svg">
<g clip-path="url(#clip0_402_5206)">
<path fill-rule="evenodd" clip-rule="evenodd" d="M5.939 0H65.686C68.5009 0 70.8125 2.31158 70.8125 5.1265V64.8735C70.8125 67.6884 68.5009 70 65.686 70H5.939C3.12408 70 0.8125 67.6884 0.8125 64.8735V5.1265C0.8125 2.31158 3.12408 0 5.939 0Z" fill="#C61724"/>
<path d="M9.70419 25.9289V8.96484H14.0477L16.6576 20.5414L19.2302 8.96484H23.5923V25.9289H20.8893V12.5814L18.0371 25.9289H15.2408L12.3886 12.5814V25.9289H9.68555H9.70419Z" fill="white"/>
<path d="M28.514 17.389L26.016 16.8484C26.2956 15.6553 26.7803 14.7792 27.47 14.2013C28.1598 13.6234 29.1851 13.3438 30.5273 13.3438C31.7576 13.3438 32.6711 13.5115 33.2676 13.8657C33.8642 14.2013 34.2929 14.6487 34.5353 15.1706C34.7776 15.6926 34.9081 16.662 34.9081 18.0788L34.8708 21.8817C34.8708 22.9629 34.9081 23.7645 35.0013 24.2679C35.0945 24.7898 35.2623 25.3304 35.5046 25.9083H32.7829C32.7084 25.7033 32.6152 25.3677 32.5219 24.9576C32.4847 24.7712 32.4474 24.6407 32.4287 24.5661C31.9627 25.1067 31.4594 25.5169 30.9188 25.7778C30.3781 26.0575 29.8189 26.188 29.2037 26.188C28.1225 26.188 27.2836 25.8524 26.6684 25.1627C26.0532 24.4729 25.7363 23.5967 25.7363 22.5528C25.7363 21.8631 25.8855 21.2292 26.1651 20.6886C26.4447 20.148 26.8362 19.7379 27.3395 19.4396C27.8429 19.16 28.5699 18.899 29.5393 18.6753C30.8255 18.3957 31.7204 18.1347 32.2237 17.8737V17.5568C32.2237 16.9416 32.0932 16.4942 31.8322 16.2146C31.5712 15.9536 31.0865 15.8045 30.3595 15.8045C29.8748 15.8045 29.4833 15.9163 29.2037 16.14C28.9241 16.3637 28.7004 16.7738 28.5326 17.3331L28.514 17.389ZM32.205 20.0175C31.8508 20.148 31.2916 20.3158 30.5273 20.5208C29.763 20.7073 29.2596 20.9123 29.0359 21.0801C28.6817 21.3784 28.4953 21.7698 28.4953 22.2359C28.4953 22.7019 28.6445 23.0748 28.9241 23.4103C29.2037 23.7459 29.5765 23.9137 30.0239 23.9137C30.5273 23.9137 30.9933 23.7272 31.4407 23.3358C31.7763 23.0375 32 22.6833 32.0932 22.2545C32.1678 21.9749 32.205 21.4529 32.205 20.67V20.0175Z" fill="white"/>
<path d="M36.3066 25.9295L40.0723 19.6099L36.4744 13.6445H39.8299L41.6755 17.0187L43.6142 13.6445H46.8579L43.3346 19.4608L47.1935 25.9295H43.8006L41.6755 22.1266L39.5317 25.9295H36.3066Z" fill="white"/>
<path d="M48.7969 25.9303V22.668H51.5559V25.9303H48.7969Z" fill="white"/>
<path d="M65.985 59.004H61.0636L59.1062 53.8775H50.1395L48.294 59.004H43.4844L52.2274 36.4102H57.0183L66.0037 59.004H65.985ZM57.6522 50.056L54.5576 41.6671L51.5376 50.056H57.6522Z" fill="#F8F8F8"/>
<path d="M8.83594 52.6031L13.1933 52.0745C13.3321 53.1852 13.7059 54.0342 14.3146 54.6216C14.9234 55.209 15.6603 55.5027 16.5253 55.5027C17.4545 55.5027 18.2341 55.1503 18.8642 54.4454C19.505 53.7405 19.8254 52.79 19.8254 51.5939C19.8254 50.4618 19.521 49.5648 18.9123 48.9026C18.3035 48.2405 17.5613 47.9094 16.6855 47.9094C16.1088 47.9094 15.42 48.0215 14.619 48.2458L15.1156 44.5773C16.3331 44.6094 17.2622 44.3477 17.903 43.7924C18.5438 43.2263 18.8642 42.4787 18.8642 41.5496C18.8642 40.7593 18.6293 40.1292 18.1593 39.6593C17.6894 39.1894 17.0647 38.9544 16.2851 38.9544C15.5161 38.9544 14.8593 39.2214 14.3146 39.7554C13.77 40.2894 13.4389 41.069 13.3214 42.0943L9.17235 41.3894C9.4607 39.969 9.89323 38.837 10.4699 37.9933C11.0573 37.1389 11.869 36.4714 12.9049 35.9908C13.9515 35.4995 15.121 35.2539 16.4132 35.2539C18.6239 35.2539 20.3968 35.9588 21.7317 37.3685C22.8317 38.5219 23.3817 39.8248 23.3817 41.2773C23.3817 43.3385 22.255 44.9831 20.0016 46.2113C21.3472 46.4997 22.4206 47.1458 23.2215 48.1497C24.0332 49.1536 24.439 50.3657 24.439 51.7861C24.439 53.8473 23.6861 55.6041 22.1803 57.0566C20.6744 58.509 18.8001 59.2353 16.5574 59.2353C14.4321 59.2353 12.67 58.6265 11.2709 57.409C9.87187 56.1808 9.06021 54.5789 8.83594 52.6031Z" fill="white"/>
<path d="M31.1192 46.1633C29.9551 45.672 29.1061 44.9992 28.5721 44.1448C28.0488 43.2797 27.7871 42.3346 27.7871 41.3093C27.7871 39.5578 28.3959 38.1107 29.6134 36.968C30.8415 35.8253 32.5823 35.2539 34.8358 35.2539C37.0678 35.2539 38.7979 35.8253 40.0261 36.968C41.265 38.1107 41.8844 39.5578 41.8844 41.3093C41.8844 42.3986 41.6014 43.3705 41.0353 44.2249C40.4693 45.0686 39.6737 45.7147 38.6484 46.1633C39.9513 46.6866 40.9392 47.4502 41.612 48.4541C42.2955 49.458 42.6373 50.6167 42.6373 51.9303C42.6373 54.0983 41.9431 55.8605 40.5548 57.2168C39.1771 58.5731 37.3402 59.2513 35.044 59.2513C32.9081 59.2513 31.1299 58.6906 29.7095 57.5692C28.0328 56.2449 27.1944 54.4294 27.1944 52.1225C27.1944 50.8517 27.5095 49.6876 28.1396 48.6303C28.7697 47.5623 29.7629 46.74 31.1192 46.1633ZM32.0483 41.6297C32.0483 42.5268 32.2993 43.2263 32.8013 43.7283C33.3139 44.2302 33.9921 44.4812 34.8358 44.4812C35.6901 44.4812 36.3736 44.2302 36.8863 43.7283C37.3989 43.2156 37.6552 42.5108 37.6552 41.6137C37.6552 40.77 37.3989 40.0972 36.8863 39.5952C36.3843 39.0826 35.7168 38.8263 34.8838 38.8263C34.0188 38.8263 33.3299 39.0826 32.8173 39.5952C32.3047 40.1078 32.0483 40.786 32.0483 41.6297ZM31.6318 51.69C31.6318 52.9289 31.9469 53.8954 32.577 54.5896C33.2178 55.2838 34.0134 55.6308 34.9639 55.6308C35.893 55.6308 36.662 55.2998 37.2707 54.6376C37.8795 53.9648 38.1839 52.9983 38.1839 51.7381C38.1839 50.6381 37.8741 49.757 37.2547 49.0948C36.6353 48.422 35.8503 48.0856 34.8998 48.0856C33.7998 48.0856 32.9775 48.4647 32.4328 49.223C31.8988 49.9813 31.6318 50.8036 31.6318 51.69Z" fill="white"/>
</g>
<defs>
<clipPath id="clip0_402_5206">
<rect width="70" height="70" fill="white" transform="translate(0.8125)"/>
</clipPath>
</defs>
</svg>
