<svg width="71" height="70" viewBox="0 0 71 70" fill="none" xmlns="http://www.w3.org/2000/svg">
<g clip-path="url(#clip0_364_24422)">
<path fill-rule="evenodd" clip-rule="evenodd" d="M6.04837 0H65.7954C68.6103 0 70.9219 2.31158 70.9219 5.1265V64.8735C70.9219 67.6884 68.6103 70 65.7954 70H6.04837C3.23346 70 0.921875 67.6884 0.921875 64.8735V5.1265C0.921875 2.31158 3.23346 0 6.04837 0Z" fill="#C61724"/>
<path d="M32.8745 59.56H27.7293V38.9048C25.8465 40.769 23.6281 42.1671 21.0742 43.062V38.0846C22.4164 37.6185 23.8891 36.7237 25.455 35.4188C27.0396 34.1139 28.1208 32.5853 28.6987 30.8516H32.8745V59.56Z" fill="white"/>
<path d="M36.1367 59.5588V54.0781H41.2819V59.5588H36.1367Z" fill="white"/>
<path d="M44.4688 52.2165L49.5952 51.6573C49.7444 52.8876 50.1731 53.8757 50.9002 54.5841C51.6272 55.3111 52.4474 55.6653 53.3982 55.6653C54.4794 55.6653 55.3929 55.1992 56.1385 54.2671C56.8842 53.3351 57.257 51.9369 57.257 50.0727C57.257 48.3204 56.8842 46.9968 56.1572 46.1207C55.4115 45.2445 54.4608 44.7971 53.2677 44.7971C51.795 44.7971 50.4528 45.4869 49.297 46.885L45.1212 46.2512L47.7683 31.375H61.3955V36.5015H51.6831L50.8815 41.3484C52.0373 40.7332 53.2118 40.4349 54.4048 40.4349C56.6978 40.4349 58.6365 41.3111 60.2211 43.0821C61.8056 44.853 62.6072 47.146 62.6072 49.9609C62.6072 52.3098 61.9734 54.4163 60.6871 56.2618C58.9348 58.7785 56.5114 60.0461 53.3982 60.0461C50.9188 60.0461 48.8869 59.3377 47.3209 57.9209C45.755 56.5042 44.8229 54.6027 44.506 52.2165H44.4688Z" fill="white"/>
<path d="M11.5108 24.9039V8.89062H15.612L18.0727 19.8147L20.5148 8.89062H24.6347V24.9039H22.0807V12.3021L19.3777 24.9039H16.7305L14.0461 12.3021V24.9039H11.4922H11.5108Z" fill="white"/>
<path d="M29.276 16.8498L26.9085 16.3465C27.1695 15.228 27.6356 14.3891 28.2694 13.8485C28.9218 13.3079 29.8726 13.0469 31.1589 13.0469C32.3147 13.0469 33.1908 13.2147 33.7501 13.5316C34.3093 13.8485 34.7195 14.2772 34.9432 14.7619C35.1669 15.2653 35.2973 16.1787 35.2973 17.5023V21.0815C35.2787 22.1068 35.2973 22.8525 35.3906 23.3372C35.4651 23.8218 35.6329 24.3438 35.8566 24.9031H33.284C33.2095 24.698 33.1349 24.3997 33.0417 23.9896C33.0044 23.8032 32.9671 23.6913 32.9485 23.6354C32.5011 24.1388 32.035 24.5302 31.5131 24.7912C31.0097 25.0522 30.4691 25.1827 29.8912 25.1827C28.8846 25.1827 28.083 24.8658 27.5051 24.2133C26.9272 23.5609 26.6289 22.7406 26.6289 21.7526C26.6289 21.1001 26.7594 20.5036 27.0204 20.0003C27.2814 19.4783 27.6542 19.0868 28.1389 18.8258C28.6236 18.5462 29.3133 18.3225 30.2081 18.1174C31.4199 17.8565 32.2587 17.5955 32.7434 17.3718V17.0735C32.7434 16.477 32.6129 16.0668 32.3706 15.8059C32.1282 15.5635 31.6622 15.433 30.9724 15.433C30.5064 15.433 30.1522 15.5449 29.8912 15.7499C29.6302 15.9736 29.4252 16.3465 29.2574 16.8871L29.276 16.8498ZM32.7434 19.3478C32.4079 19.4783 31.8859 19.6274 31.1589 19.8139C30.4318 20.0003 29.9658 20.168 29.7421 20.3545C29.4065 20.6341 29.2388 21.0069 29.2388 21.4357C29.2388 21.8645 29.3693 22.2373 29.6489 22.5542C29.9285 22.8711 30.2641 23.0202 30.6928 23.0202C31.1589 23.0202 31.6063 22.8338 32.035 22.4796C32.3519 22.2 32.557 21.8645 32.6502 21.4543C32.7248 21.1933 32.7621 20.69 32.7621 19.963V19.3478H32.7434Z" fill="white"/>
<path d="M36.6211 24.9029L40.163 18.9189L36.7702 13.2891H39.9393L41.673 16.4768L43.4999 13.2891H46.5572L43.2203 18.7884L46.8554 24.9029H43.6677L41.673 21.305L39.6597 24.9029H36.6211Z" fill="white"/>
<path d="M48.4219 24.904V21.8281H51.0317V24.904H48.4219Z" fill="white"/>
</g>
<defs>
<clipPath id="clip0_364_24422">
<rect width="70" height="70" fill="white" transform="translate(0.921875)"/>
</clipPath>
</defs>
</svg>
