<svg width="37" height="37" viewBox="0 0 37 37" fill="none" xmlns="http://www.w3.org/2000/svg">
<g clip-path="url(#clip0_402_5091)">
<g clip-path="url(#clip1_402_5091)">
<path d="M25.3289 10.282L27.6882 7.92269C25.5434 6.06384 22.7551 4.91994 19.7285 4.80078V8.13717C21.8495 8.25633 23.7798 9.04276 25.3289 10.3058V10.282Z" fill="#D4191A"/>
<path d="M28.8327 16.6936H32.1691C31.9308 13.7385 30.6916 11.0694 28.7851 8.99609L26.4258 11.3554C27.7127 12.8091 28.5944 14.668 28.8089 16.6936H28.8327Z" fill="#D4191A"/>
<path d="M19.2287 27.464C13.8905 27.464 9.55319 23.1267 9.55319 17.7885C9.55319 12.7839 13.3424 8.6849 18.1801 8.16061V4.82422C11.4835 5.37234 6.2168 10.9727 6.2168 17.7885C6.2168 24.9617 12.0316 30.8004 19.2287 30.8004C26.4258 30.8004 31.9785 25.2239 32.2168 18.2651H28.8804C28.6421 23.3888 24.4001 27.4878 19.2049 27.4878L19.2287 27.464Z" fill="#D4191A"/>
<path d="M19.6814 17.3617L18.2754 15.9556L21.6356 13.9776L25.0197 12.0234L23.0417 15.3837L21.0875 18.7439L19.6814 17.3617Z" fill="#D4191A"/>
<path d="M19.2995 19.767C20.4314 19.767 21.349 18.8494 21.349 17.7175C21.349 16.5856 20.4314 15.668 19.2995 15.668C18.1676 15.668 17.25 16.5856 17.25 17.7175C17.25 18.8494 18.1676 19.767 19.2995 19.767Z" fill="#D4191A"/>
</g>
</g>
<defs>
<clipPath id="clip0_402_5091">
<rect width="36.0028" height="36.0028" fill="white" transform="translate(0.466797 0.226562)"/>
</clipPath>
<clipPath id="clip1_402_5091">
<rect width="26" height="26" fill="white" transform="translate(6.2168 4.80078)"/>
</clipPath>
</defs>
</svg>
