<svg width="37" height="37" viewBox="0 0 37 37" fill="none" xmlns="http://www.w3.org/2000/svg">
<g clip-path="url(#clip0_410_4167)">
<path d="M8.23785 32.1988V27.8497H23.4015V32.1988H8.23785ZM23.4015 4.66415V6.63091H8.23785V4.66415H23.4015ZM24.0205 23.3068C23.6829 23.3068 23.4015 23.5838 23.4015 23.9162V26.6309H8.23785V7.87745H23.4015V10.7029C23.4015 11.0353 23.6829 11.3123 24.0205 11.3123C24.3581 11.3123 24.6394 11.0353 24.6394 10.7029V4.05473C24.6394 3.72232 24.3581 3.44531 24.0205 3.44531H7.61893C7.28133 3.44531 7 3.72232 7 4.05473V32.8082C7 33.1406 7.28133 33.4176 7.61893 33.4176H24.0205C24.3581 33.4176 24.6394 33.1406 24.6394 32.8082V23.9162C24.6394 23.5838 24.3581 23.3068 24.0205 23.3068Z" fill="#D4191A"/>
<path d="M16.763 30.0118C16.763 30.5104 16.341 30.9259 15.8346 30.9259C15.3282 30.9259 14.9062 30.5104 14.9062 30.0118C14.9062 29.5132 15.3282 29.0977 15.8346 29.0977C16.341 29.0977 16.763 29.5132 16.763 30.0118Z" fill="#D4191A"/>
<path d="M16.904 20.344C16.7352 21.2858 15.8068 21.923 14.8503 21.7845C13.8938 21.6182 13.2467 20.7041 13.4155 19.7623C13.5843 18.8205 14.5127 18.1556 15.4692 18.3219C16.4257 18.4881 17.0728 19.4022 16.904 20.344ZM18.9014 18.682C18.7889 18.3773 18.4232 18.211 18.1137 18.3219L17.7199 18.4604C17.7199 18.4604 17.6073 18.2941 17.5229 18.1833L17.8043 17.8509C18.0293 17.6016 18.0012 17.2138 17.7199 16.9922C17.4667 16.7706 17.0728 16.7983 16.8477 17.0753L16.5664 17.4077C16.5664 17.4077 16.3695 17.3246 16.2569 17.2692L16.3413 16.8537C16.3976 16.5213 16.1725 16.2166 15.8349 16.1335C15.4973 16.0781 15.1879 16.2997 15.1035 16.6321L15.0191 17.0476C15.0191 17.0476 14.794 17.0476 14.6815 17.0753L14.5408 16.6875C14.4283 16.3828 14.0626 16.2166 13.7531 16.3274C13.4436 16.4382 13.2748 16.7983 13.3874 17.103L13.528 17.4908C13.528 17.4908 13.3592 17.6016 13.2467 17.6847L12.9091 17.4077C12.6559 17.1861 12.2621 17.2138 12.037 17.4908C11.8119 17.7401 11.8401 18.1279 12.1214 18.3496L12.459 18.6266C12.459 18.6266 12.3746 18.8205 12.3183 18.9313L11.8963 18.8482C11.5587 18.7928 11.2493 19.0144 11.1649 19.3468C11.1086 19.6792 11.3337 19.9839 11.6713 20.067L12.0933 20.1501C12.0933 20.1501 12.0933 20.3717 12.1214 20.4825L11.7275 20.621C11.4181 20.7318 11.2493 21.0919 11.3618 21.3966C11.4743 21.7014 11.8401 21.8676 12.1495 21.7568L12.5434 21.6182C12.5434 21.6182 12.6559 21.7845 12.7403 21.8953L12.459 22.2277C12.2339 22.477 12.2621 22.8648 12.5434 23.0864C12.7966 23.308 13.1904 23.2803 13.4155 23.0033L13.6968 22.6709C13.6968 22.6709 13.8938 22.754 14.0063 22.8094L13.9219 23.2249C13.8656 23.5573 14.0907 23.862 14.4283 23.9451C14.7659 24.0005 15.0754 23.7789 15.1598 23.4465L15.2442 23.031C15.2442 23.031 15.4692 23.031 15.5817 23.0033L15.7224 23.3911C15.8349 23.6958 16.2007 23.862 16.5101 23.7512C16.8196 23.6404 16.9884 23.2803 16.8759 22.9756L16.7352 22.5878C16.7352 22.5878 16.904 22.477 17.0165 22.3939L17.3541 22.6709C17.6073 22.8925 18.0012 22.8648 18.2262 22.5878C18.4513 22.3385 18.4232 21.9507 18.1418 21.7291L17.8043 21.452C17.8043 21.452 17.8887 21.2581 17.9449 21.1473L18.3669 21.2304C18.7045 21.2858 19.014 21.0642 19.0984 20.7318C19.1546 20.3994 18.9296 20.0947 18.592 20.0116L18.17 19.9285C18.17 19.9285 18.17 19.7069 18.1418 19.5961L18.5357 19.4576C18.8452 19.3468 19.014 18.9867 18.9014 18.682Z" fill="#D4191A"/>
<path d="M26.4974 17.2386C26.4974 18.5683 25.4002 19.6486 24.0499 19.6486C22.6995 19.6486 21.6023 18.5683 21.6023 17.2386C21.6023 15.909 22.6995 14.8287 24.0499 14.8287C25.4002 14.8287 26.4974 15.909 26.4974 17.2386ZM28.3542 16.6292H27.6509C27.6227 16.4076 27.5383 16.186 27.4821 15.9644L28.0729 15.632C28.3823 15.4658 28.4667 15.078 28.2979 14.801C28.1291 14.4962 27.7353 14.4131 27.4539 14.5793L26.8632 14.9118C26.7225 14.7456 26.5537 14.5793 26.3849 14.4408L26.7225 13.8591C26.8913 13.5544 26.7788 13.1943 26.4974 13.0281C26.188 12.8619 25.8222 12.9727 25.6534 13.2497L25.3158 13.8314C25.0908 13.7483 24.8938 13.6929 24.6406 13.6652V12.9727C24.6406 12.6403 24.3593 12.3633 24.0217 12.3633C23.6841 12.3633 23.4028 12.6403 23.4028 12.9727V13.6652C23.1777 13.6929 22.9527 13.776 22.7276 13.8314L22.39 13.2497C22.2212 12.945 21.8273 12.8619 21.546 13.0281C21.2366 13.1943 21.1522 13.5821 21.321 13.8591L21.6585 14.4408C21.4897 14.5793 21.321 14.7456 21.1803 14.9118L20.5895 14.5793C20.28 14.4131 19.9143 14.4962 19.7455 14.801C19.5767 15.1057 19.6892 15.4658 19.9706 15.632L20.5614 15.9644C20.477 16.186 20.4207 16.3799 20.3926 16.6292H19.6892C19.3516 16.6292 19.0703 16.9062 19.0703 17.2386C19.0703 17.571 19.3516 17.848 19.6892 17.848H20.3926C20.4207 18.0697 20.5051 18.2913 20.5614 18.5129L19.9706 18.8453C19.6611 19.0115 19.5767 19.3993 19.7455 19.6763C19.9143 19.981 20.3082 20.0641 20.5895 19.8979L21.1803 19.5655C21.321 19.7317 21.4897 19.8979 21.6585 20.0364L21.321 20.6181C21.1522 20.9228 21.2647 21.2829 21.546 21.4492C21.8555 21.6154 22.2212 21.5046 22.39 21.2275L22.7276 20.6458C22.9527 20.7289 23.1496 20.7843 23.4028 20.812V21.5046C23.4028 21.837 23.6841 22.114 24.0217 22.114C24.3593 22.114 24.6406 21.837 24.6406 21.5046V20.812C24.8657 20.7843 25.0908 20.7289 25.3158 20.6458L25.6534 21.2275C25.8222 21.5323 26.2161 21.6154 26.4974 21.4492C26.8069 21.2829 26.8913 20.8951 26.7225 20.6181L26.3849 20.0364C26.5537 19.8979 26.7225 19.7317 26.8632 19.5655L27.4539 19.8979C27.7634 20.0641 28.1291 19.981 28.2979 19.6763C28.4667 19.3716 28.3542 19.0115 28.0729 18.8453L27.4821 18.5129C27.5665 18.2913 27.6227 18.0974 27.6509 17.848H28.3542C28.6918 17.848 28.9731 17.571 28.9731 17.2386C28.9731 16.9062 28.6918 16.6292 28.3542 16.6292Z" fill="#D4191A"/>
</g>
<defs>
<clipPath id="clip0_410_4167">
<rect width="22" height="30" fill="white" transform="translate(7 3.44531)"/>
</clipPath>
</defs>
</svg>
