<svg width="37" height="36" viewBox="0 0 37 36" fill="none" xmlns="http://www.w3.org/2000/svg">
<g clip-path="url(#clip0_566_4010)">
<path d="M3.08984 12.4208C3.47273 10.9404 4.9532 8.64307 6.66341 8.66859C8.83308 8.69412 9.57331 11.7572 10.0328 13.3908C10.6709 15.7392 11.0538 18.1641 11.794 20.4869C12.1514 21.61 12.5343 22.7076 12.9427 23.8052C13.2235 24.5454 13.5553 25.3878 14.1679 25.9493C14.8826 26.613 15.9292 26.8683 16.8481 26.4088C17.8946 25.8728 18.1243 24.5965 18.737 23.6776C19.2475 22.8863 19.9877 22.2226 20.9577 22.146C21.7234 22.095 22.4382 22.2992 22.9487 21.5845C23.2805 21.125 23.6123 20.4869 23.8676 19.9764C25.0673 17.6791 25.782 15.2031 26.9306 12.8803C27.5177 11.7317 28.1048 10.5575 28.8706 9.51094C29.33 8.8728 29.9682 8.23466 30.785 8.15808C33.1078 7.95388 34.0012 10.098 34.818 11.8338C34.8691 11.9614 34.9201 12.0635 34.8946 12.1401C34.8435 12.2932 34.6904 12.3953 34.5117 12.4974C34.333 12.625 34.0522 12.8292 33.9246 12.7271C33.848 12.6761 33.7715 12.5229 33.7204 12.3953C33.0312 11.0425 32.776 9.76619 31.4231 9.51094C30.0192 9.23015 29.2024 11.3488 28.6408 12.3698C27.3646 14.7181 26.4457 17.7557 25.2715 20.1551C24.5057 21.7376 23.7144 23.6776 21.5703 23.4734C20.7535 23.3968 20.294 23.6521 19.809 24.3412C19.5538 24.7241 19.3751 25.1581 19.1709 25.5665C18.788 26.3067 18.3541 26.9959 17.6138 27.4298C16.2865 28.2466 14.7295 27.9914 13.5553 27.098C12.3045 26.1535 11.8451 24.5454 11.3346 23.116C10.5178 20.8187 9.98172 18.547 9.44569 16.1731C9.06281 14.5139 8.70545 12.6761 7.91416 11.1701C7.68443 10.7106 7.30155 9.94487 6.68894 9.97039C6.22948 9.97039 5.87212 10.4043 5.59134 10.7106C5.02978 11.2722 4.5448 12.0124 4.36612 12.8037L4.28954 12.8548L3.16642 12.574L3.11537 12.4719L3.08984 12.4208Z" fill="#C61724"/>
<path d="M15.8729 28.0216C15.0561 28.0216 14.2138 27.7408 13.4735 27.1793C12.3249 26.2859 11.8144 24.8309 11.3549 23.5546L11.2018 23.1462C10.4105 20.9255 9.87444 18.6793 9.31288 16.1778L9.2363 15.846C8.87894 14.2634 8.52159 12.6042 7.78135 11.2258C7.55162 10.7919 7.19426 10.1027 6.68375 10.1027C6.32639 10.1027 6.02009 10.4346 5.73931 10.7153L5.66273 10.7919C5.2288 11.2258 4.69276 11.915 4.46303 12.8084V12.8595L4.28436 12.9871L3.03361 12.6553L2.95703 12.4511V12.4C3.36544 10.8174 4.89697 8.54567 6.6327 8.54567H6.65823C8.82789 8.57119 9.61918 11.43 10.0786 13.1403L10.1297 13.37C10.4105 14.391 10.6402 15.4375 10.8699 16.4586C11.1762 17.7859 11.4825 19.1387 11.8909 20.4661C12.1973 21.4871 12.5801 22.5592 13.0396 23.7589C13.3204 24.5246 13.6522 25.3159 14.2138 25.8519C14.9285 26.5156 15.924 26.6943 16.7408 26.2859C17.4045 25.954 17.7363 25.2393 18.0681 24.5501C18.2213 24.2183 18.3744 23.8865 18.5531 23.6057C18.987 22.942 19.7528 22.1252 20.8504 22.0231C21.0291 22.0231 21.2077 22.0231 21.3864 22.0231H21.5141C22.0246 22.0231 22.4074 21.9976 22.7393 21.5126C23.0456 21.0787 23.3264 20.5426 23.5816 20.0577L23.6582 19.93C24.2963 18.7303 24.7813 17.4541 25.2663 16.2288C25.7002 15.1057 26.1597 13.9571 26.7212 12.8339C27.2828 11.6853 27.9209 10.4856 28.6612 9.43906C29.2993 8.54567 29.963 8.08621 30.6777 8.03516C30.7798 8.03516 30.8819 8.03516 30.984 8.03516C33.0771 8.03516 33.996 10.0006 34.7618 11.6087L34.8384 11.7874C34.8384 11.7874 34.966 12.0682 34.9149 12.1958C34.8384 12.3745 34.6852 12.5021 34.481 12.6297L34.4044 12.6808C34.2002 12.8084 33.945 12.9871 33.7408 12.8339C33.6642 12.7829 33.5876 12.6553 33.511 12.4766C33.3579 12.1958 33.2558 11.915 33.1281 11.6598C32.6687 10.6388 32.3113 9.84747 31.3158 9.66879C30.2182 9.46458 29.4525 10.9195 28.9164 11.9916C28.8399 12.1703 28.7378 12.3234 28.6612 12.4766C27.972 13.7529 27.3594 15.2844 26.7978 16.7393C26.3384 17.939 25.8534 19.1643 25.3173 20.2363L25.1642 20.5426C24.424 22.0742 23.5816 23.8354 21.4885 23.6057C20.7483 23.5291 20.3144 23.7589 19.8549 24.4225C19.6762 24.7033 19.5231 25.0096 19.3699 25.3159C19.3189 25.418 19.2678 25.5201 19.2168 25.6477C18.8849 26.3114 18.4255 27.0772 17.6087 27.5621C17.0471 27.894 16.4345 28.0727 15.7963 28.0727L15.8729 28.0216ZM6.68375 9.82194C7.34741 9.82194 7.75582 10.5877 7.98555 11.0727C8.72579 12.5021 9.1342 14.2378 9.46603 15.7694L9.5426 16.1267C10.1042 18.6027 10.6402 20.8234 11.4315 23.0441L11.5846 23.4525C12.0441 24.7543 12.5291 26.1327 13.6267 26.9495C14.8519 27.894 16.3579 28.0216 17.5576 27.2814C18.2978 26.8219 18.7318 26.1072 19.0636 25.4691C19.1147 25.367 19.1657 25.2649 19.2168 25.1628C19.3699 24.8564 19.5231 24.5246 19.7273 24.2438C20.2378 23.5036 20.7738 23.2228 21.5906 23.2994C21.6927 23.2994 21.7948 23.2994 21.8969 23.2994C23.5816 23.2994 24.2963 21.8189 25.011 20.364L25.1642 20.0577C25.7002 18.9856 26.1852 17.7604 26.6447 16.5607C27.2318 15.0802 27.8188 13.5742 28.5336 12.2724C28.6101 12.1448 28.6867 11.9661 28.7888 11.7874C29.2993 10.7919 30.0396 9.31143 31.1882 9.31143C31.2648 9.31143 31.3669 9.31143 31.469 9.33696C32.5921 9.54116 33.0005 10.4601 33.46 11.4811C33.5876 11.7364 33.6897 12.0171 33.8429 12.2979C33.945 12.5021 33.996 12.5787 34.0215 12.5787C34.0726 12.5787 34.1747 12.5532 34.3789 12.4L34.481 12.349C34.6086 12.2469 34.7618 12.1703 34.7873 12.0427C34.7873 12.0427 34.7873 11.9916 34.7362 11.8385L34.6341 11.6342C33.8939 10.0261 33.026 8.21383 31.0861 8.21383C30.984 8.21383 30.9074 8.21383 30.8053 8.21383C30.1672 8.26489 29.5546 8.69882 28.9675 9.51563C28.2273 10.5622 27.5891 11.7619 27.0276 12.885C26.466 13.9826 26.0321 15.1312 25.5726 16.2544C25.0876 17.4796 24.5771 18.7559 23.939 19.9811L23.8624 20.1087C23.6071 20.5937 23.3008 21.1808 22.9945 21.6147C22.5606 22.2273 21.999 22.2273 21.412 22.2273C21.2588 22.2273 21.0801 22.2273 20.9014 22.2273C19.9059 22.3039 19.1912 23.0697 18.7828 23.7078C18.6041 23.9886 18.451 24.2949 18.2978 24.6267C17.966 25.3414 17.6087 26.1072 16.8429 26.4901C15.9495 26.9495 14.8264 26.7709 14.0351 26.0051C13.4225 25.4435 13.0906 24.6267 12.7843 23.8354C12.3249 22.6357 11.942 21.5381 11.6357 20.5171C11.2273 19.1898 10.921 17.8369 10.6147 16.5096C10.3849 15.4886 10.1552 14.4421 9.87444 13.4466L9.82338 13.2168C9.36393 11.5832 8.62369 8.85197 6.6327 8.80092H6.60717C5.10117 8.80092 3.62069 10.8685 3.21229 12.4L4.20778 12.6553C4.41198 11.915 4.84592 11.2003 5.45853 10.5622L5.5351 10.4856C5.81588 10.1793 6.19877 9.82194 6.65823 9.79641L6.68375 9.82194Z" fill="#C61724"/>
<path d="M25.1128 18.5489H12.5287L12.2734 17.4258H25.1128V18.5489Z" fill="#C61724"/>
<path d="M25.2412 18.6753H12.4529L12.1211 17.2969H25.2412V18.6753ZM12.6316 18.42H24.9604V17.5521H12.4274L12.6316 18.42Z" fill="#C61724"/>
<path d="M35.0153 18.5489H26.9492L27.3832 17.4258H35.0153V18.5489Z" fill="#C61724"/>
<path d="M35.1479 18.6753H26.75L27.286 17.2969H35.1479V18.6753ZM27.1329 18.42H34.8926V17.5521H27.4647L27.1329 18.42Z" fill="#C61724"/>
<path d="M10.7228 17.4258H2.9375V18.5489H10.7228V17.4258Z" fill="#C61724"/>
<path d="M10.8491 18.6753H2.80859V17.2969H10.8491V18.6753ZM3.06385 18.42H10.5939V17.5521H3.06385V18.42Z" fill="#C61724"/>
</g>
<defs>
<clipPath id="clip0_566_4010">
<rect width="32.3408" height="20.0375" fill="white" transform="translate(2.80859 7.98438)"/>
</clipPath>
</defs>
</svg>
