<svg width="37" height="37" viewBox="0 0 37 37" fill="none" xmlns="http://www.w3.org/2000/svg">
<g clip-path="url(#clip0_403_7308)">
<path d="M28.3867 31.3438H28.4155" stroke="#D4191A" stroke-width="0.31" stroke-miterlimit="10"/>
<path d="M29.1914 31.3438H29.2201" stroke="#D4191A" stroke-width="0.31" stroke-miterlimit="10"/>
<path d="M28.4141 31.3438V31.4008" stroke="#D4191A" stroke-width="0.31" stroke-miterlimit="10"/>
<path d="M29.0469 31.5433H29.0756H29.1043L29.1331 31.5148H29.1618V31.4863H29.1906V31.4578V31.4293V31.4008V31.3438" stroke="#D4191A" stroke-width="0.31" stroke-miterlimit="10"/>
<path d="M28.4141 31.4023V31.4309V31.4594L28.4428 31.4879V31.5164H28.4715L28.5003 31.5449H28.529H28.5577" stroke="#D4191A" stroke-width="0.31" stroke-miterlimit="10"/>
<path d="M28.4414 31.0312V31.0598" stroke="#D4191A" stroke-width="0.31" stroke-miterlimit="10"/>
<path d="M29.1602 31.0598V31.0312" stroke="#D4191A" stroke-width="0.31" stroke-miterlimit="10"/>
<path d="M29.5625 30.8293V30.8008" stroke="#D4191A" stroke-width="0.31" stroke-miterlimit="10"/>
<path d="M28.0391 30.8008V30.8293" stroke="#D4191A" stroke-width="0.31" stroke-miterlimit="10"/>
<path d="M29.418 30.9465V30.918" stroke="#D4191A" stroke-width="0.31" stroke-miterlimit="10"/>
<path d="M29.3633 30.9453H29.392H29.4208" stroke="#D4191A" stroke-width="0.31" stroke-miterlimit="10"/>
<path d="M29.418 30.9465L29.4467 30.918H29.4754" stroke="#D4191A" stroke-width="0.31" stroke-miterlimit="10"/>
<path d="M28.125 30.918H28.1537L28.1825 30.9465" stroke="#D4191A" stroke-width="0.31" stroke-miterlimit="10"/>
<path d="M28.1836 30.9453H28.2123H28.2411" stroke="#D4191A" stroke-width="0.31" stroke-miterlimit="10"/>
<path d="M28.1836 30.918V30.9465" stroke="#D4191A" stroke-width="0.31" stroke-miterlimit="10"/>
<path d="M29.3633 30.9453H29.392H29.4208" stroke="#D4191A" stroke-width="0.31" stroke-miterlimit="10"/>
<path d="M29.418 30.9465L29.4467 30.918H29.4754" stroke="#D4191A" stroke-width="0.31" stroke-miterlimit="10"/>
<path d="M28.125 30.918H28.1537L28.1825 30.9465" stroke="#D4191A" stroke-width="0.31" stroke-miterlimit="10"/>
<path d="M29.5625 30.8293V30.8008" stroke="#D4191A" stroke-width="0.31" stroke-miterlimit="10"/>
<path d="M26.7773 30.6602V30.6887H26.8061V30.7172H26.8348" stroke="#D4191A" stroke-width="0.31" stroke-miterlimit="10"/>
<path d="M27.2344 30.7156L27.2631 30.6871V30.6586V30.6016" stroke="#D4191A" stroke-width="0.31" stroke-miterlimit="10"/>
<path d="M26.7773 30.6016V30.6586" stroke="#D4191A" stroke-width="0.31" stroke-miterlimit="10"/>
<path d="M29.5343 19.1992H22.293" stroke="#D4191A" stroke-width="0.31" stroke-miterlimit="10"/>
<path d="M21.2891 20.1992V29.6071" stroke="#D4191A" stroke-width="0.21" stroke-miterlimit="10"/>
<path d="M22.293 30.6016H29.5343" stroke="#D4191A" stroke-width="0.31" stroke-miterlimit="10"/>
<path d="M30.5703 29.6071V20.1992" stroke="#D4191A" stroke-width="0.31" stroke-miterlimit="10"/>
<path d="M28.7578 30.9453V31.0308H28.844V30.9453" stroke="#D4191A" stroke-width="0.31" stroke-miterlimit="10"/>
<path d="M28.7578 31.0586H28.844V31.3152H28.7578V31.0586Z" stroke="#D4191A" stroke-width="0.31" stroke-miterlimit="10"/>
<path d="M28.7603 31.3164H28.7315L28.6741 31.3449H28.6453H28.6166H28.5879H28.5591H28.5304L28.4729 31.3164H28.4442H28.3867V31.3449" stroke="#D4191A" stroke-width="0.31" stroke-miterlimit="10"/>
<path d="M29.2173 31.3449V31.3164H29.1598H29.1311L29.1024 31.3449H29.0736H29.0449H29.0162H28.9874H28.9587H28.93L28.8725 31.3164H28.8438" stroke="#D4191A" stroke-width="0.31" stroke-miterlimit="10"/>
<path d="M28.8438 31.0586H29.1598V31.3152" stroke="#D4191A" stroke-width="0.31" stroke-miterlimit="10"/>
<path d="M28.4414 31.3152V31.0586H28.7575" stroke="#D4191A" stroke-width="0.31" stroke-miterlimit="10"/>
<path d="M29.1598 30.9453V31.0308H28.8438" stroke="#D4191A" stroke-width="0.31" stroke-miterlimit="10"/>
<path d="M28.7575 31.0308H28.4414V30.9453" stroke="#D4191A" stroke-width="0.31" stroke-miterlimit="10"/>
<path d="M29.1899 31.3438H29.1612H29.1325H29.1037H29.075H29.0462H29.0175H28.9888H28.96H28.9026H28.8738H28.8164H28.7302H28.7014H28.6439H28.6152H28.5865H28.5577H28.529H28.5003H28.4715H28.4428H28.4141" stroke="#D4191A" stroke-width="0.31" stroke-miterlimit="10"/>
<path d="M29.0471 31.543H29.0184H28.9896H28.9609H28.9322H28.9034H28.8459H28.8172H28.7597H28.7023H28.6735H28.6448H28.6161H28.5873H28.5586" stroke="#D4191A" stroke-width="0.31" stroke-miterlimit="10"/>
<path d="M29.2176 31.3152V31.0586H29.1602" stroke="#D4191A" stroke-width="0.31" stroke-miterlimit="10"/>
<path d="M28.4442 31.0586H28.3867V31.3152" stroke="#D4191A" stroke-width="0.31" stroke-miterlimit="10"/>
<path d="M29.1602 31.0308H29.2176V30.9453" stroke="#D4191A" stroke-width="0.31" stroke-miterlimit="10"/>
<path d="M28.3867 30.9453V31.0308H28.4442" stroke="#D4191A" stroke-width="0.31" stroke-miterlimit="10"/>
<path d="M28.125 30.918H28.1537H28.2112" stroke="#D4191A" stroke-width="0.31" stroke-miterlimit="10"/>
<path d="M28.0391 30.832L28.1253 30.889V30.9176" stroke="#D4191A" stroke-width="0.31" stroke-miterlimit="10"/>
<path d="M28.0703 30.832H28.099H28.1278H28.1565H28.1853L28.2427 30.889L28.214 30.9176" stroke="#D4191A" stroke-width="0.31" stroke-miterlimit="10"/>
<path d="M29.5357 30.832H29.507H29.4782H29.4495H29.4208L29.3633 30.889L29.4208 30.9176H29.4495" stroke="#D4191A" stroke-width="0.31" stroke-miterlimit="10"/>
<path d="M29.5628 30.832L29.4766 30.889V30.9176" stroke="#D4191A" stroke-width="0.31" stroke-miterlimit="10"/>
<path d="M29.4492 30.918H29.478" stroke="#D4191A" stroke-width="0.31" stroke-miterlimit="10"/>
<path d="M29.5039 30.7726H29.5614H29.5901V30.6016" stroke="#D4191A" stroke-width="0.31" stroke-miterlimit="10"/>
<path d="M28.0117 30.6016L28.0405 30.7726H28.0979" stroke="#D4191A" stroke-width="0.31" stroke-miterlimit="10"/>
<path d="M29.5057 30.7734H29.477H29.4482H29.4195H28.1839H28.1551H28.1264H28.0977" stroke="#D4191A" stroke-width="0.31" stroke-miterlimit="10"/>
<path d="M28.0965 30.7734V30.8019H28.0678V30.8305V30.8019L28.0391 30.7734" stroke="#D4191A" stroke-width="0.31" stroke-miterlimit="10"/>
<path d="M29.5039 30.7734L29.5326 30.8019V30.8305V30.8019H29.5614V30.7734" stroke="#D4191A" stroke-width="0.31" stroke-miterlimit="10"/>
<path d="M28.1836 30.8305V30.8019V30.7734" stroke="#D4191A" stroke-width="0.31" stroke-miterlimit="10"/>
<path d="M28.1836 30.8305H29.4192V30.8019V30.7734" stroke="#D4191A" stroke-width="0.31" stroke-miterlimit="10"/>
<path d="M28.0391 30.7734V30.8019L28.0678 30.8305" stroke="#D4191A" stroke-width="0.31" stroke-miterlimit="10"/>
<path d="M29.5926 30.7734H29.5639V30.8019L29.5352 30.8305" stroke="#D4191A" stroke-width="0.31" stroke-miterlimit="10"/>
<path d="M28.2422 30.8867H29.3629" stroke="#D4191A" stroke-width="0.31" stroke-miterlimit="10"/>
<path d="M29.5625 30.7734H29.5912" stroke="#D4191A" stroke-width="0.31" stroke-miterlimit="10"/>
<path d="M29.5625 30.8019V30.7734" stroke="#D4191A" stroke-width="0.31" stroke-miterlimit="10"/>
<path d="M28.0391 30.8019V30.7734" stroke="#D4191A" stroke-width="0.31" stroke-miterlimit="10"/>
<path d="M28.2422 30.9453H29.3629" stroke="#D4191A" stroke-width="0.31" stroke-miterlimit="10"/>
<path d="M26.832 30.7188H26.8608H26.8895H26.9182H26.947H26.9757H27.0332H27.0619H27.0907H27.1481H27.1769H27.2056H27.2343" stroke="#D4191A" stroke-width="0.31" stroke-miterlimit="10"/>
<path d="M29.5352 19.1992H29.5926H29.6501H29.6788H29.7363L29.7938 19.2277H29.8225H29.88L29.9087 19.2562L29.9662 19.2847H29.9949L30.0524 19.3133L30.0811 19.3418L30.1386 19.3703L30.1673 19.3988L30.1961 19.4273L30.2248 19.4558L30.2823 19.4843L30.311 19.5128L30.3398 19.5698L30.3685 19.5983L30.3972 19.6269L30.426 19.6839V19.7124L30.4547 19.7694L30.4834 19.7979V19.8549L30.5122 19.8834V19.9404L30.5409 19.969V20.026V20.083V20.1115" stroke="#D4191A" stroke-width="0.31" stroke-miterlimit="10"/>
<path d="M30.5696 29.6055L30.5409 29.6625V29.7195V29.748V29.805L30.5122 29.862V29.8906L30.4834 29.9476V30.0046L30.4547 30.0331L30.426 30.0901V30.1186L30.3972 30.1756L30.3685 30.2042L30.3398 30.2327L30.2823 30.2897L30.2535 30.3182L30.2248 30.3467L30.1961 30.3752L30.1386 30.4037L30.1099 30.4322L30.0524 30.4607L30.0237 30.4892L29.9662 30.5178L29.9375 30.5463H29.88L29.8512 30.5748H29.7938L29.7363 30.6033H29.7076H29.6501H29.5926H29.5352" stroke="#D4191A" stroke-width="0.31" stroke-miterlimit="10"/>
<path d="M21.2891 29.6914V29.7199L21.3178 29.7769V29.8054V29.8625L21.3465 29.9195V29.948L21.3753 30.005L21.404 30.0335V30.0905L21.4327 30.119L21.4615 30.1761L21.4902 30.2046L21.5189 30.2331L21.5477 30.2616L21.5764 30.3186L21.6052 30.3471L21.6626 30.3756L21.6914 30.4041L21.7201 30.4326L21.7488 30.4611L21.8063 30.4897H21.835L21.8925 30.5182L21.9212 30.5467H21.9787L22.0075 30.5752H22.0649L22.1224 30.6037H22.1511H22.2086H22.2661H22.2948" stroke="#D4191A" stroke-width="0.31" stroke-miterlimit="10"/>
<path d="M21.2891 20.197V20.14V20.083L21.3178 20.026V19.9975V19.9404L21.3465 19.8834V19.8549L21.3753 19.7979L21.404 19.7694V19.7124L21.4327 19.6839L21.4615 19.6269L21.4902 19.5983L21.5189 19.5413L21.5477 19.5128L21.5764 19.4843L21.6339 19.4558L21.6626 19.4273L21.6914 19.3703L21.7488 19.3418H21.7776L21.835 19.3133L21.8638 19.2847L21.9212 19.2562H21.95L22.0075 19.2277H22.0649L22.0937 19.1992H22.1511H22.2086H22.2661H22.2948" stroke="#D4191A" stroke-width="0.31" stroke-miterlimit="10"/>
<path d="M25.0508 27.3527V27.3242H25.0795H25.0508V27.3527Z" stroke="#D4191A" stroke-width="0.31" stroke-miterlimit="10"/>
<path d="M25.9124 26.4961H25.6826H25.4527H25.2228L24.9642 26.5246H24.7343H24.5044L24.2745 26.5531H24.0446L24.0159 26.5816H23.9872H23.9584V26.6101H23.9297V26.6386V26.6671V26.6957V28.1496" stroke="#D4191A" stroke-width="0.31" stroke-miterlimit="10"/>
<path d="M25.2812 27.3242H25.9134" stroke="#D4191A" stroke-width="0.31" stroke-miterlimit="10"/>
<path d="M25.9128 27.9514H25.0795H25.0508V27.9229V27.5808V27.3527V27.3242H25.0795H25.2807" stroke="#D4191A" stroke-width="0.31" stroke-miterlimit="10"/>
<path d="M23.9297 28.1523V28.1809V28.2094L23.9584 28.2379V28.2664H23.9872H24.0159H24.0446L24.2745 28.2949H24.5044L24.7343 28.3234H24.9642L25.2228 28.3519H25.4527H25.6826H25.9124" stroke="#D4191A" stroke-width="0.31" stroke-miterlimit="10"/>
<path d="M27.8106 28.2656L27.5807 28.2941H27.3508L27.0922 28.3226H26.8623L26.6325 28.3512H26.4026H26.1727H25.9141" stroke="#D4191A" stroke-width="0.31" stroke-miterlimit="10"/>
<path d="M25.9141 27.9514H26.7761L26.8049 27.9229V27.5808V27.3527V27.3242H26.7761H26.5462" stroke="#D4191A" stroke-width="0.31" stroke-miterlimit="10"/>
<path d="M26.5462 27.3242H25.9141" stroke="#D4191A" stroke-width="0.31" stroke-miterlimit="10"/>
<path d="M25.9141 26.4961H26.1727H26.4026H26.6325L26.8623 26.5246H27.0922H27.3508L27.5807 26.5531H27.8106L27.8394 26.5816H27.8681L27.8968 26.6101V26.6386H27.9256V26.6671V26.6957V28.1496V28.1781V28.2066H27.8968V28.2351L27.8681 28.2636H27.8394H27.8106" stroke="#D4191A" stroke-width="0.31" stroke-miterlimit="10"/>
<path d="M24.0469 26.5531H24.2768L24.5066 26.5246H24.7365L24.9664 26.4961H25.225H25.4549H25.6848H25.9147" stroke="#D4191A" stroke-width="0.31" stroke-miterlimit="10"/>
<path d="M25.9141 26.4961H26.1727H26.4026H26.6325H26.8623L27.0922 26.5246H27.3508L27.5807 26.5531H27.8106" stroke="#D4191A" stroke-width="0.31" stroke-miterlimit="10"/>
<path d="M26.8037 27.9219H26.7749V27.9504H25.9128H25.0795H25.0508V27.9219" stroke="#D4191A" stroke-width="0.31" stroke-miterlimit="10"/>
<path d="M27.9235 26.6972V26.6687V26.6402L27.8948 26.6117V26.5832H27.8661H27.8373L27.8086 26.5547" stroke="#D4191A" stroke-width="0.31" stroke-miterlimit="10"/>
<path d="M24.0446 26.5547L24.0159 26.5832H23.9872H23.9584V26.6117H23.9297V26.6402V26.6687V26.6972" stroke="#D4191A" stroke-width="0.31" stroke-miterlimit="10"/>
<path d="M27.9258 26.6992V28.1532" stroke="#D4191A" stroke-width="0.31" stroke-miterlimit="10"/>
<path d="M23.9297 28.1532V26.6992" stroke="#D4191A" stroke-width="0.31" stroke-miterlimit="10"/>
<path d="M27.8106 28.2656L27.5807 28.2941L27.3508 28.3226H27.0922H26.8623L26.6325 28.3512H26.4026H26.1727H25.9141" stroke="#D4191A" stroke-width="0.31" stroke-miterlimit="10"/>
<path d="M24.0469 28.2656L24.2768 28.2941L24.5066 28.3226H24.7365H24.9664L25.225 28.3512H25.4549H25.6848H25.9147" stroke="#D4191A" stroke-width="0.31" stroke-miterlimit="10"/>
<path d="M27.8086 28.2664H27.8373H27.8661L27.8948 28.2379V28.2094H27.9235V28.1809V28.1523" stroke="#D4191A" stroke-width="0.31" stroke-miterlimit="10"/>
<path d="M23.9297 28.1523V28.1809V28.2094L23.9584 28.2379V28.2664H23.9872H24.0159H24.0446" stroke="#D4191A" stroke-width="0.31" stroke-miterlimit="10"/>
<path d="M26.688 28.3516H26.5443H26.4006H26.257H26.1133" stroke="#D4191A" stroke-width="0.31" stroke-miterlimit="10"/>
<path d="M25.9147 28.3512H25.6848H25.4549H25.225L24.9664 28.3226H24.7365H24.5066L24.2768 28.2941L24.0469 28.2656" stroke="#D4191A" stroke-width="0.31" stroke-miterlimit="10"/>
<path d="M26.8061 27.3527V27.3242H26.7773H26.8061V27.3527Z" stroke="#D4191A" stroke-width="0.31" stroke-miterlimit="10"/>
<path d="M27.8106 26.5531H27.5807L27.3508 26.5246H27.0922L26.8623 26.4961H26.6325H26.4026H26.1727H25.9141" stroke="#D4191A" stroke-width="0.31" stroke-miterlimit="10"/>
<path d="M30.5118 24.9023V27.2686V29.6063V29.6633V29.7203V29.7488V29.8059L30.483 29.8629V29.8914L30.4543 29.9484V29.9769L30.4256 30.0339L30.3968 30.0624V30.1194L30.3681 30.148L30.3394 30.1765L30.3106 30.2335L30.2819 30.262L30.2244 30.2905L30.1957 30.319L30.1669 30.3475L30.1382 30.376L30.0807 30.4045L30.052 30.433L29.9945 30.4616L29.9658 30.4901L29.9083 30.5186H29.8796L29.8221 30.5471H29.7934H29.7359L29.6784 30.5756H29.6497H29.5922H29.5348H25.9141" stroke="#D4191A" stroke-width="0.31" stroke-miterlimit="10"/>
<path d="M25.9141 28.3507H26.1727H26.4026H26.6325H26.8623L27.0922 28.3222H27.3508L27.5807 28.2937H27.8106L27.8394 28.2652H27.8681L27.8968 28.2367L27.9256 28.2082V28.1797V28.1512V26.6972V26.6687V26.6402L27.8968 26.6117V26.5832H27.8681H27.8394V26.5547H27.8106" stroke="#D4191A" stroke-width="0.31" stroke-miterlimit="10"/>
<path d="M25.9124 28.3527H25.6826H25.4527H25.2228H24.9642L24.7343 28.3242H24.5044L24.2745 28.2957H24.0446L24.0159 28.2672H23.9872H23.9584V28.2387H23.9297V28.2102V28.1817V28.1532V26.6992" stroke="#D4191A" stroke-width="0.31" stroke-miterlimit="10"/>
<path d="M21.3164 24.9023V27.2686V29.6063V29.6633V29.7203L21.3451 29.7488V29.8059V29.8629L21.3739 29.8914V29.9484L21.4026 29.9769L21.4313 30.0339V30.0624L21.4601 30.1194L21.4888 30.148L21.5176 30.1765L21.5463 30.2335L21.575 30.262L21.6038 30.2905L21.6325 30.319L21.69 30.3475L21.7187 30.376L21.7474 30.4045L21.8049 30.433L21.8336 30.4616L21.8911 30.4901L21.9199 30.5186H21.9773L22.0061 30.5471H22.0635H22.121L22.1497 30.5756H22.2072H22.2647H22.2934H25.9141" stroke="#D4191A" stroke-width="0.31" stroke-miterlimit="10"/>
<path d="M23.9297 26.6957V26.6671V26.6386V26.6101H23.9584V26.5816H23.9872L24.0159 26.5531H24.0446H24.2745L24.5044 26.5246H24.7343L24.9642 26.4961H25.2228H25.4527H25.6826H25.9124" stroke="#D4191A" stroke-width="0.31" stroke-miterlimit="10"/>
<path d="M30.5118 24.8998V22.5336V20.1959V20.1388V20.0818V20.0533V19.9963L30.483 19.9393V19.9108L30.4543 19.8538V19.8252L30.4256 19.7682L30.3968 19.7397V19.6827L30.3681 19.6542L30.3394 19.5972L30.3106 19.5687L30.2819 19.5402L30.2244 19.5116L30.1957 19.4546L30.1669 19.4261L30.1382 19.3976L30.0807 19.3691H30.052L29.9945 19.3406L29.9658 19.3121L29.9083 19.2836H29.8796L29.8221 19.2551H29.7934L29.7359 19.2266H29.6784H29.6497H29.5922H29.5348H25.9141" stroke="#D4191A" stroke-width="0.31" stroke-miterlimit="10"/>
<path d="M21.3164 24.8998V22.5336V20.1959V20.1388V20.0818L21.3451 20.0533V19.9963V19.9393L21.3739 19.9108V19.8538L21.4026 19.8252L21.4313 19.7682V19.7397L21.4601 19.6827L21.4888 19.6542L21.5176 19.5972L21.5463 19.5687L21.575 19.5402L21.6038 19.5116L21.6325 19.4546L21.69 19.4261L21.7187 19.3976L21.7474 19.3691H21.8049L21.8336 19.3406L21.8911 19.3121L21.9199 19.2836H21.9773L22.0061 19.2551H22.0635L22.121 19.2266H22.1497H22.2072H22.2647H22.2934H25.9141" stroke="#D4191A" stroke-width="0.31" stroke-miterlimit="10"/>
<path d="M24.0469 26.5531H24.2768L24.5066 26.5246H24.7365L24.9664 26.4961H25.225H25.4549H25.6848H25.9147" stroke="#D4191A" stroke-width="0.31" stroke-miterlimit="10"/>
<path d="M25.9141 26.4961H26.1727H26.4026H26.6325H26.8623L27.0922 26.5246H27.3508L27.5807 26.5531H27.8106" stroke="#D4191A" stroke-width="0.31" stroke-miterlimit="10"/>
<path d="M27.9235 26.6972V26.6687V26.6402L27.8948 26.6117V26.5832H27.8661H27.8373V26.5547H27.8086" stroke="#D4191A" stroke-width="0.31" stroke-miterlimit="10"/>
<path d="M24.0446 26.5547H24.0159L23.9872 26.5832H23.9584V26.6117H23.9297V26.6402V26.6687V26.6972" stroke="#D4191A" stroke-width="0.31" stroke-miterlimit="10"/>
<path d="M27.9258 26.6992V28.1532" stroke="#D4191A" stroke-width="0.31" stroke-miterlimit="10"/>
<path d="M23.9297 26.6992V28.1532" stroke="#D4191A" stroke-width="0.31" stroke-miterlimit="10"/>
<path d="M23.9297 28.1532V26.6992" stroke="#D4191A" stroke-width="0.31" stroke-miterlimit="10"/>
<path d="M25.9141 28.35H26.1727H26.4026H26.6325L26.8623 28.3215H27.0922H27.3508L27.5807 28.293H27.8106" stroke="#D4191A" stroke-width="0.31" stroke-miterlimit="10"/>
<path d="M25.9147 28.35H25.6848H25.4549H25.225L24.9664 28.3215H24.7365H24.5066L24.2768 28.293H24.0469" stroke="#D4191A" stroke-width="0.31" stroke-miterlimit="10"/>
<path d="M27.8086 28.2949L27.8373 28.2664H27.8661L27.8948 28.2379V28.2094H27.9235V28.1809V28.1523" stroke="#D4191A" stroke-width="0.31" stroke-miterlimit="10"/>
<path d="M23.9297 28.1523V28.1809V28.2094L23.9584 28.2379V28.2664H23.9872H24.0159L24.0446 28.2949" stroke="#D4191A" stroke-width="0.31" stroke-miterlimit="10"/>
<path d="M27.8086 28.2941V28.2656" stroke="#D4191A" stroke-width="0.31" stroke-miterlimit="10"/>
<path d="M30.5405 24.9032V20.1992H30.5117" stroke="#D4191A" stroke-width="0.31" stroke-miterlimit="10"/>
<path d="M21.2891 29.6071V24.9032V20.1992H21.3178" stroke="#D4191A" stroke-width="0.21" stroke-miterlimit="10"/>
<path d="M30.5117 29.6063H30.5405V24.9023" stroke="#D4191A" stroke-width="0.31" stroke-miterlimit="10"/>
<path d="M22.293 19.2277V19.1992H25.9137" stroke="#D4191A" stroke-width="0.31" stroke-miterlimit="10"/>
<path d="M25.9141 30.6027H29.5348V30.5742" stroke="#D4191A" stroke-width="0.31" stroke-miterlimit="10"/>
<path d="M25.9141 19.1992H29.5348V19.2277" stroke="#D4191A" stroke-width="0.31" stroke-miterlimit="10"/>
<path d="M25.9137 30.6027H22.293V30.5742" stroke="#D4191A" stroke-width="0.31" stroke-miterlimit="10"/>
<path d="M22.2948 19.1992H22.2661H22.2086H22.1511H22.0937L22.0649 19.2277H22.0075L21.95 19.2562H21.9212L21.8638 19.2847L21.835 19.3133L21.7776 19.3418L21.7488 19.3703L21.6914 19.3988L21.6626 19.4273L21.6339 19.4558L21.6052 19.4843L21.5477 19.5128L21.5189 19.5413L21.4902 19.5983L21.4615 19.6269L21.4327 19.6839L21.404 19.7124V19.7694L21.3753 19.7979L21.3465 19.8549V19.8834L21.3178 19.9404V19.9975V20.026V20.083L21.2891 20.14V20.197" stroke="#D4191A" stroke-width="0.31" stroke-miterlimit="10"/>
<path d="M29.5352 30.6033H29.5926H29.6501H29.7076L29.7363 30.5748H29.7938H29.8512L29.88 30.5463L29.9375 30.5178H29.9662L30.0237 30.4892L30.0524 30.4607L30.1099 30.4322L30.1386 30.4037L30.1961 30.3752L30.2248 30.3467L30.2535 30.3182L30.2823 30.2897L30.311 30.2327L30.3398 30.2042L30.3685 30.1756L30.3972 30.1186L30.426 30.0901L30.4547 30.0331L30.4834 30.0046V29.9476L30.5122 29.8906V29.862L30.5409 29.805V29.748V29.7195V29.6625V29.6055" stroke="#D4191A" stroke-width="0.31" stroke-miterlimit="10"/>
<path d="M29.5352 19.1992H29.5926H29.6501H29.7076H29.7363L29.7938 19.2277H29.8512L29.88 19.2562H29.9375L29.9662 19.2847L30.0237 19.3133L30.0524 19.3418L30.1099 19.3703L30.1386 19.3988L30.1961 19.4273L30.2248 19.4558L30.2535 19.4843L30.2823 19.5128L30.311 19.5413L30.3398 19.5983L30.3685 19.6269L30.3972 19.6839L30.426 19.7124L30.4547 19.7694L30.4834 19.7979V19.8549L30.5122 19.8834V19.9404L30.5409 19.9975V20.026V20.083V20.14V20.197" stroke="#D4191A" stroke-width="0.31" stroke-miterlimit="10"/>
<path d="M22.2948 30.6033H22.2661H22.2086H22.1511L22.0937 30.5748H22.0649H22.0075L21.95 30.5463L21.9212 30.5178H21.8638L21.835 30.4892L21.7776 30.4607L21.7488 30.4322L21.6914 30.4037L21.6626 30.3752L21.6339 30.3467L21.6052 30.3182L21.5477 30.2897L21.5189 30.2327L21.4902 30.2042L21.4615 30.1756L21.4327 30.1186L21.404 30.0901V30.0331L21.3753 30.0046L21.3465 29.9476V29.8906L21.3178 29.862V29.805V29.748V29.7195L21.2891 29.6625V29.6055" stroke="#D4191A" stroke-width="0.31" stroke-miterlimit="10"/>
<path d="M29.5352 19.1992H29.5926H29.6501H29.7076H29.7363L29.7938 19.2277H29.8512L29.88 19.2562H29.9375L29.9662 19.2847L30.0237 19.3133L30.0524 19.3418H30.1099L30.1386 19.3703L30.1961 19.4273L30.2248 19.4558L30.2535 19.4843L30.2823 19.5128L30.3398 19.5413L30.3685 19.5983L30.3972 19.6269L30.426 19.6839V19.7124L30.4547 19.7694L30.4834 19.7979V19.8549L30.5122 19.8834V19.9404L30.5409 19.9975V20.026V20.083V20.14L30.5696 20.197H30.5409" stroke="#D4191A" stroke-width="0.31" stroke-miterlimit="10"/>
<path d="M21.2891 20.1992V29.6071V29.6641V29.7211L21.3178 29.7497V29.8067V29.8637L21.3465 29.8922V29.9492L21.3753 30.0062L21.404 30.0347V30.0918L21.4327 30.1203L21.4615 30.1773L21.4902 30.2058L21.5189 30.2343L21.5477 30.2913L21.5764 30.3198L21.6339 30.3483L21.6626 30.3769L21.6914 30.4054L21.7488 30.4339L21.7776 30.4624L21.835 30.4909L21.8638 30.5194L21.9212 30.5479H21.95L22.0075 30.5764H22.0649L22.0937 30.6049H22.1511H22.2086H22.2373H22.2948" stroke="#D4191A" stroke-width="0.31" stroke-miterlimit="10"/>
<path d="M30.5391 29.6071H30.5678V20.1992" stroke="#D4191A" stroke-width="0.31" stroke-miterlimit="10"/>
<path d="M22.293 19.1992H29.5343" stroke="#D4191A" stroke-width="0.31" stroke-miterlimit="10"/>
<path d="M22.293 30.6016H29.5343" stroke="#D4191A" stroke-width="0.31" stroke-miterlimit="10"/>
<path d="M22.2948 19.1992H22.2373H22.2086H22.1511H22.0937L22.0649 19.2277H22.0075L21.95 19.2562H21.9212L21.8638 19.2847L21.835 19.3133L21.7776 19.3418H21.7488L21.6914 19.3703L21.6626 19.4273L21.6339 19.4558L21.5764 19.4843L21.5477 19.5128L21.5189 19.5413L21.4902 19.5983L21.4615 19.6269L21.4327 19.6839L21.404 19.7124V19.7694L21.3753 19.7979L21.3465 19.8549V19.8834L21.3178 19.9404V19.9975V20.026L21.2891 20.083V20.14V20.197" stroke="#D4191A" stroke-width="0.31" stroke-miterlimit="10"/>
<path d="M29.5352 30.6033H29.5926H29.6501H29.7076H29.7363L29.7938 30.5748H29.8512L29.88 30.5463H29.9375L29.9662 30.5178L30.0237 30.4892L30.0524 30.4607L30.1099 30.4322L30.1386 30.4037L30.1961 30.3752L30.2248 30.3467L30.2535 30.3182L30.2823 30.2897L30.3398 30.2327L30.3685 30.2042L30.3972 30.1756L30.426 30.1186V30.0901L30.4547 30.0331L30.4834 30.0046V29.9476L30.5122 29.8906V29.862L30.5409 29.805V29.748V29.7195V29.6625L30.5696 29.6055" stroke="#D4191A" stroke-width="0.31" stroke-miterlimit="10"/>
<path d="M29.1899 31.4023H28.4141" stroke="#D4191A" stroke-width="0.31" stroke-miterlimit="10"/>
<path d="M28.0391 30.832H28.0678" stroke="#D4191A" stroke-width="0.31" stroke-miterlimit="10"/>
<path d="M29.5352 30.832H29.5639" stroke="#D4191A" stroke-width="0.31" stroke-miterlimit="10"/>
<path d="M29.5039 30.6016V30.7726" stroke="#D4191A" stroke-width="0.31" stroke-miterlimit="10"/>
<path d="M28.0977 30.7726V30.6016" stroke="#D4191A" stroke-width="0.31" stroke-miterlimit="10"/>
<path d="M29.3633 30.8867V30.9152V30.9437" stroke="#D4191A" stroke-width="0.31" stroke-miterlimit="10"/>
<path d="M28.2422 30.9437V30.9152V30.8867" stroke="#D4191A" stroke-width="0.31" stroke-miterlimit="10"/>
<path d="M26.7773 30.6602H27.2658" stroke="#D4191A" stroke-width="0.31" stroke-miterlimit="10"/>
<path d="M19.3325 8.31106H28.8153V16.3505C28.8153 16.6641 29.0739 16.9207 29.39 16.9207C29.7061 16.9207 29.9647 16.6641 29.9647 16.3505V7.19922H19.3325C19.0164 7.19922 18.7578 7.4558 18.7578 7.76939C18.7578 8.08299 19.0164 8.33957 19.3325 8.33957V8.31106Z" fill="#D4191A"/>
<path d="M17.6673 29.4065H8.18458V21.367C8.18458 21.0535 7.92596 20.7969 7.60987 20.7969C7.29378 20.7969 7.03516 21.0535 7.03516 21.367V30.5469H17.6673C17.9834 30.5469 18.2421 30.2903 18.2421 29.9767C18.2421 29.6631 17.9834 29.4065 17.6673 29.4065Z" fill="#D4191A"/>
<path d="M16.1437 6H7.6954C6.74713 6 6 6.82675 6 7.82456V13.2412C6 14.239 6.77586 15.0658 7.6954 15.0658H10.9713V16.3487H8.52874C8.35632 16.3487 8.21264 16.5768 8.21264 16.8333V17.0044C8.21264 17.261 8.35632 17.489 8.52874 17.489H14.477C14.6494 17.489 14.7931 17.261 14.7931 17.0044V16.8333C14.7931 16.5768 14.6494 16.3487 14.477 16.3487H12.1207V15.0658H16.1437C17.092 15.0658 17.8391 14.239 17.8391 13.2412V7.82456C17.8391 6.82675 17.0632 6 16.1437 6ZM16.7184 13.2412C16.7184 13.6118 16.4598 13.9254 16.1437 13.9254H7.6954C7.37931 13.9254 7.12069 13.6118 7.12069 13.2412V7.82456C7.12069 7.45395 7.37931 7.14035 7.6954 7.14035H16.1437C16.4598 7.14035 16.7184 7.45395 16.7184 7.82456V13.2412Z" fill="#D4191A"/>
</g>
<defs>
<clipPath id="clip0_403_7308">
<rect width="25" height="26" fill="white" transform="translate(6 6)"/>
</clipPath>
</defs>
</svg>
