<svg width="71" height="71" viewBox="0 0 71 71" fill="none" xmlns="http://www.w3.org/2000/svg">
<g clip-path="url(#clip0_561_3885)">
<path fill-rule="evenodd" clip-rule="evenodd" d="M5.67067 0H65.591C68.4141 0 70.7324 2.31829 70.7324 5.14137V65.0618C70.7324 67.8848 68.4141 70.2031 65.591 70.2031H5.67067C2.84759 70.2031 0.529297 67.8848 0.529297 65.0618V5.14137C0.529297 2.31829 2.84759 0 5.67067 0Z" fill="#C61724"/>
<path d="M9.44643 26.0016V8.98828H13.8026L16.42 20.5984L19 8.98828H23.3749V26.0016H20.664V12.6153L17.8035 26.0016H14.9991L12.1386 12.6153V26.0016H9.42773H9.44643Z" fill="white"/>
<path d="M28.3091 17.4437L25.8039 16.9015C26.0843 15.705 26.5704 14.8263 27.2622 14.2467C27.9539 13.6672 28.9822 13.3867 30.3283 13.3867C31.5622 13.3867 32.4783 13.555 33.0766 13.9102C33.6749 14.2467 34.1049 14.6954 34.3479 15.2189C34.591 15.7424 34.7218 16.7146 34.7218 18.1355L34.6844 21.9494C34.6844 23.0338 34.7218 23.8377 34.8153 24.3425C34.9088 24.866 35.077 25.4082 35.3201 25.9878H32.5905C32.5157 25.7821 32.4222 25.4456 32.3287 25.0343C32.2914 24.8473 32.254 24.7164 32.2353 24.6417C31.7679 25.1838 31.2631 25.5951 30.7209 25.8569C30.1787 26.1373 29.6178 26.2682 29.0009 26.2682C27.9165 26.2682 27.0752 25.9317 26.4582 25.2399C25.8413 24.5482 25.5234 23.6695 25.5234 22.6225C25.5234 21.9307 25.673 21.2951 25.9534 20.7529C26.2339 20.2107 26.6265 19.7994 27.1313 19.5003C27.6361 19.2198 28.3652 18.9581 29.3374 18.7337C30.6274 18.4533 31.5248 18.1916 32.0296 17.9298V17.612C32.0296 16.995 31.8987 16.5463 31.637 16.2659C31.3753 16.0041 30.8892 15.8546 30.16 15.8546C29.6739 15.8546 29.2813 15.9668 29.0009 16.1911C28.7204 16.4155 28.4961 16.8268 28.3278 17.3876L28.3091 17.4437ZM32.0109 20.0799C31.6557 20.2107 31.0948 20.379 30.3283 20.5846C29.5618 20.7716 29.057 20.9773 28.8326 21.1455C28.4774 21.4447 28.2904 21.8373 28.2904 22.3047C28.2904 22.7721 28.44 23.146 28.7204 23.4825C29.0009 23.819 29.3748 23.9873 29.8235 23.9873C30.3283 23.9873 30.7957 23.8003 31.2444 23.4077C31.5809 23.1086 31.8053 22.7534 31.8987 22.3234C31.9735 22.0429 32.0109 21.5194 32.0109 20.7342V20.0799Z" fill="white"/>
<path d="M36.125 26.0081L39.9016 19.6702L36.2933 13.6875H39.6585L41.5094 17.0715L43.4538 13.6875H46.7069L43.1734 19.5206L47.0434 26.0081H43.6408L41.5094 22.1941L39.3594 26.0081H36.125Z" fill="white"/>
<path d="M48.6523 26.0062V22.7344H51.4193V26.0062H48.6523Z" fill="white"/>
<path d="M16.0666 57.7344H13.114V46.6071C12.0352 47.6158 10.7639 48.3619 9.29984 48.8452V46.1658C10.0704 45.9136 10.9075 45.4373 11.8111 44.7368C12.7147 44.0293 13.3346 43.2063 13.6709 42.2676H16.0666V57.7344ZM23.0224 49.4231C22.2589 49.1009 21.702 48.6596 21.3517 48.0992C21.0085 47.5318 20.8369 46.9118 20.8369 46.2394C20.8369 45.0906 21.2362 44.1414 22.0347 43.3919C22.8403 42.6424 23.9821 42.2676 25.4601 42.2676C26.9241 42.2676 28.0589 42.6424 28.8645 43.3919C29.677 44.1414 30.0833 45.0906 30.0833 46.2394C30.0833 46.9539 29.8977 47.5913 29.5264 48.1517C29.1552 48.7051 28.6333 49.1289 27.9608 49.4231C28.8154 49.7663 29.4634 50.2672 29.9047 50.9256C30.353 51.5841 30.5772 52.3441 30.5772 53.2057C30.5772 54.6277 30.1218 55.7835 29.2112 56.6731C28.3076 57.5628 27.1027 58.0076 25.5967 58.0076C24.1957 58.0076 23.0294 57.6398 22.0977 56.9043C20.998 56.0357 20.4481 54.8449 20.4481 53.3318C20.4481 52.4982 20.6547 51.7347 21.068 51.0412C21.4813 50.3407 22.1328 49.8014 23.0224 49.4231ZM23.6318 46.4495C23.6318 47.0379 23.7964 47.4967 24.1257 47.826C24.4619 48.1552 24.9067 48.3198 25.4601 48.3198C26.0205 48.3198 26.4688 48.1552 26.805 47.826C27.1413 47.4897 27.3094 47.0274 27.3094 46.439C27.3094 45.8856 27.1413 45.4443 26.805 45.1151C26.4758 44.7789 26.038 44.6107 25.4916 44.6107C24.9242 44.6107 24.4724 44.7789 24.1362 45.1151C23.7999 45.4513 23.6318 45.8961 23.6318 46.4495ZM23.3586 53.0481C23.3586 53.8607 23.5653 54.4946 23.9786 54.9499C24.3989 55.4053 24.9207 55.6329 25.5441 55.6329C26.1536 55.6329 26.6579 55.4158 27.0572 54.9815C27.4565 54.5402 27.6561 53.9062 27.6561 53.0796C27.6561 52.3581 27.453 51.7802 27.0467 51.3459C26.6404 50.9046 26.1256 50.684 25.5021 50.684C24.7806 50.684 24.2412 50.9326 23.884 51.43C23.5337 51.9273 23.3586 52.4667 23.3586 53.0481ZM33.0989 57.7344V54.7818H36.0515V57.7344H33.0989ZM38.4997 53.7731L41.4417 53.4684C41.5258 54.1339 41.7744 54.6627 42.1877 55.055C42.601 55.4403 43.0774 55.6329 43.6167 55.6329C44.2332 55.6329 44.755 55.3842 45.1823 54.8869C45.6096 54.3825 45.8233 53.626 45.8233 52.6173C45.8233 51.6717 45.6096 50.9642 45.1823 50.4948C44.762 50.0185 44.2121 49.7803 43.5327 49.7803C42.6851 49.7803 41.9251 50.1551 41.2526 50.9046L38.8569 50.5579L40.37 42.5408H48.1769V45.3042H42.608L42.1457 47.9205C42.8042 47.5913 43.4766 47.4267 44.1631 47.4267C45.473 47.4267 46.5833 47.903 47.4939 48.8557C48.4046 49.8084 48.8599 51.0447 48.8599 52.5648C48.8599 53.8327 48.4921 54.9639 47.7566 55.9586C46.7549 57.3176 45.3644 57.9971 43.5852 57.9971C42.1632 57.9971 41.0039 57.6153 40.1073 56.8518C39.2107 56.0882 38.6748 55.062 38.4997 53.7731ZM65.6361 57.7344H62.1087L60.7065 54.0865H54.2871L52.9616 57.7344H49.5218L55.7769 41.6749H59.2057L65.6361 57.7344ZM59.6658 51.3807L57.453 45.4214L55.284 51.3807H59.6658Z" fill="#F3F3F3"/>
</g>
<defs>
<clipPath id="clip0_561_3885">
<rect width="70.2031" height="70.2031" fill="white" transform="translate(0.529297)"/>
</clipPath>
</defs>
</svg>
