<svg width="71" height="70" viewBox="0 0 71 70" fill="none" xmlns="http://www.w3.org/2000/svg">
<g clip-path="url(#clip0_563_3935)">
<path fill-rule="evenodd" clip-rule="evenodd" d="M5.47415 0H65.2212C68.0361 0 70.3477 2.28301 70.3477 5.06312V64.0715C70.3477 66.8517 68.0361 69.1347 65.2212 69.1347H5.47415C2.65924 69.1347 0.347656 66.8517 0.347656 64.0715V5.06312C0.347656 2.28301 2.65924 0 5.47415 0Z" fill="#C61724"/>
<path d="M9.2413 25.6098V8.85547H13.5848L16.1947 20.2889L18.7673 8.85547H23.1294V25.6098H20.4264V12.4273L17.5742 25.6098H14.7779L11.9257 12.4273V25.6098H9.22266H9.2413Z" fill="white"/>
<path d="M28.0511 17.1789L25.5531 16.6449C25.8327 15.4666 26.3174 14.6013 27.0071 14.0305C27.6969 13.4598 28.7222 13.1836 30.0644 13.1836C31.2947 13.1836 32.2082 13.3493 32.8047 13.6991C33.4013 14.0305 33.83 14.4724 34.0724 14.9879C34.3147 15.5034 34.4452 16.4608 34.4452 17.8601L34.4079 21.616C34.4079 22.6839 34.4452 23.4755 34.5384 23.9727C34.6316 24.4882 34.7994 25.0221 35.0417 25.5929H32.32C32.2455 25.3903 32.1523 25.0589 32.0591 24.6539C32.0218 24.4698 31.9845 24.3409 31.9658 24.2672C31.4998 24.8012 30.9965 25.2062 30.4559 25.464C29.9152 25.7401 29.356 25.869 28.7408 25.869C27.6596 25.869 26.8207 25.5376 26.2055 24.8564C25.5903 24.1752 25.2734 23.3098 25.2734 22.2788C25.2734 21.5976 25.4226 20.9716 25.7022 20.4377C25.9818 19.9037 26.3733 19.4987 26.8766 19.2041C27.38 18.9279 28.107 18.6702 29.0764 18.4492C30.3627 18.1731 31.2575 17.9153 31.7608 17.6576V17.3446C31.7608 16.737 31.6303 16.2951 31.3693 16.0189C31.1083 15.7612 30.6236 15.6139 29.8966 15.6139C29.4119 15.6139 29.0204 15.7244 28.7408 15.9453C28.4612 16.1662 28.2375 16.5713 28.0697 17.1236L28.0511 17.1789ZM31.7421 19.7749C31.388 19.9037 30.8287 20.0694 30.0644 20.272C29.3001 20.4561 28.7967 20.6586 28.573 20.8243C28.2188 21.1189 28.0324 21.5055 28.0324 21.9658C28.0324 22.4261 28.1816 22.7943 28.4612 23.1257C28.7408 23.4571 29.1137 23.6228 29.5611 23.6228C30.0644 23.6228 30.5304 23.4387 30.9778 23.0521C31.3134 22.7575 31.5371 22.4077 31.6303 21.9842C31.7049 21.7081 31.7421 21.1925 31.7421 20.4193V19.7749Z" fill="white"/>
<path d="M35.8438 25.6096L39.6094 19.3682L36.0115 13.4766H39.3671L41.2126 16.809L43.1513 13.4766H46.395L42.8717 19.2209L46.7306 25.6096H43.3378L41.2126 21.8537L39.0688 25.6096H35.8438Z" fill="white"/>
<path d="M48.332 25.6104V22.3867H51.091V25.6104H48.332Z" fill="white"/>
<path d="M23.7148 58.0547V62.1328H8.32422C8.49089 60.5911 8.99089 59.1328 9.82422 57.7578C10.6576 56.3724 12.3034 54.5391 14.7617 52.2578C16.7409 50.4141 17.9544 49.1641 18.4023 48.5078C19.0065 47.6016 19.3086 46.7057 19.3086 45.8203C19.3086 44.8411 19.043 44.0911 18.5117 43.5703C17.9909 43.0391 17.2669 42.7734 16.3398 42.7734C15.4232 42.7734 14.694 43.0495 14.1523 43.6016C13.6107 44.1536 13.2982 45.0703 13.2148 46.3516L8.83984 45.9141C9.10026 43.4974 9.91797 41.763 11.293 40.7109C12.668 39.6589 14.3867 39.1328 16.4492 39.1328C18.7096 39.1328 20.4857 39.7422 21.7773 40.9609C23.069 42.1797 23.7148 43.6953 23.7148 45.5078C23.7148 46.5391 23.5273 47.5234 23.1523 48.4609C22.7878 49.388 22.2044 50.362 21.4023 51.3828C20.8711 52.0599 19.9128 53.0339 18.5273 54.3047C17.1419 55.5755 16.2617 56.4193 15.8867 56.8359C15.5221 57.2526 15.2253 57.6589 14.9961 58.0547H23.7148ZM34.1211 39.1328C36.3398 39.1328 38.0742 39.9245 39.3242 41.5078C40.8138 43.3828 41.5586 46.4922 41.5586 50.8359C41.5586 55.1693 40.8086 58.2839 39.3086 60.1797C38.069 61.7422 36.3398 62.5234 34.1211 62.5234C31.8919 62.5234 30.0951 61.6693 28.7305 59.9609C27.3659 58.2422 26.6836 55.1849 26.6836 50.7891C26.6836 46.4766 27.4336 43.3724 28.9336 41.4766C30.1732 39.9141 31.9023 39.1328 34.1211 39.1328ZM34.1211 42.7734C33.5898 42.7734 33.1159 42.9453 32.6992 43.2891C32.2826 43.6224 31.9596 44.2266 31.7305 45.1016C31.4284 46.237 31.2773 48.1484 31.2773 50.8359C31.2773 53.5234 31.4128 55.3724 31.6836 56.3828C31.9544 57.3828 32.293 58.0495 32.6992 58.3828C33.1159 58.7161 33.5898 58.8828 34.1211 58.8828C34.6523 58.8828 35.1263 58.7161 35.543 58.3828C35.9596 58.0391 36.2826 57.4297 36.5117 56.5547C36.8138 55.4297 36.9648 53.5234 36.9648 50.8359C36.9648 48.1484 36.8294 46.3047 36.5586 45.3047C36.2878 44.2943 35.944 43.6224 35.5273 43.2891C35.1211 42.9453 34.6523 42.7734 34.1211 42.7734ZM66.1367 62.1328H61.1055L59.1055 56.9297H49.9492L48.0586 62.1328H43.1523L52.0742 39.2266H56.9648L66.1367 62.1328ZM57.6211 53.0703L54.4648 44.5703L51.3711 53.0703H57.6211Z" fill="white"/>
</g>
<defs>
<clipPath id="clip0_563_3935">
<rect width="70" height="70" fill="white" transform="translate(0.347656)"/>
</clipPath>
</defs>
</svg>
