<svg width="37" height="37" viewBox="0 0 37 37" fill="none" xmlns="http://www.w3.org/2000/svg">
<g clip-path="url(#clip0_383_4210)">
<path d="M13.7688 17.9065H7.95143C7.59311 17.9065 7.34019 17.5065 7.4245 17.1065L9.11068 10.3065C9.17391 10.0398 9.38468 9.83984 9.63761 9.83984H15.4339C15.7922 9.83984 16.0451 10.2398 15.9608 10.6398L14.2957 17.4621C14.2325 17.7287 14.0217 17.9287 13.7688 17.9287V17.9065Z" fill="#C61E1F"/>
<path d="M21.777 17.9065H15.9807C15.6224 17.9065 15.3695 17.5065 15.4538 17.1065L17.1189 10.3065C17.1821 10.0398 17.3929 9.83984 17.6458 9.83984H23.4421C23.8004 9.83984 24.0533 10.2398 23.969 10.6398L22.3039 17.4621C22.2407 17.7287 22.0299 17.9287 21.777 17.9287V17.9065Z" fill="#C61E1F"/>
<path d="M29.7867 17.9053H23.9905C23.6322 17.9053 23.3792 17.5053 23.4636 17.1053L25.1287 10.2831C25.1919 10.0164 25.4027 9.81641 25.6556 9.81641H31.4518C31.8102 9.81641 32.0631 10.2164 31.9788 10.6164L30.3137 17.4386C30.2504 17.7053 30.0397 17.9053 29.7867 17.9053Z" fill="#C61E1F"/>
<path d="M11.3434 26.8389H5.54713C5.18882 26.8389 4.93589 26.4389 5.0202 26.0389L6.6853 19.2167C6.74854 18.95 6.95931 18.75 7.21224 18.75H13.0085C13.3668 18.75 13.6197 19.15 13.5354 19.55L11.8703 26.3722C11.8071 26.6389 11.5963 26.8389 11.3434 26.8389Z" fill="#C61E1F"/>
<path d="M19.3531 26.8389H13.5569C13.1986 26.8389 12.9457 26.4389 13.03 26.0389L14.6951 19.2167C14.7583 18.95 14.9691 18.75 15.222 18.75H21.0183C21.3766 18.75 21.6295 19.15 21.5452 19.55L19.8801 26.3722C19.8168 26.6389 19.6061 26.8389 19.3531 26.8389Z" fill="#C61E1F"/>
<path d="M27.3844 26.8389H21.5881C21.2298 26.8389 20.9769 26.4389 21.0612 26.0389L22.7263 19.2167C22.7896 18.95 23.0003 18.75 23.2533 18.75H29.0495C29.4078 18.75 29.6607 19.15 29.5764 19.55L27.9113 26.3722C27.8481 26.6389 27.6373 26.8389 27.3844 26.8389Z" fill="#C61E1F"/>
</g>
<defs>
<clipPath id="clip0_383_4210">
<rect width="27" height="17" fill="white" transform="translate(5 9.83984)"/>
</clipPath>
</defs>
</svg>
