<svg width="37" height="37" viewBox="0 0 37 37" fill="none" xmlns="http://www.w3.org/2000/svg">
<g clip-path="url(#clip0_384_4949)">
<path d="M29.0394 18.7467C27.7706 17.3255 26.0172 16.4169 24.1255 16.2305L23.1565 16.1606L23.8025 15.3918C24.0332 14.9958 24.0793 14.5531 24.1255 14.0639V13.994L24.1485 11.175C24.1485 10.7789 24.0563 10.4294 23.8486 10.0567L23.7794 9.87031V9.82371C23.8948 9.59074 23.9178 9.42766 23.9178 9.24128C23.9178 8.72873 23.641 8.23949 23.1335 7.79683C22.6259 7.37748 21.9107 7.02802 20.9879 6.72515C19.2808 6.16601 16.9507 5.83984 14.5975 5.83984C12.2444 5.83984 9.9143 6.16601 8.20711 6.72515C7.28431 7.02802 6.56913 7.40078 6.06159 7.79683C5.53098 8.23949 5.27721 8.70544 5.27721 9.24128C5.27721 9.45095 5.32335 9.66063 5.39256 9.82371V9.87031L5.34642 10.0567C5.13879 10.4527 5.04651 10.7789 5.04651 11.175V14.0173C5.04651 14.4832 5.208 14.9492 5.50791 15.3452L5.55405 15.3918L5.39256 15.6714C5.16186 16.0907 5.04651 16.4635 5.04651 16.8363V19.6786C5.04651 20.0979 5.18493 20.5173 5.48484 21.0298L5.53098 21.0997L5.36949 21.3327C5.13879 21.752 5.02344 22.1248 5.02344 22.4976V25.3398C5.02344 26.5047 5.99238 27.623 7.76878 28.4384C9.56825 29.2771 11.9906 29.7431 14.5745 29.7431C15.6588 29.7431 17.7351 29.5101 17.7581 29.5101H17.8043L17.8504 29.5334C18.5425 30.2556 19.3961 30.8613 20.3189 31.2574C21.2648 31.6768 22.3029 31.8864 23.3411 31.8864C27.586 31.8864 31.0234 28.3918 31.0234 24.0818C31.0465 22.1248 30.3313 20.2377 29.0394 18.7932V18.7467ZM8.78386 7.98321C10.3296 7.49397 12.4289 7.23769 14.6437 7.23769C19.3961 7.23769 22.7182 8.42587 22.7182 9.49755C22.7182 10.0334 21.9107 10.5692 20.5035 11.0119C18.9578 11.5011 16.8584 11.7574 14.6437 11.7574C9.89123 11.7574 6.56913 10.5692 6.56913 9.49755C6.56913 8.96171 7.37659 8.42587 8.78386 7.98321ZM6.38457 11.3846L6.56913 11.5477C7.23817 12.1768 8.39167 12.6893 9.89123 13.0388C11.2985 13.3649 12.9134 13.5513 14.5975 13.5513C16.2816 13.5513 17.8966 13.3882 19.3038 13.0388C20.8034 12.6893 21.9569 12.1768 22.6259 11.5477L22.8105 11.3846V13.9474C22.8105 14.8094 21.9569 15.6947 20.4804 16.347C18.9116 17.0692 16.8123 17.4653 14.5975 17.4653C12.3828 17.4653 10.2834 17.0692 8.71465 16.347C7.23817 15.6714 6.38457 14.7861 6.38457 13.9474V11.3846ZM17.389 19.1427L17.2506 19.3291C16.6277 20.1911 16.1894 21.1696 15.9817 22.218C15.9817 22.2879 15.9587 22.3811 15.9356 22.451C15.8895 22.6606 15.8433 22.8703 15.8433 23.08V23.1732H15.751C15.5895 23.1732 15.4281 23.1732 15.2666 23.1732C15.1051 23.1732 14.9205 23.1732 14.7821 23.1732C12.5443 23.1732 10.4449 22.7771 8.87614 22.0549C7.37659 21.3793 6.54606 20.494 6.54606 19.6553L6.49992 16.6965L6.68448 16.8829C7.42273 17.6051 8.53009 18.2108 9.93737 18.6302C11.3677 19.0495 13.0288 19.2825 14.759 19.2825C15.5895 19.2825 16.397 19.1893 17.1814 19.0961H17.4121L17.389 19.1427ZM17.043 27.9958C16.2586 28.0889 15.4742 28.1355 14.6898 28.1355C12.4289 28.1355 10.3296 27.8094 8.73772 27.2036C7.23817 26.6445 6.38457 25.899 6.38457 25.1535V22.7305L6.54606 22.8703C8.06869 24.1051 11.1832 24.8739 14.6667 24.8739C15.0128 24.8739 15.3358 24.8739 15.6818 24.8273H15.7741V24.9205C15.9125 25.7359 16.1663 26.4814 16.5585 27.1338C16.6738 27.39 16.8353 27.5997 17.066 27.8327L17.2275 27.9958H17.0199H17.043ZM27.8628 28.5316C26.6632 29.7431 25.0714 30.4187 23.3642 30.4187C21.657 30.4187 19.9498 29.6965 18.7271 28.3685C18.4502 28.0889 18.2195 27.7628 18.0119 27.4599C17.3659 26.4115 17.0199 25.2234 17.0199 23.9886V23.942C17.0199 23.5692 17.066 23.1965 17.1122 22.847C17.1583 22.5208 17.2506 22.1947 17.3429 21.8918C18.1042 19.5854 20.1113 17.9079 22.5106 17.5818C22.7874 17.5352 23.0643 17.5352 23.318 17.5352H23.5487C25.1867 17.6051 26.7324 18.304 27.8859 19.5155C29.0394 20.7036 29.6854 22.3112 29.6854 23.9886C29.6854 25.7126 29.0625 27.3201 27.8628 28.5316Z" fill="#C61E1F"/>
</g>
<defs>
<clipPath id="clip0_384_4949">
<rect width="26" height="26" fill="white" transform="translate(5 5.83984)"/>
</clipPath>
</defs>
</svg>
