<svg width="70" height="70" viewBox="0 0 70 70" fill="none" xmlns="http://www.w3.org/2000/svg">
<g clip-path="url(#clip0_363_23155)">
<path fill-rule="evenodd" clip-rule="evenodd" d="M5.1265 0.0078125H64.8735C67.6884 0.0078125 70 2.3194 70 5.13431V64.8813C70 67.6962 67.6884 70.0078 64.8735 70.0078H5.1265C2.31158 70.0078 0 67.6962 0 64.8813V5.13431C0 2.3194 2.31158 0.0078125 5.1265 0.0078125Z" fill="#C61724"/>
<path d="M38.7344 41C38.8281 41.2812 38.8867 41.5039 38.9102 41.668C38.9336 41.832 38.9023 41.957 38.8164 42.043C38.7305 42.1211 38.5781 42.168 38.3594 42.1836C38.1406 42.207 37.8398 42.2188 37.457 42.2188C37.0586 42.2188 36.7461 42.2109 36.5195 42.1953C36.3008 42.1875 36.1328 42.168 36.0156 42.1367C35.8984 42.0977 35.8164 42.0469 35.7695 41.9844C35.7227 41.9219 35.6836 41.8398 35.6523 41.7383L34.6328 38.6914H28.9375L27.9766 41.6562C27.9453 41.7656 27.9023 41.8594 27.8477 41.9375C27.8008 42.0078 27.7188 42.0664 27.6016 42.1133C27.4922 42.1523 27.332 42.1797 27.1211 42.1953C26.918 42.2109 26.6484 42.2188 26.3125 42.2188C25.9531 42.2188 25.6719 42.207 25.4688 42.1836C25.2656 42.1602 25.125 42.1055 25.0469 42.0195C24.9688 41.9258 24.9414 41.7969 24.9648 41.6328C24.9883 41.4688 25.0469 41.25 25.1406 40.9766L29.8164 27.5234C29.8633 27.3906 29.918 27.2852 29.9805 27.207C30.043 27.1211 30.1406 27.0586 30.2734 27.0195C30.4141 26.9727 30.6055 26.9453 30.8477 26.9375C31.0898 26.9219 31.4102 26.9141 31.8086 26.9141C32.2695 26.9141 32.6367 26.9219 32.9102 26.9375C33.1836 26.9453 33.3945 26.9727 33.543 27.0195C33.6992 27.0586 33.8086 27.1211 33.8711 27.207C33.9414 27.293 34 27.4102 34.0469 27.5586L38.7344 41ZM31.7734 29.8789H31.7617L29.6172 36.3242H33.918L31.7734 29.8789ZM43.9609 41.7266C43.9609 41.8047 43.9336 41.875 43.8789 41.9375C43.832 42 43.75 42.0508 43.6328 42.0898C43.5156 42.1289 43.3594 42.1602 43.1641 42.1836C42.9688 42.207 42.7188 42.2188 42.4141 42.2188C42.1172 42.2188 41.8672 42.207 41.6641 42.1836C41.4688 42.1602 41.3125 42.1289 41.1953 42.0898C41.0781 42.0508 40.9922 42 40.9375 41.9375C40.8906 41.875 40.8672 41.8047 40.8672 41.7266V27.4062C40.8672 27.3281 40.8906 27.2578 40.9375 27.1953C40.9922 27.1328 41.0781 27.082 41.1953 27.043C41.3203 27.0039 41.4805 26.9727 41.6758 26.9492C41.8711 26.9258 42.1172 26.9141 42.4141 26.9141C42.7188 26.9141 42.9688 26.9258 43.1641 26.9492C43.3594 26.9727 43.5156 27.0039 43.6328 27.043C43.75 27.082 43.832 27.1328 43.8789 27.1953C43.9336 27.2578 43.9609 27.3281 43.9609 27.4062V41.7266Z" fill="white"/>
<path d="M59.9912 32.1269C61.7209 32.1269 63.123 30.7248 63.123 28.9951C63.123 27.2654 61.7209 25.8633 59.9912 25.8633C58.2615 25.8633 56.8594 27.2654 56.8594 28.9951C56.8594 30.7248 58.2615 32.1269 59.9912 32.1269Z" stroke="white" stroke-width="2" stroke-miterlimit="10"/>
<path d="M56.8577 28.9961H51.9922" stroke="white" stroke-width="2" stroke-miterlimit="10"/>
<path d="M59.9912 44.1504C61.7209 44.1504 63.123 42.7482 63.123 41.0185C63.123 39.2889 61.7209 37.8867 59.9912 37.8867C58.2615 37.8867 56.8594 39.2889 56.8594 41.0185C56.8594 42.7482 58.2615 44.1504 59.9912 44.1504Z" stroke="white" stroke-width="2" stroke-miterlimit="10"/>
<path d="M56.8577 41.0195H51.9922" stroke="white" stroke-width="2" stroke-miterlimit="10"/>
<path d="M9.9912 32.1269C11.7209 32.1269 13.123 30.7248 13.123 28.9951C13.123 27.2654 11.7209 25.8633 9.9912 25.8633C8.26154 25.8633 6.85938 27.2654 6.85938 28.9951C6.85938 30.7248 8.26154 32.1269 9.9912 32.1269Z" stroke="white" stroke-width="2" stroke-miterlimit="10"/>
<path d="M13.1211 28.9961H18.0052" stroke="white" stroke-width="2" stroke-miterlimit="10"/>
<path d="M9.9912 44.1504C11.7209 44.1504 13.123 42.7482 13.123 41.0185C13.123 39.2889 11.7209 37.8867 9.9912 37.8867C8.26154 37.8867 6.85938 39.2889 6.85938 41.0185C6.85938 42.7482 8.26154 44.1504 9.9912 44.1504Z" stroke="white" stroke-width="2" stroke-miterlimit="10"/>
<path d="M13.1211 41.0195H18.0052" stroke="white" stroke-width="2" stroke-miterlimit="10"/>
<path d="M41.0107 63.1308C42.7404 63.1308 44.1426 61.7287 44.1426 59.999C44.1426 58.2694 42.7404 56.8672 41.0107 56.8672C39.2811 56.8672 37.8789 58.2694 37.8789 59.999C37.8789 61.7287 39.2811 63.1308 41.0107 63.1308Z" stroke="white" stroke-width="2" stroke-miterlimit="10"/>
<path d="M41.0117 56.8655V52" stroke="white" stroke-width="2" stroke-miterlimit="10"/>
<path d="M28.9873 63.1308C30.717 63.1308 32.1191 61.7287 32.1191 59.999C32.1191 58.2694 30.717 56.8672 28.9873 56.8672C27.2576 56.8672 25.8555 58.2694 25.8555 59.999C25.8555 61.7287 27.2576 63.1308 28.9873 63.1308Z" stroke="white" stroke-width="2" stroke-miterlimit="10"/>
<path d="M28.9883 56.8655V52" stroke="white" stroke-width="2" stroke-miterlimit="10"/>
<path d="M41.0107 13.1308C42.7404 13.1308 44.1426 11.7287 44.1426 9.99901C44.1426 8.26935 42.7404 6.86719 41.0107 6.86719C39.2811 6.86719 37.8789 8.26935 37.8789 9.99901C37.8789 11.7287 39.2811 13.1308 41.0107 13.1308Z" stroke="white" stroke-width="2" stroke-miterlimit="10"/>
<path d="M41.0117 13.1289V18.0131" stroke="white" stroke-width="2" stroke-miterlimit="10"/>
<path d="M28.9873 13.1308C30.717 13.1308 32.1191 11.7287 32.1191 9.99901C32.1191 8.26935 30.717 6.86719 28.9873 6.86719C27.2576 6.86719 25.8555 8.26935 25.8555 9.99901C25.8555 11.7287 27.2576 13.1308 28.9873 13.1308Z" stroke="white" stroke-width="2" stroke-miterlimit="10"/>
<path d="M28.9883 13.1289V18.0131" stroke="white" stroke-width="2" stroke-miterlimit="10"/>
<path d="M43.9005 20.6641H25.9298C23.0367 20.6641 20.6914 23.0094 20.6914 25.9024V43.8731C20.6914 46.7662 23.0367 49.1115 25.9298 49.1115H43.9005C46.7935 49.1115 49.1388 46.7662 49.1388 43.8731V25.9024C49.1388 23.0094 46.7935 20.6641 43.9005 20.6641Z" stroke="white" stroke-width="2" stroke-miterlimit="10"/>
</g>
<defs>
<clipPath id="clip0_363_23155">
<rect width="70" height="70" fill="white" transform="translate(0 0.0078125)"/>
</clipPath>
</defs>
</svg>
