<svg width="37" height="37" viewBox="0 0 37 37" fill="none" xmlns="http://www.w3.org/2000/svg">
<g clip-path="url(#clip0_403_5422)">
<g clip-path="url(#clip1_403_5422)">
<path d="M24.8855 10.4031L27.2448 8.04378C25.1 6.18494 22.3117 5.04103 19.2852 4.92188V8.25826C21.4061 8.37742 23.3365 9.16386 24.8855 10.4269V10.4031Z" fill="#D4191A"/>
<path d="M28.3894 16.8147H31.7258C31.4875 13.8596 30.2482 11.1905 28.3417 9.11719L25.9824 11.4765C27.2693 12.9302 28.1511 14.789 28.3656 16.8147H28.3894Z" fill="#D4191A"/>
<path d="M18.7854 27.5851C13.4471 27.5851 9.10983 23.2478 9.10983 17.9096C9.10983 12.905 12.899 8.80599 17.7368 8.2817V4.94531C11.0402 5.49343 5.77344 11.0938 5.77344 17.9096C5.77344 25.0828 11.5883 30.9215 18.7854 30.9215C25.9824 30.9215 31.5351 25.3449 31.7734 18.3862H28.437C28.1987 23.5099 23.9568 27.6089 18.7615 27.6089L18.7854 27.5851Z" fill="#D4191A"/>
<path d="M19.2381 17.4828L17.832 16.0767L21.1923 14.0987L24.5763 12.1445L22.5983 15.5048L20.6441 18.865L19.2381 17.4828Z" fill="#D4191A"/>
<path d="M18.8561 19.8881C19.988 19.8881 20.9056 18.9705 20.9056 17.8386C20.9056 16.7067 19.988 15.7891 18.8561 15.7891C17.7242 15.7891 16.8066 16.7067 16.8066 17.8386C16.8066 18.9705 17.7242 19.8881 18.8561 19.8881Z" fill="#D4191A"/>
</g>
</g>
<defs>
<clipPath id="clip0_403_5422">
<rect width="36.0028" height="36.0028" fill="white" transform="translate(0.0234375 0.347656)"/>
</clipPath>
<clipPath id="clip1_403_5422">
<rect width="26" height="26" fill="white" transform="translate(5.77344 4.92188)"/>
</clipPath>
</defs>
</svg>
