<svg width="71" height="70" viewBox="0 0 71 70" fill="none" xmlns="http://www.w3.org/2000/svg">
<g clip-path="url(#clip0_402_5199)">
<path fill-rule="evenodd" clip-rule="evenodd" d="M5.939 0H65.686C68.5009 0 70.8125 2.31158 70.8125 5.1265V64.8735C70.8125 67.6884 68.5009 70 65.686 70H5.939C3.12408 70 0.8125 67.6884 0.8125 64.8735V5.1265C0.8125 2.31158 3.12408 0 5.939 0Z" fill="#C61E1F"/>
<path fill-rule="evenodd" clip-rule="evenodd" d="M48.7397 31.393C48.6092 31.1133 48.3482 30.9456 48.05 30.9456H38.9901L47.9381 16.8151C48.0873 16.5727 48.0873 16.2744 47.9568 16.0321C47.8263 15.7898 47.5653 15.6406 47.2857 15.6406H35.038C34.7397 15.6406 34.4787 15.8084 34.3482 16.0694L22.8649 39.0361C22.753 39.2784 22.753 39.5581 22.9022 39.7818C23.0327 40.0055 23.2936 40.1546 23.5546 40.1546H31.4215L22.8462 60.5301C22.6971 60.8843 22.8462 61.2758 23.1445 61.4808C23.275 61.5554 23.4055 61.5927 23.536 61.5927C23.7597 61.5927 23.9648 61.4995 24.1139 61.3131L48.6092 32.2318C48.7956 32.0081 48.8516 31.6912 48.7211 31.4116" fill="white"/>
</g>
<defs>
<clipPath id="clip0_402_5199">
<rect width="70" height="70" fill="white" transform="translate(0.8125)"/>
</clipPath>
</defs>
</svg>
