<svg width="37" height="37" viewBox="0 0 37 37" fill="none" xmlns="http://www.w3.org/2000/svg">
<g clip-path="url(#clip0_403_7265)">
<path d="M29 33H8V5H29V33ZM8.82735 32.147H28.1727V5.85305H8.82735V32.147Z" fill="#D71819"/>
<path d="M28.5867 30.6914H8.41406V32.5731H28.5867V30.6914Z" fill="#D71819"/>
<path d="M28.5867 24.293H8.41406V25.146H28.5867V24.293Z" fill="#D71819"/>
<path d="M28.5867 17.4453H8.41406V18.2984H28.5867V17.4453Z" fill="#D71819"/>
<path d="M28.5867 10.9219H8.41406V11.7749H28.5867V10.9219Z" fill="#D71819"/>
<path d="M18.5134 9.66641C19.5348 9.66641 20.3628 9.12723 20.3628 8.46211C20.3628 7.797 19.5348 7.25781 18.5134 7.25781C17.4921 7.25781 16.6641 7.797 16.6641 8.46211C16.6641 9.12723 17.4921 9.66641 18.5134 9.66641Z" fill="#D71819"/>
</g>
<defs>
<clipPath id="clip0_403_7265">
<rect width="21" height="28" fill="white" transform="translate(8 5)"/>
</clipPath>
</defs>
</svg>
