<svg width="37" height="37" viewBox="0 0 37 37" fill="none" xmlns="http://www.w3.org/2000/svg">
<g clip-path="url(#clip0_403_7254)">
<path fill-rule="evenodd" clip-rule="evenodd" d="M18.0506 10.6189C21.7572 10.6189 24.7386 13.6844 24.7655 17.4615C24.7655 19.5143 23.9597 21.3755 22.8853 22.9356C24.4969 22.0872 26.5113 20.2807 26.5113 17.4615C26.5113 12.6991 22.7241 8.83984 18.0506 8.83984C13.377 8.83984 9.58984 12.6991 9.58984 17.4615C9.58984 20.2533 11.6043 22.0598 13.2159 22.9356C12.1415 21.3755 11.3357 19.5417 11.3357 17.4615C11.3357 13.6844 14.344 10.6463 18.0506 10.6189Z" fill="#D4191A"/>
<path fill-rule="evenodd" clip-rule="evenodd" d="M18.0234 4.21484C10.852 4.21484 5.02344 10.1542 5.02344 17.4622C5.02344 19.4328 5.45319 21.294 6.20526 22.9636C7.70939 26.3302 10.5565 28.3556 14.0482 29.2862L13.8065 28.7935C11.1474 27.4524 8.99864 24.8522 7.78997 22.1972C7.14534 20.7466 6.79616 19.1591 6.79616 17.4622C6.79616 11.1396 11.8189 6.0213 18.0234 6.0213C24.228 6.0213 29.2507 11.1396 29.2507 17.4622C29.2507 22.1699 26.4573 26.7955 22.4553 28.7662L22.2404 29.3136C27.3437 27.7261 30.9966 23.2647 30.9966 17.4622C30.9966 10.1542 25.1681 4.21484 17.9966 4.21484L18.0234 4.21484Z" fill="#D4191A"/>
<path fill-rule="evenodd" clip-rule="evenodd" d="M21.7843 21.4863C22.1603 26.1667 19.6355 31.9145 19.6355 31.9145C19.6355 31.9145 18.9909 32.2155 18.0508 32.2155C17.1107 32.2155 16.4392 31.9145 16.4392 31.9145C16.4392 31.9145 13.9144 26.1667 14.2636 21.4863C14.2636 21.4863 14.8545 19.5156 18.0508 19.5156C21.2471 19.5156 21.7843 21.4863 21.7843 21.4863Z" fill="#D4191A"/>
<path fill-rule="evenodd" clip-rule="evenodd" d="M20.869 15.6278C20.869 17.2427 19.5798 18.5565 17.9951 18.5565C16.4103 18.5565 15.1211 17.2427 15.1211 15.6278C15.1211 14.013 16.4103 12.7266 17.9951 12.7266C19.5798 12.7266 20.869 14.0403 20.869 15.6278Z" fill="#D4191A"/>
</g>
<defs>
<clipPath id="clip0_403_7254">
<rect width="26" height="28" fill="white" transform="translate(5.02344 4.21484)"/>
</clipPath>
</defs>
</svg>
