<svg width="37" height="37" viewBox="0 0 37 37" fill="none" xmlns="http://www.w3.org/2000/svg">
<g clip-path="url(#clip0_403_5349)">
<path fill-rule="evenodd" clip-rule="evenodd" d="M18.0114 19.1551C17.3481 19.1551 16.8077 18.6147 16.8077 17.9514C16.8077 17.2882 17.3481 16.7478 18.0114 16.7478C18.6746 16.7478 19.2151 17.2882 19.2151 17.9514C19.2151 18.6147 18.6746 19.1551 18.0114 19.1551ZM21.4014 16.1582C22.8507 15.5441 24.7668 15.151 27.5426 15.2493C26.2161 13.5543 25.0124 12.3261 24.3 11.0732C22.3348 12.2032 20.8855 13.3824 19.8046 14.586C19.3133 14.3158 18.7483 14.1684 18.1588 14.1439C18.3553 12.5963 18.9449 10.7539 20.4188 8.37109H15.6286C15.2847 11.2206 15.5058 13.1858 15.9971 14.7334C15.5058 15.0528 15.0882 15.4704 14.7688 15.9617C13.516 15.0528 12.2386 13.7508 10.9367 11.9576C10.2734 13.4315 9.63472 14.4141 8.5293 15.2739C10.8138 16.9688 12.6317 17.7795 14.2284 18.148C14.2284 18.7375 14.4249 19.3025 14.6705 19.7938C13.2212 20.4079 11.3051 20.801 8.5293 20.7027C9.85581 22.3977 11.0595 23.626 11.7719 24.8788C13.7371 23.7488 15.1864 22.5697 16.2673 21.366C16.7586 21.6362 17.3236 21.7836 17.9131 21.8081C17.7166 23.3557 17.127 25.1981 15.6531 27.5809H20.4433C20.7872 24.7314 20.5661 22.7662 20.0748 21.2186C20.5661 20.8992 20.9837 20.4816 21.3031 19.9903C22.5559 20.8992 23.8333 22.2012 25.1352 23.9944C25.7985 22.5205 26.4372 21.5379 27.5426 20.6782C25.2581 18.9832 23.4402 18.1725 21.8435 17.8041C21.8435 17.2145 21.647 16.6495 21.4014 16.1582Z" fill="#D4191A"/>
<path fill-rule="evenodd" clip-rule="evenodd" d="M28.3285 8.37221C27.9354 8.37221 27.6161 8.05287 27.6161 7.65983C27.6161 7.26679 27.9354 6.94744 28.3285 6.94744C28.7215 6.94744 29.0408 7.26679 29.0408 7.65983C29.0408 8.05287 28.7215 8.37221 28.3285 8.37221ZM28.3285 28.9822C27.9354 28.9822 27.6161 28.6629 27.6161 28.2699C27.6161 27.8768 27.9354 27.5575 28.3285 27.5575C28.7215 27.5575 29.0408 27.8768 29.0408 28.2699C29.0408 28.6629 28.7215 28.9822 28.3285 28.9822ZM18.0112 28.5155C12.1893 28.5155 7.44821 23.799 7.44821 17.9526C7.44821 12.1061 12.1893 7.41418 18.0112 7.41418C23.8331 7.41418 28.5741 12.1307 28.5741 17.9771C28.5741 23.8236 23.8331 28.5401 18.0112 28.5401V28.5155ZM7.69386 28.9822C7.30082 28.9822 6.98147 28.6629 6.98147 28.2699C6.98147 27.8768 7.30082 27.5575 7.69386 27.5575C8.0869 27.5575 8.40624 27.8768 8.40624 28.2699C8.40624 28.6629 8.0869 28.9822 7.69386 28.9822ZM7.69386 6.92288C8.0869 6.92288 8.40624 7.24222 8.40624 7.63526C8.40624 8.0283 8.0869 8.34765 7.69386 8.34765C7.30082 8.34765 6.98147 8.0283 6.98147 7.63526C6.98147 7.24222 7.30082 6.92288 7.69386 6.92288ZM28.0828 5.96484H7.93951C6.88321 5.96484 6.02344 6.82462 6.02344 7.88091V28.0242C6.02344 29.0805 6.88321 29.9403 7.93951 29.9403H28.0828C29.1391 29.9403 29.9989 29.0805 29.9989 28.0242V7.88091C29.9989 6.82462 29.1391 5.96484 28.0828 5.96484Z" fill="#D4191A"/>
</g>
<defs>
<clipPath id="clip0_403_5349">
<rect width="24" height="24" fill="white" transform="translate(6.02344 5.96484)"/>
</clipPath>
</defs>
</svg>
