<svg width="37" height="37" viewBox="0 0 37 37" fill="none" xmlns="http://www.w3.org/2000/svg">
<g clip-path="url(#clip0_402_5058)">
<path fill-rule="evenodd" clip-rule="evenodd" d="M26.5979 24.8295C26.808 24.5595 26.988 24.2295 27.108 23.8695C27.228 23.4794 27.288 23.0594 27.288 22.5794C27.288 21.5893 27.078 20.8392 26.628 20.3292C26.1779 19.8492 25.6079 19.5791 24.8878 19.5791C24.1678 19.5791 23.5977 19.8192 23.1477 20.3292C22.6976 20.8392 22.4876 21.5893 22.4876 22.5794C22.4876 23.5695 22.6976 24.3495 23.1477 24.8596C23.5977 25.3696 24.1678 25.6096 24.8278 25.6096C25.0678 25.6096 25.3078 25.5796 25.5479 25.4896C25.1878 25.2496 24.8278 25.0696 24.4678 24.9496L24.9478 23.9295C25.5179 24.1395 26.0579 24.4395 26.5979 24.8295ZM27.9781 25.7896C28.3981 26.0896 28.8781 26.3297 29.3882 26.5097L28.7581 27.7698C28.4881 27.6798 28.2481 27.5898 27.9781 27.4398C27.9181 27.4098 27.528 27.1397 26.808 26.6597C26.2379 26.8997 25.6079 27.0197 24.9178 27.0197C23.5977 27.0197 22.5476 26.6297 21.7976 25.8496C21.0475 25.0696 20.6575 23.9595 20.6575 22.5494C20.6575 21.1393 21.0475 20.0292 21.7976 19.2491C22.5476 18.4691 23.5977 18.079 24.8878 18.079C26.1779 18.079 27.198 18.4691 27.9481 19.2491C28.6981 20.0292 29.0881 21.1393 29.0881 22.5494C29.0881 23.2994 28.9981 23.9595 28.7881 24.5295C28.6381 24.9796 28.3681 25.3996 28.0381 25.7896H27.9781ZM11.5668 9.52836V12.3786H12.6769C13.4569 12.3786 13.997 12.3186 14.267 12.2286C14.537 12.1386 14.747 11.9585 14.897 11.7485C15.0471 11.5385 15.1371 11.2685 15.1371 10.9685C15.1371 10.6084 15.017 10.3084 14.807 10.0684C14.597 9.82838 14.327 9.67837 13.997 9.61837C13.757 9.58836 13.2769 9.55836 12.5569 9.55836H11.5968L11.5668 9.52836ZM9.52662 17.809V7.84823H12.7369C13.967 7.84823 14.747 7.90823 15.1371 7.99824C15.7071 8.14825 16.1871 8.47828 16.5772 8.98832C16.9672 9.49836 17.1472 10.1284 17.1472 10.9385C17.1472 11.5385 17.0272 12.0486 16.8172 12.4686C16.6072 12.8886 16.3071 13.2186 15.9771 13.4587C15.6471 13.6987 15.2871 13.8487 14.927 13.9387C14.447 14.0287 13.757 14.0887 12.8569 14.0887H11.5368V17.839H9.52662V17.809ZM29.1481 6.70814C32.2384 9.58836 34.1585 13.6687 34.1585 18.229C34.1585 26.8997 27.108 33.9503 18.4373 33.9503C14.357 33.9503 10.6367 32.3901 7.84649 29.8399L29.1481 6.70814ZM18.4673 2.50781C21.8576 2.50781 25.0078 3.5879 27.588 5.41804L6.46638 28.3698C4.1562 25.6396 2.74609 22.0993 2.74609 18.229C2.74609 9.55836 9.79664 2.50781 18.4673 2.50781Z" fill="#D4191A"/>
</g>
<defs>
<clipPath id="clip0_402_5058">
<rect width="31.4424" height="31.4424" fill="white" transform="translate(2.74609 2.50781)"/>
</clipPath>
</defs>
</svg>
