<svg width="37" height="37" viewBox="0 0 37 37" fill="none" xmlns="http://www.w3.org/2000/svg">
<g clip-path="url(#clip0_410_4189)">
<path d="M18 2.24609C26.8387 2.24609 34 9.40738 34 18.2461C34 27.0848 26.8387 34.2461 18 34.2461C9.16129 34.2461 2 27.0848 2 18.2461C2 9.40738 9.16129 2.24609 18 2.24609ZM18 4.53642C10.4194 4.53642 4.29032 10.6654 4.29032 18.2461C4.29032 25.8267 10.4194 31.9558 18 31.9558C25.5806 31.9558 31.7097 25.8267 31.7097 18.2461C31.7097 10.6654 25.5806 4.53642 18 4.53642ZM11.7742 11.9558C12.2903 11.9558 12.7742 12.3106 12.871 12.8267L14.7742 20.6009L16.7742 12.7945C16.9032 12.2784 17.3548 11.9235 17.871 11.9235H18.4516C18.9677 11.9235 19.4194 12.2784 19.5484 12.7945L21.5484 20.6009L23.4516 12.8267C23.5806 12.3106 24.0323 11.9558 24.5484 11.9558H25C25.3226 11.9558 25.6129 12.1171 25.8065 12.3429C26 12.6009 26.0645 12.9235 25.9677 13.2138L23 23.6654C22.871 24.1493 22.4194 24.5042 21.9032 24.5042H21.2581C20.7419 24.5042 20.2903 24.1493 20.1613 23.6332L18.1935 15.9235L16.2258 23.6332C16.0968 24.1493 15.6452 24.5042 15.129 24.5042H14.4516C13.9355 24.5042 13.4839 24.1493 13.3548 23.6654L10.3871 13.2138C10.2903 12.9235 10.3871 12.5687 10.5484 12.3429C10.7419 12.0848 11.0323 11.9558 11.3548 11.9558H11.8065H11.7742Z" fill="#C61724"/>
</g>
<defs>
<clipPath id="clip0_410_4189">
<rect width="32" height="32" fill="white" transform="translate(2 2.24609)"/>
</clipPath>
</defs>
</svg>
