<svg width="70" height="70" viewBox="0 0 70 70" fill="none" xmlns="http://www.w3.org/2000/svg">
<g clip-path="url(#clip0_561_3872)">
<path fill-rule="evenodd" clip-rule="evenodd" d="M5.1265 0H64.8735C67.6884 0 70 2.31158 70 5.1265V64.8735C70 67.6884 67.6884 70 64.8735 70H5.1265C2.31158 70 0 67.6884 0 64.8735V5.1265C0 2.31158 2.31158 0 5.1265 0Z" fill="#C61724"/>
<path d="M44.4796 48.6147H25.5023C23.0415 48.6147 21.0469 46.62 21.0469 44.1593V25.182C21.0469 22.7212 23.0415 20.7266 25.5023 20.7266H44.4796C46.9404 20.7266 48.935 22.7212 48.935 25.182V44.1593C48.935 46.62 46.9404 48.6147 44.4796 48.6147ZM25.5023 22.889C24.2533 22.889 23.228 23.9143 23.228 25.1633V44.1407C23.228 45.3897 24.2533 46.415 25.5023 46.415H44.4796C45.7286 46.415 46.7539 45.3897 46.7539 44.1407V25.1633C46.7539 23.9143 45.7286 22.889 44.4796 22.889H25.5023Z" fill="white" stroke="white" stroke-width="0.25" stroke-miterlimit="10"/>
<path d="M7.94186 35.5648H14.8393V37.3731L18.9592 34.6514L14.8393 31.9297V33.7193H7.94186C7.41989 33.7007 7.00977 34.1108 7.00977 34.6328C7.00977 35.1734 7.41989 35.5648 7.94186 35.5648Z" fill="white" stroke="white" stroke-width="0.25" stroke-miterlimit="10"/>
<path d="M62.0407 35.5648H55.1433V37.3731L51.0234 34.6514L55.1433 31.9297V33.7193H62.0407C62.5627 33.7007 62.9728 34.1108 62.9728 34.6328C62.9728 35.1734 62.5627 35.5648 62.0407 35.5648Z" fill="white" stroke="white" stroke-width="0.25" stroke-miterlimit="10"/>
<path d="M34.0778 7.60397V14.5014H32.2695L34.9912 18.6213L37.7129 14.5014H35.9233V7.60397C35.942 7.08199 35.5319 6.67188 35.0099 6.67188H34.9912C34.4693 6.67188 34.0778 7.08199 34.0778 7.60397Z" fill="white" stroke="white" stroke-width="0.25" stroke-miterlimit="10"/>
<path d="M34.0778 61.7009V54.8034H32.2695L34.9912 50.6836L37.7129 54.8034H35.9233V61.7009C35.942 62.2229 35.5319 62.633 35.0099 62.633H34.9912C34.4693 62.633 34.0778 62.2229 34.0778 61.7009Z" fill="white" stroke="white" stroke-width="0.25" stroke-miterlimit="10"/>
</g>
<defs>
<clipPath id="clip0_561_3872">
<rect width="70" height="70" fill="white"/>
</clipPath>
</defs>
</svg>
