<svg width="72" height="72" viewBox="0 0 72 72" fill="none" xmlns="http://www.w3.org/2000/svg">
<g clip-path="url(#clip0_363_23257)">
<path fill-rule="evenodd" clip-rule="evenodd" d="M5.27297 0.0078125H66.727C69.6224 0.0078125 72 2.38544 72 5.28078V66.7348C72 69.6302 69.6224 72.0078 66.727 72.0078H5.27297C2.37763 72.0078 0 69.6302 0 66.7348V5.28078C0 2.38544 2.37763 0.0078125 5.27297 0.0078125Z" fill="#C61724"/>
<path d="M32.864 61.2708H27.5718V40.0255C25.6352 41.943 23.3535 43.3811 20.7266 44.3014V39.1819C22.1071 38.7025 23.6219 37.7821 25.2326 36.4399C26.8624 35.0977 27.9745 33.5254 28.5689 31.7422H32.864V61.2708Z" fill="white"/>
<path d="M36.2188 61.2701V55.6328H41.5109V61.2701H36.2188Z" fill="white"/>
<path d="M44.7891 53.7144L50.062 53.1391C50.2154 54.4046 50.6564 55.4209 51.4042 56.1495C52.152 56.8973 52.9957 57.2616 53.9736 57.2616C55.0857 57.2616 56.0253 56.7823 56.7923 55.8235C57.5592 54.8648 57.9427 53.4267 57.9427 51.5093C57.9427 49.7069 57.5592 48.3455 56.8114 47.4443C56.0445 46.5431 55.0666 46.0829 53.8394 46.0829C52.3246 46.0829 50.9441 46.7924 49.7552 48.2305L45.4602 47.5785L48.1829 32.2773H62.1994V37.5503H52.2096L51.3851 42.5357C52.5739 41.9029 53.7819 41.5961 55.009 41.5961C57.3675 41.5961 59.3616 42.4973 60.9915 44.3189C62.6213 46.1405 63.4458 48.4989 63.4458 51.3943C63.4458 53.8102 62.7939 55.9769 61.4708 57.8752C59.6684 60.4638 57.1757 61.7676 53.9736 61.7676C51.4234 61.7676 49.3334 61.039 47.7227 59.5817C46.1121 58.1245 45.1534 56.1687 44.8274 53.7144H44.7891Z" fill="white"/>
<path d="M10.8903 25.6232V9.15234H15.1086L17.6397 20.3886L20.1515 9.15234H24.3891V25.6232H21.7622V12.6613L18.9819 25.6232H16.2591L13.498 12.6613V25.6232H10.8711H10.8903Z" fill="white"/>
<path d="M29.1642 17.3413L26.729 16.8236C26.9975 15.6731 27.4768 14.8102 28.1288 14.2542C28.7999 13.6981 29.7778 13.4297 31.1008 13.4297C32.2896 13.4297 33.1908 13.6023 33.766 13.9282C34.3413 14.2542 34.7631 14.6952 34.9932 15.1937C35.2233 15.7114 35.3575 16.651 35.3575 18.0124V21.6939C35.3383 22.7485 35.3575 23.5154 35.4534 24.014C35.5301 24.5125 35.7027 25.0494 35.9328 25.6246H33.2867C33.21 25.4137 33.1333 25.1069 33.0374 24.6851C32.9991 24.4933 32.9607 24.3783 32.9415 24.3208C32.4814 24.8385 32.002 25.2411 31.4651 25.5096C30.9474 25.778 30.3913 25.9122 29.7969 25.9122C28.7615 25.9122 27.937 25.5863 27.3426 24.9152C26.7482 24.2441 26.4414 23.4004 26.4414 22.3841C26.4414 21.713 26.5756 21.0995 26.8441 20.5818C27.1125 20.0449 27.496 19.6422 27.9945 19.3738C28.4931 19.0861 29.2025 18.8561 30.1229 18.6451C31.3692 18.3767 32.2321 18.1082 32.7306 17.8782V17.5714C32.7306 16.9578 32.5964 16.5359 32.3471 16.2675C32.0979 16.0182 31.6185 15.884 30.9091 15.884C30.4297 15.884 30.0654 15.9991 29.7969 16.21C29.5285 16.4401 29.3176 16.8236 29.145 17.3796L29.1642 17.3413ZM32.7306 19.9106C32.3855 20.0449 31.8486 20.1983 31.1008 20.39C30.353 20.5818 29.8736 20.7543 29.6435 20.9461C29.2984 21.2337 29.1258 21.6172 29.1258 22.0582C29.1258 22.4992 29.26 22.8827 29.5477 23.2086C29.8353 23.5346 30.1804 23.688 30.6214 23.688C31.1008 23.688 31.561 23.4963 32.002 23.132C32.328 22.8443 32.5389 22.4992 32.6347 22.0774C32.7114 21.8089 32.7498 21.2912 32.7498 20.5434V19.9106H32.7306Z" fill="white"/>
<path d="M36.7188 25.6215L40.3619 19.4665L36.8721 13.6758H40.1318L41.915 16.9546L43.7941 13.6758H46.9387L43.5065 19.3322L47.2455 25.6215H43.9667L41.915 21.9208L39.8442 25.6215H36.7188Z" fill="white"/>
<path d="M48.8555 25.6247V22.4609H51.5399V25.6247H48.8555Z" fill="white"/>
</g>
<defs>
<clipPath id="clip0_363_23257">
<rect width="72" height="72" fill="white" transform="translate(0 0.0078125)"/>
</clipPath>
</defs>
</svg>
