<svg width="37" height="37" viewBox="0 0 37 37" fill="none" xmlns="http://www.w3.org/2000/svg">
<g clip-path="url(#clip0_410_4200)">
<path fill-rule="evenodd" clip-rule="evenodd" d="M16.2234 29.9447H21.8497L22.3229 16.6767H20.43V17.0251H20.0356V16.6767H18.3793V17.0251H17.9849V16.6767H17.8009C17.4591 16.6767 17.1699 16.355 17.1699 15.9261C17.1699 15.4973 17.4591 15.1756 17.8009 15.1756H22.3755L22.4544 13.0849H19.5887V13.4602H19.1943V13.0849H18.9051C18.6159 13.0849 18.4056 12.7632 18.4056 12.3344C18.4056 11.9055 18.6422 11.5839 18.9051 11.5839H22.507L22.6647 7.13438C22.6647 6.30346 23.322 5.66016 24.1107 5.66016C24.8995 5.66016 25.5567 6.33026 25.5567 7.13438L25.7145 11.5839H29.2901C29.5793 11.5839 29.7896 11.9055 29.7896 12.3344C29.7896 12.7632 29.553 13.0849 29.2901 13.0849H28.8694V13.4602H28.475V13.0849H25.7408L25.8196 15.1756H30.3943C30.7361 15.1756 31.0253 15.4973 31.0253 15.9261C31.0253 16.355 30.7361 16.6767 30.3943 16.6767H30.1051V17.0251H29.7107V16.6767H28.0544V17.0251H27.66V16.6767H25.8459L26.3192 29.9447H31.9718V31.687H16.1445V29.9447H16.2234Z" fill="#D4191A"/>
<path d="M6.17969 25.3888V23.5929H10.9121C11.6745 23.5929 12.1478 23.5929 12.3844 23.5393C12.7525 23.4589 13.0417 23.2713 13.252 22.9764C13.4623 22.6816 13.5675 22.2795 13.5675 21.797C13.5675 21.3146 13.4623 20.9125 13.252 20.6445C13.0417 20.3764 12.805 20.2424 12.4895 20.1888C12.2003 20.1352 11.7008 20.1084 11.0172 20.1084H6.17969V18.3125H10.7543C11.806 18.3125 12.5421 18.3661 12.9891 18.4465C13.436 18.5269 13.7778 18.7146 14.0933 18.9826C14.3825 19.2506 14.6191 19.5991 14.8032 20.028C14.9872 20.4568 15.0661 21.0465 15.0661 21.7434C15.0661 22.6012 14.9609 23.2445 14.7769 23.6733C14.5928 24.1022 14.3299 24.4506 14.0144 24.7187C13.6989 24.9599 13.3834 25.1476 13.0417 25.228C12.5421 25.3352 11.806 25.4156 10.8332 25.4156H6.17969V25.3888Z" fill="#D4191A"/>
<path d="M4.02344 24.3166L6.65255 21.6094H8.93987L6.28447 24.3166L8.93987 27.0238H6.65255L4.02344 24.3166Z" fill="#D4191A"/>
</g>
<defs>
<clipPath id="clip0_410_4200">
<rect width="28" height="26" fill="white" transform="translate(4.02344 5.66016)"/>
</clipPath>
</defs>
</svg>
