<svg width="37" height="37" viewBox="0 0 37 37" fill="none" xmlns="http://www.w3.org/2000/svg">
<g clip-path="url(#clip0_410_4380)">
<path d="M21.0511 18.3389H18.4247V14.079C18.4247 13.9086 18.3129 13.7382 18.1453 13.653C17.9217 13.5678 17.6423 13.653 17.5585 13.9086L14.5129 21.4629C14.5129 21.4629 14.457 21.6048 14.457 21.6616C14.457 21.9172 14.6526 22.116 14.9041 22.116H17.5306V26.3759C17.5306 26.5463 17.6423 26.7167 17.81 26.8019C18.0335 26.8871 18.3129 26.8019 18.3967 26.5463L21.4423 18.9921C21.4423 18.9921 21.4982 18.8501 21.4982 18.7933C21.4982 18.5377 21.3026 18.3389 21.0511 18.3389Z" fill="#C61724"/>
<path d="M27.4766 7.9458C27.4766 7.29262 27.2251 6.69623 26.806 6.27024C26.3869 5.84425 25.8001 5.58866 25.1574 5.58866H21.2457V3.45871C21.2457 2.72033 20.6589 2.15234 19.9604 2.15234H16.0486C15.3222 2.15234 14.7633 2.74873 14.7633 3.45871V5.56026H10.7957C10.181 5.56026 9.59421 5.81586 9.14715 6.24185C8.70009 6.66783 8.47656 7.29262 8.47656 7.9458V32.7952C8.47656 33.4484 8.72803 34.0448 9.14715 34.4708C9.56627 34.8968 10.153 35.1523 10.7957 35.1523H25.1574C25.7721 35.1523 26.3589 34.8968 26.806 34.4708C27.2251 34.0448 27.4766 33.4484 27.4766 32.7952V7.9458ZM25.2133 32.8236C25.2133 32.8236 25.1854 32.8236 25.1574 32.8236H10.7957H10.7677C10.7677 32.8236 10.7677 32.7952 10.7677 32.7668V7.9458V7.9174C10.7677 7.9174 10.7957 7.9174 10.8236 7.9174H25.1854H25.2133C25.2133 7.9174 25.2133 7.9458 25.2133 7.9742V32.8236Z" fill="#C61724"/>
</g>
<defs>
<clipPath id="clip0_410_4380">
<rect width="19" height="33" fill="white" transform="translate(8.47656 2.15234)"/>
</clipPath>
</defs>
</svg>
