<svg width="37" height="37" viewBox="0 0 37 37" fill="none" xmlns="http://www.w3.org/2000/svg">
<g clip-path="url(#clip0_403_7457)">
<path d="M12.4909 5.49162L5.50391 31.5703L6.11105 31.7308L13.0981 5.65206L12.4909 5.49162Z" fill="#D71819"/>
<path d="M6.25806 31.9994L5.21094 31.7134L12.3314 5.19531L13.3785 5.48129L6.25806 31.9994ZM5.76068 31.4014L5.91774 31.4534L12.8287 5.79327L12.6717 5.74127L5.76068 31.4014Z" fill="#D71819"/>
<path d="M22.3805 5.47987L21.7734 5.64062L28.7742 31.7157L29.3813 31.5549L22.3805 5.47987Z" fill="#D71819"/>
<path d="M28.6126 31.9994L21.4922 5.48129L22.5393 5.19531L29.6597 31.7134L28.6126 31.9994ZM22.0419 5.79327L28.9267 31.4534L29.0838 31.4014L22.2252 5.74127L22.0681 5.79327H22.0419Z" fill="#D71819"/>
<path d="M13.1825 5.64864L12.7383 6.08984L21.8455 15.1345L22.2898 14.6933L13.1825 5.64864Z" fill="#D71819"/>
<path d="M21.8342 15.4635L12.4102 6.07816L13.1693 5.32422L22.5934 14.6835L21.8342 15.4375V15.4635ZM13.0646 6.07816L21.8604 14.8135L21.9913 14.6835L13.1693 5.97417L13.0384 6.10416L13.0646 6.07816Z" fill="#D71819"/>
<path d="M21.8455 5.65065L12.7383 14.6953L13.1825 15.1365L22.2898 6.09185L21.8455 5.65065Z" fill="#D71819"/>
<path d="M13.1693 15.4635L12.4102 14.7095L21.8342 5.32422L22.5934 6.07816L13.1693 15.4375V15.4635ZM13.0646 14.6835L13.1955 14.8135L21.9651 6.07816L21.8342 5.94817L13.0384 14.6835H13.0646Z" fill="#D71819"/>
<path d="M27.0645 26.6454L10.1797 16.7921L10.4938 16.2461L27.3786 26.1254L27.0645 26.6454Z" fill="#D71819"/>
<path d="M27.1447 26.9568L9.86719 16.8695L10.4169 15.9336L27.6682 26.0469L27.1185 26.9828L27.1447 26.9568ZM10.4955 16.7135L26.9614 26.3588L27.04 26.2029L10.574 16.5575L10.4955 16.7135Z" fill="#D71819"/>
<path d="M24.4902 16.2258L7.62891 26.1133L7.94834 26.6506L24.8096 16.7631L24.4902 16.2258Z" fill="#D71819"/>
<path d="M7.87786 26.9568L7.32812 26.0209L7.53755 25.9169L24.6056 15.9336L25.1553 16.8695L24.9459 16.9735L7.87786 26.9568ZM7.9564 26.2029L8.03493 26.3588L24.5009 16.7135L24.4224 16.5575L7.9564 26.2029Z" fill="#D71819"/>
<path d="M28.5868 4.23438H6.41406V4.85833H28.5868V4.23438Z" fill="#D71819"/>
<path d="M28.8209 5.09192H6.20312V4H28.8209V5.09192ZM6.64815 4.62396H28.3497V4.44197H6.64815V4.62396Z" fill="#D71819"/>
<path d="M29.7893 15.5938H5.23438V16.2177H29.7893V15.5938Z" fill="#D71819"/>
<path d="M30 16.4513H5V15.3594H30V16.4513ZM5.44503 16.0093H29.555V15.8273H5.44503V16.0093Z" fill="#D71819"/>
<path d="M27.8013 26.3359H7.19922V26.9599H27.8013V26.3359Z" fill="#D71819"/>
<path d="M28.0381 27.1661H6.96484V26.0742H28.0381V27.1661ZM7.43605 26.7242H27.5931V26.5422H7.43605V26.7242Z" fill="#D71819"/>
<path d="M22.933 18.0131C22.933 21.0029 20.4985 23.4207 17.488 23.4207C14.4775 23.4207 12.043 21.0029 12.043 18.0131C12.043 15.0233 14.4775 12.6055 17.488 12.6055C20.4985 12.6055 22.933 15.0233 22.933 18.0131Z" fill="white"/>
<mask id="mask0_403_7457" style="mask-type:luminance" maskUnits="userSpaceOnUse" x="10" y="11" width="15" height="14">
<path d="M17.5133 24.5108C21.1277 24.5108 24.0578 21.6008 24.0578 18.0113C24.0578 14.4217 21.1277 11.5117 17.5133 11.5117C13.8988 11.5117 10.9688 14.4217 10.9688 18.0113C10.9688 21.6008 13.8988 24.5108 17.5133 24.5108Z" fill="white"/>
</mask>
<g mask="url(#mask0_403_7457)">
<path d="M17.5133 9.48438C12.7751 9.48438 8.95312 13.3061 8.95312 17.9858C8.95312 22.6654 12.8013 26.4872 17.5133 26.4872C22.2254 26.4872 26.0735 22.6654 26.0735 17.9858C26.0735 13.3061 22.2254 9.48438 17.5133 9.48438ZM19.9217 21.3135L17.4872 18.9217L15.0526 21.3135C14.7908 21.5475 14.3982 21.5475 14.1625 21.3135C13.9269 21.0795 13.9008 20.6896 14.1625 20.4296L16.5971 18.0118L14.1887 15.5939C13.9531 15.334 13.9531 14.944 14.1887 14.71C14.4243 14.476 14.817 14.45 15.0788 14.71L17.4872 17.1278L19.9217 14.71C20.1835 14.476 20.5762 14.476 20.8118 14.71C21.0474 14.944 21.0735 15.334 20.8118 15.5939L18.3772 18.0118L20.8118 20.4296C21.0474 20.6896 21.0474 21.0795 20.8118 21.3135C20.5762 21.5475 20.1835 21.5735 19.9217 21.3135Z" fill="#D8A85D"/>
</g>
</g>
<defs>
<clipPath id="clip0_403_7457">
<rect width="25" height="28" fill="white" transform="translate(5 4)"/>
</clipPath>
</defs>
</svg>
