<svg width="70" height="70" viewBox="0 0 70 70" fill="none" xmlns="http://www.w3.org/2000/svg">
<g clip-path="url(#clip0_363_23143)">
<path fill-rule="evenodd" clip-rule="evenodd" d="M5.1265 0.0078125H64.8735C67.6884 0.0078125 70 2.3194 70 5.13431V64.8813C70 67.6962 67.6884 70.0078 64.8735 70.0078H5.1265C2.31158 70.0078 0 67.6962 0 64.8813V5.13431C0 2.3194 2.31158 0.0078125 5.1265 0.0078125Z" fill="#C61724"/>
<path d="M31.9526 59.5678H26.8075V38.9126C24.9246 40.7768 22.7063 42.175 20.1523 43.0698V38.0924C21.4946 37.6264 22.9673 36.7315 24.5332 35.4266C26.1177 34.1217 27.1989 32.5931 27.7768 30.8594H31.9526V59.5678Z" fill="white"/>
<path d="M35.2148 59.5666V54.0859H40.36V59.5666H35.2148Z" fill="white"/>
<path d="M43.5469 52.2244L48.6734 51.6651C48.8225 52.8955 49.2513 53.8835 49.9783 54.5919C50.7053 55.3189 51.5256 55.6731 52.4763 55.6731C53.5575 55.6731 54.471 55.207 55.2166 54.275C55.9623 53.3429 56.3352 51.9447 56.3352 50.0806C56.3352 48.3282 55.9623 47.0047 55.2353 46.1285C54.4896 45.2523 53.5389 44.8049 52.3458 44.8049C50.8731 44.8049 49.5309 45.4947 48.3751 46.8928L44.1993 46.259L46.8465 31.3828H60.4736V36.5093H50.7613L49.9597 41.3562C51.1154 40.741 52.2899 40.4427 53.483 40.4427C55.7759 40.4427 57.7146 41.3189 59.2992 43.0899C60.8838 44.8608 61.6854 47.1538 61.6854 49.9687C61.6854 52.3176 61.0515 54.4241 59.7653 56.2696C58.0129 58.7863 55.5895 60.0539 52.4763 60.0539C49.9969 60.0539 47.965 59.3455 46.3991 57.9288C44.8332 56.512 43.9011 54.6105 43.5842 52.2244H43.5469Z" fill="white"/>
<path d="M10.589 24.9118V8.89844H14.6902L17.1509 19.8225L19.5929 8.89844H23.7128V24.9118H21.1589V12.3099L18.4558 24.9118H15.8087L13.1242 12.3099V24.9118H10.5703H10.589Z" fill="white"/>
<path d="M28.3542 16.8576L25.9867 16.3543C26.2476 15.2358 26.7137 14.3969 27.3475 13.8563C28 13.3157 28.9507 13.0547 30.237 13.0547C31.3928 13.0547 32.2689 13.2225 32.8282 13.5394C33.3875 13.8563 33.7976 14.285 34.0213 14.7697C34.245 15.2731 34.3755 16.1865 34.3755 17.5101V21.0893C34.3568 22.1146 34.3755 22.8603 34.4687 23.345C34.5432 23.8297 34.711 24.3516 34.9347 24.9109H32.3622C32.2876 24.7058 32.213 24.4076 32.1198 23.9974C32.0825 23.811 32.0452 23.6992 32.0266 23.6432C31.5792 24.1466 31.1132 24.538 30.5912 24.799C30.0879 25.06 29.5472 25.1905 28.9693 25.1905C27.9627 25.1905 27.1611 24.8736 26.5832 24.2211C26.0053 23.5687 25.707 22.7484 25.707 21.7604C25.707 21.108 25.8375 20.5114 26.0985 20.0081C26.3595 19.4861 26.7323 19.0946 27.217 18.8336C27.7017 18.554 28.3915 18.3303 29.2863 18.1253C30.498 17.8643 31.3369 17.6033 31.8215 17.3796V17.0813C31.8215 16.4848 31.6911 16.0747 31.4487 15.8137C31.2064 15.5713 30.7403 15.4408 30.0506 15.4408C29.5845 15.4408 29.2303 15.5527 28.9693 15.7577C28.7084 15.9815 28.5033 16.3543 28.3355 16.8949L28.3542 16.8576ZM31.8215 19.3556C31.486 19.4861 30.964 19.6352 30.237 19.8217C29.51 20.0081 29.0439 20.1759 28.8202 20.3623C28.4847 20.6419 28.3169 21.0147 28.3169 21.4435C28.3169 21.8723 28.4474 22.2451 28.727 22.562C29.0066 22.8789 29.3422 23.0281 29.7709 23.0281C30.237 23.0281 30.6844 22.8416 31.1132 22.4874C31.4301 22.2078 31.6351 21.8723 31.7283 21.4621C31.8029 21.2012 31.8402 20.6978 31.8402 19.9708V19.3556H31.8215Z" fill="white"/>
<path d="M35.6992 24.9107L39.2412 18.9267L35.8484 13.2969H39.0175L40.7512 16.4846L42.578 13.2969H45.6353L42.2984 18.7962L45.9336 24.9107H42.7458L40.7512 21.3129L38.7378 24.9107H35.6992Z" fill="white"/>
<path d="M47.5 24.9118V21.8359H50.1099V24.9118H47.5Z" fill="white"/>
</g>
<defs>
<clipPath id="clip0_363_23143">
<rect width="70" height="70" fill="white" transform="translate(0 0.0078125)"/>
</clipPath>
</defs>
</svg>
