<svg width="37" height="37" viewBox="0 0 37 37" fill="none" xmlns="http://www.w3.org/2000/svg">
<g clip-path="url(#clip0_410_4155)">
<path d="M25.5291 9.40827L28.4262 6.50816C25.7925 4.23422 22.3686 2.78417 18.6484 2.65234V6.73885C21.2493 6.87068 23.6526 7.85935 25.5291 9.40827Z" fill="#D4191A"/>
<path d="M29.8441 17.3194H33.9593C33.663 13.6613 32.1486 10.3657 29.8112 7.82812L26.9141 10.7282C28.4943 12.5078 29.5807 14.7818 29.8441 17.3194Z" fill="#D4191A"/>
<path d="M18.0234 30.5641C11.4391 30.5641 6.10574 25.2253 6.10574 18.6342C6.10574 12.4714 10.7477 7.42922 16.7395 6.7701V2.68359C8.50903 3.34271 2.02344 10.2305 2.02344 18.6671C2.02344 27.4992 9.20039 34.6836 18.0234 34.6836C26.8465 34.6836 33.6942 27.8288 34.0234 19.2274H29.9411C29.6448 25.5549 24.4432 30.5641 18.0564 30.5641H18.0234Z" fill="#D4191A"/>
<path d="M18.583 18.109L16.8711 16.3953L21.0192 13.9565L25.1345 11.5508L22.7312 15.6702L20.295 19.8227L18.583 18.109Z" fill="#D4191A"/>
<path d="M18.1232 21.0757C19.505 21.0757 20.6252 19.9543 20.6252 18.571C20.6252 17.1878 19.505 16.0664 18.1232 16.0664C16.7413 16.0664 15.6211 17.1878 15.6211 18.571C15.6211 19.9543 16.7413 21.0757 18.1232 21.0757Z" fill="#D4191A"/>
</g>
<defs>
<clipPath id="clip0_410_4155">
<rect width="32" height="32" fill="white" transform="translate(2.02344 2.65234)"/>
</clipPath>
</defs>
</svg>
