<svg width="70" height="70" viewBox="0 0 70 70" fill="none" xmlns="http://www.w3.org/2000/svg">
<g clip-path="url(#clip0_363_23316)">
<path d="M64.7128 0.0078125H5.28723C2.36718 0.0078125 0 2.37499 0 5.29505V64.7206C0 67.6406 2.36718 70.0078 5.28723 70.0078H64.7128C67.6328 70.0078 70 67.6406 70 64.7206V5.29505C70 2.37499 67.6328 0.0078125 64.7128 0.0078125Z" fill="#C61724"/>
<path d="M51.7755 13.3555H31.1106C28.972 13.3555 27.2383 15.0892 27.2383 17.2278V44.0549C27.2383 46.1936 28.972 47.9273 31.1106 47.9273H51.7755C53.9142 47.9273 55.6479 46.1936 55.6479 44.0549V17.2278C55.6479 15.0892 53.9142 13.3555 51.7755 13.3555Z" fill="#C61724" stroke="white" stroke-width="2" stroke-miterlimit="10"/>
<path d="M41.684 32.9604C42.3543 32.104 43.3037 30.7449 44.5511 30.8194C45.5005 30.8939 46.2638 31.862 46.9899 32.4019C48.0138 33.1465 49.2798 33.4816 50.5085 33.0162C51.7372 32.5508 52.6867 31.3965 52.9101 30.0561C52.9846 29.5348 52.7798 28.9949 52.2213 28.8274C51.7558 28.6971 51.0856 28.9949 50.9925 29.5162C50.8436 30.5215 50.0803 31.471 48.9633 31.2104C48.0697 31.0056 47.3436 30.0933 46.6176 29.5721C45.6309 28.8832 44.4394 28.6412 43.2851 29.0508C42.0005 29.4976 41.1069 30.5029 40.2878 31.5641C39.9527 31.9923 39.8782 32.5508 40.2878 32.9604C40.6229 33.2955 41.3675 33.3886 41.684 32.9604Z" fill="#FDFEFE"/>
<path d="M27.2383 36.6445H55.6479" stroke="white" stroke-width="2" stroke-miterlimit="10"/>
<path d="M52.6109 13.3555L27.6641 36.6454" stroke="white" stroke-width="2" stroke-miterlimit="10"/>
<path d="M31.9102 18.3281H38.5192" stroke="white" stroke-width="2" stroke-miterlimit="10" stroke-linecap="round"/>
<path d="M31.9102 21.8828H38.5192" stroke="white" stroke-width="2" stroke-miterlimit="10" stroke-linecap="round"/>
<path d="M46.4672 40.1289H36.7305V44.8762H46.4672V40.1289Z" stroke="white" stroke-width="2" stroke-linejoin="round"/>
<path d="M45.631 17.3945H24.9661C22.8275 17.3945 21.0938 19.1282 21.0938 21.2669V48.094C21.0938 50.2326 22.8275 51.9663 24.9661 51.9663H45.631C47.7696 51.9663 49.5033 50.2326 49.5033 48.094V21.2669C49.5033 19.1282 47.7696 17.3945 45.631 17.3945Z" fill="#C61724" stroke="white" stroke-width="2" stroke-miterlimit="10"/>
<path d="M35.5395 37.019C36.2097 36.1626 37.1592 34.8035 38.4065 34.878C39.356 34.9525 40.1193 35.9206 40.8454 36.4604C41.8693 37.2051 43.1353 37.5402 44.364 37.0748C45.5927 36.6094 46.5422 35.4551 46.7656 34.1147C46.84 33.5934 46.6353 33.0535 46.0767 32.886C45.6113 32.7557 44.9411 33.0535 44.848 33.5748C44.6991 34.5801 43.9358 35.5296 42.8188 35.269C41.9251 35.0642 41.1991 34.1519 40.473 33.6307C39.4863 32.9418 38.2948 32.6998 37.1406 33.1094C35.856 33.5562 34.9624 34.5615 34.1432 35.6227C33.8081 36.0509 33.7337 36.6094 34.1432 37.019C34.4783 37.3541 35.223 37.4471 35.5395 37.019Z" fill="#FDFEFE"/>
<path d="M21.0938 40.7031H49.5033" stroke="white" stroke-width="2" stroke-miterlimit="10"/>
<path d="M46.4477 17.3945L21.5195 40.703" stroke="white" stroke-width="2" stroke-miterlimit="10"/>
<path d="M25.7656 22.3672H32.3747" stroke="white" stroke-width="2" stroke-miterlimit="10" stroke-linecap="round"/>
<path d="M25.7656 25.9219H32.3747" stroke="white" stroke-width="2" stroke-miterlimit="10" stroke-linecap="round"/>
<path d="M40.3226 44.1875H30.5859V48.9348H40.3226V44.1875Z" stroke="white" stroke-width="2" stroke-linejoin="round"/>
<path d="M38.8927 22.125H18.2278C16.0892 22.125 14.3555 23.8587 14.3555 25.9973V52.8245C14.3555 54.9631 16.0892 56.6968 18.2278 56.6968H38.8927C41.0313 56.6968 42.765 54.9631 42.765 52.8245V25.9973C42.765 23.8587 41.0313 22.125 38.8927 22.125Z" fill="#C61724" stroke="white" stroke-width="2" stroke-miterlimit="10"/>
<path d="M28.7817 41.7299C29.4519 40.8735 30.4014 39.5145 31.6487 39.5889C32.5982 39.6634 33.3615 40.6315 34.0875 41.1714C35.1115 41.9161 36.3774 42.2512 37.6062 41.7857C38.8349 41.3203 39.7844 40.1661 40.0078 38.8256C40.0822 38.3044 39.8774 37.7645 39.3189 37.5969C38.8535 37.4666 38.1833 37.7645 38.0902 38.2857C37.9413 39.2911 37.178 40.2405 36.061 39.9799C35.1673 39.7751 34.4413 38.8629 33.7152 38.3416C32.7285 37.6528 31.537 37.4107 30.3828 37.8203C29.0982 38.2671 28.2046 39.2724 27.3854 40.3336C27.0503 40.7618 26.9758 41.3203 27.3854 41.7299C27.7205 42.065 28.4652 42.1581 28.7817 41.7299Z" fill="#FDFEFE"/>
<path d="M14.3555 45.4141H42.7464" stroke="white" stroke-width="2" stroke-miterlimit="10"/>
<path d="M39.7085 22.125L14.7617 45.4149" stroke="white" stroke-width="2" stroke-miterlimit="10"/>
<path d="M19.0078 27.0938H25.6169" stroke="white" stroke-width="2" stroke-miterlimit="10" stroke-linecap="round"/>
<path d="M19.0078 30.6523H25.6169" stroke="white" stroke-width="2" stroke-miterlimit="10" stroke-linecap="round"/>
<path d="M33.5648 48.9141H23.8281V53.6614H33.5648V48.9141Z" stroke="white" stroke-width="2" stroke-linejoin="round"/>
</g>
<defs>
<clipPath id="clip0_363_23316">
<rect width="70" height="70" fill="white" transform="translate(0 0.0078125)"/>
</clipPath>
</defs>
</svg>
