<svg width="71" height="71" viewBox="0 0 71 71" fill="none" xmlns="http://www.w3.org/2000/svg">
<g clip-path="url(#clip0_364_23766)">
<path fill-rule="evenodd" clip-rule="evenodd" d="M5.314 0.46875H65.061C67.8759 0.46875 70.1875 2.75176 70.1875 5.53188V64.5403C70.1875 67.3204 67.8759 69.6034 65.061 69.6034H5.314C2.49908 69.6034 0.1875 67.3204 0.1875 64.5403V5.53188C0.1875 2.75176 2.49908 0.46875 5.314 0.46875Z" fill="#C61724"/>
<path d="M9.08114 26.0786V9.32422H13.4247L16.0345 20.7577L18.6071 9.32422H22.9693V26.0786H20.2662V12.896L17.414 26.0786H14.6178L11.7656 12.896V26.0786H9.0625H9.08114Z" fill="white"/>
<path d="M27.8909 17.6476L25.3929 17.1137C25.6725 15.9354 26.1572 15.07 26.847 14.4993C27.5367 13.9285 28.562 13.6523 29.9042 13.6523C31.1346 13.6523 32.048 13.818 32.6446 14.1679C33.2411 14.4993 33.6699 14.9411 33.9122 15.4567C34.1546 15.9722 34.2851 16.9296 34.2851 18.3288L34.2478 22.0847C34.2478 23.1526 34.2851 23.9443 34.3783 24.4414C34.4715 24.9569 34.6392 25.4908 34.8816 26.0616H32.1599C32.0853 25.8591 31.9921 25.5277 31.8989 25.1226C31.8616 24.9385 31.8243 24.8096 31.8057 24.736C31.3396 25.2699 30.8363 25.675 30.2957 25.9327C29.7551 26.2089 29.1958 26.3378 28.5807 26.3378C27.4994 26.3378 26.6606 26.0064 26.0454 25.3251C25.4302 24.6439 25.1133 23.7786 25.1133 22.7476C25.1133 22.0663 25.2624 21.4404 25.542 20.9064C25.8217 20.3725 26.2131 19.9674 26.7165 19.6729C27.2198 19.3967 27.9468 19.1389 28.9162 18.918C30.2025 18.6418 31.0973 18.3841 31.6006 18.1263V17.8133C31.6006 17.2057 31.4701 16.7639 31.2092 16.4877C30.9482 16.2299 30.4635 16.0826 29.7365 16.0826C29.2518 16.0826 28.8603 16.1931 28.5807 16.414C28.301 16.635 28.0773 17.04 27.9096 17.5924L27.8909 17.6476ZM31.582 20.2436C31.2278 20.3725 30.6685 20.5382 29.9042 20.7407C29.1399 20.9248 28.6366 21.1274 28.4129 21.2931C28.0587 21.5876 27.8723 21.9743 27.8723 22.4346C27.8723 22.8948 28.0214 23.2631 28.301 23.5945C28.5807 23.9259 28.9535 24.0916 29.4009 24.0916C29.9042 24.0916 30.3703 23.9075 30.8177 23.5208C31.1532 23.2263 31.3769 22.8764 31.4701 22.453C31.5447 22.1768 31.582 21.6613 31.582 20.888V20.2436Z" fill="white"/>
<path d="M35.6836 26.0784L39.4492 19.8369L35.8514 13.9453H39.2069L41.0524 17.2778L42.9912 13.9453H46.2349L42.7116 19.6897L46.5704 26.0784H43.1776L41.0524 22.3225L38.9086 26.0784H35.6836Z" fill="white"/>
<path d="M48.1719 26.0792V22.8555H50.9309V26.0792H48.1719Z" fill="white"/>
<path d="M17.3359 62.6016V57.9922H7.96094V54.1484L17.8984 39.6016H21.5859V54.1328H24.4297V57.9922H21.5859V62.6016H17.3359ZM17.3359 54.1328V46.3047L12.0703 54.1328H17.3359ZM33.9609 39.6016C36.1797 39.6016 37.9141 40.3932 39.1641 41.9766C40.6536 43.8516 41.3984 46.9609 41.3984 51.3047C41.3984 55.638 40.6484 58.7526 39.1484 60.6484C37.9089 62.2109 36.1797 62.9922 33.9609 62.9922C31.7318 62.9922 29.9349 62.138 28.5703 60.4297C27.2057 58.7109 26.5234 55.6536 26.5234 51.2578C26.5234 46.9453 27.2734 43.8411 28.7734 41.9453C30.013 40.3828 31.7422 39.6016 33.9609 39.6016ZM33.9609 43.2422C33.4297 43.2422 32.9557 43.4141 32.5391 43.7578C32.1224 44.0911 31.7995 44.6953 31.5703 45.5703C31.2682 46.7057 31.1172 48.6172 31.1172 51.3047C31.1172 53.9922 31.2526 55.8411 31.5234 56.8516C31.7943 57.8516 32.1328 58.5182 32.5391 58.8516C32.9557 59.1849 33.4297 59.3516 33.9609 59.3516C34.4922 59.3516 34.9661 59.1849 35.3828 58.8516C35.7995 58.5078 36.1224 57.8984 36.3516 57.0234C36.6536 55.8984 36.8047 53.9922 36.8047 51.3047C36.8047 48.6172 36.6693 46.7734 36.3984 45.7734C36.1276 44.763 35.7839 44.0911 35.3672 43.7578C34.9609 43.4141 34.4922 43.2422 33.9609 43.2422ZM65.9766 62.6016H60.9453L58.9453 57.3984H49.7891L47.8984 62.6016H42.9922L51.9141 39.6953H56.8047L65.9766 62.6016ZM57.4609 53.5391L54.3047 45.0391L51.2109 53.5391H57.4609Z" fill="white"/>
</g>
<defs>
<clipPath id="clip0_364_23766">
<rect width="70" height="70" fill="white" transform="translate(0.1875 0.46875)"/>
</clipPath>
</defs>
</svg>
