<svg width="71" height="71" viewBox="0 0 71 71" fill="none" xmlns="http://www.w3.org/2000/svg">
<g clip-path="url(#clip0_364_23788)">
<path fill-rule="evenodd" clip-rule="evenodd" d="M5.314 0.46875H65.061C67.8759 0.46875 70.1875 2.78033 70.1875 5.59525V65.3423C70.1875 68.1572 67.8759 70.4688 65.061 70.4688H5.314C2.49908 70.4688 0.1875 68.1572 0.1875 65.3423V5.59525C0.1875 2.78033 2.49908 0.46875 5.314 0.46875Z" fill="#C61724"/>
<path d="M47.1257 18.0669C46.4173 18.0669 45.8021 18.3092 45.2429 18.7566C44.7022 19.204 44.2735 20.0242 43.9566 21.1987C43.5651 22.7273 43.36 25.2999 43.36 28.9164C43.36 32.5329 43.5465 35.0309 43.9007 36.3731C44.2548 37.7153 44.7023 38.6288 45.2615 39.0762C45.8021 39.5236 46.4359 39.7473 47.1257 39.7473C47.8154 39.7473 48.4493 39.5236 49.0085 39.0575C49.5491 38.6101 49.9779 37.7899 50.2762 36.6155C50.6676 35.1055 50.8727 32.5329 50.8727 28.9164C50.8727 25.2999 50.6863 22.8205 50.3321 21.4597C49.9779 20.0988 49.5305 19.204 48.9712 18.738C48.4306 18.2906 47.7968 18.0482 47.107 18.0482M47.1257 13.1641C50.1084 13.1641 52.42 14.2266 54.1164 16.3705C56.111 18.8871 57.1177 23.0815 57.1177 28.9164C57.1177 34.7513 56.111 38.9457 54.0977 41.4996C52.4386 43.6061 50.1084 44.6501 47.1257 44.6501C44.143 44.6501 41.7196 43.4943 39.8927 41.2013C38.0658 38.8898 37.1523 34.7886 37.1523 28.8605C37.1523 22.9324 38.159 18.8685 40.1723 16.3332C41.8314 14.2266 44.1616 13.1827 47.1443 13.1827L47.1257 13.1641ZM34.356 44.0908H28.4652V21.8325C26.3214 23.8458 23.7861 25.3558 20.8594 26.3065V20.9377C22.4066 20.4344 24.0658 19.4836 25.8554 18.0669C27.6636 16.6687 28.894 15.0282 29.5651 13.1641H34.3374V44.0908H34.356Z" fill="white"/>
<path d="M35.3663 51.0062H37.9575V52.628C38.8896 51.3604 39.9895 50.7266 41.2758 50.7266C41.9655 50.7266 42.5434 50.8757 43.0467 51.1926C43.5501 51.5095 43.9602 51.9756 44.2771 52.6094C44.7431 51.9756 45.2465 51.4909 45.7871 51.1926C46.3277 50.8757 46.9056 50.7266 47.5208 50.7266C48.3037 50.7266 48.9562 50.913 49.4968 51.2672C50.0374 51.6214 50.4475 52.1433 50.7085 52.8331C50.8949 53.3364 51.0068 54.1567 51.0068 55.2938V62.8997H48.1919V56.0954C48.1919 54.921 48.0987 54.1567 47.8936 53.8025C47.6326 53.3551 47.2225 53.1314 46.6819 53.1314C46.2904 53.1314 45.9176 53.2618 45.5634 53.5415C45.2092 53.8025 44.9668 54.2126 44.8177 54.7159C44.6686 55.2379 44.594 56.0581 44.594 57.1766V62.8997H41.7791V56.375C41.7791 55.2192 41.7232 54.4736 41.6299 54.138C41.5367 53.8025 41.369 53.5601 41.1639 53.3923C40.9588 53.2246 40.6606 53.15 40.3064 53.15C39.8776 53.15 39.4861 53.2805 39.1319 53.5415C38.7777 53.8025 38.5354 54.1753 38.3863 54.6786C38.2371 55.1633 38.1626 55.9836 38.1626 57.1393V62.9183H35.3477V51.0248L35.3663 51.0062Z" fill="white"/>
<path d="M52.8537 59.5077L55.6872 59.0231C55.7991 59.6382 56.0601 60.1043 56.4143 60.4212C56.7871 60.7381 57.2904 60.9059 57.9615 60.9059C58.6886 60.9059 59.2292 60.7567 59.602 60.4585C59.8444 60.2534 59.9749 59.9738 59.9749 59.6196C59.9749 59.3773 59.9003 59.1908 59.7698 59.0231C59.6207 58.8739 59.3224 58.7434 58.8191 58.6129C56.5448 58.0537 55.1093 57.5317 54.4942 57.0843C53.6553 56.4505 53.2265 55.5557 53.2265 54.3999C53.2265 53.3746 53.5994 52.4984 54.3264 51.8087C55.0534 51.1003 56.1906 50.7461 57.7192 50.7461C59.2478 50.7461 60.2545 51.0071 60.9629 51.5477C61.6713 52.0883 62.156 52.8713 62.4356 53.8966L59.7698 54.4558C59.6579 53.9898 59.4343 53.6356 59.1173 53.3932C58.8004 53.1509 58.353 53.0204 57.7565 53.0204C57.0108 53.0204 56.4888 53.1322 56.1533 53.3746C55.9296 53.5424 55.8364 53.7474 55.8364 54.0084C55.8364 54.2321 55.9296 54.4185 56.116 54.5863C56.377 54.7914 57.2532 55.0896 58.7445 55.4625C60.2358 55.8353 61.2984 56.3014 61.895 56.8606C62.4915 57.4199 62.7711 58.2028 62.7711 59.2095C62.7711 60.2907 62.361 61.2414 61.5408 62.0244C60.7205 62.8073 59.5275 63.1988 57.9243 63.1988C56.4702 63.1988 55.3331 62.8633 54.4755 62.2108C53.6366 61.5583 53.0774 60.6635 52.8164 59.5264L52.8537 59.5077Z" fill="white"/>
<path d="M5.44531 34.4733V30.8568L17.5438 24.0898V27.7436L8.67035 32.6651L17.5438 37.6238V41.2776L5.44531 34.4733Z" fill="white"/>
</g>
<defs>
<clipPath id="clip0_364_23788">
<rect width="70" height="70" fill="white" transform="translate(0.1875 0.46875)"/>
</clipPath>
</defs>
</svg>
