<svg width="72" height="72" viewBox="0 0 72 72" fill="none" xmlns="http://www.w3.org/2000/svg">
<g clip-path="url(#clip0_363_23227)">
<path fill-rule="evenodd" clip-rule="evenodd" d="M5.27297 0.0078125H66.727C69.6224 0.0078125 72 2.38544 72 5.28078V66.7348C72 69.6302 69.6224 72.0078 66.727 72.0078H5.27297C2.37763 72.0078 0 69.6302 0 66.7348V5.28078C0 2.38544 2.37763 0.0078125 5.27297 0.0078125Z" fill="#C72530"/>
<path d="M18.1984 20.3908V45.8544C18.1984 45.8544 17.489 48.1937 20.1926 48.1937H52.6932C52.6932 48.1937 54.4573 48.3088 54.4573 46.4297V20.3716C54.4573 20.3716 54.6107 18.2241 56.8924 18.32C59.1742 18.4158 59.0016 20.4291 59.0016 20.4291V46.8323C59.0016 46.8323 59.3468 52.5463 53.3643 52.5463H19.579C19.579 52.5463 13.3281 53.4283 13.3281 46.2955V20.3333C13.3281 20.3333 13.4815 18.3008 15.9167 18.3008C18.3518 18.3008 18.1984 20.3524 18.1984 20.3524" fill="#D62829"/>
<path d="M18.1984 20.3908V45.8544C18.1984 45.8544 17.489 48.1937 20.1926 48.1937H52.6932C52.6932 48.1937 54.4573 48.3088 54.4573 46.4297V20.3716C54.4573 20.3716 54.6107 18.2241 56.8924 18.32C59.1742 18.4158 59.0016 20.4291 59.0016 20.4291V46.8323C59.0016 46.8323 59.3468 52.5463 53.3643 52.5463H19.579C19.579 52.5463 13.3281 53.4283 13.3281 46.2955V20.3333C13.3281 20.3333 13.4815 18.3008 15.9167 18.3008C18.3518 18.3008 18.1984 20.3524 18.1984 20.3524V20.3908Z" stroke="white" stroke-width="2.5" stroke-linecap="round" stroke-linejoin="round"/>
<path d="M18.1953 20.3906H54.4542" stroke="white" stroke-width="2.5" stroke-linecap="round" stroke-linejoin="round"/>
<path d="M36.3179 27.6758L33.0391 34.3485H39.3666L36.1645 40.7719" fill="#D62829"/>
<path d="M36.3179 27.6758L33.0391 34.3485H39.3666L36.1645 40.7719" stroke="white" stroke-width="2.5" stroke-linecap="round" stroke-linejoin="round"/>
<path d="M44.7325 25.3174C44.7325 25.7584 44.3873 26.1036 43.9463 26.1036C43.5053 26.1036 43.1602 25.7584 43.1602 25.3174C43.1602 24.8764 43.5053 24.5312 43.9463 24.5312C44.3873 24.5312 44.7325 24.8764 44.7325 25.3174Z" fill="#F5F6F5"/>
<path d="M44.7325 25.3174C44.7325 25.7584 44.3873 26.1036 43.9463 26.1036C43.5053 26.1036 43.1602 25.7584 43.1602 25.3174C43.1602 24.8764 43.5053 24.5312 43.9463 24.5312C44.3873 24.5312 44.7325 24.8764 44.7325 25.3174Z" stroke="white" stroke-width="0.79" stroke-miterlimit="10"/>
<path d="M49.1426 25.3174C49.1426 25.7584 48.7975 26.1036 48.3565 26.1036C47.9155 26.1036 47.5703 25.7584 47.5703 25.3174C47.5703 24.8764 47.9155 24.5312 48.3565 24.5312C48.7975 24.5312 49.1426 24.8764 49.1426 25.3174Z" fill="#F5F6F5"/>
<path d="M49.1426 25.3174C49.1426 25.7584 48.7975 26.1036 48.3565 26.1036C47.9155 26.1036 47.5703 25.7584 47.5703 25.3174C47.5703 24.8764 47.9155 24.5312 48.3565 24.5312C48.7975 24.5312 49.1426 24.8764 49.1426 25.3174Z" stroke="white" stroke-width="0.79" stroke-miterlimit="10"/>
</g>
<defs>
<clipPath id="clip0_363_23227">
<rect width="72" height="72" fill="white" transform="translate(0 0.0078125)"/>
</clipPath>
</defs>
</svg>
