<svg width="37" height="37" viewBox="0 0 37 37" fill="none" xmlns="http://www.w3.org/2000/svg">
<g clip-path="url(#clip0_383_4276)">
<path d="M18.0254 4.83984C10.5552 4.83984 4.52539 10.8751 4.52539 18.3521C4.52539 25.829 10.5552 31.8643 18.0254 31.8643C25.4956 31.8643 31.5254 25.829 31.5254 18.3521C31.5254 10.8751 25.4711 4.83984 18.0254 4.83984ZM25.1782 11.7303L19.4413 21.2598V28.81C19.4413 28.981 19.3192 29.1032 19.1484 29.1032H16.878C16.7071 29.1032 16.5851 28.981 16.5851 28.81V21.5041L10.8482 11.7303C10.8482 11.7303 10.7994 11.5349 10.8482 11.4371C10.897 11.3394 10.9946 11.2905 11.1167 11.2905H13.6312C13.6312 11.2905 13.8265 11.3394 13.8753 11.4371L18.0254 18.5964L22.2487 11.4371C22.2487 11.4371 22.3952 11.2905 22.4928 11.2905H24.9097C24.9097 11.2905 25.105 11.3394 25.1782 11.4371C25.227 11.5349 25.227 11.6326 25.1782 11.7303Z" fill="#C61E1F"/>
</g>
<defs>
<clipPath id="clip0_383_4276">
<rect width="27" height="27" fill="white" transform="translate(4.52539 4.83984)"/>
</clipPath>
</defs>
</svg>
