<svg width="37" height="37" viewBox="0 0 37 37" fill="none" xmlns="http://www.w3.org/2000/svg">
<g clip-path="url(#clip0_403_5461)">
<path fill-rule="evenodd" clip-rule="evenodd" d="M18.0506 10.7439C21.7572 10.7439 24.7386 13.8094 24.7655 17.5865C24.7655 19.6393 23.9597 21.5005 22.8853 23.0606C24.4969 22.2122 26.5113 20.4057 26.5113 17.5865C26.5113 12.8241 22.7241 8.96484 18.0506 8.96484C13.377 8.96484 9.58984 12.8241 9.58984 17.5865C9.58984 20.3783 11.6043 22.1848 13.2159 23.0606C12.1415 21.5005 11.3357 19.6667 11.3357 17.5865C11.3357 13.8094 14.344 10.7713 18.0506 10.7439Z" fill="#D4191A"/>
<path fill-rule="evenodd" clip-rule="evenodd" d="M18.0234 4.33984C10.852 4.33984 5.02344 10.2792 5.02344 17.5872C5.02344 19.5578 5.45319 21.419 6.20526 23.0886C7.70939 26.4552 10.5565 28.4806 14.0482 29.4112L13.8065 28.9185C11.1474 27.5774 8.99864 24.9772 7.78997 22.3222C7.14534 20.8716 6.79616 19.2841 6.79616 17.5872C6.79616 11.2646 11.8189 6.1463 18.0234 6.1463C24.228 6.1463 29.2507 11.2646 29.2507 17.5872C29.2507 22.2949 26.4573 26.9205 22.4553 28.8912L22.2404 29.4386C27.3437 27.8511 30.9966 23.3897 30.9966 17.5872C30.9966 10.2792 25.1681 4.33984 17.9966 4.33984L18.0234 4.33984Z" fill="#D4191A"/>
<path fill-rule="evenodd" clip-rule="evenodd" d="M21.7843 21.6113C22.1603 26.2917 19.6355 32.0395 19.6355 32.0395C19.6355 32.0395 18.9909 32.3405 18.0508 32.3405C17.1107 32.3405 16.4392 32.0395 16.4392 32.0395C16.4392 32.0395 13.9144 26.2917 14.2636 21.6113C14.2636 21.6113 14.8545 19.6406 18.0508 19.6406C21.2471 19.6406 21.7843 21.6113 21.7843 21.6113Z" fill="#D4191A"/>
<path fill-rule="evenodd" clip-rule="evenodd" d="M20.871 15.7528C20.871 17.3677 19.5817 18.6815 17.997 18.6815C16.4123 18.6815 15.123 17.3677 15.123 15.7528C15.123 14.138 16.4123 12.8516 17.997 12.8516C19.5817 12.8516 20.871 14.1653 20.871 15.7528Z" fill="#D4191A"/>
</g>
<defs>
<clipPath id="clip0_403_5461">
<rect width="26" height="28" fill="white" transform="translate(5.02344 4.33984)"/>
</clipPath>
</defs>
</svg>
