<svg width="37" height="37" viewBox="0 0 37 37" fill="none" xmlns="http://www.w3.org/2000/svg">
<g clip-path="url(#clip0_403_7243)">
<path d="M8.26129 32.4189V27.9249H23.425V32.4189H8.26129ZM23.425 3.9665V5.99881H8.26129V3.9665H23.425ZM24.0439 23.2306C23.7063 23.2306 23.425 23.5168 23.425 23.8603V26.6655H8.26129V7.2869H23.425V10.2066C23.425 10.5501 23.7063 10.8363 24.0439 10.8363C24.3815 10.8363 24.6628 10.5501 24.6628 10.2066V3.33676C24.6628 2.99327 24.3815 2.70703 24.0439 2.70703H7.64236C7.30477 2.70703 7.02344 2.99327 7.02344 3.33676V33.0487C7.02344 33.3922 7.30477 33.6784 7.64236 33.6784H24.0439C24.3815 33.6784 24.6628 33.3922 24.6628 33.0487V23.8603C24.6628 23.5168 24.3815 23.2306 24.0439 23.2306Z" fill="#D4191A"/>
<path d="M16.7865 30.1594C16.7865 30.6747 16.3645 31.104 15.8581 31.104C15.3517 31.104 14.9297 30.6747 14.9297 30.1594C14.9297 29.6442 15.3517 29.2148 15.8581 29.2148C16.3645 29.2148 16.7865 29.6442 16.7865 30.1594Z" fill="#D4191A"/>
<path d="M16.9274 20.1682C16.7586 21.1415 15.8302 21.7998 14.8737 21.6567C13.9172 21.485 13.2701 20.5404 13.4389 19.5671C13.6077 18.5939 14.5361 17.9069 15.4927 18.0787C16.4492 18.2504 17.0962 19.195 16.9274 20.1682ZM18.9249 18.4508C18.8123 18.1359 18.4466 17.9642 18.1372 18.0787L17.7433 18.2218C17.7433 18.2218 17.6308 18.05 17.5464 17.9356L17.8277 17.5921C18.0528 17.3344 18.0246 16.9337 17.7433 16.7047C17.4901 16.4757 17.0962 16.5043 16.8712 16.7906L16.5898 17.1341C16.5898 17.1341 16.3929 17.0482 16.2804 16.991L16.3648 16.5616C16.421 16.2181 16.196 15.9032 15.8584 15.8174C15.5208 15.7601 15.2113 15.9891 15.1269 16.3326L15.0425 16.762C15.0425 16.762 14.8175 16.762 14.7049 16.7906L14.5643 16.3898C14.4517 16.075 14.086 15.9032 13.7765 16.0177C13.4671 16.1322 13.2983 16.5043 13.4108 16.8192L13.5515 17.2199C13.5515 17.2199 13.3827 17.3344 13.2701 17.4203L12.9325 17.1341C12.6794 16.9051 12.2855 16.9337 12.0604 17.2199C11.8354 17.4776 11.8635 17.8783 12.1448 18.1073L12.4824 18.3935C12.4824 18.3935 12.398 18.5939 12.3418 18.7084L11.9198 18.6225C11.5822 18.5653 11.2727 18.7943 11.1883 19.1378C11.132 19.4813 11.3571 19.7961 11.6947 19.882L12.1167 19.9679C12.1167 19.9679 12.1167 20.1969 12.1448 20.3114L11.751 20.4545C11.4415 20.569 11.2727 20.9411 11.3852 21.256C11.4978 21.5708 11.8635 21.7426 12.173 21.6281L12.5668 21.485C12.5668 21.485 12.6794 21.6567 12.7638 21.7712L12.4824 22.1147C12.2574 22.3723 12.2855 22.773 12.5668 23.002C12.82 23.231 13.2139 23.2024 13.4389 22.9162L13.7203 22.5727C13.7203 22.5727 13.9172 22.6585 14.0297 22.7158L13.9453 23.1452C13.8891 23.4886 14.1141 23.8035 14.4517 23.8894C14.7893 23.9466 15.0988 23.7176 15.1832 23.3741L15.2676 22.9448C15.2676 22.9448 15.4927 22.9448 15.6052 22.9162L15.7458 23.3169C15.8584 23.6318 16.2241 23.8035 16.5336 23.689C16.843 23.5745 17.0118 23.2024 16.8993 22.8875L16.7586 22.4868C16.7586 22.4868 16.9274 22.3723 17.04 22.2864L17.3776 22.5727C17.6308 22.8017 18.0246 22.773 18.2497 22.4868C18.4747 22.2292 18.4466 21.8284 18.1653 21.5994L17.8277 21.3132C17.8277 21.3132 17.9121 21.1128 17.9684 20.9983L18.3904 21.0842C18.7279 21.1415 19.0374 20.9125 19.1218 20.569C19.1781 20.2255 18.953 19.9106 18.6154 19.8247L18.1934 19.7389C18.1934 19.7389 18.1934 19.5099 18.1653 19.3954L18.5591 19.2523C18.8686 19.1378 19.0374 18.7657 18.9249 18.4508Z" fill="#D4191A"/>
<path d="M26.5209 16.9636C26.5209 18.3376 25.4237 19.4539 24.0733 19.4539C22.7229 19.4539 21.6257 18.3376 21.6257 16.9636C21.6257 15.5897 22.7229 14.4733 24.0733 14.4733C25.4237 14.4733 26.5209 15.5897 26.5209 16.9636ZM28.3776 16.3339H27.6743C27.6462 16.1049 27.5618 15.8759 27.5055 15.6469L28.0963 15.3034C28.4058 15.1317 28.4902 14.731 28.3214 14.4447C28.1526 14.1298 27.7587 14.044 27.4774 14.2157L26.8866 14.5592C26.7459 14.3875 26.5771 14.2157 26.4083 14.0726L26.7459 13.4715C26.9147 13.1566 26.8022 12.7845 26.5209 12.6128C26.2114 12.441 25.8457 12.5555 25.6769 12.8418L25.3393 13.4429C25.1142 13.357 24.9173 13.2997 24.6641 13.2711V12.5555C24.6641 12.212 24.3828 11.9258 24.0452 11.9258C23.7076 11.9258 23.4262 12.212 23.4262 12.5555V13.2711C23.2012 13.2997 22.9761 13.3856 22.751 13.4429L22.4134 12.8418C22.2446 12.5269 21.8508 12.441 21.5695 12.6128C21.26 12.7845 21.1756 13.1852 21.3444 13.4715L21.682 14.0726C21.5132 14.2157 21.3444 14.3875 21.2037 14.5592L20.6129 14.2157C20.3035 14.044 19.9377 14.1298 19.7689 14.4447C19.6001 14.7596 19.7127 15.1317 19.994 15.3034L20.5848 15.6469C20.5004 15.8759 20.4441 16.0763 20.416 16.3339H19.7127C19.3751 16.3339 19.0938 16.6201 19.0938 16.9636C19.0938 17.3071 19.3751 17.5934 19.7127 17.5934H20.416C20.4441 17.8224 20.5285 18.0514 20.5848 18.2804L19.994 18.6238C19.6845 18.7956 19.6001 19.1963 19.7689 19.4826C19.9377 19.7974 20.3316 19.8833 20.6129 19.7116L21.2037 19.3681C21.3444 19.5398 21.5132 19.7116 21.682 19.8547L21.3444 20.4558C21.1756 20.7707 21.2881 21.1428 21.5695 21.3145C21.8789 21.4863 22.2446 21.3718 22.4134 21.0855L22.751 20.4844C22.9761 20.5703 23.173 20.6275 23.4262 20.6562V21.3718C23.4262 21.7153 23.7076 22.0015 24.0452 22.0015C24.3828 22.0015 24.6641 21.7153 24.6641 21.3718V20.6562C24.8891 20.6275 25.1142 20.5703 25.3393 20.4844L25.6769 21.0855C25.8457 21.4004 26.2395 21.4863 26.5209 21.3145C26.8303 21.1428 26.9147 20.742 26.7459 20.4558L26.4083 19.8547C26.5771 19.7116 26.7459 19.5398 26.8866 19.3681L27.4774 19.7116C27.7868 19.8833 28.1526 19.7974 28.3214 19.4826C28.4902 19.1677 28.3776 18.7956 28.0963 18.6238L27.5055 18.2804C27.5899 18.0514 27.6462 17.851 27.6743 17.5934H28.3776C28.7152 17.5934 28.9966 17.3071 28.9966 16.9636C28.9966 16.6201 28.7152 16.3339 28.3776 16.3339Z" fill="#D4191A"/>
</g>
<defs>
<clipPath id="clip0_403_7243">
<rect width="22" height="31" fill="white" transform="translate(7.02344 2.70703)"/>
</clipPath>
</defs>
</svg>
