<svg width="37" height="37" viewBox="0 0 37 37" fill="none" xmlns="http://www.w3.org/2000/svg">
<g clip-path="url(#clip0_402_5021)">
<path d="M33.8323 3.46875L29.4219 7.06903L31.0121 7.18904L20.8113 26.5405L12.6506 19.58C12.5006 19.43 12.2606 19.37 12.0506 19.4C11.8406 19.4 11.6606 19.55 11.5405 19.73L6.38015 27.4706C6.14013 27.8006 6.26014 28.2807 6.59016 28.5207C6.71017 28.6107 6.86018 28.6407 7.0102 28.6407C7.25021 28.6407 7.49023 28.5207 7.64024 28.3107L12.3206 21.2901L20.5412 28.3107C20.7213 28.4607 20.9313 28.5207 21.1713 28.4607C21.3813 28.4307 21.5913 28.2807 21.6813 28.0707L32.3022 7.9091L33.3222 9.13919L33.8023 3.46875H33.8323Z" fill="#D4191A"/>
<path d="M32.4524 31.6743H4.76021V4.0121C4.76021 3.50206 4.55019 3.08203 4.25017 3.08203H3.59012C3.3201 3.08203 3.08008 3.50206 3.08008 4.0121V32.8443C3.08008 32.8443 3.14008 33.0544 3.26009 33.1444C3.3501 33.2644 3.44011 33.3244 3.56012 33.3244H32.3924C32.9024 33.3244 33.2924 33.1144 33.2924 32.8143V32.1543C33.2924 31.8843 32.8724 31.6443 32.3924 31.6443" fill="#D4191A"/>
<path d="M7.2468 30.5117C7.3068 30.8117 7.60683 31.0517 7.93685 31.0517C8.32688 31.0517 8.62691 30.7517 8.62691 30.3917V29.1016L8.08686 29.9116C7.87685 30.2116 7.57682 30.4217 7.2168 30.5117" fill="#D4191A"/>
<path d="M9.59055 30.3824C9.59055 30.7424 9.89057 31.0425 10.2806 31.0425C10.6706 31.0425 10.9707 30.7424 10.9707 30.3824V25.582L9.56055 27.6822V30.3824H9.59055Z" fill="#D4191A"/>
<path d="M11.9284 24.203V30.3835C11.9284 30.7435 12.2285 31.0436 12.6185 31.0436C13.0085 31.0436 13.3085 30.7435 13.3085 30.3835V24.353L12.3485 23.543L11.8984 24.203H11.9284Z" fill="#D4191A"/>
<path d="M14.2722 30.3806C14.2722 30.7406 14.5722 31.0406 14.9622 31.0406C15.3523 31.0406 15.6523 30.7406 15.6523 30.3806V26.3602L14.2422 25.1602V30.3806H14.2722Z" fill="#D4191A"/>
<path d="M16.6101 30.3809C16.6101 30.7409 16.9401 31.0409 17.3001 31.0409C17.6602 31.0409 17.9902 30.7409 17.9902 30.3809V28.3407L16.5801 27.1406V30.3509L16.6101 30.3809Z" fill="#D4191A"/>
<path d="M18.9499 29.1562V30.3863C18.9499 30.7464 19.2499 31.0464 19.64 31.0464C20.03 31.0464 20.33 30.7464 20.33 30.3863V30.2663C20.33 30.2663 20.09 30.1463 19.97 30.0563L18.9199 29.1562H18.9499Z" fill="#D4191A"/>
<path d="M21.2917 30.3493C21.2917 30.7394 21.6217 31.0394 21.9818 31.0394C22.3418 31.0394 22.6718 30.7394 22.6718 30.3794V28.6992L22.1918 29.5993C22.0118 29.9593 21.6818 30.2293 21.2617 30.3193" fill="#D4191A"/>
<path d="M23.6296 30.3783C23.6296 30.7383 23.9296 31.0383 24.3197 31.0383C24.7097 31.0383 25.0097 30.7383 25.0097 30.3783V24.2578L23.5996 26.928V30.3783H23.6296Z" fill="#D4191A"/>
<path d="M25.9695 30.3772C25.9695 30.7373 26.2695 31.0373 26.6595 31.0373C27.0495 31.0373 27.3496 30.7373 27.3496 30.3772V19.8164L25.9395 22.4866V30.3772H25.9695Z" fill="#D4191A"/>
<path d="M28.3113 30.3879C28.3113 30.7479 28.6113 31.0479 29.0013 31.0479C29.3913 31.0479 29.6914 30.7479 29.6914 30.3879V15.3867L28.2812 18.0569V30.3879H28.3113Z" fill="#D4191A"/>
<path d="M30.6504 30.3868C30.6504 30.7469 30.9504 31.0469 31.3404 31.0469C31.7305 31.0469 32.0605 30.7469 32.0605 30.3868V10.9453L30.6504 13.6155V30.3868Z" fill="#D4191A"/>
</g>
<defs>
<clipPath id="clip0_402_5021">
<rect width="30.7224" height="30.2424" fill="white" transform="translate(3.10742 3.08203)"/>
</clipPath>
</defs>
</svg>
