<svg width="71" height="70" viewBox="0 0 71 70" fill="none" xmlns="http://www.w3.org/2000/svg">
<g clip-path="url(#clip0_402_5221)">
<path fill-rule="evenodd" clip-rule="evenodd" d="M5.939 0H65.686C68.5009 0 70.8125 2.31158 70.8125 5.1265V64.8735C70.8125 67.6884 68.5009 70 65.686 70H5.939C3.12408 70 0.8125 67.6884 0.8125 64.8735V5.1265C0.8125 2.31158 3.12408 0 5.939 0Z" fill="#C61E1F"/>
<path d="M34.3674 48.9715H29.4273V29.1552C27.6191 30.9448 25.4939 32.287 23.0332 33.1446V28.3723C24.3195 27.9249 25.7176 27.0673 27.2463 25.8183C28.7562 24.5693 29.8002 23.0966 30.3594 21.4375H34.3674V48.9901V48.9715Z" fill="white"/>
<path d="M42.4577 43.7148H37.5176V48.9718H42.4577V43.7148Z" fill="white"/>
<path d="M45.4961 41.905L50.4175 41.3644C50.5667 42.5575 50.9768 43.4896 51.6665 44.1793C52.3563 44.8691 53.1579 45.2233 54.0527 45.2233C55.078 45.2233 55.9542 44.7758 56.6812 43.881C57.3896 42.9862 57.7438 41.644 57.7438 39.8544C57.7438 38.1766 57.3896 36.909 56.6812 36.0701C55.9728 35.2312 55.0407 34.8025 53.9036 34.8025C52.4868 34.8025 51.2191 35.4736 50.082 36.7972L46.074 36.182L48.6093 21.9023H61.6772V26.8238H52.3563L51.592 31.4842C52.6918 30.8877 53.829 30.6081 54.9661 30.6081C57.1659 30.6081 59.0114 31.447 60.54 33.1434C62.0687 34.8398 62.833 37.0395 62.833 39.7426C62.833 41.9982 62.2178 44.0115 60.9874 45.7825C59.3097 48.2059 56.9795 49.4177 53.9968 49.4177C51.6106 49.4177 49.6719 48.7466 48.1805 47.3671C46.6705 46.0062 45.7757 44.1793 45.4961 41.8864" fill="white"/>
<path d="M7.4668 46.0083V42.1681L16.825 36.9857L7.4668 31.766V27.9258L20.1805 35.047V38.8499L7.4668 45.9897V46.0083Z" fill="white"/>
</g>
<defs>
<clipPath id="clip0_402_5221">
<rect width="70" height="70" fill="white" transform="translate(0.8125)"/>
</clipPath>
</defs>
</svg>
