<svg width="71" height="70" viewBox="0 0 71 70" fill="none" xmlns="http://www.w3.org/2000/svg">
<g clip-path="url(#clip0_402_5228)">
<path d="M65.686 0H5.939C3.10771 0 0.8125 2.29521 0.8125 5.1265V64.8735C0.8125 67.7048 3.10771 70 5.939 70H65.686C68.5173 70 70.8125 67.7048 70.8125 64.8735V5.1265C70.8125 2.29521 68.5173 0 65.686 0Z" fill="#C61724"/>
<path fill-rule="evenodd" clip-rule="evenodd" d="M46.9696 44.0495C47.2678 43.6766 47.5102 43.2479 47.6593 42.7259C47.8084 42.2039 47.883 41.626 47.883 40.9549C47.883 39.5754 47.5848 38.5501 46.9696 37.8604C46.3544 37.1893 45.5714 36.8351 44.5834 36.8351C43.5954 36.8351 42.8124 37.1707 42.1973 37.8604C41.5821 38.5501 41.2838 39.5754 41.2838 40.9549C41.2838 42.3344 41.5821 43.397 42.1973 44.0868C42.8124 44.7765 43.5768 45.1307 44.5089 45.1307C44.863 45.1307 45.18 45.0748 45.4969 44.9629C45.0122 44.646 44.5089 44.4037 44.0055 44.2173L44.6766 42.8191C45.4596 43.0987 46.2239 43.5089 46.9323 44.0495M48.8897 45.4103C49.4862 45.8391 50.12 46.1746 50.8098 46.417L49.9336 48.132C49.5794 48.0202 49.2252 47.8711 48.871 47.6846C48.7965 47.6474 48.2559 47.2932 47.2678 46.6221C46.4849 46.9576 45.6274 47.144 44.6766 47.144C42.8497 47.144 41.4143 46.6034 40.3704 45.5222C39.3264 44.441 38.8231 42.931 38.8231 40.9736C38.8231 39.0162 39.3451 37.5062 40.389 36.425C41.433 35.3438 42.8497 34.8031 44.6207 34.8031C46.3917 34.8031 47.7898 35.3438 48.8151 36.425C49.8404 37.5062 50.3624 39.0162 50.3624 40.9736C50.3624 41.9989 50.2132 42.9123 49.9336 43.6953C49.7099 44.2918 49.3744 44.8697 48.8897 45.429V45.4103ZM26.3144 23.0588V26.9549H27.8244C28.9057 26.9549 29.6327 26.8804 30.0055 26.7312C30.3784 26.5821 30.658 26.3584 30.863 26.0601C31.0681 25.7619 31.18 25.4077 31.18 24.9976C31.18 24.4942 31.0308 24.0841 30.7512 23.7672C30.4529 23.4503 30.0987 23.2452 29.6513 23.152C29.3158 23.0961 28.6633 23.0588 27.6753 23.0588H26.3517H26.3144ZM23.5555 34.4303V20.7472H27.9922C29.67 20.7472 30.7698 20.8218 31.2732 20.9523C32.0561 21.1573 32.7086 21.6047 33.2306 22.2945C33.7525 22.9842 34.0322 23.879 34.0322 24.9603C34.0322 25.7991 33.883 26.5075 33.5847 27.0668C33.2865 27.6447 32.895 28.0921 32.429 28.409C31.9629 28.7259 31.4782 28.9496 30.9935 29.0615C30.3411 29.192 29.3903 29.2665 28.1413 29.2665H26.3517V34.4303H23.5741H23.5555ZM50.4929 19.1813C54.7432 23.1147 57.3903 28.7446 57.3903 35.0082C57.3903 46.939 47.7152 56.5954 35.8031 56.5954C30.2106 56.5954 25.1027 54.4703 21.2625 50.9656L50.4929 19.1813ZM35.8031 13.4023C40.4636 13.4023 44.7885 14.875 48.3118 17.3917L19.3051 48.9336C16.1174 45.168 14.1973 40.3025 14.1973 34.9896C14.1973 23.0588 23.8537 13.4023 35.7845 13.4023H35.8031Z" fill="white"/>
</g>
<defs>
<clipPath id="clip0_402_5228">
<rect width="70" height="70" fill="white" transform="translate(0.8125)"/>
</clipPath>
</defs>
</svg>
