<svg width="37" height="37" viewBox="0 0 37 37" fill="none" xmlns="http://www.w3.org/2000/svg">
<g clip-path="url(#clip0_403_7231)">
<path d="M25.5291 8.96295L28.4262 6.06285C25.7925 3.78891 22.3686 2.33885 18.6484 2.20703V6.29354C21.2493 6.42536 23.6526 7.41403 25.5291 8.96295Z" fill="#D4191A"/>
<path d="M29.8441 16.8741H33.9593C33.663 13.216 32.1486 9.9204 29.8112 7.38281L26.9141 10.2829C28.4943 12.0625 29.5807 14.3365 29.8441 16.8741Z" fill="#D4191A"/>
<path d="M18.0234 30.1188C11.4391 30.1188 6.10574 24.78 6.10574 18.1888C6.10574 12.0261 10.7477 6.9839 16.7395 6.32479V2.23828C8.50903 2.8974 2.02344 9.78514 2.02344 18.2218C2.02344 27.0539 9.20039 34.2383 18.0234 34.2383C26.8465 34.2383 33.6942 27.3835 34.0234 18.7821H29.9411C29.6448 25.1095 24.4432 30.1188 18.0564 30.1188H18.0234Z" fill="#D4191A"/>
<path d="M18.583 17.6637L16.8711 15.95L21.0192 13.5112L25.1345 11.1055L22.7312 15.2249L20.295 19.3774L18.583 17.6637Z" fill="#D4191A"/>
<path d="M18.1232 20.6304C19.505 20.6304 20.6252 19.509 20.6252 18.1257C20.6252 16.7425 19.505 15.6211 18.1232 15.6211C16.7413 15.6211 15.6211 16.7425 15.6211 18.1257C15.6211 19.509 16.7413 20.6304 18.1232 20.6304Z" fill="#D4191A"/>
</g>
<defs>
<clipPath id="clip0_403_7231">
<rect width="32" height="32" fill="white" transform="translate(2.02344 2.20703)"/>
</clipPath>
</defs>
</svg>
