<svg width="37" height="37" viewBox="0 0 37 37" fill="none" xmlns="http://www.w3.org/2000/svg">
<g clip-path="url(#clip0_403_7291)">
<path d="M22.8224 11.457H13.1572C12.2182 11.457 11.457 12.2182 11.457 13.1572V22.8224C11.457 23.7614 12.2182 24.5225 13.1572 24.5225H22.8224C23.7614 24.5225 24.5225 23.7614 24.5225 22.8224V13.1572C24.5225 12.2182 23.7614 11.457 22.8224 11.457Z" stroke="#D4191A" stroke-width="2" stroke-miterlimit="10"/>
<path d="M33.489 17.65H29.0872V16.6719L26.8281 18.1624L29.0872 19.653V18.6748H33.489C33.7684 18.6748 34.0013 18.4419 34.0013 18.1624C34.0013 17.8829 33.7684 17.65 33.489 17.65Z" fill="#C61E1F"/>
<path d="M2.51237 17.65H6.91412V16.6719L9.17322 18.1624L6.91412 19.653V18.6748H2.51237C2.2329 18.6748 2 18.4419 2 18.1624C2 17.8829 2.2329 17.65 2.51237 17.65Z" fill="#C61E1F"/>
<path d="M17.486 2.51237V6.91412H16.5078L17.9984 9.17322L19.4889 6.91412H18.5107V2.51237C18.5107 2.2329 18.2778 2 17.9984 2C17.7189 2 17.486 2.2329 17.486 2.51237Z" fill="#C61E1F"/>
<path d="M17.486 33.489V29.0872H16.5078L17.9984 26.8281L19.4889 29.0872H18.5107V33.489C18.5107 33.7684 18.2778 34.0013 17.9984 34.0013C17.7189 34.0013 17.486 33.7684 17.486 33.489Z" fill="#C61E1F"/>
</g>
<defs>
<clipPath id="clip0_403_7291">
<rect width="32" height="32" fill="white" transform="translate(2 2)"/>
</clipPath>
</defs>
</svg>
