<svg width="37" height="37" viewBox="0 0 37 37" fill="none" xmlns="http://www.w3.org/2000/svg">
<g clip-path="url(#clip0_402_5123)">
<path d="M15.926 7.12891C13.568 7.12891 11.6719 9.06485 11.6719 11.4724C11.6719 13.8799 13.568 15.8159 15.926 15.8159C18.284 15.8159 20.1802 13.8799 20.1802 11.4724C20.1802 9.06485 18.284 7.12891 15.926 7.12891ZM15.926 14.9968C14.0299 14.9968 12.4741 13.4083 12.4741 11.4724C12.4741 9.53643 14.0299 7.94796 15.926 7.94796C17.8222 7.94796 19.378 9.53643 19.378 11.4724C19.378 13.4083 17.8222 14.9968 15.926 14.9968Z" fill="#D4191A"/>
<path d="M15.9265 2.83594C11.2591 2.83594 7.4668 6.70784 7.4668 11.4732C7.4668 16.2387 11.2591 20.1106 15.9265 20.1106C20.5939 20.1106 24.3861 16.2387 24.3861 11.4732C24.3861 6.70784 20.5939 2.83594 15.9265 2.83594ZM15.9265 19.2915C11.6966 19.2915 8.26901 15.7919 8.26901 11.4732C8.26901 7.15459 11.6966 3.65499 15.9265 3.65499C20.1563 3.65499 23.5839 7.15459 23.5839 11.4732C23.5839 15.7919 20.1563 19.2915 15.9265 19.2915Z" fill="#D4191A"/>
<path d="M29.4659 26.1919V19.4409C29.4659 18.5474 28.761 17.8028 27.8615 17.8028C26.9621 17.8028 26.2571 18.5226 26.2571 19.4409V22.9653H25.4792V19.4409C25.4792 18.5474 24.7742 17.8028 23.8748 17.8028C22.9753 17.8028 22.2704 18.5226 22.2704 19.4409V22.9653H21.4925V19.4409C21.4925 18.5474 20.7875 17.8028 19.888 17.8028C18.9886 17.8028 18.2836 18.5226 18.2836 19.4409V22.9653H17.5057V11.9701C17.5057 11.0766 16.7764 10.332 15.9013 10.332C15.0262 10.332 14.2969 11.0518 14.2969 11.9701V26.4153C14.2969 26.4153 14.2969 26.5394 14.2969 26.589V30.3617C14.2969 32.2728 15.4151 33.8364 16.8007 33.8364H26.9134C28.2991 33.8364 29.4173 32.2728 29.4173 30.3617V26.4153C29.4173 26.4153 29.4173 26.2416 29.4173 26.1671" fill="#D4191A"/>
</g>
<defs>
<clipPath id="clip0_402_5123">
<rect width="22" height="31" fill="white" transform="translate(7.4668 2.83594)"/>
</clipPath>
</defs>
</svg>
