<svg width="70" height="70" viewBox="0 0 70 70" fill="none" xmlns="http://www.w3.org/2000/svg">
<g clip-path="url(#clip0_363_23126)">
<path fill-rule="evenodd" clip-rule="evenodd" d="M5.1265 0.0078125H64.8735C67.6884 0.0078125 70 2.3194 70 5.13431V64.8813C70 67.6962 67.6884 70.0078 64.8735 70.0078H5.1265C2.31158 70.0078 0 67.6962 0 64.8813V5.13431C0 2.3194 2.31158 0.0078125 5.1265 0.0078125Z" fill="#C61724"/>
<path d="M46.9382 17.6059C46.2298 17.6059 45.6146 17.8483 45.0554 18.2957C44.5147 18.7431 44.086 19.5633 43.7691 20.7377C43.3776 22.2664 43.1725 24.8389 43.1725 28.4555C43.1725 32.072 43.359 34.57 43.7132 35.9122C44.0673 37.2544 44.5148 38.1678 45.074 38.6152C45.6146 39.0626 46.2484 39.2863 46.9382 39.2863C47.6279 39.2863 48.2618 39.0626 48.821 38.5966C49.3616 38.1492 49.7904 37.329 50.0887 36.1545C50.4801 34.6445 50.6852 32.072 50.6852 28.4555C50.6852 24.8389 50.4988 22.3596 50.1446 20.9987C49.7904 19.6379 49.343 18.7431 48.7837 18.277C48.2431 17.8296 47.6093 17.5873 46.9195 17.5873M46.9382 12.7031C49.9209 12.7031 52.2325 13.7657 53.9289 15.9095C55.9235 18.4262 56.9302 22.6206 56.9302 28.4555C56.9302 34.2903 55.9235 38.4848 53.9102 41.0387C52.2511 43.1452 49.9209 44.1891 46.9382 44.1891C43.9555 44.1891 41.5321 43.0334 39.7052 40.7404C37.8783 38.4288 36.9648 34.3276 36.9648 28.3995C36.9648 22.4714 37.9715 18.4075 39.9848 15.8722C41.6439 13.7657 43.9741 12.7218 46.9568 12.7218L46.9382 12.7031ZM34.1685 43.6299H28.2777V21.3716C26.1339 23.3849 23.5986 24.8949 20.6719 25.8456V20.4768C22.2191 19.9734 23.8783 19.0227 25.6679 17.6059C27.4761 16.2078 28.7065 14.5673 29.3776 12.7031H34.1499V43.6299H34.1685Z" fill="white"/>
<path d="M35.1788 50.5453H37.77V52.1671C38.7021 50.8994 39.802 50.2656 41.0883 50.2656C41.778 50.2656 42.3559 50.4148 42.8592 50.7317C43.3626 51.0486 43.7727 51.5146 44.0896 52.1484C44.5556 51.5146 45.059 51.0299 45.5996 50.7317C46.1402 50.4148 46.7181 50.2656 47.3333 50.2656C48.1162 50.2656 48.7687 50.452 49.3093 50.8062C49.8499 51.1604 50.26 51.6824 50.521 52.3722C50.7074 52.8755 50.8193 53.6957 50.8193 54.8329V62.4387H48.0044V55.6345C48.0044 54.46 47.9112 53.6957 47.7061 53.3415C47.4451 52.8941 47.035 52.6704 46.4944 52.6704C46.1029 52.6704 45.7301 52.8009 45.3759 53.0805C45.0217 53.3415 44.7793 53.7516 44.6302 54.255C44.4811 54.7769 44.4065 55.5972 44.4065 56.7157V62.4387H41.5916V55.9141C41.5916 54.7583 41.5357 54.0126 41.4424 53.6771C41.3492 53.3415 41.1815 53.0992 40.9764 52.9314C40.7713 52.7636 40.4731 52.6891 40.1189 52.6891C39.6901 52.6891 39.2986 52.8196 38.9444 53.0805C38.5902 53.3415 38.3479 53.7144 38.1988 54.2177C38.0496 54.7024 37.9751 55.5226 37.9751 56.6784V62.4574H35.1602V50.5639L35.1788 50.5453Z" fill="white"/>
<path d="M52.6662 59.0468L55.4997 58.5621C55.6116 59.1773 55.8726 59.6433 56.2268 59.9603C56.5996 60.2772 57.1029 60.4449 57.774 60.4449C58.5011 60.4449 59.0417 60.2958 59.4145 59.9975C59.6569 59.7925 59.7874 59.5129 59.7874 59.1587C59.7874 58.9163 59.7128 58.7299 59.5823 58.5621C59.4332 58.413 59.1349 58.2825 58.6316 58.152C56.3573 57.5927 54.9218 57.0708 54.3067 56.6234C53.4678 55.9896 53.039 55.0947 53.039 53.939C53.039 52.9137 53.4119 52.0375 54.1389 51.3477C54.8659 50.6394 56.0031 50.2852 57.5317 50.2852C59.0603 50.2852 60.067 50.5461 60.7754 51.0868C61.4838 51.6274 61.9685 52.4103 62.2481 53.4356L59.5823 53.9949C59.4704 53.5288 59.2468 53.1746 58.9298 52.9323C58.6129 52.6899 58.1655 52.5595 57.569 52.5595C56.8233 52.5595 56.3013 52.6713 55.9658 52.9137C55.7421 53.0814 55.6489 53.2865 55.6489 53.5475C55.6489 53.7712 55.7421 53.9576 55.9285 54.1254C56.1895 54.3304 57.0657 54.6287 58.557 55.0015C60.0483 55.3744 61.1109 55.8404 61.7075 56.3997C62.304 56.9589 62.5836 57.7419 62.5836 58.7485C62.5836 59.8298 62.1735 60.7805 61.3533 61.5635C60.533 62.3464 59.34 62.7379 57.7368 62.7379C56.2827 62.7379 55.1456 62.4023 54.288 61.7499C53.4491 61.0974 52.8899 60.2026 52.6289 59.0655L52.6662 59.0468Z" fill="white"/>
<path d="M5.25781 34.0124V30.3959L17.3563 23.6289V27.2827L8.48285 32.2041L17.3563 37.1629V40.8167L5.25781 34.0124Z" fill="white"/>
</g>
<defs>
<clipPath id="clip0_363_23126">
<rect width="70" height="70" fill="white" transform="translate(0 0.0078125)"/>
</clipPath>
</defs>
</svg>
