<svg width="70" height="70" viewBox="0 0 70 70" fill="none" xmlns="http://www.w3.org/2000/svg">
<g clip-path="url(#clip0_363_23341)">
<path fill-rule="evenodd" clip-rule="evenodd" d="M5.1265 0H64.8735C67.6884 0 70 2.31158 70 5.1265V64.8735C70 67.6884 67.6884 70 64.8735 70H5.1265C2.31158 70 0 67.6884 0 64.8735V5.1265C0 2.31158 2.31158 0 5.1265 0Z" fill="#C61724"/>
<path d="M22.9102 49.4023H27.3096L29.006 56.3744L30.6838 49.4023H35.0833V60.8484H32.3429V52.124L30.2364 60.8484H27.757L25.6505 52.124V60.8484H22.9102V49.4023Z" fill="white"/>
<path d="M36.5938 49.4023H42.149C43.3607 49.4023 44.2742 49.7006 44.8707 50.3158C45.4673 50.931 45.7842 51.7885 45.7842 52.9256C45.7842 54.0628 45.4486 54.9762 44.7962 55.6287C44.1437 56.2812 43.137 56.5981 41.7948 56.5981H39.9679V60.8484H36.6124V49.4023H36.5938ZM39.9679 54.2865H40.7882C41.4406 54.2865 41.888 54.1746 42.149 53.9323C42.41 53.69 42.5405 53.3917 42.5405 53.0189C42.5405 52.646 42.4286 52.3478 42.2049 52.1054C41.9812 51.8631 41.5525 51.7326 40.9187 51.7326H39.9679V54.2865Z" fill="white"/>
<path d="M46.9219 49.4023H52.4771C53.6889 49.4023 54.6023 49.7006 55.1988 50.3158C55.7954 50.931 56.0936 51.7885 56.0936 52.9256C56.0936 54.0628 55.7581 54.9762 55.1056 55.6287C54.4532 56.2812 53.4465 56.5981 52.1043 56.5981H50.2774V60.8484H46.9219V49.4023ZM50.2774 54.2865H51.0976C51.7501 54.2865 52.1975 54.1746 52.4585 53.9323C52.7195 53.69 52.85 53.3917 52.85 53.0189C52.85 52.646 52.7381 52.3478 52.5144 52.1054C52.2907 51.8631 51.862 51.7326 51.2468 51.7326H50.296V54.2865H50.2774Z" fill="white"/>
<path d="M56.4844 49.4023H66.6442V52.2359H63.2327V60.8671H59.8958V52.2359H56.4844V49.4023Z" fill="white"/>
<path d="M35.5481 37.5267V43.3616H13.5508C13.7931 41.1619 14.5015 39.074 15.6946 37.098C16.8877 35.1219 19.2365 32.5121 22.7598 29.2498C25.5934 26.6213 27.3271 24.8316 27.9609 23.8996C28.8184 22.5946 29.2472 21.327 29.2472 20.0593C29.2472 18.6612 28.8744 17.58 28.1287 16.8343C27.383 16.0886 26.3391 15.7158 25.0155 15.7158C23.6919 15.7158 22.6666 16.1073 21.8837 16.8902C21.1007 17.6732 20.672 18.9968 20.5415 20.8237L14.2965 20.1898C14.6693 16.7411 15.8437 14.2617 17.8011 12.7518C19.7585 11.2418 22.2192 10.4961 25.1646 10.4961C28.3897 10.4961 30.9249 11.3723 32.7891 13.1059C34.6347 14.8396 35.5668 17.0207 35.5668 19.6119C35.5668 21.0846 35.3058 22.4828 34.7652 23.825C34.2432 25.1486 33.4043 26.5467 32.2485 28.0194C31.4842 28.9888 30.1234 30.3869 28.1473 32.1952C26.1713 34.0034 24.9036 35.2151 24.3817 35.8117C23.8597 36.4082 23.4309 36.9861 23.0954 37.5454H35.5481V37.5267Z" fill="white"/>
</g>
<defs>
<clipPath id="clip0_363_23341">
<rect width="70" height="70" fill="white"/>
</clipPath>
</defs>
</svg>
