<svg width="71" height="71" viewBox="0 0 71 71" fill="none" xmlns="http://www.w3.org/2000/svg">
<g clip-path="url(#clip0_364_23759)">
<path fill-rule="evenodd" clip-rule="evenodd" d="M5.314 0.46875H65.061C67.8759 0.46875 70.1875 2.78033 70.1875 5.59525V65.3423C70.1875 68.1572 67.8759 70.4688 65.061 70.4688H5.314C2.49908 70.4688 0.1875 68.1572 0.1875 65.3423V5.59525C0.1875 2.78033 2.49908 0.46875 5.314 0.46875Z" fill="#C61724"/>
<path d="M0.523438 25.5988C1.34368 22.3738 4.58735 17.3405 8.33436 17.3964C13.0694 17.471 14.6912 24.1261 15.6792 27.7053C17.096 32.8318 17.9349 38.0888 19.5194 43.1594C20.2838 45.5828 21.1226 47.9876 22.0174 50.3738C22.6326 52.0143 23.3597 53.8039 24.6646 55.0342C26.2305 56.5069 28.5048 57.0475 30.4808 56.0222C32.7365 54.8665 33.2957 52.0515 34.582 50.0755C35.6819 48.3791 37.2851 46.925 39.3916 46.7386C41.0694 46.6081 42.6166 47.0928 43.7538 45.5083C44.4808 44.483 45.1892 43.1035 45.7858 42.0036C48.4142 36.989 49.9429 31.6015 52.4782 26.5309C53.7458 24.0143 55.0694 21.4417 56.7099 19.1487C57.7165 17.7506 59.096 16.3525 60.9043 16.2033C65.9375 15.7746 67.9322 20.435 69.7032 24.2193C69.8337 24.4989 69.9083 24.7413 69.8523 24.9091C69.7405 25.226 69.4049 25.4497 69.0507 25.692C68.6406 25.953 68.0441 26.4191 67.7645 26.1767C67.6153 26.0462 67.4475 25.7479 67.2984 25.4683C65.7884 22.5043 65.2292 19.7266 62.3024 19.1674C59.2265 18.5708 57.4369 23.194 56.2438 25.4124C53.4662 30.5202 51.4715 37.1754 48.9176 42.3764C47.2212 45.8252 45.5061 50.0755 40.8457 49.6095C39.0933 49.4417 38.0308 50.0009 37.0241 51.5296C36.4648 52.3685 36.0734 53.3192 35.6073 54.2326C34.7871 55.8545 33.8177 57.3458 32.2332 58.3152C29.325 60.0862 25.9509 59.5269 23.3783 57.5695C20.6566 55.5003 19.6313 51.977 18.5314 48.9011C16.7418 43.9051 15.5674 38.9091 14.4116 33.7639C13.5913 30.1661 12.7711 26.1581 11.0561 22.8771C10.5341 21.8704 9.69521 20.2113 8.39028 20.2486C7.42091 20.2859 6.61931 21.1807 5.96685 21.8332C4.71784 23.0822 3.71119 24.6667 3.28243 26.3818L3.11465 26.4936L0.672572 25.8598L0.579363 25.6361L0.523438 25.5988Z" fill="white"/>
<path d="M48.5625 38.9625H21.1404L20.5625 36.5391H48.5625V38.9625Z" fill="white"/>
<path d="M70.1859 38.9625H52.5508L53.5015 36.5391H70.1859V38.9625Z" fill="white"/>
<path d="M17.1515 36.5391H0.1875V38.9625H17.1515V36.5391Z" fill="white"/>
</g>
<defs>
<clipPath id="clip0_364_23759">
<rect width="70" height="70" fill="white" transform="translate(0.1875 0.46875)"/>
</clipPath>
</defs>
</svg>
