<svg width="71" height="70" viewBox="0 0 71 70" fill="none" xmlns="http://www.w3.org/2000/svg">
<g clip-path="url(#clip0_364_24660)">
<path fill-rule="evenodd" clip-rule="evenodd" d="M6.04837 0H65.7954C68.6103 0 70.9219 2.31158 70.9219 5.1265V64.8735C70.9219 67.6884 68.6103 70 65.7954 70H6.04837C3.23346 70 0.921875 67.6884 0.921875 64.8735V5.1265C0.921875 2.31158 3.23346 0 6.04837 0Z" fill="#C61724"/>
<path d="M9.81356 25.9289V8.96484H14.1571L16.767 20.5414L19.3395 8.96484H23.7017V25.9289H20.9987V12.5814L18.1465 25.9289H15.3502L12.498 12.5814V25.9289H9.79492H9.81356Z" fill="white"/>
<path d="M28.6233 17.389L26.1253 16.8484C26.405 15.6553 26.8896 14.7792 27.5794 14.2013C28.2691 13.6234 29.2944 13.3438 30.6366 13.3438C31.867 13.3438 32.7805 13.5115 33.377 13.8657C33.9735 14.2013 34.4023 14.6487 34.6446 15.1706C34.887 15.6926 35.0175 16.662 35.0175 18.0788L34.9802 21.8817C34.9802 22.9629 35.0175 23.7645 35.1107 24.2679C35.2039 24.7898 35.3717 25.3304 35.614 25.9083H32.8923C32.8177 25.7033 32.7245 25.3677 32.6313 24.9576C32.594 24.7712 32.5568 24.6407 32.5381 24.5661C32.0721 25.1067 31.5687 25.5169 31.0281 25.7778C30.4875 26.0575 29.9283 26.188 29.3131 26.188C28.2319 26.188 27.393 25.8524 26.7778 25.1627C26.1626 24.4729 25.8457 23.5967 25.8457 22.5528C25.8457 21.8631 25.9948 21.2292 26.2745 20.6886C26.5541 20.148 26.9456 19.7379 27.4489 19.4396C27.9522 19.16 28.6793 18.899 29.6486 18.6753C30.9349 18.3957 31.8297 18.1347 32.3331 17.8737V17.5568C32.3331 16.9416 32.2026 16.4942 31.9416 16.2146C31.6806 15.9536 31.1959 15.8045 30.4689 15.8045C29.9842 15.8045 29.5927 15.9163 29.3131 16.14C29.0335 16.3637 28.8098 16.7738 28.642 17.3331L28.6233 17.389ZM32.3144 20.0175C31.9602 20.148 31.401 20.3158 30.6366 20.5208C29.8723 20.7073 29.369 20.9123 29.1453 21.0801C28.7911 21.3784 28.6047 21.7698 28.6047 22.2359C28.6047 22.7019 28.7538 23.0748 29.0335 23.4103C29.3131 23.7459 29.6859 23.9137 30.1333 23.9137C30.6366 23.9137 31.1027 23.7272 31.5501 23.3358C31.8857 23.0375 32.1094 22.6833 32.2026 22.2545C32.2771 21.9749 32.3144 21.4529 32.3144 20.67V20.0175Z" fill="white"/>
<path d="M36.416 25.9295L40.1817 19.6099L36.5838 13.6445H39.9393L41.7849 17.0187L43.7236 13.6445H46.9673L43.444 19.4608L47.3028 25.9295H43.91L41.7849 22.1266L39.641 25.9295H36.416Z" fill="white"/>
<path d="M48.9062 25.9303V22.668H51.6652V25.9303H48.9062Z" fill="white"/>
<path d="M24.5782 54.9777V59.0044H9.51562C9.6834 57.4757 10.1681 56.0403 10.9883 54.6795C11.8086 53.3186 13.4118 51.5104 15.8166 49.2547C17.7553 47.4465 18.9484 46.1975 19.3771 45.5636C19.9737 44.6688 20.272 43.7927 20.272 42.9165C20.272 41.9471 20.011 41.2015 19.5076 40.6981C18.9857 40.1762 18.2773 39.9152 17.3638 39.9152C16.4504 39.9152 15.7606 40.1948 15.22 40.7354C14.698 41.276 14.3811 42.1895 14.3066 43.4385L10.019 43.0097C10.2799 40.6236 11.0815 38.9085 12.4237 37.8832C13.766 36.8393 15.4624 36.3359 17.4757 36.3359C19.6941 36.3359 21.4277 36.9325 22.6954 38.1442C23.963 39.3373 24.5969 40.8473 24.5969 42.6369C24.5969 43.6622 24.4104 44.6315 24.0562 45.545C23.702 46.4584 23.1241 47.4278 22.3412 48.4345C21.8192 49.1056 20.8871 50.0563 19.5263 51.324C18.1654 52.573 17.3079 53.4118 16.9537 53.822C16.5995 54.2321 16.3012 54.6422 16.0775 55.015H24.6155L24.5782 54.9777Z" fill="#F8F8F8"/>
<path d="M34.7568 36.3155C36.9379 36.3155 38.6343 37.0985 39.846 38.6644C41.3001 40.5099 42.0271 43.5858 42.0271 47.8548C42.0271 52.1238 41.3001 55.1997 39.8274 57.0639C38.6157 58.6111 36.9193 59.3754 34.7382 59.3754C32.5571 59.3754 30.7861 58.5366 29.4625 56.8402C28.1203 55.1437 27.4492 52.1424 27.4492 47.7989C27.4492 43.4553 28.1762 40.4913 29.649 38.6085C30.8607 37.0612 32.5571 36.2969 34.7382 36.2969L34.7568 36.3155ZM34.7568 39.9134C34.2348 39.9134 33.7688 40.0812 33.3587 40.4167C32.9486 40.7523 32.6316 41.3488 32.4079 42.2063C32.1097 43.3248 31.9605 45.2077 31.9605 47.8548C31.9605 50.5019 32.091 52.3288 32.352 53.3169C32.613 54.3049 32.9486 54.976 33.3587 55.2929C33.7688 55.6284 34.2162 55.7776 34.7382 55.7776C35.2601 55.7776 35.7262 55.6098 36.1363 55.2742C36.5464 54.9387 36.8633 54.3421 37.087 53.4846C37.3853 52.3661 37.5344 50.5019 37.5344 47.8362C37.5344 45.1704 37.4039 43.3621 37.143 42.3741C36.882 41.3861 36.5464 40.715 36.1363 40.3794C35.7262 40.0439 35.2788 39.8761 34.7568 39.8761V39.9134Z" fill="#F8F8F8"/>
<path d="M66.0944 59.004H61.173L59.2156 53.8775H50.2489L48.4033 59.004H43.5938L52.3368 36.4102H57.1277L66.1131 59.004H66.0944ZM57.7615 50.056L54.667 41.6671L51.647 50.056H57.7615Z" fill="#F8F8F8"/>
</g>
<defs>
<clipPath id="clip0_364_24660">
<rect width="70" height="70" fill="white" transform="translate(0.921875)"/>
</clipPath>
</defs>
</svg>
