<svg width="37" height="37" viewBox="0 0 37 37" fill="none" xmlns="http://www.w3.org/2000/svg">
<g clip-path="url(#clip0_403_5415)">
<path fill-rule="evenodd" clip-rule="evenodd" d="M18.0506 10.7517C21.7572 10.7517 24.7386 13.8172 24.7655 17.5944C24.7655 19.6471 23.9597 21.5083 22.8853 23.0685C24.4969 22.22 26.5113 20.4135 26.5113 17.5944C26.5113 12.8319 22.7241 8.97266 18.0506 8.97266C13.377 8.97266 9.58984 12.8319 9.58984 17.5944C9.58984 20.3861 11.6043 22.1926 13.2159 23.0685C12.1415 21.5083 11.3357 19.6745 11.3357 17.5944C11.3357 13.8172 14.344 10.7791 18.0506 10.7517Z" fill="#D4191A"/>
<path fill-rule="evenodd" clip-rule="evenodd" d="M18.0234 4.34766C10.852 4.34766 5.02344 10.2871 5.02344 17.595C5.02344 19.5656 5.45319 21.4268 6.20526 23.0964C7.70939 26.463 10.5565 28.4884 14.0482 29.419L13.8065 28.9263C11.1474 27.5852 8.99864 24.985 7.78997 22.3301C7.14534 20.8794 6.79616 19.2919 6.79616 17.595C6.79616 11.2724 11.8189 6.15411 18.0234 6.15411C24.228 6.15411 29.2507 11.2724 29.2507 17.595C29.2507 22.3027 26.4573 26.9283 22.4553 28.899L22.2404 29.4464C27.3437 27.8589 30.9966 23.3975 30.9966 17.595C30.9966 10.2871 25.1681 4.34766 17.9966 4.34766L18.0234 4.34766Z" fill="#D4191A"/>
<path fill-rule="evenodd" clip-rule="evenodd" d="M21.7843 21.6191C22.1603 26.2995 19.6355 32.0473 19.6355 32.0473C19.6355 32.0473 18.9909 32.3483 18.0508 32.3483C17.1107 32.3483 16.4392 32.0473 16.4392 32.0473C16.4392 32.0473 13.9144 26.2995 14.2636 21.6191C14.2636 21.6191 14.8545 19.6484 18.0508 19.6484C21.2471 19.6484 21.7843 21.6191 21.7843 21.6191Z" fill="#D4191A"/>
<path fill-rule="evenodd" clip-rule="evenodd" d="M20.871 15.7606C20.871 17.3755 19.5817 18.6893 17.997 18.6893C16.4123 18.6893 15.123 17.3755 15.123 15.7606C15.123 14.1458 16.4123 12.8594 17.997 12.8594C19.5817 12.8594 20.871 14.1732 20.871 15.7606Z" fill="#D4191A"/>
</g>
<defs>
<clipPath id="clip0_403_5415">
<rect width="26" height="28" fill="white" transform="translate(5.02344 4.34766)"/>
</clipPath>
</defs>
</svg>
