<svg width="37" height="37" viewBox="0 0 37 37" fill="none" xmlns="http://www.w3.org/2000/svg">
<g clip-path="url(#clip0_403_7278)">
<path fill-rule="evenodd" clip-rule="evenodd" d="M14.2 29.4916H19.8263L20.2995 16.2235H18.4065V16.572H18.0122V16.2235H16.3558V16.572H15.9615V16.2235H15.7774C15.4356 16.2235 15.1464 15.9019 15.1464 15.473C15.1464 15.0441 15.4356 14.7225 15.7774 14.7225H20.3521L20.431 12.6318H17.5652V13.007H17.1709V12.6318H16.8817C16.5925 12.6318 16.3821 12.3101 16.3821 11.8813C16.3821 11.4524 16.6187 11.1307 16.8817 11.1307H20.4835L20.6413 6.68126C20.6413 5.85033 21.2986 5.20703 22.0873 5.20703C22.876 5.20703 23.5333 5.87713 23.5333 6.68126L23.691 11.1307H27.2666C27.5558 11.1307 27.7662 11.4524 27.7662 11.8813C27.7662 12.3101 27.5295 12.6318 27.2666 12.6318H26.846V13.007H26.4516V12.6318H23.7173L23.7962 14.7225H28.3709C28.7126 14.7225 29.0018 15.0441 29.0018 15.473C29.0018 15.9019 28.7126 16.2235 28.3709 16.2235H28.0817V16.572H27.6873V16.2235H26.031V16.572H25.6366V16.2235H23.8225L24.2957 29.4916H29.9483V31.2338H14.1211V29.4916H14.2Z" fill="#D4191A"/>
<path d="M4.15625 24.9357V23.1398H8.88864C9.65109 23.1398 10.1243 23.1398 10.3609 23.0862C10.729 23.0058 11.0182 22.8181 11.2286 22.5233C11.4389 22.2284 11.544 21.8264 11.544 21.3439C11.544 20.8614 11.4389 20.4594 11.2286 20.1913C11.0182 19.9233 10.7816 19.7893 10.4661 19.7357C10.1769 19.6821 9.67738 19.6553 8.99381 19.6553H4.15625V17.8594H8.7309C9.78254 17.8594 10.5187 17.913 10.9656 17.9934C11.4126 18.0738 11.7544 18.2614 12.0699 18.5295C12.3591 18.7975 12.5957 19.146 12.7797 19.5748C12.9638 20.0037 13.0426 20.5934 13.0426 21.2903C13.0426 22.148 12.9375 22.7913 12.7534 23.2202C12.5694 23.6491 12.3065 23.9975 11.991 24.2656C11.6755 24.5068 11.36 24.6944 11.0182 24.7748C10.5187 24.8821 9.78254 24.9625 8.80977 24.9625H4.15625V24.9357Z" fill="#D4191A"/>
<path d="M2 23.8635L4.62911 21.1562H6.91643L4.26103 23.8635L6.91643 26.5707H4.62911L2 23.8635Z" fill="#D4191A"/>
</g>
<defs>
<clipPath id="clip0_403_7278">
<rect width="28" height="26" fill="white" transform="translate(2 5.20703)"/>
</clipPath>
</defs>
</svg>
