<svg width="37" height="37" viewBox="0 0 37 37" fill="none" xmlns="http://www.w3.org/2000/svg">
<g clip-path="url(#clip0_410_4230)">
<path d="M28.3867 31.7969H28.4155" stroke="#D4191A" stroke-width="0.31" stroke-miterlimit="10"/>
<path d="M29.1914 31.7969H29.2201" stroke="#D4191A" stroke-width="0.31" stroke-miterlimit="10"/>
<path d="M28.4141 31.7969V31.8539" stroke="#D4191A" stroke-width="0.31" stroke-miterlimit="10"/>
<path d="M29.0469 31.9964H29.0756H29.1043L29.1331 31.9679H29.1618V31.9394H29.1906V31.9109V31.8824V31.8539V31.7969" stroke="#D4191A" stroke-width="0.31" stroke-miterlimit="10"/>
<path d="M28.4141 31.8555V31.884V31.9125L28.4428 31.941V31.9695H28.4715L28.5003 31.998H28.529H28.5577" stroke="#D4191A" stroke-width="0.31" stroke-miterlimit="10"/>
<path d="M28.4414 31.4844V31.5129" stroke="#D4191A" stroke-width="0.31" stroke-miterlimit="10"/>
<path d="M29.1602 31.5129V31.4844" stroke="#D4191A" stroke-width="0.31" stroke-miterlimit="10"/>
<path d="M29.5625 31.2824V31.2539" stroke="#D4191A" stroke-width="0.31" stroke-miterlimit="10"/>
<path d="M28.0391 31.2539V31.2824" stroke="#D4191A" stroke-width="0.31" stroke-miterlimit="10"/>
<path d="M29.418 31.3996V31.3711" stroke="#D4191A" stroke-width="0.31" stroke-miterlimit="10"/>
<path d="M29.3633 31.3984H29.392H29.4208" stroke="#D4191A" stroke-width="0.31" stroke-miterlimit="10"/>
<path d="M29.418 31.3996L29.4467 31.3711H29.4754" stroke="#D4191A" stroke-width="0.31" stroke-miterlimit="10"/>
<path d="M28.125 31.3711H28.1537L28.1825 31.3996" stroke="#D4191A" stroke-width="0.31" stroke-miterlimit="10"/>
<path d="M28.1836 31.3984H28.2123H28.2411" stroke="#D4191A" stroke-width="0.31" stroke-miterlimit="10"/>
<path d="M28.1836 31.3711V31.3996" stroke="#D4191A" stroke-width="0.31" stroke-miterlimit="10"/>
<path d="M29.3633 31.3984H29.392H29.4208" stroke="#D4191A" stroke-width="0.31" stroke-miterlimit="10"/>
<path d="M29.418 31.3996L29.4467 31.3711H29.4754" stroke="#D4191A" stroke-width="0.31" stroke-miterlimit="10"/>
<path d="M28.125 31.3711H28.1537L28.1825 31.3996" stroke="#D4191A" stroke-width="0.31" stroke-miterlimit="10"/>
<path d="M29.5625 31.2824V31.2539" stroke="#D4191A" stroke-width="0.31" stroke-miterlimit="10"/>
<path d="M26.7773 31.1133V31.1418H26.8061V31.1703H26.8348" stroke="#D4191A" stroke-width="0.31" stroke-miterlimit="10"/>
<path d="M27.2344 31.1687L27.2631 31.1402V31.1117V31.0547" stroke="#D4191A" stroke-width="0.31" stroke-miterlimit="10"/>
<path d="M26.7773 31.0547V31.1117" stroke="#D4191A" stroke-width="0.31" stroke-miterlimit="10"/>
<path d="M29.5343 19.6523H22.293" stroke="#D4191A" stroke-width="0.31" stroke-miterlimit="10"/>
<path d="M21.2891 20.6523V30.0602" stroke="#D4191A" stroke-width="0.21" stroke-miterlimit="10"/>
<path d="M22.293 31.0547H29.5343" stroke="#D4191A" stroke-width="0.31" stroke-miterlimit="10"/>
<path d="M30.5703 30.0602V20.6523" stroke="#D4191A" stroke-width="0.31" stroke-miterlimit="10"/>
<path d="M28.7578 31.3984V31.484H28.844V31.3984" stroke="#D4191A" stroke-width="0.31" stroke-miterlimit="10"/>
<path d="M28.7578 31.5117H28.844V31.7683H28.7578V31.5117Z" stroke="#D4191A" stroke-width="0.31" stroke-miterlimit="10"/>
<path d="M28.7603 31.7695H28.7315L28.6741 31.798H28.6453H28.6166H28.5879H28.5591H28.5304L28.4729 31.7695H28.4442H28.3867V31.798" stroke="#D4191A" stroke-width="0.31" stroke-miterlimit="10"/>
<path d="M29.2173 31.798V31.7695H29.1598H29.1311L29.1024 31.798H29.0736H29.0449H29.0162H28.9874H28.9587H28.93L28.8725 31.7695H28.8438" stroke="#D4191A" stroke-width="0.31" stroke-miterlimit="10"/>
<path d="M28.8438 31.5117H29.1598V31.7683" stroke="#D4191A" stroke-width="0.31" stroke-miterlimit="10"/>
<path d="M28.4414 31.7683V31.5117H28.7575" stroke="#D4191A" stroke-width="0.31" stroke-miterlimit="10"/>
<path d="M29.1598 31.3984V31.484H28.8438" stroke="#D4191A" stroke-width="0.31" stroke-miterlimit="10"/>
<path d="M28.7575 31.484H28.4414V31.3984" stroke="#D4191A" stroke-width="0.31" stroke-miterlimit="10"/>
<path d="M29.1899 31.7969H29.1612H29.1325H29.1037H29.075H29.0462H29.0175H28.9888H28.96H28.9026H28.8738H28.8164H28.7302H28.7014H28.6439H28.6152H28.5865H28.5577H28.529H28.5003H28.4715H28.4428H28.4141" stroke="#D4191A" stroke-width="0.31" stroke-miterlimit="10"/>
<path d="M29.0471 31.9961H29.0184H28.9896H28.9609H28.9322H28.9034H28.8459H28.8172H28.7597H28.7023H28.6735H28.6448H28.6161H28.5873H28.5586" stroke="#D4191A" stroke-width="0.31" stroke-miterlimit="10"/>
<path d="M29.2176 31.7683V31.5117H29.1602" stroke="#D4191A" stroke-width="0.31" stroke-miterlimit="10"/>
<path d="M28.4442 31.5117H28.3867V31.7683" stroke="#D4191A" stroke-width="0.31" stroke-miterlimit="10"/>
<path d="M29.1602 31.484H29.2176V31.3984" stroke="#D4191A" stroke-width="0.31" stroke-miterlimit="10"/>
<path d="M28.3867 31.3984V31.484H28.4442" stroke="#D4191A" stroke-width="0.31" stroke-miterlimit="10"/>
<path d="M28.125 31.3711H28.1537H28.2112" stroke="#D4191A" stroke-width="0.31" stroke-miterlimit="10"/>
<path d="M28.0391 31.2852L28.1253 31.3422V31.3707" stroke="#D4191A" stroke-width="0.31" stroke-miterlimit="10"/>
<path d="M28.0703 31.2852H28.099H28.1278H28.1565H28.1853L28.2427 31.3422L28.214 31.3707" stroke="#D4191A" stroke-width="0.31" stroke-miterlimit="10"/>
<path d="M29.5357 31.2852H29.507H29.4782H29.4495H29.4208L29.3633 31.3422L29.4208 31.3707H29.4495" stroke="#D4191A" stroke-width="0.31" stroke-miterlimit="10"/>
<path d="M29.5628 31.2852L29.4766 31.3422V31.3707" stroke="#D4191A" stroke-width="0.31" stroke-miterlimit="10"/>
<path d="M29.4492 31.3711H29.478" stroke="#D4191A" stroke-width="0.31" stroke-miterlimit="10"/>
<path d="M29.5039 31.2257H29.5614H29.5901V31.0547" stroke="#D4191A" stroke-width="0.31" stroke-miterlimit="10"/>
<path d="M28.0117 31.0547L28.0405 31.2257H28.0979" stroke="#D4191A" stroke-width="0.31" stroke-miterlimit="10"/>
<path d="M29.5057 31.2266H29.477H29.4482H29.4195H28.1839H28.1551H28.1264H28.0977" stroke="#D4191A" stroke-width="0.31" stroke-miterlimit="10"/>
<path d="M28.0965 31.2266V31.2551H28.0678V31.2836V31.2551L28.0391 31.2266" stroke="#D4191A" stroke-width="0.31" stroke-miterlimit="10"/>
<path d="M29.5039 31.2266L29.5326 31.2551V31.2836V31.2551H29.5614V31.2266" stroke="#D4191A" stroke-width="0.31" stroke-miterlimit="10"/>
<path d="M28.1836 31.2836V31.2551V31.2266" stroke="#D4191A" stroke-width="0.31" stroke-miterlimit="10"/>
<path d="M28.1836 31.2836H29.4192V31.2551V31.2266" stroke="#D4191A" stroke-width="0.31" stroke-miterlimit="10"/>
<path d="M28.0391 31.2266V31.2551L28.0678 31.2836" stroke="#D4191A" stroke-width="0.31" stroke-miterlimit="10"/>
<path d="M29.5926 31.2266H29.5639V31.2551L29.5352 31.2836" stroke="#D4191A" stroke-width="0.31" stroke-miterlimit="10"/>
<path d="M28.2422 31.3398H29.3629" stroke="#D4191A" stroke-width="0.31" stroke-miterlimit="10"/>
<path d="M29.5625 31.2266H29.5912" stroke="#D4191A" stroke-width="0.31" stroke-miterlimit="10"/>
<path d="M29.5625 31.2551V31.2266" stroke="#D4191A" stroke-width="0.31" stroke-miterlimit="10"/>
<path d="M28.0391 31.2551V31.2266" stroke="#D4191A" stroke-width="0.31" stroke-miterlimit="10"/>
<path d="M28.2422 31.3984H29.3629" stroke="#D4191A" stroke-width="0.31" stroke-miterlimit="10"/>
<path d="M26.832 31.1719H26.8608H26.8895H26.9182H26.947H26.9757H27.0332H27.0619H27.0907H27.1481H27.1769H27.2056H27.2343" stroke="#D4191A" stroke-width="0.31" stroke-miterlimit="10"/>
<path d="M29.5352 19.6523H29.5926H29.6501H29.6788H29.7363L29.7938 19.6809H29.8225H29.88L29.9087 19.7094L29.9662 19.7379H29.9949L30.0524 19.7664L30.0811 19.7949L30.1386 19.8234L30.1673 19.8519L30.1961 19.8804L30.2248 19.9089L30.2823 19.9374L30.311 19.9659L30.3398 20.023L30.3685 20.0515L30.3972 20.08L30.426 20.137V20.1655L30.4547 20.2225L30.4834 20.251V20.308L30.5122 20.3366V20.3936L30.5409 20.4221V20.4791V20.5361V20.5646" stroke="#D4191A" stroke-width="0.31" stroke-miterlimit="10"/>
<path d="M30.5696 30.0586L30.5409 30.1156V30.1726V30.2011V30.2582L30.5122 30.3152V30.3437L30.4834 30.4007V30.4577L30.4547 30.4862L30.426 30.5432V30.5718L30.3972 30.6288L30.3685 30.6573L30.3398 30.6858L30.2823 30.7428L30.2535 30.7713L30.2248 30.7998L30.1961 30.8283L30.1386 30.8568L30.1099 30.8853L30.0524 30.9139L30.0237 30.9424L29.9662 30.9709L29.9375 30.9994H29.88L29.8512 31.0279H29.7938L29.7363 31.0564H29.7076H29.6501H29.5926H29.5352" stroke="#D4191A" stroke-width="0.31" stroke-miterlimit="10"/>
<path d="M21.2891 30.1445V30.173L21.3178 30.2301V30.2586V30.3156L21.3465 30.3726V30.4011L21.3753 30.4581L21.404 30.4866V30.5437L21.4327 30.5722L21.4615 30.6292L21.4902 30.6577L21.5189 30.6862L21.5477 30.7147L21.5764 30.7717L21.6052 30.8002L21.6626 30.8287L21.6914 30.8573L21.7201 30.8858L21.7488 30.9143L21.8063 30.9428H21.835L21.8925 30.9713L21.9212 30.9998H21.9787L22.0075 31.0283H22.0649L22.1224 31.0568H22.1511H22.2086H22.2661H22.2948" stroke="#D4191A" stroke-width="0.31" stroke-miterlimit="10"/>
<path d="M21.2891 20.6502V20.5931V20.5361L21.3178 20.4791V20.4506V20.3936L21.3465 20.3366V20.308L21.3753 20.251L21.404 20.2225V20.1655L21.4327 20.137L21.4615 20.08L21.4902 20.0515L21.5189 19.9944L21.5477 19.9659L21.5764 19.9374L21.6339 19.9089L21.6626 19.8804L21.6914 19.8234L21.7488 19.7949H21.7776L21.835 19.7664L21.8638 19.7379L21.9212 19.7094H21.95L22.0075 19.6809H22.0649L22.0937 19.6523H22.1511H22.2086H22.2661H22.2948" stroke="#D4191A" stroke-width="0.31" stroke-miterlimit="10"/>
<path d="M25.0508 27.8059V27.7773H25.0795H25.0508V27.8059Z" stroke="#D4191A" stroke-width="0.31" stroke-miterlimit="10"/>
<path d="M25.9124 26.9492H25.6826H25.4527H25.2228L24.9642 26.9777H24.7343H24.5044L24.2745 27.0062H24.0446L24.0159 27.0347H23.9872H23.9584V27.0633H23.9297V27.0918V27.1203V27.1488V28.6027" stroke="#D4191A" stroke-width="0.31" stroke-miterlimit="10"/>
<path d="M25.2812 27.7773H25.9134" stroke="#D4191A" stroke-width="0.31" stroke-miterlimit="10"/>
<path d="M25.9128 28.4045H25.0795H25.0508V28.376V28.0339V27.8059V27.7773H25.0795H25.2807" stroke="#D4191A" stroke-width="0.31" stroke-miterlimit="10"/>
<path d="M23.9297 28.6055V28.634V28.6625L23.9584 28.691V28.7195H23.9872H24.0159H24.0446L24.2745 28.748H24.5044L24.7343 28.7765H24.9642L25.2228 28.805H25.4527H25.6826H25.9124" stroke="#D4191A" stroke-width="0.31" stroke-miterlimit="10"/>
<path d="M27.8106 28.7188L27.5807 28.7473H27.3508L27.0922 28.7758H26.8623L26.6325 28.8043H26.4026H26.1727H25.9141" stroke="#D4191A" stroke-width="0.31" stroke-miterlimit="10"/>
<path d="M25.9141 28.4045H26.7761L26.8049 28.376V28.0339V27.8059V27.7773H26.7761H26.5462" stroke="#D4191A" stroke-width="0.31" stroke-miterlimit="10"/>
<path d="M26.5462 27.7773H25.9141" stroke="#D4191A" stroke-width="0.31" stroke-miterlimit="10"/>
<path d="M25.9141 26.9492H26.1727H26.4026H26.6325L26.8623 26.9777H27.0922H27.3508L27.5807 27.0062H27.8106L27.8394 27.0347H27.8681L27.8968 27.0633V27.0918H27.9256V27.1203V27.1488V28.6027V28.6312V28.6597H27.8968V28.6883L27.8681 28.7168H27.8394H27.8106" stroke="#D4191A" stroke-width="0.31" stroke-miterlimit="10"/>
<path d="M24.0469 27.0062H24.2768L24.5066 26.9777H24.7365L24.9664 26.9492H25.225H25.4549H25.6848H25.9147" stroke="#D4191A" stroke-width="0.31" stroke-miterlimit="10"/>
<path d="M25.9141 26.9492H26.1727H26.4026H26.6325H26.8623L27.0922 26.9777H27.3508L27.5807 27.0062H27.8106" stroke="#D4191A" stroke-width="0.31" stroke-miterlimit="10"/>
<path d="M26.8037 28.375H26.7749V28.4035H25.9128H25.0795H25.0508V28.375" stroke="#D4191A" stroke-width="0.31" stroke-miterlimit="10"/>
<path d="M27.9235 27.1504V27.1218V27.0933L27.8948 27.0648V27.0363H27.8661H27.8373L27.8086 27.0078" stroke="#D4191A" stroke-width="0.31" stroke-miterlimit="10"/>
<path d="M24.0446 27.0078L24.0159 27.0363H23.9872H23.9584V27.0648H23.9297V27.0933V27.1218V27.1504" stroke="#D4191A" stroke-width="0.31" stroke-miterlimit="10"/>
<path d="M27.9258 27.1523V28.6063" stroke="#D4191A" stroke-width="0.31" stroke-miterlimit="10"/>
<path d="M23.9297 28.6063V27.1523" stroke="#D4191A" stroke-width="0.31" stroke-miterlimit="10"/>
<path d="M27.8106 28.7188L27.5807 28.7473L27.3508 28.7758H27.0922H26.8623L26.6325 28.8043H26.4026H26.1727H25.9141" stroke="#D4191A" stroke-width="0.31" stroke-miterlimit="10"/>
<path d="M24.0469 28.7188L24.2768 28.7473L24.5066 28.7758H24.7365H24.9664L25.225 28.8043H25.4549H25.6848H25.9147" stroke="#D4191A" stroke-width="0.31" stroke-miterlimit="10"/>
<path d="M27.8086 28.7195H27.8373H27.8661L27.8948 28.691V28.6625H27.9235V28.634V28.6055" stroke="#D4191A" stroke-width="0.31" stroke-miterlimit="10"/>
<path d="M23.9297 28.6055V28.634V28.6625L23.9584 28.691V28.7195H23.9872H24.0159H24.0446" stroke="#D4191A" stroke-width="0.31" stroke-miterlimit="10"/>
<path d="M26.688 28.8047H26.5443H26.4006H26.257H26.1133" stroke="#D4191A" stroke-width="0.31" stroke-miterlimit="10"/>
<path d="M25.9147 28.8043H25.6848H25.4549H25.225L24.9664 28.7758H24.7365H24.5066L24.2768 28.7473L24.0469 28.7188" stroke="#D4191A" stroke-width="0.31" stroke-miterlimit="10"/>
<path d="M26.8061 27.8059V27.7773H26.7773H26.8061V27.8059Z" stroke="#D4191A" stroke-width="0.31" stroke-miterlimit="10"/>
<path d="M27.8106 27.0062H27.5807L27.3508 26.9777H27.0922L26.8623 26.9492H26.6325H26.4026H26.1727H25.9141" stroke="#D4191A" stroke-width="0.31" stroke-miterlimit="10"/>
<path d="M30.5118 25.3555V27.7217V30.0594V30.1164V30.1735V30.202V30.259L30.483 30.316V30.3445L30.4543 30.4015V30.43L30.4256 30.487L30.3968 30.5156V30.5726L30.3681 30.6011L30.3394 30.6296L30.3106 30.6866L30.2819 30.7151L30.2244 30.7436L30.1957 30.7721L30.1669 30.8006L30.1382 30.8292L30.0807 30.8577L30.052 30.8862L29.9945 30.9147L29.9658 30.9432L29.9083 30.9717H29.8796L29.8221 31.0002H29.7934H29.7359L29.6784 31.0287H29.6497H29.5922H29.5348H25.9141" stroke="#D4191A" stroke-width="0.31" stroke-miterlimit="10"/>
<path d="M25.9141 28.8039H26.1727H26.4026H26.6325H26.8623L27.0922 28.7754H27.3508L27.5807 28.7468H27.8106L27.8394 28.7183H27.8681L27.8968 28.6898L27.9256 28.6613V28.6328V28.6043V27.1504V27.1218V27.0933L27.8968 27.0648V27.0363H27.8681H27.8394V27.0078H27.8106" stroke="#D4191A" stroke-width="0.31" stroke-miterlimit="10"/>
<path d="M25.9124 28.8059H25.6826H25.4527H25.2228H24.9642L24.7343 28.7773H24.5044L24.2745 28.7488H24.0446L24.0159 28.7203H23.9872H23.9584V28.6918H23.9297V28.6633V28.6348V28.6063V27.1523" stroke="#D4191A" stroke-width="0.31" stroke-miterlimit="10"/>
<path d="M21.3164 25.3555V27.7217V30.0594V30.1164V30.1735L21.3451 30.202V30.259V30.316L21.3739 30.3445V30.4015L21.4026 30.43L21.4313 30.487V30.5156L21.4601 30.5726L21.4888 30.6011L21.5176 30.6296L21.5463 30.6866L21.575 30.7151L21.6038 30.7436L21.6325 30.7721L21.69 30.8006L21.7187 30.8292L21.7474 30.8577L21.8049 30.8862L21.8336 30.9147L21.8911 30.9432L21.9199 30.9717H21.9773L22.0061 31.0002H22.0635H22.121L22.1497 31.0287H22.2072H22.2647H22.2934H25.9141" stroke="#D4191A" stroke-width="0.31" stroke-miterlimit="10"/>
<path d="M23.9297 27.1488V27.1203V27.0918V27.0633H23.9584V27.0347H23.9872L24.0159 27.0062H24.0446H24.2745L24.5044 26.9777H24.7343L24.9642 26.9492H25.2228H25.4527H25.6826H25.9124" stroke="#D4191A" stroke-width="0.31" stroke-miterlimit="10"/>
<path d="M30.5118 25.3529V22.9867V20.649V20.592V20.535V20.5064V20.4494L30.483 20.3924V20.3639L30.4543 20.3069V20.2784L30.4256 20.2214L30.3968 20.1928V20.1358L30.3681 20.1073L30.3394 20.0503L30.3106 20.0218L30.2819 19.9933L30.2244 19.9648L30.1957 19.9078L30.1669 19.8792L30.1382 19.8507L30.0807 19.8222H30.052L29.9945 19.7937L29.9658 19.7652L29.9083 19.7367H29.8796L29.8221 19.7082H29.7934L29.7359 19.6797H29.6784H29.6497H29.5922H29.5348H25.9141" stroke="#D4191A" stroke-width="0.31" stroke-miterlimit="10"/>
<path d="M21.3164 25.3529V22.9867V20.649V20.592V20.535L21.3451 20.5064V20.4494V20.3924L21.3739 20.3639V20.3069L21.4026 20.2784L21.4313 20.2214V20.1928L21.4601 20.1358L21.4888 20.1073L21.5176 20.0503L21.5463 20.0218L21.575 19.9933L21.6038 19.9648L21.6325 19.9078L21.69 19.8792L21.7187 19.8507L21.7474 19.8222H21.8049L21.8336 19.7937L21.8911 19.7652L21.9199 19.7367H21.9773L22.0061 19.7082H22.0635L22.121 19.6797H22.1497H22.2072H22.2647H22.2934H25.9141" stroke="#D4191A" stroke-width="0.31" stroke-miterlimit="10"/>
<path d="M24.0469 27.0062H24.2768L24.5066 26.9777H24.7365L24.9664 26.9492H25.225H25.4549H25.6848H25.9147" stroke="#D4191A" stroke-width="0.31" stroke-miterlimit="10"/>
<path d="M25.9141 26.9492H26.1727H26.4026H26.6325H26.8623L27.0922 26.9777H27.3508L27.5807 27.0062H27.8106" stroke="#D4191A" stroke-width="0.31" stroke-miterlimit="10"/>
<path d="M27.9235 27.1504V27.1218V27.0933L27.8948 27.0648V27.0363H27.8661H27.8373V27.0078H27.8086" stroke="#D4191A" stroke-width="0.31" stroke-miterlimit="10"/>
<path d="M24.0446 27.0078H24.0159L23.9872 27.0363H23.9584V27.0648H23.9297V27.0933V27.1218V27.1504" stroke="#D4191A" stroke-width="0.31" stroke-miterlimit="10"/>
<path d="M27.9258 27.1523V28.6063" stroke="#D4191A" stroke-width="0.31" stroke-miterlimit="10"/>
<path d="M23.9297 27.1523V28.6063" stroke="#D4191A" stroke-width="0.31" stroke-miterlimit="10"/>
<path d="M23.9297 28.6063V27.1523" stroke="#D4191A" stroke-width="0.31" stroke-miterlimit="10"/>
<path d="M25.9141 28.8031H26.1727H26.4026H26.6325L26.8623 28.7746H27.0922H27.3508L27.5807 28.7461H27.8106" stroke="#D4191A" stroke-width="0.31" stroke-miterlimit="10"/>
<path d="M25.9147 28.8031H25.6848H25.4549H25.225L24.9664 28.7746H24.7365H24.5066L24.2768 28.7461H24.0469" stroke="#D4191A" stroke-width="0.31" stroke-miterlimit="10"/>
<path d="M27.8086 28.748L27.8373 28.7195H27.8661L27.8948 28.691V28.6625H27.9235V28.634V28.6055" stroke="#D4191A" stroke-width="0.31" stroke-miterlimit="10"/>
<path d="M23.9297 28.6055V28.634V28.6625L23.9584 28.691V28.7195H23.9872H24.0159L24.0446 28.748" stroke="#D4191A" stroke-width="0.31" stroke-miterlimit="10"/>
<path d="M27.8086 28.7473V28.7188" stroke="#D4191A" stroke-width="0.31" stroke-miterlimit="10"/>
<path d="M30.5405 25.3563V20.6523H30.5117" stroke="#D4191A" stroke-width="0.31" stroke-miterlimit="10"/>
<path d="M21.2891 30.0602V25.3563V20.6523H21.3178" stroke="#D4191A" stroke-width="0.21" stroke-miterlimit="10"/>
<path d="M30.5117 30.0594H30.5405V25.3555" stroke="#D4191A" stroke-width="0.31" stroke-miterlimit="10"/>
<path d="M22.293 19.6809V19.6523H25.9137" stroke="#D4191A" stroke-width="0.31" stroke-miterlimit="10"/>
<path d="M25.9141 31.0559H29.5348V31.0273" stroke="#D4191A" stroke-width="0.31" stroke-miterlimit="10"/>
<path d="M25.9141 19.6523H29.5348V19.6809" stroke="#D4191A" stroke-width="0.31" stroke-miterlimit="10"/>
<path d="M25.9137 31.0559H22.293V31.0273" stroke="#D4191A" stroke-width="0.31" stroke-miterlimit="10"/>
<path d="M22.2948 19.6523H22.2661H22.2086H22.1511H22.0937L22.0649 19.6809H22.0075L21.95 19.7094H21.9212L21.8638 19.7379L21.835 19.7664L21.7776 19.7949L21.7488 19.8234L21.6914 19.8519L21.6626 19.8804L21.6339 19.9089L21.6052 19.9374L21.5477 19.9659L21.5189 19.9944L21.4902 20.0515L21.4615 20.08L21.4327 20.137L21.404 20.1655V20.2225L21.3753 20.251L21.3465 20.308V20.3366L21.3178 20.3936V20.4506V20.4791V20.5361L21.2891 20.5931V20.6502" stroke="#D4191A" stroke-width="0.31" stroke-miterlimit="10"/>
<path d="M29.5352 31.0564H29.5926H29.6501H29.7076L29.7363 31.0279H29.7938H29.8512L29.88 30.9994L29.9375 30.9709H29.9662L30.0237 30.9424L30.0524 30.9139L30.1099 30.8853L30.1386 30.8568L30.1961 30.8283L30.2248 30.7998L30.2535 30.7713L30.2823 30.7428L30.311 30.6858L30.3398 30.6573L30.3685 30.6288L30.3972 30.5718L30.426 30.5432L30.4547 30.4862L30.4834 30.4577V30.4007L30.5122 30.3437V30.3152L30.5409 30.2582V30.2011V30.1726V30.1156V30.0586" stroke="#D4191A" stroke-width="0.31" stroke-miterlimit="10"/>
<path d="M29.5352 19.6523H29.5926H29.6501H29.7076H29.7363L29.7938 19.6809H29.8512L29.88 19.7094H29.9375L29.9662 19.7379L30.0237 19.7664L30.0524 19.7949L30.1099 19.8234L30.1386 19.8519L30.1961 19.8804L30.2248 19.9089L30.2535 19.9374L30.2823 19.9659L30.311 19.9944L30.3398 20.0515L30.3685 20.08L30.3972 20.137L30.426 20.1655L30.4547 20.2225L30.4834 20.251V20.308L30.5122 20.3366V20.3936L30.5409 20.4506V20.4791V20.5361V20.5931V20.6502" stroke="#D4191A" stroke-width="0.31" stroke-miterlimit="10"/>
<path d="M22.2948 31.0564H22.2661H22.2086H22.1511L22.0937 31.0279H22.0649H22.0075L21.95 30.9994L21.9212 30.9709H21.8638L21.835 30.9424L21.7776 30.9139L21.7488 30.8853L21.6914 30.8568L21.6626 30.8283L21.6339 30.7998L21.6052 30.7713L21.5477 30.7428L21.5189 30.6858L21.4902 30.6573L21.4615 30.6288L21.4327 30.5718L21.404 30.5432V30.4862L21.3753 30.4577L21.3465 30.4007V30.3437L21.3178 30.3152V30.2582V30.2011V30.1726L21.2891 30.1156V30.0586" stroke="#D4191A" stroke-width="0.31" stroke-miterlimit="10"/>
<path d="M29.5352 19.6523H29.5926H29.6501H29.7076H29.7363L29.7938 19.6809H29.8512L29.88 19.7094H29.9375L29.9662 19.7379L30.0237 19.7664L30.0524 19.7949H30.1099L30.1386 19.8234L30.1961 19.8804L30.2248 19.9089L30.2535 19.9374L30.2823 19.9659L30.3398 19.9944L30.3685 20.0515L30.3972 20.08L30.426 20.137V20.1655L30.4547 20.2225L30.4834 20.251V20.308L30.5122 20.3366V20.3936L30.5409 20.4506V20.4791V20.5361V20.5931L30.5696 20.6502H30.5409" stroke="#D4191A" stroke-width="0.31" stroke-miterlimit="10"/>
<path d="M21.2891 20.6523V30.0602V30.1173V30.1743L21.3178 30.2028V30.2598V30.3168L21.3465 30.3453V30.4023L21.3753 30.4594L21.404 30.4879V30.5449L21.4327 30.5734L21.4615 30.6304L21.4902 30.6589L21.5189 30.6874L21.5477 30.7445L21.5764 30.773L21.6339 30.8015L21.6626 30.83L21.6914 30.8585L21.7488 30.887L21.7776 30.9155L21.835 30.944L21.8638 30.9725L21.9212 31.001H21.95L22.0075 31.0295H22.0649L22.0937 31.058H22.1511H22.2086H22.2373H22.2948" stroke="#D4191A" stroke-width="0.31" stroke-miterlimit="10"/>
<path d="M30.5391 30.0602H30.5678V20.6523" stroke="#D4191A" stroke-width="0.31" stroke-miterlimit="10"/>
<path d="M22.293 19.6523H29.5343" stroke="#D4191A" stroke-width="0.31" stroke-miterlimit="10"/>
<path d="M22.293 31.0547H29.5343" stroke="#D4191A" stroke-width="0.31" stroke-miterlimit="10"/>
<path d="M22.2948 19.6523H22.2373H22.2086H22.1511H22.0937L22.0649 19.6809H22.0075L21.95 19.7094H21.9212L21.8638 19.7379L21.835 19.7664L21.7776 19.7949H21.7488L21.6914 19.8234L21.6626 19.8804L21.6339 19.9089L21.5764 19.9374L21.5477 19.9659L21.5189 19.9944L21.4902 20.0515L21.4615 20.08L21.4327 20.137L21.404 20.1655V20.2225L21.3753 20.251L21.3465 20.308V20.3366L21.3178 20.3936V20.4506V20.4791L21.2891 20.5361V20.5931V20.6502" stroke="#D4191A" stroke-width="0.31" stroke-miterlimit="10"/>
<path d="M29.5352 31.0564H29.5926H29.6501H29.7076H29.7363L29.7938 31.0279H29.8512L29.88 30.9994H29.9375L29.9662 30.9709L30.0237 30.9424L30.0524 30.9139L30.1099 30.8853L30.1386 30.8568L30.1961 30.8283L30.2248 30.7998L30.2535 30.7713L30.2823 30.7428L30.3398 30.6858L30.3685 30.6573L30.3972 30.6288L30.426 30.5718V30.5432L30.4547 30.4862L30.4834 30.4577V30.4007L30.5122 30.3437V30.3152L30.5409 30.2582V30.2011V30.1726V30.1156L30.5696 30.0586" stroke="#D4191A" stroke-width="0.31" stroke-miterlimit="10"/>
<path d="M29.1899 31.8555H28.4141" stroke="#D4191A" stroke-width="0.31" stroke-miterlimit="10"/>
<path d="M28.0391 31.2852H28.0678" stroke="#D4191A" stroke-width="0.31" stroke-miterlimit="10"/>
<path d="M29.5352 31.2852H29.5639" stroke="#D4191A" stroke-width="0.31" stroke-miterlimit="10"/>
<path d="M29.5039 31.0547V31.2257" stroke="#D4191A" stroke-width="0.31" stroke-miterlimit="10"/>
<path d="M28.0977 31.2257V31.0547" stroke="#D4191A" stroke-width="0.31" stroke-miterlimit="10"/>
<path d="M29.3633 31.3398V31.3684V31.3969" stroke="#D4191A" stroke-width="0.31" stroke-miterlimit="10"/>
<path d="M28.2422 31.3969V31.3684V31.3398" stroke="#D4191A" stroke-width="0.31" stroke-miterlimit="10"/>
<path d="M26.7773 31.1133H27.2658" stroke="#D4191A" stroke-width="0.31" stroke-miterlimit="10"/>
<path d="M19.3325 8.76419H28.8153V16.8037C28.8153 17.1173 29.0739 17.3738 29.39 17.3738C29.7061 17.3738 29.9647 17.1173 29.9647 16.8037V7.65234H19.3325C19.0164 7.65234 18.7578 7.90892 18.7578 8.22252C18.7578 8.53612 19.0164 8.79269 19.3325 8.79269V8.76419Z" fill="#D4191A"/>
<path d="M17.6673 29.8596H8.18458V21.8202C8.18458 21.5066 7.92596 21.25 7.60987 21.25C7.29378 21.25 7.03516 21.5066 7.03516 21.8202V31H17.6673C17.9834 31 18.2421 30.7434 18.2421 30.4298C18.2421 30.1162 17.9834 29.8596 17.6673 29.8596Z" fill="#D4191A"/>
<path d="M16.1437 6.45312H7.6954C6.74713 6.45312 6 7.27988 6 8.27769V13.6944C6 14.6922 6.77586 15.5189 7.6954 15.5189H10.9713V16.8018H8.52874C8.35632 16.8018 8.21264 17.0299 8.21264 17.2865V17.4575C8.21264 17.7141 8.35632 17.9422 8.52874 17.9422H14.477C14.6494 17.9422 14.7931 17.7141 14.7931 17.4575V17.2865C14.7931 17.0299 14.6494 16.8018 14.477 16.8018H12.1207V15.5189H16.1437C17.092 15.5189 17.8391 14.6922 17.8391 13.6944V8.27769C17.8391 7.27988 17.0632 6.45312 16.1437 6.45312ZM16.7184 13.6944C16.7184 14.065 16.4598 14.3786 16.1437 14.3786H7.6954C7.37931 14.3786 7.12069 14.065 7.12069 13.6944V8.27769C7.12069 7.90707 7.37931 7.59348 7.6954 7.59348H16.1437C16.4598 7.59348 16.7184 7.90707 16.7184 8.27769V13.6944Z" fill="#D4191A"/>
</g>
<defs>
<clipPath id="clip0_410_4230">
<rect width="25" height="26" fill="white" transform="translate(6 6.45312)"/>
</clipPath>
</defs>
</svg>
