<svg width="37" height="36" viewBox="0 0 37 36" fill="none" xmlns="http://www.w3.org/2000/svg">
<g clip-path="url(#clip0_566_3967)">
<path fill-rule="evenodd" clip-rule="evenodd" d="M18.41 10.4041C22.1166 10.4041 25.098 13.4696 25.1248 17.2467C25.1248 19.2995 24.3191 21.1607 23.2447 22.7208C24.8562 21.8723 26.8707 20.0659 26.8707 17.2467C26.8707 12.4842 23.0835 8.625 18.41 8.625C13.7364 8.625 9.94922 12.4842 9.94922 17.2467C9.94922 20.0385 11.9637 21.8449 13.5753 22.7208C12.5009 21.1607 11.6951 19.3269 11.6951 17.2467C11.6951 13.4696 14.7034 10.4315 18.41 10.4041Z" fill="#D4191A"/>
<path fill-rule="evenodd" clip-rule="evenodd" d="M18.3828 4C11.2113 4 5.38281 9.93939 5.38281 17.2473C5.38281 19.218 5.81256 21.0792 6.56463 22.7488C8.06876 26.1153 10.9159 28.1408 14.4076 29.0714L14.1659 28.5787C11.5068 27.2375 9.35802 24.6373 8.14934 21.9824C7.50471 20.5318 7.15554 18.9443 7.15554 17.2473C7.15554 10.9247 12.1783 5.80645 18.3828 5.80645C24.5874 5.80645 29.6101 10.9247 29.6101 17.2473C29.6101 21.955 26.8167 26.5806 22.8146 28.5513L22.5998 29.0987C27.7031 27.5112 31.356 23.0499 31.356 17.2473C31.356 9.93939 25.5274 4 18.356 4L18.3828 4Z" fill="#D4191A"/>
<path fill-rule="evenodd" clip-rule="evenodd" d="M22.1436 21.2715C22.5197 25.9518 19.9949 31.6996 19.9949 31.6996C19.9949 31.6996 19.3503 32.0007 18.4102 32.0007C17.4701 32.0007 16.7986 31.6996 16.7986 31.6996C16.7986 31.6996 14.2738 25.9518 14.623 21.2715C14.623 21.2715 15.2139 19.3008 18.4102 19.3008C21.6065 19.3008 22.1436 21.2715 22.1436 21.2715Z" fill="#D4191A"/>
<path fill-rule="evenodd" clip-rule="evenodd" d="M21.2284 15.413C21.2284 17.0278 19.9391 18.3416 18.3544 18.3416C16.7697 18.3416 15.4805 17.0278 15.4805 15.413C15.4805 13.7981 16.7697 12.5117 18.3544 12.5117C19.9391 12.5117 21.2284 13.8255 21.2284 15.413Z" fill="#D4191A"/>
</g>
<defs>
<clipPath id="clip0_566_3967">
<rect width="26" height="28" fill="white" transform="translate(5.38281 4)"/>
</clipPath>
</defs>
</svg>
