<svg width="37" height="37" viewBox="0 0 37 37" fill="none" xmlns="http://www.w3.org/2000/svg">
<g clip-path="url(#clip0_402_4912)">
<path d="M34.3665 25.3312L27.1244 20.4891V23.5295H21.9314L18.7595 19.6445L16.4297 22.516L19.6858 26.5136C20.0227 26.9358 20.556 27.1892 21.0893 27.1892H27.1244V30.2296L34.3665 25.3875V25.3312Z" fill="#595857"/>
<path d="M10.2268 10.2117H4.19175C3.18122 10.2117 2.36719 11 2.36719 12.0135C2.36719 13.0269 3.18122 13.8433 4.16368 13.8433H9.35666L12.5286 17.7283L14.8584 14.8568L11.6023 10.8592C11.2654 10.437 10.7321 10.1836 10.1988 10.1836" fill="#595857"/>
<path d="M34.3672 12.014L27.1251 7.17188V10.1841H21.09C20.5567 10.1841 20.0233 10.4375 19.6865 10.8598L9.35666 23.4999H4.19175C3.18122 23.4999 2.36719 24.3163 2.36719 25.3298C2.36719 26.3432 3.18122 27.1315 4.19175 27.1315H10.2268C10.7602 27.1315 11.2935 26.8781 11.6303 26.4558L21.9602 13.8157H27.1532V16.8561L34.3953 12.014H34.3672Z" fill="#D4191A"/>
</g>
<defs>
<clipPath id="clip0_402_4912">
<rect width="32" height="23" fill="white" transform="translate(2.36719 7.17188)"/>
</clipPath>
</defs>
</svg>
