<svg width="37" height="37" viewBox="0 0 37 37" fill="none" xmlns="http://www.w3.org/2000/svg">
<path d="M23.661 12.1055H13.9387C12.9942 12.1055 12.2285 12.8711 12.2285 13.8157V23.538C12.2285 24.4825 12.9942 25.2482 13.9387 25.2482H23.661C24.6055 25.2482 25.3712 24.4825 25.3712 23.538V13.8157C25.3712 12.8711 24.6055 12.1055 23.661 12.1055Z" stroke="#D4191A" stroke-width="2" stroke-miterlimit="10"/>
<path d="M34.3877 18.3355H29.9599V17.3516L27.6875 18.8509L29.9599 20.3503V19.3663H34.3877C34.6688 19.3663 34.9031 19.132 34.9031 18.8509C34.9031 18.5698 34.6688 18.3355 34.3877 18.3355Z" fill="#C61E1F"/>
<path d="M3.23024 18.3355H7.658V17.3516L9.93045 18.8509L7.658 20.3503V19.3663H3.23024C2.94912 19.3663 2.71484 19.132 2.71484 18.8509C2.71484 18.5698 2.94912 18.3355 3.23024 18.3355Z" fill="#C61E1F"/>
<path d="M18.2945 3.10524V7.533H17.3105L18.8099 9.80545L20.3092 7.533H19.3253V3.10524C19.3253 2.82412 19.091 2.58984 18.8099 2.58984C18.5288 2.58984 18.2945 2.82412 18.2945 3.10524Z" fill="#C61E1F"/>
<path d="M18.2945 34.2666V29.8389H17.3105L18.8099 27.5664L20.3092 29.8389H19.3253V34.2666C19.3253 34.5477 19.091 34.782 18.8099 34.782C18.5288 34.782 18.2945 34.5477 18.2945 34.2666Z" fill="#C61E1F"/>
</svg>
