<svg width="35" height="36" viewBox="0 0 35 36" fill="none" xmlns="http://www.w3.org/2000/svg">
<g clip-path="url(#clip0_368_29227)">
<path d="M17.7363 35.0245C8.25552 35.0245 0.544922 27.3139 0.544922 17.8332C0.544922 8.35247 8.25552 0.671875 17.7363 0.671875C27.217 0.671875 34.9276 8.38247 34.9276 17.8632C34.9276 27.344 27.217 35.0546 17.7363 35.0546M17.7363 1.93197C8.94558 1.93197 1.80502 9.07253 1.80502 17.8632C1.80502 26.6539 8.94557 33.7645 17.7063 33.7645C26.4669 33.7645 33.6075 26.6239 33.6075 17.8632C33.6075 9.10253 26.4969 1.93197 17.7363 1.93197Z" fill="#D4191A"/>
<path d="M18.7889 15.307L18.9389 15.397C20.4691 16.207 21.9992 15.457 22.8092 13.9269L25.8395 9.69652C26.6495 8.1664 26.0495 6.30626 24.5194 5.4962L23.7093 5.07616C22.1792 4.2661 20.3191 4.86615 19.509 6.39626L17.7689 11.2866C16.9588 12.8168 17.2288 14.5269 18.7589 15.307" fill="#D4191A"/>
<path d="M19.5398 18.7633C20.1098 17.6532 19.6898 16.2731 18.5797 15.703C17.4696 15.133 16.0895 15.553 15.5195 16.6631C14.9494 17.7732 15.3694 19.1233 16.4795 19.7234C17.5896 20.2934 18.9697 19.8734 19.5398 18.7633Z" fill="#D4191A"/>
<path d="M14.7353 17.5969C14.7653 15.8867 13.3852 14.8366 11.6751 14.8066L6.54471 13.9966C4.83458 13.9666 3.42447 15.3167 3.39446 17.0268V17.9269C3.33446 19.637 4.71457 21.0471 6.4247 21.0771L11.5851 20.4471C13.2952 20.4471 14.7053 19.487 14.7353 17.7769V17.5969Z" fill="#D4191A"/>
<path d="M18.6379 20.1743L18.4879 20.2643C16.9278 21.0144 16.6278 22.6945 17.3478 24.2546L18.9079 29.205C19.658 30.7651 21.4881 31.4252 23.0483 30.6751L23.8583 30.2851C25.4185 29.535 26.0485 27.6749 25.3284 26.1448L22.4482 21.8244C21.6982 20.2943 20.198 19.4543 18.6379 20.2043" fill="#D4191A"/>
<path d="M32.7083 8.59251L4.11606 28.9641L2.58594 26.7439L31.1482 6.40234L32.7083 8.59251Z" fill="#D4191A"/>
<path d="M32.1096 8.20243L4.0274 28.184L3.27734 27.1039L31.3595 7.15234L32.1096 8.20243Z" fill="#D4191A"/>
</g>
<defs>
<clipPath id="clip0_368_29227">
<rect width="34.3527" height="34.3527" fill="white" transform="translate(0.544922 0.671875)"/>
</clipPath>
</defs>
</svg>
