<svg width="37" height="37" viewBox="0 0 37 37" fill="none" xmlns="http://www.w3.org/2000/svg">
<path d="M7.97062 8.44902V21.0487C7.97062 23.0964 7.97063 28.5055 18.814 32.7558C29.6574 28.5019 29.6574 23.0964 29.6574 21.0487V8.44902C23.6545 8.42383 20.196 6.31489 18.814 5.22443C17.4285 6.31489 13.9735 8.42383 7.97062 8.44902ZM18.814 34.7928L18.4685 34.6596C7.33362 30.4093 6.04883 24.8563 6.04883 21.0487V6.50203L7.04212 6.53442C14.7797 6.79354 18.0727 3.34582 18.105 3.30984L18.814 2.54688L19.523 3.31343C19.5518 3.34223 22.672 6.54882 29.7618 6.54882C30.0317 6.54882 30.3088 6.54522 30.5859 6.53442L31.5792 6.50203V21.0487C31.5792 24.8563 30.2908 30.4129 19.1595 34.6596L18.814 34.7928Z" fill="#D4191A"/>
<path d="M13.1523 17.2891L13.3189 15.9709H16.6115L16.7781 17.2891H13.1523ZM14.9456 13.6262L13.9166 16.4375L13.946 16.8108L13.0445 19.1438H11.4668L14.9456 10.5L18.4243 19.1438H16.8368L15.9549 16.8808L15.9745 16.4608L14.9456 13.6262Z" fill="#D4191A"/>
<path d="M20.2954 13.7779V19.1438H19.0509V13.7779H20.2954ZM21.6183 15.3527C21.5334 15.2593 21.4452 15.1894 21.3537 15.1427C21.2688 15.0883 21.161 15.061 21.0304 15.061C20.8736 15.061 20.7396 15.1116 20.6286 15.2127C20.5175 15.3138 20.4326 15.4577 20.3738 15.6443C20.3215 15.8232 20.2954 16.0409 20.2954 16.2975L19.9426 15.8776C19.9426 15.4499 20.0112 15.0727 20.1484 14.7461C20.2856 14.4117 20.4653 14.1473 20.6874 13.9529C20.9095 13.7507 21.1382 13.6496 21.3733 13.6496C21.5367 13.6496 21.6902 13.6846 21.8339 13.7546C21.9842 13.8245 22.105 13.9295 22.1965 14.0695L21.6183 15.3527Z" fill="#D4191A"/>
<path d="M23.686 16.4608C23.686 16.7719 23.7448 17.0441 23.8624 17.2774C23.98 17.5107 24.1368 17.6935 24.3327 17.8257C24.5353 17.9579 24.7574 18.024 24.9991 18.024C25.1951 18.024 25.3845 17.989 25.5675 17.919C25.7504 17.8412 25.9137 17.7401 26.0574 17.6157C26.2077 17.4835 26.322 17.3318 26.4004 17.1608V18.7122C26.2436 18.8833 26.0378 19.0194 25.7831 19.1205C25.5348 19.2138 25.2441 19.2605 24.9109 19.2605C24.434 19.2605 24.0028 19.1438 23.6174 18.9105C23.2385 18.6772 22.938 18.3506 22.7159 17.9306C22.5003 17.5029 22.3925 17.013 22.3925 16.4608C22.3925 15.9009 22.5003 15.411 22.7159 14.9911C22.938 14.5711 23.2385 14.2445 23.6174 14.0112C24.0028 13.7779 24.434 13.6612 24.9109 13.6612C25.2441 13.6612 25.5348 13.7118 25.7831 13.8129C26.0378 13.9062 26.2436 14.0345 26.4004 14.1978V15.7493C26.322 15.5782 26.2044 15.4304 26.0476 15.306C25.8974 15.1738 25.7308 15.0727 25.5479 15.0027C25.3649 14.9327 25.182 14.8977 24.9991 14.8977C24.7574 14.8977 24.5353 14.9677 24.3327 15.1077C24.1368 15.2399 23.98 15.4227 23.8624 15.656C23.7448 15.8893 23.686 16.1576 23.686 16.4608Z" fill="#D4191A"/>
</svg>
