<svg width="37" height="37" viewBox="0 0 37 37" fill="none" xmlns="http://www.w3.org/2000/svg">
<g clip-path="url(#clip0_368_29254)">
<path d="M26.24 9.22866L29.2102 6.25843C26.51 3.91825 22.9997 2.47814 19.1895 2.32812V6.52845C21.8597 6.67846 24.2899 7.66854 26.24 9.25866V9.22866Z" fill="#D4191A"/>
<path d="M30.6513 17.3079H34.8517C34.5516 13.5877 32.9915 10.2274 30.5913 7.61719L27.6211 10.5874C29.2412 12.4176 30.3513 14.7577 30.6213 17.3079H30.6513Z" fill="#D4191A"/>
<path d="M18.559 30.8655C11.8385 30.8655 6.37806 25.4051 6.37806 18.6845C6.37806 12.3841 11.1484 7.22366 17.2389 6.56361V2.36328C8.80825 3.05333 2.17773 10.1039 2.17773 18.6845C2.17773 27.7153 9.4983 35.0658 18.559 35.0658C27.6197 35.0658 34.6103 28.0453 34.9103 19.2846H30.71C30.4099 25.7351 25.0695 30.8955 18.529 30.8955L18.559 30.8655Z" fill="#D4191A"/>
<path d="M19.1315 18.1424L17.3613 16.3723L21.5917 13.8821L25.852 11.4219L23.3618 15.6522L20.9016 19.8825L19.1315 18.1424Z" fill="#D4191A"/>
<path d="M18.6525 21.1682C20.0775 21.1682 21.2327 20.013 21.2327 18.588C21.2327 17.163 20.0775 16.0078 18.6525 16.0078C17.2275 16.0078 16.0723 17.163 16.0723 18.588C16.0723 20.013 17.2275 21.1682 18.6525 21.1682Z" fill="#D4191A"/>
</g>
<defs>
<clipPath id="clip0_368_29254">
<rect width="32.7325" height="32.7325" fill="white" transform="translate(2.17773 2.32812)"/>
</clipPath>
</defs>
</svg>
