<svg width="37" height="37" viewBox="0 0 37 37" fill="none" xmlns="http://www.w3.org/2000/svg">
<g clip-path="url(#clip0_368_29182)">
<path d="M33.9104 3.92969L29.5001 7.52997L31.0902 7.64998L20.8894 27.0015L12.7288 20.0409C12.5787 19.8909 12.3387 19.8309 12.1287 19.8609C11.9187 19.8609 11.7387 20.0109 11.6187 20.191L6.45827 27.9316C6.21825 28.2616 6.33826 28.7416 6.66829 28.9816C6.7883 29.0716 6.93831 29.1016 7.08832 29.1016C7.32834 29.1016 7.56836 28.9816 7.71837 28.7716L12.3987 21.7511L20.6194 28.7716C20.7994 28.9216 21.0094 28.9816 21.2494 28.9216C21.4594 28.8916 21.6695 28.7416 21.7595 28.5316L32.3803 8.37003L33.4004 9.60013L33.8804 3.92969H33.9104Z" fill="#D4191A"/>
<path d="M32.5305 32.1352H4.83833V4.47304C4.83833 3.963 4.62832 3.54297 4.32829 3.54297H3.66824C3.39822 3.54297 3.1582 3.963 3.1582 4.47304V33.3053C3.1582 33.3053 3.21821 33.5153 3.33822 33.6053C3.42822 33.7253 3.51823 33.7853 3.63824 33.7853H32.4705C32.9805 33.7853 33.3706 33.5753 33.3706 33.2753V32.6152C33.3706 32.3452 32.9505 32.1052 32.4705 32.1052" fill="#D4191A"/>
<path d="M7.32492 30.9726C7.38493 31.2726 7.68495 31.5127 8.01498 31.5127C8.40501 31.5127 8.70503 31.2126 8.70503 30.8526V29.5625L8.16499 30.3726C7.95497 30.6726 7.65495 30.8826 7.29492 30.9726" fill="#D4191A"/>
<path d="M9.66867 30.8433C9.66867 31.2034 9.9687 31.5034 10.3587 31.5034C10.7488 31.5034 11.0488 31.2034 11.0488 30.8433V26.043L9.63867 28.1431V30.8433H9.66867Z" fill="#D4191A"/>
<path d="M12.0066 24.664V30.8444C12.0066 31.2045 12.3066 31.5045 12.6966 31.5045C13.0866 31.5045 13.3867 31.2045 13.3867 30.8444V24.814L12.4266 24.0039L11.9766 24.664H12.0066Z" fill="#D4191A"/>
<path d="M14.3503 30.8415C14.3503 31.2015 14.6503 31.5015 15.0404 31.5015C15.4304 31.5015 15.7304 31.2015 15.7304 30.8415V26.8212L14.3203 25.6211V30.8415H14.3503Z" fill="#D4191A"/>
<path d="M16.6882 30.8418C16.6882 31.2018 17.0182 31.5019 17.3783 31.5019C17.7383 31.5019 18.0683 31.2018 18.0683 30.8418V28.8017L16.6582 27.6016V30.8118L16.6882 30.8418Z" fill="#D4191A"/>
<path d="M19.028 29.6172V30.8473C19.028 31.2073 19.3281 31.5073 19.7181 31.5073C20.1081 31.5073 20.4082 31.2073 20.4082 30.8473V30.7273C20.4082 30.7273 20.1681 30.6073 20.0481 30.5173L18.998 29.6172H19.028Z" fill="#D4191A"/>
<path d="M21.3698 30.8103C21.3698 31.2003 21.6999 31.5003 22.0599 31.5003C22.4199 31.5003 22.75 31.2003 22.75 30.8403V29.1602L22.2699 30.0602C22.0899 30.4203 21.7599 30.6903 21.3398 30.7803" fill="#D4191A"/>
<path d="M23.7077 30.8392C23.7077 31.1993 24.0078 31.4993 24.3978 31.4993C24.7878 31.4993 25.0878 31.1993 25.0878 30.8392V24.7188L23.6777 27.389V30.8392H23.7077Z" fill="#D4191A"/>
<path d="M26.0476 30.8382C26.0476 31.1982 26.3476 31.4982 26.7376 31.4982C27.1277 31.4982 27.4277 31.1982 27.4277 30.8382V20.2773L26.0176 22.9476V30.8382H26.0476Z" fill="#D4191A"/>
<path d="M28.3894 30.8488C28.3894 31.2089 28.6894 31.5089 29.0794 31.5089C29.4695 31.5089 29.7695 31.2089 29.7695 30.8488V15.8477L28.3594 18.5179V30.8488H28.3894Z" fill="#D4191A"/>
<path d="M30.7285 30.8478C30.7285 31.2078 31.0285 31.5078 31.4186 31.5078C31.8086 31.5078 32.1386 31.2078 32.1386 30.8478V11.4062L30.7285 14.0765V30.8478Z" fill="#D4191A"/>
</g>
<defs>
<clipPath id="clip0_368_29182">
<rect width="30.7224" height="30.2424" fill="white" transform="translate(3.18555 3.54297)"/>
</clipPath>
</defs>
</svg>
