<svg width="37" height="37" viewBox="0 0 37 37" fill="none" xmlns="http://www.w3.org/2000/svg">
<g clip-path="url(#clip0_402_4955)">
<g clip-path="url(#clip1_402_4955)">
<path d="M35.7039 20.2592L29.3339 16.0286V18.6727C29.3339 18.6727 29.3339 18.6727 29.3099 18.6727H27.2186C26.9783 18.6727 26.7139 18.6727 26.6898 18.1439V13.8893C26.6898 12.3989 25.7043 10.1875 22.988 10.1875C20.2718 10.1875 19.2863 12.3989 19.2863 13.8893V23.4081C19.2863 23.961 18.9978 23.961 18.7575 23.961C18.5171 23.961 18.2527 23.961 18.2286 23.4322V13.8893C18.2286 12.3989 17.2431 10.1875 14.5028 10.1875C11.7625 10.1875 10.801 12.3989 10.801 13.8893V23.4081C10.777 23.961 10.5126 23.961 10.2722 23.961C10.0318 23.961 9.76743 23.961 9.74339 23.4322V18.1439C9.74339 15.4277 7.53194 14.4181 6.04162 14.4181H3.92632C3.03693 14.4181 2.33984 15.1392 2.33984 16.0046C2.33984 16.8699 3.06097 17.591 3.92632 17.591H6.01758C6.57044 17.591 6.57044 17.8795 6.57044 18.1199V23.4081C6.57044 24.8984 7.55598 27.1339 10.2722 27.1339C12.9885 27.1339 13.974 24.9225 13.974 23.4081V13.9373C13.974 13.3845 14.2624 13.3845 14.5028 13.3845C14.7432 13.3845 15.0076 13.3845 15.0316 13.9133V23.4562C15.0316 24.9465 16.0172 27.182 18.7334 27.182C21.4496 27.182 22.4352 24.9706 22.4352 23.4562V13.9373C22.4352 13.3845 22.7236 13.3845 22.964 13.3845C23.2044 13.3845 23.4688 13.3845 23.4928 13.9133V18.1679C23.4928 19.6583 24.4784 21.8697 27.1946 21.8697H29.3099V24.5138L35.6798 20.2592H35.7039Z" fill="#D4191A"/>
</g>
</g>
<defs>
<clipPath id="clip0_402_4955">
<rect width="36.0028" height="36.0028" fill="white" transform="translate(0.544922 0.6875)"/>
</clipPath>
<clipPath id="clip1_402_4955">
<rect width="33.4121" height="16.9705" fill="white" transform="translate(2.29297 10.1875)"/>
</clipPath>
</defs>
</svg>
