<svg width="37" height="37" viewBox="0 0 37 37" fill="none" xmlns="http://www.w3.org/2000/svg">
<g clip-path="url(#clip0_382_3453)">
<path d="M27.3637 27.3718H12.4574C11.3512 27.3718 10.3762 26.6556 10.0387 25.619L9.81367 24.9782C9.71992 24.6578 9.86992 24.3186 10.1887 24.2243C10.5074 24.1301 10.8449 24.2809 10.9387 24.6013L11.1637 25.2421C11.3512 25.8075 11.8762 26.1844 12.4574 26.1844H27.3637C27.4949 26.1844 27.6074 26.1279 27.6824 26.0336C27.7574 25.9394 27.7762 25.7886 27.7387 25.6755L24.6824 16.4782C24.4949 15.9128 23.9699 15.5359 23.3887 15.5359H8.46367C8.33242 15.5359 8.21992 15.5924 8.14492 15.6866C8.06992 15.7997 8.05117 15.9316 8.08867 16.0447L9.62617 20.6622C9.71992 20.9826 9.56992 21.3219 9.25117 21.4161C8.93242 21.5104 8.59492 21.3596 8.50117 21.0392L6.96367 16.4217C6.81367 15.9505 6.88867 15.4228 7.18867 15.0081C7.48867 14.5935 7.95742 14.3485 8.46367 14.3485H23.3699C24.4762 14.3485 25.4512 15.0647 25.7887 16.1013L28.8262 25.2986C28.9762 25.7698 28.9012 26.2975 28.6012 26.7121C28.3199 27.1268 27.8324 27.3718 27.3449 27.3718H27.3637ZM29.4637 23.4139C29.1637 23.4139 28.9387 23.1877 28.8824 22.9239C28.8262 22.6035 29.0512 22.2831 29.3699 22.2454C29.4824 22.2265 29.5949 22.17 29.6512 22.0758C29.6887 22.0192 29.7262 21.9061 29.6887 21.7365C29.5949 21.4161 29.7449 21.0769 30.0637 20.9826C30.3824 20.8884 30.7199 21.0392 30.8137 21.3596C30.9449 21.7931 30.9074 22.2831 30.6637 22.6789C30.4199 23.0747 30.0074 23.3574 29.5574 23.4139H29.4824H29.4637ZM9.49492 12.8784C9.23242 12.8784 9.02617 12.7277 8.95117 12.4638C8.80117 11.9926 8.87617 11.4649 9.17617 11.0503C9.45742 10.6356 9.92617 10.3906 10.4512 10.3906C10.7887 10.3906 11.0324 10.6545 11.0324 10.9749C11.0324 11.2953 10.7699 11.5591 10.4512 11.5591C10.3199 11.5591 10.2074 11.6157 10.1324 11.7099C10.0574 11.8042 10.0387 11.9549 10.0762 12.068C10.1699 12.3884 10.0199 12.7277 9.70117 12.8219C9.62617 12.8407 9.56992 12.8596 9.51367 12.8596L9.49492 12.8784Z" fill="#D4191A"/>
<path d="M30.2516 22.133C29.9891 22.133 29.7828 21.9822 29.7078 21.7184L26.6703 12.521C26.4828 11.9556 25.9578 11.5787 25.3766 11.5787H10.4328C10.0953 11.5787 9.85156 11.3148 9.85156 10.9944C9.85156 10.674 10.1141 10.4102 10.4328 10.4102H25.3391C26.4453 10.4102 27.4203 11.1263 27.7578 12.1629L30.7953 21.3603C30.8891 21.6807 30.7391 22.0199 30.4203 22.1141C30.3641 22.1518 30.3078 22.1518 30.2516 22.1518V22.133Z" fill="#D4191A"/>
<path d="M26.7633 21.4537H11.1633C10.8258 21.4537 10.582 21.1898 10.582 20.8694C10.582 20.549 10.8445 20.2852 11.1633 20.2852H26.7445C27.082 20.2852 27.3258 20.549 27.3258 20.8694C27.3258 21.1898 27.0633 21.4537 26.7445 21.4537H26.7633ZM22.8258 27.3716C22.5633 27.3716 22.357 27.2209 22.282 26.957L20.9695 22.9991C20.8758 22.6787 21.0258 22.3395 21.3445 22.2452C21.6633 22.151 22.0008 22.3018 22.0945 22.6222L23.407 26.5801C23.5008 26.9005 23.3508 27.2397 23.032 27.3339C22.957 27.3716 22.9008 27.3716 22.8445 27.3716H22.8258Z" fill="#D4191A"/>
<path d="M20.8566 21.4549C20.5941 21.4549 20.3879 21.3041 20.3129 21.0403L19.0004 17.0824C18.9066 16.762 19.0566 16.4228 19.3754 16.3285C19.6941 16.2343 20.0316 16.3851 20.1254 16.7055L21.4379 20.6633C21.5316 20.9837 21.3816 21.323 21.0629 21.4172C20.9879 21.4549 20.9316 21.4549 20.8754 21.4549H20.8566ZM16.9379 27.3729C16.6754 27.3729 16.4691 27.2221 16.3941 26.9582L15.0816 23.0004C14.9879 22.68 15.1379 22.3407 15.4566 22.2465C15.7754 22.1523 16.1129 22.303 16.2066 22.6234L17.5191 26.5813C17.6129 26.9017 17.4629 27.2409 17.1441 27.3352C17.0691 27.3729 17.0129 27.3729 16.9566 27.3729H16.9379ZM14.9691 21.4549C14.7066 21.4549 14.5004 21.3041 14.4254 21.0403L13.1129 17.0824C13.0191 16.762 13.1691 16.4228 13.4879 16.3285C13.8066 16.2343 14.1441 16.3851 14.2379 16.7055L15.5504 20.6633C15.6441 20.9837 15.4941 21.323 15.1754 21.4172C15.1004 21.4549 15.0441 21.4549 14.9879 21.4549H14.9691ZM7.5066 27.3729C7.5066 27.3729 7.41285 27.3729 7.3566 27.354C7.03785 27.2786 6.85035 26.9394 6.9441 26.619L8.5191 20.701C8.5941 20.3806 8.9316 20.1922 9.25035 20.2864C9.5691 20.3618 9.7566 20.701 9.66285 21.0214L8.08785 26.9394C8.01285 27.2032 7.7691 27.3729 7.52535 27.3729H7.5066Z" fill="#D4191A"/>
</g>
<defs>
<clipPath id="clip0_382_3453">
<rect width="24" height="17" fill="white" transform="translate(6.88867 10.3711)"/>
</clipPath>
</defs>
</svg>
