<svg width="37" height="37" viewBox="0 0 37 37" fill="none" xmlns="http://www.w3.org/2000/svg">
<g clip-path="url(#clip0_368_29202)">
<path d="M33.9184 34.0571H28.998V33.307H33.1684V29.1367H33.9184V34.0571Z" fill="#D4191A"/>
<path d="M22.0426 33.3086H15.082V34.0587H22.0426V33.3086Z" fill="#D4191A"/>
<path d="M8.11835 34.0571H3.16797V29.1367H3.91803V33.307H8.11835V34.0571Z" fill="#D4191A"/>
<path d="M3.91803 15.2148H3.16797V22.1754H3.91803V15.2148Z" fill="#D4191A"/>
<path d="M3.91803 8.25507H3.16797V3.30469H8.11835V4.05475H3.91803V8.25507Z" fill="#D4191A"/>
<path d="M22.0426 3.30469H15.082V4.05475H22.0426V3.30469Z" fill="#D4191A"/>
<path d="M33.9184 8.25507H33.1684V4.05475H28.998V3.30469H33.9184V8.25507Z" fill="#D4191A"/>
<path d="M33.92 15.2148H33.1699V22.1754H33.92V15.2148Z" fill="#D4191A"/>
<path d="M20.6893 16.5391H3.16797V34.0604H20.6893V16.5391Z" fill="#D4191A"/>
<path d="M23.0325 13.7824L21.6523 12.4023L21.8324 15.6426L25.1026 15.8526L23.7225 14.4725L30.8331 7.36193L30.143 6.67188L23.0325 13.7824Z" fill="#D4191A"/>
</g>
<defs>
<clipPath id="clip0_368_29202">
<rect width="30.7524" height="30.7524" fill="white" transform="translate(3.16797 3.30469)"/>
</clipPath>
</defs>
</svg>
