<svg width="37" height="37" viewBox="0 0 37 37" fill="none" xmlns="http://www.w3.org/2000/svg">
<g clip-path="url(#clip0_400_4861)">
<path fill-rule="evenodd" clip-rule="evenodd" d="M18.8396 11.076C22.5463 11.076 25.5277 14.1414 25.5545 17.9186C25.5545 19.9714 24.7487 21.8326 23.6744 23.3927C25.2859 22.5442 27.3004 20.7377 27.3004 17.9186C27.3004 13.1561 23.5132 9.29688 18.8396 9.29688C14.1661 9.29688 10.3789 13.1561 10.3789 17.9186C10.3789 20.7104 12.3934 22.5168 14.0049 23.3927C12.9306 21.8326 12.1248 19.9987 12.1248 17.9186C12.1248 14.1414 15.133 11.1033 18.8396 11.076Z" fill="#D4191A"/>
<path fill-rule="evenodd" clip-rule="evenodd" d="M18.8125 4.67188C11.641 4.67188 5.8125 10.6113 5.8125 17.9192C5.8125 19.8899 6.24225 21.7511 6.99432 23.4207C8.49845 26.7872 11.3456 28.8126 14.8373 29.7432L14.5956 29.2506C11.9365 27.9094 9.78771 25.3092 8.57903 22.6543C7.9344 21.2036 7.58523 19.6162 7.58523 17.9192C7.58523 11.5966 12.608 6.47833 18.8125 6.47833C25.017 6.47833 30.0398 11.5966 30.0398 17.9192C30.0398 22.6269 27.2464 27.2525 23.2443 29.2232L23.0294 29.7706C28.1327 28.1831 31.7856 23.7217 31.7856 17.9192C31.7856 10.6113 25.9571 4.67188 18.7856 4.67188L18.8125 4.67188Z" fill="#D4191A"/>
<path fill-rule="evenodd" clip-rule="evenodd" d="M22.5733 21.9433C22.9494 26.6237 20.4246 32.3715 20.4246 32.3715C20.4246 32.3715 19.7799 32.6726 18.8399 32.6726C17.8998 32.6726 17.2283 32.3715 17.2283 32.3715C17.2283 32.3715 14.7035 26.6237 15.0527 21.9433C15.0527 21.9433 15.6436 19.9727 18.8399 19.9727C22.0361 19.9727 22.5733 21.9433 22.5733 21.9433Z" fill="#D4191A"/>
<path fill-rule="evenodd" clip-rule="evenodd" d="M21.66 16.0849C21.66 17.6997 20.3708 19.0135 18.7861 19.0135C17.2014 19.0135 15.9121 17.6997 15.9121 16.0849C15.9121 14.47 17.2014 13.1836 18.7861 13.1836C20.3708 13.1836 21.66 14.4974 21.66 16.0849Z" fill="#D4191A"/>
</g>
<defs>
<clipPath id="clip0_400_4861">
<rect width="26" height="28" fill="white" transform="translate(5.8125 4.67188)"/>
</clipPath>
</defs>
</svg>
