<svg width="37" height="37" viewBox="0 0 37 37" fill="none" xmlns="http://www.w3.org/2000/svg">
<path fill-rule="evenodd" clip-rule="evenodd" d="M18.8129 18.6797C16.2604 18.6797 13.8368 19.8141 12.161 21.7736C11.6453 22.3924 11.7227 23.2948 12.3414 23.8104C12.5993 24.0425 12.9344 24.1456 13.2696 24.1456C13.6821 24.1456 14.0947 23.9651 14.3783 23.6299C15.4869 22.315 17.0854 21.5673 18.8129 21.5673C20.5403 21.5673 22.1388 22.315 23.2475 23.6299C23.5311 23.9651 23.9436 24.1456 24.3561 24.1456C24.6913 24.1456 25.0265 24.0425 25.2843 23.8104C25.9031 23.2948 25.9804 22.3924 25.4648 21.7736C23.8147 19.8141 21.3911 18.6797 18.8387 18.6797" fill="#D4191A"/>
<path fill-rule="evenodd" clip-rule="evenodd" d="M18.8154 12.8789C14.5355 12.8789 10.5135 14.761 7.75472 18.0354C7.23907 18.6542 7.31642 19.5566 7.9352 20.0722C8.21881 20.3043 8.5282 20.4074 8.86337 20.4074C9.27589 20.4074 9.68841 20.2269 9.97202 19.8918C12.1893 17.2619 15.4121 15.7408 18.8154 15.7408C22.2187 15.7408 25.4416 17.2619 27.6589 19.8918C27.9425 20.2269 28.355 20.4074 28.7675 20.4074C29.1027 20.4074 29.4379 20.3043 29.6957 20.0722C30.3145 19.5566 30.3918 18.6542 29.8762 18.0354C27.1174 14.761 23.0696 12.8789 18.8154 12.8789Z" fill="#D4191A"/>
<path fill-rule="evenodd" clip-rule="evenodd" d="M34.3098 14.3543C30.4424 9.76498 24.7961 7.10938 18.8145 7.10938C12.8329 7.10938 7.18656 9.7392 3.31917 14.3543C2.80352 14.9731 2.88087 15.8754 3.49965 16.3911C3.75748 16.6231 4.09265 16.7263 4.42782 16.7263C4.84034 16.7263 5.25287 16.5458 5.53647 16.2106C8.86243 12.2659 13.6838 9.99702 18.8145 9.99702C23.9452 9.99702 28.7666 12.2659 32.0925 16.2106C32.3761 16.5458 32.7886 16.7263 33.2012 16.7263C33.5363 16.7263 33.8715 16.6231 34.1293 16.3911C34.7481 15.8754 34.8255 14.9731 34.3098 14.3543Z" fill="#D4191A"/>
<path fill-rule="evenodd" clip-rule="evenodd" d="M18.8134 30.2362C20.4119 30.2362 21.7011 28.9471 21.7011 27.3486C21.7011 25.7501 20.4119 24.4609 18.8134 24.4609C17.2149 24.4609 15.9258 25.7501 15.9258 27.3486C15.9258 28.9471 17.2149 30.2362 18.8134 30.2362Z" fill="#D4191A"/>
</svg>
