<svg width="37" height="37" viewBox="0 0 37 37" fill="none" xmlns="http://www.w3.org/2000/svg">
<g clip-path="url(#clip0_368_29243)">
<path d="M30.1368 11.6899L26.5065 10.7298L25.5465 7.09956L29.2668 3.37927C27.0766 2.77923 24.6464 3.37927 22.9363 5.0594C21.2261 6.76954 20.6561 9.22973 21.2561 11.4199L11.2954 21.4107C9.10519 20.8106 6.645 21.3507 4.93486 23.0908C3.22473 24.8009 2.65469 27.2311 3.25473 29.4213L6.94502 25.731L10.5753 26.6911L11.5354 30.3214L7.84509 34.0117C10.0353 34.6117 12.4654 34.0117 14.1756 32.3315C15.9757 30.5314 16.4858 27.9512 15.7657 25.671L25.5465 15.8902C27.7966 16.6403 30.4068 16.1003 32.207 14.3001C33.9171 12.59 34.4872 10.1598 33.8871 7.96963L30.1968 11.6599L30.1368 11.6899Z" fill="#D4191A"/>
</g>
<defs>
<clipPath id="clip0_368_29243">
<rect width="31.0524" height="31.0524" fill="white" transform="translate(3.01758 3.16406)"/>
</clipPath>
</defs>
</svg>
