<svg width="37" height="37" viewBox="0 0 37 37" fill="none" xmlns="http://www.w3.org/2000/svg">
<g clip-path="url(#clip0_368_29219)">
<path fill-rule="evenodd" clip-rule="evenodd" d="M26.6761 25.2905C26.8861 25.0205 27.0661 24.6904 27.1861 24.3304C27.3061 23.9404 27.3661 23.5203 27.3661 23.0403C27.3661 22.0502 27.1561 21.3002 26.7061 20.7901C26.256 20.3101 25.686 20.0401 24.9659 20.0401C24.2459 20.0401 23.6758 20.2801 23.2258 20.7901C22.7758 21.3002 22.5658 22.0502 22.5658 23.0403C22.5658 24.0304 22.7758 24.8104 23.2258 25.3205C23.6758 25.8305 24.2459 26.0705 24.9059 26.0705C25.146 26.0705 25.386 26.0405 25.626 25.9505C25.266 25.7105 24.9059 25.5305 24.5459 25.4105L25.0259 24.3904C25.596 24.6004 26.136 24.9005 26.6761 25.2905ZM28.0562 26.2506C28.4762 26.5506 28.9563 26.7906 29.4663 26.9706L28.8362 28.2307C28.5662 28.1407 28.3262 28.0507 28.0562 27.9007C27.9962 27.8707 27.6061 27.6007 26.8861 27.1206C26.316 27.3606 25.686 27.4807 24.9959 27.4807C23.6758 27.4807 22.6258 27.0906 21.8757 26.3106C21.1256 25.5305 20.7356 24.4204 20.7356 23.0103C20.7356 21.6002 21.1256 20.4901 21.8757 19.7101C22.6258 18.93 23.6758 18.54 24.9659 18.54C26.256 18.54 27.2761 18.93 28.0262 19.7101C28.7762 20.4901 29.1663 21.6002 29.1663 23.0103C29.1663 23.7604 29.0763 24.4204 28.8662 24.9905C28.7162 25.4405 28.4462 25.8605 28.1162 26.2506H28.0562ZM11.6449 9.9893V12.8395H12.755C13.5351 12.8395 14.0751 12.7795 14.3451 12.6895C14.6151 12.5995 14.8252 12.4195 14.9752 12.2095C15.1252 11.9995 15.2152 11.7294 15.2152 11.4294C15.2152 11.0694 15.0952 10.7694 14.8852 10.5293C14.6751 10.2893 14.4051 10.1393 14.0751 10.0793C13.8351 10.0493 13.355 10.0193 12.635 10.0193H11.6749L11.6449 9.9893ZM9.60475 18.2699V8.30917H12.815C14.0451 8.30917 14.8252 8.36917 15.2152 8.45918C15.7852 8.60919 16.2653 8.93921 16.6553 9.44925C17.0453 9.95929 17.2253 10.5893 17.2253 11.3994C17.2253 11.9995 17.1053 12.5095 16.8953 12.9295C16.6853 13.3496 16.3853 13.6796 16.0552 13.9196C15.7252 14.1596 15.3652 14.3096 15.0052 14.3996C14.5251 14.4896 13.8351 14.5497 12.935 14.5497H11.6149V18.2999H9.60475V18.2699ZM29.2263 7.16908C32.3165 10.0493 34.2367 14.1296 34.2367 18.69C34.2367 27.3606 27.1861 34.4112 18.5154 34.4112C14.4351 34.4112 10.7148 32.8511 7.92462 30.3009L29.2263 7.16908ZM18.5454 2.96875C21.9357 2.96875 25.0859 4.04883 27.6662 5.87898L6.54451 28.8308C4.23433 26.1005 2.82422 22.5603 2.82422 18.69C2.82422 10.0193 9.87477 2.96875 18.5454 2.96875Z" fill="#D4191A"/>
</g>
<defs>
<clipPath id="clip0_368_29219">
<rect width="31.4424" height="31.4424" fill="white" transform="translate(2.82422 2.96875)"/>
</clipPath>
</defs>
</svg>
