<svg width="37" height="37" viewBox="0 0 37 37" fill="none" xmlns="http://www.w3.org/2000/svg">
<g clip-path="url(#clip0_400_4875)">
<path d="M13.1209 28.9295H24.8248V29.5155H13.1209V28.9295ZM29.0854 25.7553H8.80897C8.14164 25.7553 7.49998 25.5111 7.01232 25.0472C6.52466 24.5832 6.268 23.9728 6.268 23.338V10.5433C6.24233 9.20034 7.39732 8.10156 8.80897 8.10156H29.0854C29.7527 8.10156 30.3944 8.34574 30.882 8.80966C31.3697 9.27359 31.6263 9.88403 31.6263 10.5189V23.3135C31.6263 23.9484 31.3697 24.5588 30.882 25.0228C30.3944 25.4867 29.7527 25.7309 29.0854 25.7309V25.7553ZM8.80897 8.712C7.75665 8.712 6.88399 9.54218 6.88399 10.5433V23.338C6.88399 24.3391 7.75665 25.1693 8.80897 25.1693H29.0854C30.1377 25.1693 31.0103 24.3391 31.0103 23.338V10.5433C31.0103 10.0549 30.805 9.59102 30.4457 9.24918C30.0864 8.90733 29.5987 8.712 29.0854 8.712H8.80897Z" fill="#D4191A" stroke="#D4191A" stroke-linecap="round" stroke-linejoin="round"/>
<path d="M18.6393 25.4608H19.2553V29.0257H18.6393V25.4608ZM23.6956 21.8714L21.2573 17.2077H19.127L17.9977 19.6006L15.8674 13.301L12.1971 18.8437L10.5031 17.2322H6.57617V16.6461H10.7598L12.0944 17.9158L16.0471 11.9336L18.1004 17.9891L18.742 16.6461H21.668L23.4133 19.9669L24.0036 16.4752H31.3442V17.0612H24.5426L23.747 21.8714H23.6956Z" fill="#D4191A" stroke="#D4191A" stroke-width="0.25" stroke-linecap="round" stroke-linejoin="round"/>
</g>
<defs>
<clipPath id="clip0_400_4875">
<rect width="26" height="22" fill="white" transform="translate(5.93359 7.80859)"/>
</clipPath>
</defs>
</svg>
