<svg width="71" height="71" viewBox="0 0 71 71" fill="none" xmlns="http://www.w3.org/2000/svg">
<g clip-path="url(#clip0_362_3303)">
<path fill-rule="evenodd" clip-rule="evenodd" d="M5.13822 0.0546875H64.8852C67.7001 0.0546875 70.0117 2.36627 70.0117 5.18119V64.9282C70.0117 67.7431 67.7001 70.0547 64.8852 70.0547H5.13822C2.3233 70.0547 0.0117188 67.7431 0.0117188 64.9282V5.18119C0.0117188 2.36627 2.3233 0.0546875 5.13822 0.0546875Z" fill="#C61724"/>
<path d="M31.9634 59.6146H26.8182V38.9595C24.9354 40.8237 22.717 42.2218 20.1631 43.1166V38.1393C21.5053 37.6732 22.978 36.7784 24.5439 35.4735C26.1285 34.1686 27.2097 32.6399 27.7876 30.9062H31.9634V59.6146Z" fill="white"/>
<path d="M35.2256 59.6155V54.1348H40.3707V59.6155H35.2256Z" fill="white"/>
<path d="M43.5586 52.2693L48.6851 51.71C48.8342 52.9404 49.263 53.9284 49.99 54.6368C50.717 55.3638 51.5373 55.718 52.488 55.718C53.5692 55.718 54.4827 55.252 55.2284 54.3199C55.974 53.3878 56.3469 51.9897 56.3469 50.1255C56.3469 48.3731 55.974 47.0496 55.247 46.1734C54.5013 45.2972 53.5506 44.8498 52.3575 44.8498C50.8848 44.8498 49.5426 45.5396 48.3868 46.9377L44.2111 46.3039L46.8582 31.4277H60.4854V36.5542H50.773L49.9714 41.4011C51.1272 40.7859 52.3016 40.4877 53.4947 40.4877C55.7876 40.4877 57.7264 41.3638 59.3109 43.1348C60.8955 44.9058 61.6971 47.1987 61.6971 50.0136C61.6971 52.3625 61.0633 54.469 59.777 56.3146C58.0246 58.8312 55.6012 60.0988 52.488 60.0988C50.0087 60.0988 47.9767 59.3905 46.4108 57.9737C44.8449 56.5569 43.9128 54.6554 43.5959 52.2693H43.5586Z" fill="white"/>
<path d="M10.6007 24.9606V8.94727H14.7019L17.1626 19.8714L19.6047 8.94727H23.7245V24.9606H21.1706V12.3587L18.4675 24.9606H15.8204L13.136 12.3587V24.9606H10.582H10.6007Z" fill="white"/>
<path d="M28.3659 16.9064L25.9984 16.4031C26.2594 15.2846 26.7254 14.4457 27.3592 13.9051C28.0117 13.3645 28.9624 13.1035 30.2487 13.1035C31.4045 13.1035 32.2807 13.2713 32.8399 13.5882C33.3992 13.9051 33.8093 14.3339 34.033 14.8186C34.2567 15.3219 34.3872 16.2353 34.3872 17.5589V21.1381C34.3686 22.1634 34.3872 22.9091 34.4804 23.3938C34.555 23.8785 34.7227 24.4005 34.9464 24.9597H32.3739C32.2993 24.7546 32.2247 24.4564 32.1315 24.0463C32.0942 23.8598 32.057 23.748 32.0383 23.6921C31.5909 24.1954 31.1249 24.5869 30.6029 24.8479C30.0996 25.1088 29.559 25.2393 28.9811 25.2393C27.9744 25.2393 27.1728 24.9224 26.5949 24.27C26.017 23.6175 25.7188 22.7973 25.7188 21.8092C25.7188 21.1568 25.8492 20.5602 26.1102 20.0569C26.3712 19.5349 26.7441 19.1435 27.2287 18.8825C27.7134 18.6029 28.4032 18.3791 29.298 18.1741C30.5097 17.9131 31.3486 17.6521 31.8333 17.4284V17.1301C31.8333 16.5336 31.7028 16.1235 31.4604 15.8625C31.2181 15.6202 30.752 15.4897 30.0623 15.4897C29.5962 15.4897 29.2421 15.6015 28.9811 15.8066C28.7201 16.0303 28.515 16.4031 28.3472 16.9437L28.3659 16.9064ZM31.8333 19.4044C31.4977 19.5349 30.9757 19.6841 30.2487 19.8705C29.5217 20.0569 29.0556 20.2247 28.8319 20.4111C28.4964 20.6907 28.3286 21.0636 28.3286 21.4923C28.3286 21.9211 28.4591 22.2939 28.7387 22.6108C29.0184 22.9278 29.3539 23.0769 29.7827 23.0769C30.2487 23.0769 30.6961 22.8905 31.1249 22.5363C31.4418 22.2566 31.6468 21.9211 31.7401 21.511C31.8146 21.25 31.8519 20.7467 31.8519 20.0196V19.4044H31.8333Z" fill="white"/>
<path d="M35.7109 24.9615L39.2529 18.9775L35.8601 13.3477H39.0292L40.7629 16.5354L42.5898 13.3477H45.647L42.3101 18.847L45.9453 24.9615H42.7575L40.7629 21.3636L38.7496 24.9615H35.7109Z" fill="white"/>
<path d="M47.5117 24.9607V21.8848H50.1216V24.9607H47.5117Z" fill="white"/>
</g>
<defs>
<clipPath id="clip0_362_3303">
<rect width="70" height="70" fill="white" transform="translate(0.0117188 0.0546875)"/>
</clipPath>
</defs>
</svg>
