<svg width="71" height="70" viewBox="0 0 71 70" fill="none" xmlns="http://www.w3.org/2000/svg">
<g clip-path="url(#clip0_364_23823)">
<path d="M65.7954 0H6.04837C3.21709 0 0.921875 2.29521 0.921875 5.1265V64.8735C0.921875 67.7048 3.21709 70 6.04837 70H65.7954C68.6267 70 70.9219 67.7048 70.9219 64.8735V5.1265C70.9219 2.29521 68.6267 0 65.7954 0Z" fill="#C61724"/>
<path fill-rule="evenodd" clip-rule="evenodd" d="M23.7949 38.4019C23.7949 38.4019 23.8321 38.346 23.8694 38.2901C23.8694 38.2901 24.671 36.8547 23.8694 35.6802C23.0865 34.5245 21.8188 34.5245 21.8188 34.5245L20.9799 34.5804C20.9799 33.7601 20.5325 32.9772 20.4952 32.6789C20.7935 32.6043 21.185 32.2315 21.3714 32.0078C22.2662 30.8707 21.9493 29.4539 21.0918 28.6523C20.5512 28.149 19.6937 27.832 18.7616 28.093C17.96 28.3167 17.4566 28.8387 17.1397 29.5284C16.5805 29.2488 15.7975 29.0251 15.0146 28.9878C15.0146 28.615 15.1823 28.3913 14.94 27.6456C14.7909 27.1796 14.6231 26.9559 14.3248 26.6576C13.9147 26.2475 13.43 26.0238 12.9267 25.9492H12.2556C11.4167 26.0611 10.6337 26.6203 10.2795 27.5338C9.85078 28.6336 10.2982 29.3047 10.671 30.0131C10.5405 30.125 10.41 30.2182 10.2609 30.3114C9.4593 30.9079 9.25424 31.2994 9.06782 31.4299C8.6577 31.2249 8.56449 31.0384 8.00524 30.9266C7.11043 30.7402 6.36476 30.9639 5.73094 31.5604C5.30217 31.9519 5.07847 32.4179 5.00391 32.884V33.6483C5.20897 34.9346 6.36476 36.0531 7.74425 35.7735C7.81882 36.5564 8.04252 37.2089 8.28486 37.8241C5.67501 39.3154 7.20364 43.0624 9.94399 42.4472C10.3541 42.354 10.6897 42.1676 11.0066 41.9439L11.5285 41.3287C11.5285 41.3287 11.5658 41.2728 11.5845 41.2169C11.659 41.0864 11.6031 41.1609 11.6777 41.0864C11.9573 41.105 12.442 41.3101 12.7962 41.4033C13.0572 41.4592 13.7283 41.6083 14.0638 41.5338C14.0638 42.1676 14.1011 42.4099 14.3062 42.8201C14.679 43.5657 15.3874 44.0877 16.2263 44.1996H16.8228C16.9719 44.1996 17.1397 44.1436 17.3075 44.1063C18.3701 43.7894 19.1903 42.5404 18.9853 41.366C18.8734 40.7695 18.7429 40.6763 18.5379 40.2475C18.687 40.0611 18.7429 40.0797 18.9107 39.9119C19.0598 39.7814 19.153 39.6696 19.3022 39.5205C19.5445 39.2781 19.7869 38.9798 19.9733 38.7002C20.3275 38.9239 20.8494 39.6509 22.1917 39.4272C22.9373 39.2968 23.3847 38.9612 23.7949 38.4019Z" fill="white"/>
<path fill-rule="evenodd" clip-rule="evenodd" d="M45.9601 31.7278C45.9601 32.0261 45.8109 32.6972 45.7364 32.9768C45.6618 33.2937 45.5127 33.9462 45.5127 34.2817H45.4008C45.2517 33.5547 43.9654 33.6292 43.4248 33.6292C42.3808 33.6292 41.747 33.9275 41.3928 34.6918C41.2064 35.1206 40.2743 37.9728 41.3556 38.4388C41.9894 38.6998 43.257 38.6812 43.9095 38.5134C44.4874 38.3829 44.5433 38.1592 44.7856 37.9728C44.7856 38.2338 44.7297 38.2524 44.7297 38.5693C46.2583 38.5693 46.2583 38.7185 46.3329 38.2897C46.3516 38.1779 46.3888 37.9355 46.4075 37.8423C46.4634 37.5254 46.5007 37.2644 46.5566 36.9288L47.3769 32.4362C47.526 31.4854 47.8615 31.6905 45.9228 31.6905L45.9601 31.7278ZM44.9534 36.7797C44.7856 37.0407 44.5247 37.1526 44.1518 37.1526C42.6046 37.1526 42.4554 37.283 42.4554 36.4442C42.4554 34.9715 43.6485 34.9342 44.7484 35.1392C45.233 35.2324 45.1958 35.4375 45.1958 35.8476C45.1958 36.1645 45.0839 36.5933 44.9534 36.7797Z" fill="white"/>
<path fill-rule="evenodd" clip-rule="evenodd" d="M50.0614 33.9852C49.9122 34.0784 49.875 34.1717 49.7258 34.2835C49.7258 33.948 49.8563 33.3514 49.9309 32.9972L50.1732 31.7109H48.5887L47.9735 35.1037C47.8989 35.5139 47.377 38.2169 47.377 38.5711C48.9988 38.5711 49.0174 38.8135 49.0174 37.8627C49.1666 38.0864 49.0734 38.2915 49.6885 38.4966C50.3596 38.7016 51.4782 38.6643 52.1679 38.4966C52.5967 38.3847 52.8576 38.1796 53.0254 37.8255C53.5101 36.7815 53.622 35.8867 53.622 34.6563C53.622 33.2582 50.7138 33.5565 50.0614 34.0039V33.9852ZM51.8883 36.7442C51.7391 37.0239 51.4782 37.1543 51.068 37.1543C50.0054 37.1543 48.9056 37.4526 49.4835 35.7935C49.5953 35.4579 49.6326 35.3088 49.9682 35.197C50.3037 35.0665 51.7019 34.9546 51.9815 35.3275C52.2611 35.7003 51.9628 36.5951 51.8883 36.7442Z" fill="white"/>
<path fill-rule="evenodd" clip-rule="evenodd" d="M37.4404 33.6311C36.4711 33.6311 35.6136 33.743 35.0357 34.4141C34.6628 34.8428 34.3086 36.185 34.3086 37.0239C34.3086 37.7509 34.29 38.2356 35.1661 38.478C35.8932 38.683 37.5523 38.6644 38.3166 38.5153C39.3233 38.3288 39.7147 38.0119 40.0317 36.8561C40.2554 36.0173 40.2926 35.7749 40.2926 34.9174C40.2926 33.482 38.5776 33.6125 37.4404 33.6125V33.6311ZM38.503 36.707C38.3725 37.0612 38.1488 37.1544 37.7201 37.1544C36.8998 37.1544 35.9118 37.3408 35.9118 36.7443C35.9118 36.3155 36.061 35.6631 36.2287 35.4207C36.5456 34.9547 37.7201 35.0665 38.2607 35.1411C38.3725 35.1411 38.503 35.1784 38.5776 35.2716C38.8386 35.5699 38.5962 36.4274 38.503 36.707Z" fill="white"/>
<path fill-rule="evenodd" clip-rule="evenodd" d="M61.1534 35.6071C61.1534 36.9493 62.7007 36.5579 63.8938 36.6138C64.6208 36.6511 64.8259 36.6511 64.8259 37.0239C64.8259 37.5272 63.6887 37.434 63.2972 37.434C62.4956 37.434 62.1974 37.3781 62.1974 36.8934H60.7619C60.706 37.5459 60.445 38.3102 61.694 38.4966C62.5888 38.6271 64.7326 38.7389 65.4783 38.3102C66.1308 37.956 66.2426 37.173 66.2426 36.3528C66.2426 34.8987 63.4464 35.7376 62.5702 35.2716C62.6261 34.6564 63.3904 34.7869 64.0988 34.7869C64.6954 34.7869 64.9004 34.8242 64.9191 35.1411H66.4104V34.5632C66.3918 34.1344 66.2613 33.8361 65.6275 33.7243C64.8259 33.5565 62.3651 33.426 61.75 33.9666C61.3771 34.3022 61.1348 34.8614 61.1348 35.5698L61.1534 35.6071Z" fill="white"/>
<path fill-rule="evenodd" clip-rule="evenodd" d="M54.2374 37.1535C54.2374 38.3465 54.9458 38.6448 56.0456 38.6448C56.4931 38.6448 56.9777 38.5516 57.2946 38.3838C57.9285 38.0669 57.7793 37.9551 58.1335 37.6941C58.059 38.7567 57.4811 38.5889 59.3452 38.5889C59.6062 38.5889 59.6622 37.5636 59.7554 37.1162C59.8672 36.5383 59.9604 36.0163 60.0536 35.4757C60.1096 35.1961 60.1655 34.9351 60.2028 34.6927C60.2401 34.469 60.3333 34.0962 60.3519 33.8911C60.3705 33.6302 60.2587 33.6861 59.7181 33.6861C59.4012 33.6861 59.1029 33.6861 58.786 33.6861C58.6369 34.4131 58.525 35.2147 58.3572 35.9045C58.1149 36.9298 57.6861 37.1348 56.81 37.1348C55.1136 37.1348 56.3626 35.2893 56.3626 33.6674C54.517 33.6674 54.8339 33.4437 54.6662 34.3945C54.5357 35.0842 54.2188 36.5942 54.2188 37.1348L54.2374 37.1535Z" fill="white"/>
<path d="M34.3095 31.5978C34.3468 31.3928 34.1977 31.3555 34.0858 31.3555C33.6571 31.3555 33.2842 31.3555 33.0232 31.3555C32.6504 31.3555 32.2589 31.3555 31.8674 31.3555C31.8302 31.3555 31.6065 31.3555 31.476 31.5605C31.3828 31.7656 31.3082 31.952 31.2523 32.0825C31.1777 32.2503 31.0099 32.5858 30.7489 33.0892C30.4879 33.6111 30.2642 34.0585 30.0778 34.4687C29.8914 34.8788 29.6863 35.3448 29.444 35.9041C29.444 35.0838 29.4254 34.5059 29.4067 34.1704C29.4067 33.8348 29.3694 33.4434 29.3135 32.9773C29.2762 32.5113 29.2576 32.213 29.2389 32.0452C29.2389 31.9707 29.2389 31.8774 29.2389 31.7656C29.2389 31.43 29.0339 31.3741 28.922 31.3555C28.4933 31.3555 28.1577 31.3555 27.9154 31.3555C27.5612 31.3555 27.0951 31.3555 26.48 31.3555L25.9207 33.8348L25.0073 37.5818L24.709 38.6631C25.1377 38.6631 25.4174 38.6631 25.6038 38.6631C25.6784 38.6631 25.8648 38.6631 26.0885 38.6631C26.4986 38.6631 26.5359 38.3275 26.5359 38.3275L26.5918 37.9733L27.2443 34.9347L27.6171 33.462C27.6171 33.6857 27.6171 33.8535 27.6171 33.928C27.6171 34.0212 27.6171 34.0958 27.6171 34.1517L27.7103 35.7177L27.8408 38.6631C28.2696 38.6631 28.5678 38.6631 28.7729 38.6631C28.9407 38.6631 29.2203 38.6631 29.6491 38.6631L31.0658 35.6244L32.0725 33.4434C32.0352 33.7043 32.0166 33.9094 31.9793 34.0585C31.9234 34.3941 31.7742 35.1584 31.5505 36.3701C31.3082 37.5818 31.1591 38.3461 31.0845 38.6631C31.4573 38.6631 31.7556 38.6631 32.0166 38.6631C32.1471 38.6631 32.3894 38.6631 32.669 38.6631C32.93 38.7003 32.9487 38.4394 32.9487 38.4394C32.9859 38.2343 33.0046 38.0479 33.0232 37.9547C33.1351 37.3208 33.3401 36.1651 33.6571 34.4687C33.8062 33.6671 33.9926 32.7163 34.235 31.6351L34.3095 31.5978Z" fill="white"/>
</g>
<defs>
<clipPath id="clip0_364_23823">
<rect width="70" height="70" fill="white" transform="translate(0.921875)"/>
</clipPath>
</defs>
</svg>
