<?xml version="1.0" standalone="no"?><!DOCTYPE svg PUBLIC "-//W3C//DTD SVG 1.1//EN" "http://www.w3.org/Graphics/SVG/1.1/DTD/svg11.dtd"><svg t="1753698998455" class="icon" viewBox="0 0 1024 1024" version="1.1" xmlns="http://www.w3.org/2000/svg" p-id="6793" xmlns:xlink="http://www.w3.org/1999/xlink" width="200" height="200"><path d="M821.747174 0a142.007689 142.007689 0 0 1 141.7944 134.627896v374.193887a38.69059 38.69059 0 0 1-77.210549 4.265777l-0.213289-4.265777v-366.856752a64.498536 64.498536 0 0 0-59.251631-64.285247l-5.289562-0.213288H400.288486a64.669167 64.669167 0 0 0-41.207398 14.844901l-4.735011 4.265776-198.017331 200.704769a64.498536 64.498536 0 0 0-18.257522 38.989195l-0.341262 6.313348v522.04569a64.498536 64.498536 0 0 0 59.251631 64.327905l5.289563 0.213289h287.854577a38.69059 38.69059 0 0 1 4.265776 77.210549l-4.265776 0.213289H202.271156A142.007689 142.007689 0 0 1 60.434098 871.924652V342.755117a141.965031 141.965031 0 0 1 35.06468-93.420499l5.801456-6.313349L299.488195 42.231184A142.007689 142.007689 0 0 1 391.84225 0.255947L400.587091 0h421.288056z" fill="#C01C20" p-id="6794"></path><path d="M768.680918 658.209265a34.126209 34.126209 0 0 1 38.69059 38.69059v283.972721a34.126209 34.126209 0 0 1-38.69059 38.69059 34.126209 34.126209 0 0 1-38.69059-38.69059v-283.972721a34.126209 34.126209 0 0 1 38.69059-38.69059z" fill="#C01C20" p-id="6795"></path><path d="M614.942344 827.56058a34.126209 34.126209 0 0 1 54.729909 0l127.973285 127.973286a34.126209 34.126209 0 0 1 0 54.729908 34.126209 34.126209 0 0 1-54.729908 0l-127.973286-127.973285a34.126209 34.126209 0 0 1 0-54.729909z" fill="#C01C20" p-id="6796"></path><path d="M742.702341 955.320577l127.973285-127.973286a34.126209 34.126209 0 0 1 54.729909 0 34.126209 34.126209 0 0 1 0 54.729909l-127.973286 127.973285a34.126209 34.126209 0 0 1-54.729908 0 34.126209 34.126209 0 0 1 0-54.68725z" fill="#C01C20" p-id="6797"></path><path d="M269.585104 645.070675v-83.651871h29.177909a256.799726 256.799726 0 0 0 46.454303-3.156675 64.242589 64.242589 0 0 0 23.205822-10.536467 60.787311 60.787311 0 0 0 18.854731-21.883432 72.518195 72.518195 0 0 0 7.422451-34.126209 68.934943 68.934943 0 0 0-12.797329-43.212313 58.142529 58.142529 0 0 0-31.865348-21.670143 260.596267 260.596267 0 0 0-53.279545-3.327305H224.922427v221.820361z m24.485555-121.276017h-24.485555v-62.920199h21.627485a218.578372 218.578372 0 0 1 32.249268 1.493022 30.969535 30.969535 0 0 1 18.001576 9.853943 28.495385 28.495385 0 0 1 7.081188 19.963832 29.860433 29.860433 0 0 1-5.033616 17.063105 29.391198 29.391198 0 0 1-14.034403 10.920387 116.114428 116.114428 0 0 1-35.363285 3.497937z m221.436442 121.276017a136.07826 136.07826 0 0 0 39.629061-4.692354 78.447624 78.447624 0 0 0 31.43877-17.702971 97.558301 97.558301 0 0 0 23.717716-39.202483 145.03639 145.03639 0 0 0 6.825242-47.179485 163.037966 163.037966 0 0 0-7.25182-52.383731 96.875777 96.875777 0 0 0-21.32888-35.917836 74.13919 74.13919 0 0 0-33.443686-20.39041 158.089665 158.089665 0 0 0-42.188526-4.265776H431.044733v221.820361h84.249079z m-6.057402-37.325542h-33.443685v-146.870674h20.134463a203.477524 203.477524 0 0 1 36.728333 2.132888 42.657762 42.657762 0 0 1 20.731673 10.408494 51.189314 51.189314 0 0 1 12.797328 21.328881 133.049559 133.049559 0 0 1 4.521723 39.45843 144.225893 144.225893 0 0 1-4.521723 40.652847 46.923538 46.923538 0 0 1-11.773542 21.328881 41.16474 41.16474 0 0 1-18.044233 9.214076 122.299803 122.299803 0 0 1-27.130337 2.346177z m190.722853 37.325542v-94.230996h92.524686v-37.538831h-92.524686v-52.469047h107.241614v-37.53883h-152.032264v221.820362h44.79065zM285.581765 55.412433L115.590584 225.403614a64.498536 64.498536 0 0 0 45.601147 110.142341h92.567343a142.007689 142.007689 0 0 0 142.00769-141.965032V101.056238A64.498536 64.498536 0 0 0 285.581765 55.45509z m32.718503 76.783971v66.71674a64.498536 64.498536 0 0 1-64.327905 59.251631h-61.427177l125.968371-125.968371z" fill="#C01C20" p-id="6798"></path></svg>