<svg width="71" height="70" viewBox="0 0 71 70" fill="none" xmlns="http://www.w3.org/2000/svg">
<g clip-path="url(#clip0_364_23939)">
<path fill-rule="evenodd" clip-rule="evenodd" d="M35.9498 23.1345C41.8407 23.1345 46.613 27.9068 46.613 33.7976C46.613 37.0226 45.3267 39.8935 43.6303 42.3356C46.1842 40.9933 49.4092 38.1784 49.4092 33.7976C49.4092 26.3595 43.3693 20.3196 35.9312 20.3196H35.8939C28.4558 20.3196 22.4345 26.3409 22.4159 33.7976C22.4159 38.1598 25.6409 40.9933 28.1948 42.3356C26.4984 39.9121 25.2122 37.0226 25.2122 33.7976C25.2122 27.9068 29.9845 23.1345 35.8753 23.1345H35.9126H35.9498ZM35.9126 13.1238C24.4851 13.1238 15.2388 22.3888 15.2388 33.7976C15.2388 36.8549 15.9099 39.763 17.103 42.3915C19.5078 47.6298 24.0191 50.8176 29.5743 52.2716L29.2015 51.4887C24.9698 49.4194 21.5397 45.3369 19.6383 41.1984C18.613 38.9427 18.0351 36.4447 18.0351 33.7976C18.0351 23.9174 26.051 15.9387 35.9126 15.9201C45.7927 15.9387 53.7714 23.9174 53.7901 33.7976C53.7901 41.1611 49.3347 48.3755 42.9778 51.4514L42.6609 52.3089C50.7701 49.8109 56.5863 42.8762 56.5863 33.8162C56.5863 22.3888 47.3213 13.1425 35.9126 13.1425V13.1238ZM41.9152 40.0985C42.5118 47.4061 38.4665 56.3915 38.4665 56.3915C38.4665 56.3915 37.4412 56.8762 35.9312 56.8762C34.4212 56.8762 33.3586 56.3915 33.3586 56.3915C33.3586 56.3915 29.3134 47.4061 29.9099 40.0985C29.9099 40.0985 30.8606 37.0226 35.9498 37.0226C41.0391 37.0226 41.8966 40.0985 41.8966 40.0985H41.9152ZM40.4798 30.9454C40.4798 33.4621 38.4478 35.494 35.9312 35.494C33.4146 35.494 31.3826 33.4621 31.3826 30.9454C31.3826 28.4288 33.4146 26.3968 35.9312 26.3968C38.4478 26.3968 40.4798 28.4288 40.4798 30.9454ZM6.04837 0H65.7954C68.6103 0 70.9219 2.31158 70.9219 5.1265V64.8735C70.9219 67.6884 68.6103 70 65.7954 70H6.04837C3.23346 70 0.921875 67.6884 0.921875 64.8735V5.1265C0.921875 2.31158 3.23346 0 6.04837 0Z" fill="#C61724"/>
</g>
<defs>
<clipPath id="clip0_364_23939">
<rect width="70" height="70" fill="white" transform="translate(0.921875)"/>
</clipPath>
</defs>
</svg>
