<svg width="71" height="70" viewBox="0 0 71 70" fill="none" xmlns="http://www.w3.org/2000/svg">
<g clip-path="url(#clip0_364_24143)">
<path d="M65.7954 0H6.04837C3.21709 0 0.921875 2.29521 0.921875 5.1265V64.8735C0.921875 67.7048 3.21709 70 6.04837 70H65.7954C68.6267 70 70.9219 67.7048 70.9219 64.8735V5.1265C70.9219 2.29521 68.6267 0 65.7954 0Z" fill="#C61724"/>
<path d="M47.5283 12.8203H25.6587C23.9802 18.2158 20.2873 21.8367 14.1484 23.2276C14.5081 42.4354 23.7643 53.8018 36.5456 61.7871C49.3268 53.7299 58.5351 42.4833 58.9427 23.2995C52.9717 21.7648 49.0151 18.3836 47.5044 12.8203H47.5283Z" fill="white"/>
<path d="M21.6295 33.5781L23.8795 33.3594C24.0149 34.1146 24.2883 34.6693 24.6998 35.0234C25.1165 35.3776 25.6764 35.5547 26.3795 35.5547C27.1243 35.5547 27.6842 35.3984 28.0592 35.0859C28.4394 34.7682 28.6295 34.3984 28.6295 33.9766C28.6295 33.7057 28.5488 33.4766 28.3873 33.2891C28.2311 33.0964 27.955 32.9297 27.5592 32.7891C27.2883 32.6953 26.6712 32.5286 25.7076 32.2891C24.468 31.9818 23.5982 31.6042 23.0982 31.1562C22.3951 30.526 22.0436 29.7578 22.0436 28.8516C22.0436 28.2682 22.2076 27.724 22.5357 27.2188C22.8691 26.7083 23.3456 26.3203 23.9654 26.0547C24.5904 25.7891 25.343 25.6562 26.2232 25.6562C27.6607 25.6562 28.7415 25.9714 29.4654 26.6016C30.1946 27.2318 30.5774 28.0729 30.6139 29.125L28.3014 29.2266C28.2024 28.638 27.9889 28.2161 27.6607 27.9609C27.3378 27.7005 26.8508 27.5703 26.1998 27.5703C25.5279 27.5703 25.0019 27.7083 24.6217 27.9844C24.3769 28.1615 24.2545 28.3984 24.2545 28.6953C24.2545 28.9661 24.3691 29.1979 24.5982 29.3906C24.8899 29.6354 25.5982 29.8906 26.7232 30.1562C27.8482 30.4219 28.679 30.6979 29.2154 30.9844C29.7571 31.2656 30.179 31.6536 30.4811 32.1484C30.7883 32.638 30.942 33.2448 30.942 33.9688C30.942 34.625 30.7597 35.2396 30.3951 35.8125C30.0305 36.3854 29.5149 36.8125 28.8482 37.0938C28.1816 37.3698 27.3508 37.5078 26.3561 37.5078C24.9081 37.5078 23.7962 37.1745 23.0201 36.5078C22.2441 35.8359 21.7805 34.8594 21.6295 33.5781ZM32.8873 37.3047V25.8516H36.5982C38.0045 25.8516 38.9212 25.9089 39.3482 26.0234C40.0045 26.1953 40.554 26.5703 40.9967 27.1484C41.4394 27.7214 41.6607 28.4635 41.6607 29.375C41.6607 30.0781 41.5331 30.6693 41.2779 31.1484C41.0227 31.6276 40.6972 32.0052 40.3014 32.2812C39.9107 32.5521 39.5123 32.7318 39.1061 32.8203C38.554 32.9297 37.7545 32.9844 36.7076 32.9844H35.1998V37.3047H32.8873ZM35.1998 27.7891V31.0391H36.4654C37.3769 31.0391 37.9863 30.9792 38.2936 30.8594C38.6008 30.7396 38.8404 30.5521 39.0123 30.2969C39.1894 30.0417 39.2779 29.7448 39.2779 29.4062C39.2779 28.9896 39.1555 28.6458 38.9107 28.375C38.6659 28.1042 38.3561 27.9349 37.9811 27.8672C37.705 27.8151 37.1503 27.7891 36.317 27.7891H35.1998ZM43.5514 25.8516H47.7779C48.7311 25.8516 49.4576 25.9245 49.9576 26.0703C50.6295 26.2682 51.205 26.6198 51.6842 27.125C52.1633 27.6302 52.5279 28.25 52.7779 28.9844C53.0279 29.7135 53.1529 30.6146 53.1529 31.6875C53.1529 32.6302 53.0357 33.4427 52.8014 34.125C52.5149 34.9583 52.1061 35.6328 51.5748 36.1484C51.1738 36.5391 50.6321 36.8438 49.9498 37.0625C49.4394 37.224 48.7571 37.3047 47.9029 37.3047H43.5514V25.8516ZM45.8639 27.7891V35.375H47.5904C48.2363 35.375 48.7024 35.3385 48.9889 35.2656C49.3639 35.1719 49.6738 35.013 49.9186 34.7891C50.1686 34.5651 50.3717 34.1979 50.5279 33.6875C50.6842 33.1719 50.7623 32.4714 50.7623 31.5859C50.7623 30.7005 50.6842 30.0208 50.5279 29.5469C50.3717 29.0729 50.1529 28.7031 49.8717 28.4375C49.5904 28.1719 49.2337 27.9922 48.8014 27.8984C48.4784 27.8255 47.8456 27.7891 46.9029 27.7891H45.8639Z" fill="#D4191A"/>
</g>
<defs>
<clipPath id="clip0_364_24143">
<rect width="70" height="70" fill="white" transform="translate(0.921875)"/>
</clipPath>
</defs>
</svg>
