<svg width="71" height="70" viewBox="0 0 71 70" fill="none" xmlns="http://www.w3.org/2000/svg">
<g clip-path="url(#clip0_364_24110)">
<path fill-rule="evenodd" clip-rule="evenodd" d="M21.2409 42.5781C21.3714 45.6167 20.7189 48.0029 19.3021 49.7552C18.3141 50.9669 16.9533 51.8617 15.2196 52.4396L15.8161 54.4716L10.4473 53.2412L14.2502 49.2705L14.9399 51.5448C16.4872 51.0415 17.6803 50.2399 18.5565 49.1773C19.8241 47.6114 20.402 45.4303 20.2901 42.6341L21.2222 42.5968L21.2409 42.5781Z" fill="#D4191A"/>
<path fill-rule="evenodd" clip-rule="evenodd" d="M51.5159 42.6145C51.404 45.4108 51.9819 47.5919 53.2496 49.1578C54.1257 50.2204 55.3188 51.022 56.8661 51.5253L57.5558 49.251L61.3588 53.2217L55.9899 54.4521L56.5865 52.4201C54.8528 51.8609 53.4919 50.9661 52.5039 49.7357C51.0871 47.9834 50.4347 45.5972 50.5652 42.5586L51.4972 42.5959L51.5159 42.6145Z" fill="#D4191A"/>
<path fill-rule="evenodd" clip-rule="evenodd" d="M32.7624 42.5781C32.8929 45.6167 32.2404 48.0029 30.8236 49.7552C29.8356 50.9669 28.4747 51.8617 26.7411 52.4396L27.3376 54.4716L21.9688 53.2412L25.7717 49.2705L26.4614 51.5448C28.0087 51.0415 29.2018 50.2399 30.0779 49.1773C31.3456 47.6114 31.9235 45.4303 31.8116 42.6341L32.7437 42.5968L32.7624 42.5781Z" fill="#D4191A"/>
<path fill-rule="evenodd" clip-rule="evenodd" d="M39.9768 42.6145C39.865 45.4108 40.4429 47.5919 41.7105 49.1578C42.5867 50.2204 43.7797 51.022 45.327 51.5253L46.0168 49.251L49.8197 53.2217L44.4509 54.4521L45.0474 52.4201C43.3137 51.8609 41.9529 50.9661 40.9648 49.7357C39.5481 47.9834 38.8956 45.5972 39.0261 42.5586L39.9582 42.5959L39.9768 42.6145Z" fill="#D4191A"/>
<path fill-rule="evenodd" clip-rule="evenodd" d="M13.2446 18.0469H58.4883V20.3585H59.2899V21.4397H58.4883V32.196V41.7406H57.5003V32.196H56.0462V41.7406H55.4683V32.196H54.1634V41.7406H53.5668V32.196H52.2619V41.7406H51.684V32.196H50.3791V41.7406H49.8012V32.196H48.4963V41.7406H47.9184V32.196H46.5948V41.7406H46.0169V32.196H44.712V41.7406H44.1341V32.196H42.8292V41.7406H42.2513V32.196H40.9463V41.7406H40.3498V32.196H39.0449V41.7406H38.467V32.196H37.1621V41.7406H36.5842V32.196H35.2792V41.7406H34.6827V32.196H33.3778V41.7406H32.7999V32.196H31.4949V41.7406H30.917V32.196H29.6121V41.7406H29.0342V32.196H27.7107V41.7406H27.1328V32.196H25.8278V41.7406H25.2499V32.196H23.945V41.7406H23.3671V32.196H22.0622V41.7406H21.4656V32.196H20.1607V41.7406H19.5828V32.196H18.2779V41.7406H17.7V32.196H16.3951V41.7406H15.8172V32.196H14.2326V41.7406H13.2446V32.196V21.4397H12.5176V20.3585H13.2446V18.0469Z" fill="#D4191A"/>
<path d="M65.7954 0H6.04837C3.21709 0 0.921875 2.29521 0.921875 5.1265V64.8735C0.921875 67.7048 3.21709 70 6.04837 70H65.7954C68.6267 70 70.9219 67.7048 70.9219 64.8735V5.1265C70.9219 2.29521 68.6267 0 65.7954 0Z" fill="#C61724"/>
<path d="M13.8594 41.0508H36.0804" stroke="white" stroke-width="0.11" stroke-linecap="round" stroke-linejoin="round"/>
<path d="M64.3224 27.2734C64.3224 27.2734 61.6753 32.4745 61.2652 39.8194V44.3121C61.2652 44.3121 59.9416 44.2188 59.9416 42.5784C59.9416 40.9379 58.3011 41.0497 58.3011 41.0497H36.0801" stroke="white" stroke-width="0.63" stroke-linecap="round" stroke-linejoin="round"/>
<path d="M7.83789 27.2734C7.83789 27.2734 10.485 32.4745 10.8951 39.8194V44.3121C10.8951 44.3121 12.2187 44.2188 12.2187 42.5784C12.2187 40.9379 13.8592 41.0497 13.8592 41.0497H36.0802" stroke="white" stroke-width="0.63" stroke-linecap="round" stroke-linejoin="round"/>
<path d="M62.9249 24.7734H62.9062C63.6892 24.7734 64.3417 25.4073 64.3417 26.1902V27.1782" stroke="white" stroke-width="0.63" stroke-linecap="round" stroke-linejoin="round"/>
<path d="M9.23709 24.7734H9.25573C8.47278 24.7734 7.82031 25.4073 7.82031 26.1902V27.1782" stroke="white" stroke-width="0.63" stroke-linecap="round" stroke-linejoin="round"/>
<path d="M7.83789 25.9492H64.2107" stroke="white" stroke-width="0.63" stroke-linecap="round" stroke-linejoin="round"/>
<path d="M63.1857 24.775L47.3029 23.8242H24.448L9.23633 24.775" stroke="white" stroke-width="0.63" stroke-linecap="round" stroke-linejoin="round"/>
<path d="M38.541 41.0859V48.002" stroke="white" stroke-width="0.59" stroke-linejoin="round"/>
<path d="M36.0996 41.0859V48.002" stroke="white" stroke-width="0.59" stroke-linejoin="round"/>
<path d="M33.5449 41.0859V48.002" stroke="white" stroke-width="0.59" stroke-linejoin="round"/>
<path d="M44.3203 41.1055V48.1334" stroke="white" stroke-width="0.53" stroke-linejoin="round"/>
<path d="M46.9863 41.1055V48.1334" stroke="white" stroke-width="0.53" stroke-linejoin="round"/>
<path d="M49.6699 41.1055V48.1334" stroke="white" stroke-width="0.53" stroke-linejoin="round"/>
<path d="M52.3359 41.1055V48.1334" stroke="white" stroke-width="0.53" stroke-linejoin="round"/>
<path d="M55.0215 41.1055V48.1334" stroke="white" stroke-width="0.53" stroke-linejoin="round"/>
<path d="M57.668 41.1055V49.2706" stroke="white" stroke-width="0.53" stroke-linejoin="round"/>
<path d="M27.9336 41.1055V48.1334" stroke="white" stroke-width="0.53" stroke-linejoin="round"/>
<path d="M25.2676 41.1055V48.1334" stroke="white" stroke-width="0.53" stroke-linejoin="round"/>
<path d="M22.584 41.1055V48.1334" stroke="white" stroke-width="0.53" stroke-linejoin="round"/>
<path d="M19.918 41.1055V48.1334" stroke="white" stroke-width="0.53" stroke-linejoin="round"/>
<path d="M17.2324 41.1055V48.1334" stroke="white" stroke-width="0.53" stroke-linejoin="round"/>
<path d="M14.5859 41.1055V49.2706" stroke="white" stroke-width="0.53" stroke-linejoin="round"/>
<path d="M30.2637 41.0508H41.8962V46.6806C41.8962 47.3331 41.3742 47.855 40.7217 47.855H31.4381C30.7856 47.855 30.2637 47.3331 30.2637 46.6806V41.0508Z" stroke="white" stroke-width="0.53" stroke-linejoin="round"/>
<g clip-path="url(#clip1_364_24110)">
<path fill-rule="evenodd" clip-rule="evenodd" d="M18.621 41.7422C18.7748 45.3246 18.0058 48.1378 16.3361 50.2037C15.1717 51.6323 13.5679 52.6872 11.5247 53.3686L12.2277 55.7642L5.90039 54.3136L10.3823 49.6323L11.1952 52.3136C13.0187 51.7202 14.4247 50.7752 15.4573 49.5224C16.9513 47.6763 17.6324 45.1048 17.5005 41.8081L18.599 41.7642L18.621 41.7422Z" fill="white"/>
<path fill-rule="evenodd" clip-rule="evenodd" d="M54.2999 41.7847C54.168 45.0814 54.8491 47.6528 56.3431 49.499C57.3757 50.7517 58.7817 51.6968 60.6052 52.2902L61.4181 49.6089L65.9 54.2902L59.5727 55.7407L60.2757 53.3451C58.2325 52.6858 56.6287 51.6308 55.4643 50.1803C53.7945 48.1144 53.0256 45.3012 53.1794 41.7188L54.2779 41.7627L54.2999 41.7847Z" fill="white"/>
<path fill-rule="evenodd" clip-rule="evenodd" d="M32.1991 41.7422C32.3529 45.3246 31.584 48.1378 29.9143 50.2037C28.7498 51.6323 27.146 52.6872 25.1028 53.3686L25.8059 55.7642L19.4785 54.3136L23.9604 49.6323L24.7733 52.3136C26.5968 51.7202 28.0029 50.7752 29.0355 49.5224C30.5294 47.6763 31.2105 45.1048 31.0787 41.8081L32.1772 41.7642L32.1991 41.7422Z" fill="white"/>
<path fill-rule="evenodd" clip-rule="evenodd" d="M40.7003 41.7847C40.5684 45.0814 41.2495 47.6528 42.7435 49.499C43.776 50.7517 45.1821 51.6968 47.0056 52.2902L47.8185 49.6089L52.3004 54.2902L45.973 55.7407L46.6761 53.3451C44.6329 52.6858 43.0291 51.6308 41.8647 50.1803C40.1949 48.1144 39.426 45.3012 39.5798 41.7188L40.6783 41.7627L40.7003 41.7847Z" fill="white"/>
</g>
</g>
<defs>
<clipPath id="clip0_364_24110">
<rect width="70" height="70" fill="white" transform="translate(0.921875)"/>
</clipPath>
<clipPath id="clip1_364_24110">
<rect width="60" height="14" fill="white" transform="translate(5.92188 41.7422)"/>
</clipPath>
</defs>
</svg>
