<svg width="71" height="70" viewBox="0 0 71 70" fill="none" xmlns="http://www.w3.org/2000/svg">
<g clip-path="url(#clip0_364_24258)">
<path fill-rule="evenodd" clip-rule="evenodd" d="M6.04837 0H65.7954C68.6103 0 70.9219 2.31158 70.9219 5.1265V64.8735C70.9219 67.6884 68.6103 70 65.7954 70H6.04837C3.23346 70 0.921875 67.6884 0.921875 64.8735V5.1265C0.921875 2.31158 3.23346 0 6.04837 0Z" fill="#C61724"/>
<path d="M52.4102 55.3867L52.4474 55.4054" stroke="white" stroke-width="0.66" stroke-linecap="round" stroke-linejoin="round"/>
<path d="M53.6602 55.4054L53.6788 55.3867" stroke="white" stroke-width="0.66" stroke-linecap="round" stroke-linejoin="round"/>
<path d="M52.4492 55.4023V55.4956" stroke="white" stroke-width="0.66" stroke-linecap="round" stroke-linejoin="round"/>
<path d="M53.4355 55.7193H53.4542L53.4915 55.7006H53.5288L53.566 55.682L53.5847 55.6633L53.6033 55.626L53.622 55.6074L53.6406 55.5701V55.5328L53.6593 55.4956V55.4023" stroke="white" stroke-width="0.66" stroke-linecap="round" stroke-linejoin="round"/>
<path d="M52.4492 55.4961V55.5334V55.5707L52.4679 55.6079L52.4865 55.6266L52.5051 55.6639L52.5238 55.6825L52.5611 55.7012H52.5984L52.6356 55.7198H52.6729" stroke="white" stroke-width="0.66" stroke-linecap="round" stroke-linejoin="round"/>
<path d="M52.4863 54.9023V54.921" stroke="white" stroke-width="0.66" stroke-linecap="round" stroke-linejoin="round"/>
<path d="M53.6035 54.921V54.9023" stroke="white" stroke-width="0.66" stroke-linecap="round" stroke-linejoin="round"/>
<path d="M53.3613 55.7218H53.38V55.7031" stroke="white" stroke-width="0.66" stroke-linecap="round" stroke-linejoin="round"/>
<path d="M52.709 55.7031V55.7218H52.7276" stroke="white" stroke-width="0.66" stroke-linecap="round" stroke-linejoin="round"/>
<path d="M54.2188 54.5833L54.2374 54.5646L54.256 54.5273" stroke="white" stroke-width="0.66" stroke-linecap="round" stroke-linejoin="round"/>
<path d="M54.2383 54.546L54.2569 54.5273" stroke="white" stroke-width="0.66" stroke-linecap="round" stroke-linejoin="round"/>
<path d="M54.2559 54.5108V54.4922" stroke="white" stroke-width="0.66" stroke-linecap="round" stroke-linejoin="round"/>
<path d="M51.834 54.5273L51.8526 54.5646L51.8713 54.5833" stroke="white" stroke-width="0.66" stroke-linecap="round" stroke-linejoin="round"/>
<path d="M53.9961 54.753H54.0147L54.0334 54.7344" stroke="white" stroke-width="0.66" stroke-linecap="round" stroke-linejoin="round"/>
<path d="M53.9219 54.75H53.9592H53.9778H53.9964" stroke="white" stroke-width="0.66" stroke-linecap="round" stroke-linejoin="round"/>
<path d="M54.0137 54.7512L54.0323 54.7326H54.051L54.0882 54.714L54.1069 54.6953" stroke="white" stroke-width="0.66" stroke-linecap="round" stroke-linejoin="round"/>
<path d="M52.002 54.6953L52.0206 54.714L52.0392 54.7326H52.0579L52.0765 54.7512" stroke="white" stroke-width="0.66" stroke-linecap="round" stroke-linejoin="round"/>
<path d="M52.0938 54.75H52.1124H52.131H52.1683" stroke="white" stroke-width="0.66" stroke-linecap="round" stroke-linejoin="round"/>
<path d="M52.0762 54.7344V54.753H52.0948" stroke="white" stroke-width="0.66" stroke-linecap="round" stroke-linejoin="round"/>
<path d="M53.9219 54.75H53.9592H53.9778H53.9964" stroke="white" stroke-width="0.66" stroke-linecap="round" stroke-linejoin="round"/>
<path d="M54.0137 54.7512L54.0323 54.7326H54.051L54.0882 54.714L54.1069 54.6953" stroke="white" stroke-width="0.66" stroke-linecap="round" stroke-linejoin="round"/>
<path d="M51.9824 54.6953L52.0011 54.714L52.0383 54.7326H52.057L52.0756 54.7512" stroke="white" stroke-width="0.66" stroke-linecap="round" stroke-linejoin="round"/>
<path d="M54.2188 54.5833H54.2374V54.5646L54.256 54.5273" stroke="white" stroke-width="0.66" stroke-linecap="round" stroke-linejoin="round"/>
<path d="M49.8945 54.3242V54.3429V54.3615L49.9132 54.3801H49.9318V54.3988H49.9505H49.9691" stroke="white" stroke-width="0.66" stroke-linecap="round" stroke-linejoin="round"/>
<path d="M50.584 54.3991H50.6026H50.6213V54.3805H50.6399L50.6586 54.3618V54.3432V54.3246V54.25" stroke="white" stroke-width="0.66" stroke-linecap="round" stroke-linejoin="round"/>
<path d="M49.8945 54.25V54.3246" stroke="white" stroke-width="0.66" stroke-linecap="round" stroke-linejoin="round"/>
<path d="M54.2012 36.2773H42.9043" stroke="white" stroke-width="0.66" stroke-linecap="round" stroke-linejoin="round"/>
<path d="M41.3379 37.8633V52.6649" stroke="white" stroke-width="0.66" stroke-linecap="round" stroke-linejoin="round"/>
<path d="M42.9043 54.25H54.2012" stroke="white" stroke-width="0.66" stroke-linecap="round" stroke-linejoin="round"/>
<path d="M55.7852 52.6649V37.8633" stroke="white" stroke-width="0.66" stroke-linecap="round" stroke-linejoin="round"/>
<path d="M52.9883 54.75V54.8991H53.1001V54.75" stroke="white" stroke-width="0.66" stroke-linecap="round" stroke-linejoin="round"/>
<path d="M52.9883 54.918H53.1001V55.3281H52.9883V54.918Z" stroke="white" stroke-width="0.66" stroke-linecap="round" stroke-linejoin="round"/>
<path d="M52.9881 55.3281L52.9135 55.3468L52.8576 55.3654H52.8203L52.8016 55.384H52.7643H52.7271H52.6898H52.6711L52.6339 55.3654H52.5966L52.5406 55.3468L52.4661 55.3281H52.4102V55.3468V55.3654V55.384" stroke="white" stroke-width="0.66" stroke-linecap="round" stroke-linejoin="round"/>
<path d="M53.6795 55.384V55.3654V55.3468V55.3281H53.6235L53.5676 55.3468L53.493 55.3654H53.4558L53.4371 55.384H53.3998H53.3625H53.3253H53.3066L53.2693 55.3654H53.2321L53.1761 55.3468L53.1016 55.3281" stroke="white" stroke-width="0.66" stroke-linecap="round" stroke-linejoin="round"/>
<path d="M53.1016 54.918H53.6235V55.3281" stroke="white" stroke-width="0.66" stroke-linecap="round" stroke-linejoin="round"/>
<path d="M52.4668 55.3281V54.918H52.9888" stroke="white" stroke-width="0.66" stroke-linecap="round" stroke-linejoin="round"/>
<path d="M53.6235 54.75V54.8991H53.1016" stroke="white" stroke-width="0.66" stroke-linecap="round" stroke-linejoin="round"/>
<path d="M52.9888 54.8991H52.4668V54.75" stroke="white" stroke-width="0.66" stroke-linecap="round" stroke-linejoin="round"/>
<path d="M53.6609 55.4023H53.6423H53.6237H53.605H53.5864H53.5491H53.5118H53.4745H53.4372H53.3813H53.3254H53.2881H53.2135H53.1576H53.0458H52.9339H52.878H52.8221H52.7661H52.7102H52.6543H52.617H52.5797H52.5424H52.5051H52.4865H52.4679H52.4492" stroke="white" stroke-width="0.66" stroke-linecap="round" stroke-linejoin="round"/>
<path d="M53.4362 55.7227H53.4175H53.3989H53.3803H53.3616H53.343H53.3243H53.2871H53.2498H53.2311H53.1938H53.1193H53.0447H52.9701H52.8956H52.8583H52.8397H52.8024H52.7837H52.7464H52.7278H52.7092H52.6905H52.6719" stroke="white" stroke-width="0.66" stroke-linecap="round" stroke-linejoin="round"/>
<path d="M53.679 55.3281V54.918H53.623" stroke="white" stroke-width="0.66" stroke-linecap="round" stroke-linejoin="round"/>
<path d="M52.4661 54.918H52.4102V55.3281" stroke="white" stroke-width="0.66" stroke-linecap="round" stroke-linejoin="round"/>
<path d="M53.623 54.8991H53.679V54.75" stroke="white" stroke-width="0.66" stroke-linecap="round" stroke-linejoin="round"/>
<path d="M52.4102 54.75V54.8991H52.4661" stroke="white" stroke-width="0.66" stroke-linecap="round" stroke-linejoin="round"/>
<path d="M52.002 54.7148H52.0579H52.1138" stroke="white" stroke-width="0.66" stroke-linecap="round" stroke-linejoin="round"/>
<path d="M51.8711 54.582L51.9829 54.6939H52.0016" stroke="white" stroke-width="0.66" stroke-linecap="round" stroke-linejoin="round"/>
<path d="M51.9082 54.5664L51.9455 54.585H51.9828H52.0201H52.0573L52.1692 54.6969L52.1133 54.7155" stroke="white" stroke-width="0.66" stroke-linecap="round" stroke-linejoin="round"/>
<path d="M54.1829 54.5664L54.1456 54.585H54.1083H54.071H54.0337L53.9219 54.6969L53.9964 54.7155H54.0337" stroke="white" stroke-width="0.66" stroke-linecap="round" stroke-linejoin="round"/>
<path d="M54.2193 54.582L54.1074 54.6939" stroke="white" stroke-width="0.66" stroke-linecap="round" stroke-linejoin="round"/>
<path d="M54.0332 54.7148H54.0891" stroke="white" stroke-width="0.66" stroke-linecap="round" stroke-linejoin="round"/>
<path d="M54.1445 54.4728H54.2191H54.2564V54.2305" stroke="white" stroke-width="0.66" stroke-linecap="round" stroke-linejoin="round"/>
<path d="M51.834 54.25V54.4737H51.8713H51.9645" stroke="white" stroke-width="0.66" stroke-linecap="round" stroke-linejoin="round"/>
<path d="M54.144 54.4727L54.1067 54.4913H54.0881L54.0508 54.5099H54.0321H52.0561H52.0375L52.0002 54.4913H51.9815L51.9629 54.4727" stroke="white" stroke-width="0.66" stroke-linecap="round" stroke-linejoin="round"/>
<path d="M51.9643 54.4727L51.9457 54.5099L51.927 54.5286L51.9084 54.5472V54.5659L51.8897 54.5472V54.5286L51.8711 54.5099V54.4727" stroke="white" stroke-width="0.66" stroke-linecap="round" stroke-linejoin="round"/>
<path d="M54.1445 54.4727V54.5099L54.1632 54.5286V54.5472H54.1818V54.5659L54.2005 54.5472L54.2191 54.5286V54.5099V54.4727" stroke="white" stroke-width="0.66" stroke-linecap="round" stroke-linejoin="round"/>
<path d="M52.0566 54.5824V54.5637V54.5451V54.5078" stroke="white" stroke-width="0.66" stroke-linecap="round" stroke-linejoin="round"/>
<path d="M52.0566 54.5824H54.0327V54.5637V54.5451V54.5078" stroke="white" stroke-width="0.66" stroke-linecap="round" stroke-linejoin="round"/>
<path d="M51.834 54.4727L51.8526 54.5099V54.5286L51.8713 54.5472L51.9086 54.5659" stroke="white" stroke-width="0.66" stroke-linecap="round" stroke-linejoin="round"/>
<path d="M54.2562 54.4727V54.5099L54.2376 54.5286L54.2189 54.5472L54.1816 54.5659" stroke="white" stroke-width="0.66" stroke-linecap="round" stroke-linejoin="round"/>
<path d="M52.168 54.6953H53.9203" stroke="white" stroke-width="0.66" stroke-linecap="round" stroke-linejoin="round"/>
<path d="M54.2559 54.4913V54.4727" stroke="white" stroke-width="0.66" stroke-linecap="round" stroke-linejoin="round"/>
<path d="M54.2559 54.5265V54.5078" stroke="white" stroke-width="0.66" stroke-linecap="round" stroke-linejoin="round"/>
<path d="M51.8526 54.5472L51.834 54.5286V54.5099V54.4913V54.4727" stroke="white" stroke-width="0.66" stroke-linecap="round" stroke-linejoin="round"/>
<circle cx="53.9765" cy="54.7519" r="0.61518" fill="white"/>
<circle cx="53.9218" cy="54.7519" r="0.61518" fill="white"/>
<circle cx="52.1679" cy="54.7519" r="0.61518" fill="white"/>
<circle cx="52.1132" cy="54.7519" r="0.61518" fill="white"/>
<path d="M52.168 54.75H53.9203" stroke="white" stroke-width="0.66" stroke-linecap="round" stroke-linejoin="round"/>
<path d="M49.9688 54.3984H49.9874H50.006H50.0247H50.0433H50.062H50.0806H50.0992H50.1552H50.2111H50.267H50.3416H50.3975H50.4534H50.4721H50.4907H50.5094H50.528H50.5466H50.5653H50.5839" stroke="white" stroke-width="0.66" stroke-linecap="round" stroke-linejoin="round"/>
<path d="M54.2012 36.2773L54.2757 36.296H54.3503H54.4249L54.4994 36.3146L54.574 36.3333L54.6486 36.3519L54.7231 36.3706L54.7791 36.3892L54.8536 36.4265L54.9282 36.4638L54.9841 36.4824L55.0401 36.5383L55.1146 36.5756L55.1705 36.6129L55.2265 36.6688L55.2824 36.7061L55.3383 36.762L55.3942 36.818L55.4315 36.8739L55.4688 36.9298L55.5247 36.9857L55.562 37.0603L55.5993 37.1162L55.6179 37.1908L55.6552 37.2467L55.6925 37.3213L55.7112 37.3959L55.7298 37.4704L55.7484 37.5263L55.7671 37.6009V37.6755V37.75" stroke="white" stroke-width="0.66" stroke-linecap="round" stroke-linejoin="round"/>
<path d="M55.7857 52.6641L55.7671 52.7386V52.8132V52.9064L55.7484 52.981L55.7298 53.0555L55.7112 53.1301L55.6925 53.2047L55.6552 53.2606L55.6366 53.3352L55.5993 53.4097L55.562 53.4843L55.5061 53.5402L55.4688 53.5962L55.4129 53.6707L55.3756 53.7266L55.3197 53.7826L55.2638 53.8385L55.2078 53.8758L55.1519 53.9317L55.0773 53.969L55.0214 54.0249L54.9468 54.0622L54.8723 54.0808L54.8164 54.1181L54.7418 54.1554L54.6672 54.174L54.5927 54.1927L54.5181 54.2113L54.4435 54.23H54.3689H54.2944L54.2012 54.2486" stroke="white" stroke-width="0.66" stroke-linecap="round" stroke-linejoin="round"/>
<path d="M41.3379 52.7734L41.3565 52.848V52.9226L41.3752 52.9971L41.3938 53.0531L41.4125 53.1276L41.4311 53.2022L41.4497 53.2768L41.487 53.3327L41.5243 53.4073L41.5616 53.4632L41.5989 53.5378L41.6362 53.5937L41.6921 53.6496L41.7294 53.7055L41.7853 53.7615L41.8412 53.8174L41.8971 53.8547L41.9531 53.9106L42.009 53.9479L42.0649 53.9852L42.1395 54.0224L42.1954 54.0597L42.27 54.097L42.3259 54.1343L42.4005 54.1529L42.475 54.1716L42.5496 54.1902L42.6242 54.2089L42.6801 54.2275H42.7547H42.8292L42.9038 54.2461" stroke="white" stroke-width="0.66" stroke-linecap="round" stroke-linejoin="round"/>
<path d="M41.3379 37.8619V37.7873V37.6941L41.3565 37.6196L41.3752 37.545L41.3938 37.4704L41.4125 37.3959L41.4311 37.3213L41.4497 37.2467L41.487 37.1908L41.5243 37.1162L41.5616 37.0417L41.5989 36.9857L41.6548 36.9298L41.6921 36.8552L41.748 36.7993L41.8039 36.7434L41.8599 36.6875L41.9158 36.6502L41.9717 36.5943L42.0276 36.557L42.1022 36.501L42.1768 36.4638L42.2327 36.4451L42.3073 36.4078L42.3818 36.3706L42.4564 36.3519L42.531 36.3333L42.6055 36.3146L42.6801 36.296H42.7547H42.8292L42.9038 36.2773" stroke="white" stroke-width="0.66" stroke-linecap="round" stroke-linejoin="round"/>
<path d="M47.1914 49.1037V49.085H47.21V49.0664H47.2287H47.21V49.085H47.1914V49.1037Z" stroke="white" stroke-width="0.26" stroke-linecap="round" stroke-linejoin="round"/>
<path d="M48.5526 47.7617L48.1984 47.7804H47.8256H47.4528L47.0799 47.799L46.7257 47.8176L46.3529 47.8363L45.9801 47.8549L45.6072 47.8922H45.5886H45.5699L45.5513 47.9109H45.5327L45.514 47.9295H45.4954V47.9481L45.4767 47.9668L45.4581 47.9854V48.0041V48.0227L45.4395 48.0413V48.0786V50.3716" stroke="white" stroke-width="0.26" stroke-linecap="round" stroke-linejoin="round"/>
<path d="M47.5645 49.0664H48.5525" stroke="white" stroke-width="0.26" stroke-linecap="round" stroke-linejoin="round"/>
<path d="M48.5523 50.0358H47.2287H47.21L47.1914 50.0171V49.9985V49.4765V49.1037V49.085H47.21V49.0664H47.2287H47.5642" stroke="white" stroke-width="0.26" stroke-linecap="round" stroke-linejoin="round"/>
<path d="M45.4395 50.3711V50.4084L45.4581 50.427V50.4457V50.4643L45.4767 50.4829V50.5016H45.4954V50.5202L45.514 50.5389H45.5327L45.5513 50.5575H45.5699H45.5886L45.6072 50.5762L45.9801 50.5948L46.3529 50.6134L46.7257 50.6321L47.0799 50.6507L47.4528 50.6694H47.8256L48.1984 50.688H48.5526" stroke="white" stroke-width="0.26" stroke-linecap="round" stroke-linejoin="round"/>
<path d="M51.4981 50.5742L51.1253 50.5929L50.7711 50.6115L50.3983 50.6301L50.0254 50.6488L49.6712 50.6674H49.2984L48.9256 50.6861H48.5527" stroke="white" stroke-width="0.26" stroke-linecap="round" stroke-linejoin="round"/>
<path d="M48.5527 50.0358H49.8949H49.9136V50.0171L49.9322 49.9985V49.4765V49.1037L49.9136 49.085V49.0664H49.8949H49.5408" stroke="white" stroke-width="0.26" stroke-linecap="round" stroke-linejoin="round"/>
<path d="M49.5408 49.0664H48.5527" stroke="white" stroke-width="0.26" stroke-linecap="round" stroke-linejoin="round"/>
<path d="M48.5527 47.7617L48.9256 47.7804H49.2984H49.6712L50.0254 47.799L50.3983 47.8176L50.7711 47.8363L51.1253 47.8549L51.4981 47.8922H51.5354H51.5541L51.5727 47.9109H51.5914V47.9295H51.61L51.6286 47.9481V47.9668H51.6473V47.9854L51.6659 48.0041V48.0227V48.0413V48.0786V50.3716V50.4089V50.4275V50.4461L51.6473 50.4648V50.4834L51.6286 50.5021L51.61 50.5207L51.5914 50.5393L51.5727 50.558H51.5541H51.5354L51.4981 50.5766" stroke="white" stroke-width="0.26" stroke-linecap="round" stroke-linejoin="round"/>
<path d="M45.6074 47.8922V47.8736L45.9803 47.8549L46.3531 47.8363L46.7259 47.8176L47.0801 47.799L47.453 47.7804H47.8258L48.1986 47.7617H48.5528" stroke="white" stroke-width="0.26" stroke-linecap="round" stroke-linejoin="round"/>
<path d="M48.5527 47.7617H48.9256L49.2984 47.7804H49.6712L50.0254 47.799L50.3983 47.8176L50.7711 47.8363L51.1253 47.8549L51.4981 47.8736V47.8922" stroke="white" stroke-width="0.26" stroke-linecap="round" stroke-linejoin="round"/>
<circle cx="51.4982" cy="47.8713" r="0.242344" fill="white"/>
<circle cx="45.6076" cy="47.8713" r="0.242344" fill="white"/>
<path d="M49.9318 49.9961L49.9131 50.0147V50.0334H49.8945H48.5523H47.2287H47.21H47.1914V50.0147V49.9961" stroke="white" stroke-width="0.26" stroke-linecap="round" stroke-linejoin="round"/>
<path d="M51.6658 48.0762H51.6845L51.6658 48.0389V48.0202V48.0016V47.9829L51.6472 47.9643V47.9457H51.6285L51.6099 47.927L51.5913 47.9084L51.5726 47.8897H51.554H51.5353L51.498 47.8711" stroke="white" stroke-width="0.26" stroke-linecap="round" stroke-linejoin="round"/>
<path d="M45.6072 47.8711L45.5886 47.8897H45.5699H45.5513L45.5327 47.9084H45.514L45.4954 47.927V47.9457H45.4767L45.4581 47.9643V47.9829V48.0016L45.4395 48.0202V48.0389V48.0762" stroke="white" stroke-width="0.26" stroke-linecap="round" stroke-linejoin="round"/>
<path d="M51.6847 48.0781V50.3711H51.666" stroke="white" stroke-width="0.26" stroke-linecap="round" stroke-linejoin="round"/>
<path d="M45.4395 50.3711V48.0781" stroke="white" stroke-width="0.26" stroke-linecap="round" stroke-linejoin="round"/>
<circle cx="47.1916" cy="49.9963" r="0.242344" fill="white"/>
<circle cx="49.9318" cy="49.9963" r="0.242344" fill="white"/>
<path d="M51.4981 50.5742L51.1253 50.5929L50.7711 50.6115L50.3983 50.6488H50.0254L49.6712 50.6674L49.2984 50.6861H48.9256H48.5527" stroke="white" stroke-width="0.26" stroke-linecap="round" stroke-linejoin="round"/>
<path d="M45.6074 50.5742L45.9803 50.5929L46.3531 50.6115L46.7259 50.6488H47.0801L47.453 50.6674L47.8258 50.6861H48.1986H48.5528" stroke="white" stroke-width="0.26" stroke-linecap="round" stroke-linejoin="round"/>
<path d="M51.498 50.5762L51.5353 50.5575H51.554H51.5726L51.5913 50.5389H51.6099V50.5202L51.6285 50.5016H51.6472V50.4829L51.6658 50.4643V50.4457V50.427V50.4084L51.6845 50.3711" stroke="white" stroke-width="0.26" stroke-linecap="round" stroke-linejoin="round"/>
<path d="M45.4395 50.3711V50.4084V50.427L45.4581 50.4457V50.4643V50.4829L45.4767 50.5016H45.4954V50.5202L45.514 50.5389H45.5327L45.5513 50.5575H45.5699H45.5886L45.6072 50.5762" stroke="white" stroke-width="0.26" stroke-linecap="round" stroke-linejoin="round"/>
<circle cx="51.4982" cy="50.5744" r="0.242344" fill="white"/>
<path d="M49.7631 50.668H49.5394L49.297 50.6866H49.0733H48.8496" stroke="white" stroke-width="0.26" stroke-linecap="round" stroke-linejoin="round"/>
<path d="M48.5528 50.6861H48.1986H47.8258L47.453 50.6674L47.0801 50.6488H46.7259L46.3531 50.6301L45.9803 50.5929L45.6074 50.5742" stroke="white" stroke-width="0.26" stroke-linecap="round" stroke-linejoin="round"/>
<path d="M49.9318 49.1037L49.9132 49.085L49.8945 49.0664H49.9132V49.085L49.9318 49.1037Z" stroke="white" stroke-width="0.26" stroke-linecap="round" stroke-linejoin="round"/>
<path d="M51.4981 47.8736L51.1439 47.8549L50.7711 47.8176L50.3983 47.799L50.0254 47.7804H49.6712L49.2984 47.7617H48.9256H48.5527" stroke="white" stroke-width="0.26" stroke-linecap="round" stroke-linejoin="round"/>
<path d="M55.7298 45.2617V48.9714V52.6625V52.7371L55.7112 52.8117V52.8862L55.6925 52.9608L55.6739 53.0354L55.6553 53.1099L55.6366 53.1845L55.618 53.2404L55.5807 53.315L55.5434 53.3895L55.5061 53.4455L55.4688 53.52L55.4316 53.576L55.3756 53.6319L55.3384 53.6878L55.2824 53.7437L55.2265 53.7997L55.1706 53.8369L55.1147 53.8929L55.0587 53.9302L54.9842 53.9674L54.9282 54.0047L54.8537 54.042L54.7977 54.0793L54.7232 54.0979L54.6486 54.1166L54.574 54.1352L54.4995 54.1539L54.4249 54.1725H54.3503L54.2758 54.1911H54.2012H48.5527" stroke="white" stroke-width="0.66" stroke-linecap="round" stroke-linejoin="round"/>
<path d="M48.5527 50.686H48.9256H49.2984H49.6712L50.0254 50.6674L50.3983 50.6487L50.7711 50.6301L51.1253 50.6114L51.4981 50.5742H51.5354L51.5541 50.5555H51.5727H51.5914L51.61 50.5369L51.6286 50.5182L51.6473 50.4996V50.4809L51.6659 50.4623V50.4437L51.6846 50.425V50.4064V50.3691V48.0762V48.0389V48.0202L51.6659 48.0016V47.9829L51.6473 47.9643V47.9457L51.6286 47.927L51.61 47.9084L51.5914 47.8897H51.5727H51.5541L51.5354 47.8711H51.4981" stroke="white" stroke-width="0.26" stroke-linecap="round" stroke-linejoin="round"/>
<path d="M48.5517 50.688H48.1976H47.8247H47.4519L47.079 50.6693L46.7248 50.6507L46.352 50.6321L45.9792 50.6134L45.6063 50.5761H45.5691L45.5504 50.5575H45.5318L45.5131 50.5388L45.4945 50.5202H45.4758V50.5016L45.4572 50.4829V50.4643L45.4386 50.4456V50.427V50.4084L45.4199 50.3711V48.0781" stroke="white" stroke-width="0.26" stroke-linecap="round" stroke-linejoin="round"/>
<path d="M41.3945 45.2617V48.9714V52.6625V52.7371V52.8117L41.4132 52.8862V52.9608L41.4318 53.0354L41.4505 53.1099L41.4691 53.1845L41.5064 53.2404L41.5437 53.315L41.5623 53.3895L41.5996 53.4455L41.6369 53.52L41.6928 53.576L41.7301 53.6319L41.786 53.6878L41.8419 53.7437L41.8792 53.7997L41.9538 53.8369L42.0097 53.8929L42.0656 53.9302L42.1216 53.9674L42.1961 54.0047L42.2521 54.042L42.3266 54.0793L42.4012 54.0979L42.4758 54.1166L42.5317 54.1352L42.6063 54.1539L42.6808 54.1725H42.7554L42.83 54.1911H42.9045H48.553" stroke="white" stroke-width="0.66" stroke-linecap="round" stroke-linejoin="round"/>
<path d="M45.4199 48.0786L45.4386 48.0413V48.0227V48.0041L45.4572 47.9854V47.9668L45.4758 47.9481V47.9295H45.4945L45.5131 47.9109H45.5318V47.8922H45.5504L45.5691 47.8736H45.6063L45.9792 47.8549L46.352 47.8176L46.7248 47.799L47.079 47.7804H47.4519L47.8247 47.7617H48.1976H48.5517" stroke="white" stroke-width="0.26" stroke-linecap="round" stroke-linejoin="round"/>
<path d="M55.7298 45.2615V41.5517V37.8607V37.7861L55.7112 37.7115V37.637L55.6925 37.5624L55.6739 37.4878L55.6553 37.4133L55.6366 37.3387L55.618 37.2641L55.5807 37.2082L55.5434 37.1336L55.5061 37.0777L55.4688 37.0031L55.4316 36.9472L55.3756 36.8913L55.3384 36.8354L55.2824 36.7794L55.2265 36.7235L55.1706 36.6862L55.1147 36.6303L55.0587 36.593L54.9842 36.5557L54.9282 36.5185L54.8537 36.4812L54.7977 36.4439L54.7232 36.4252L54.6486 36.4066L54.574 36.388L54.4995 36.3693L54.4249 36.3507H54.3503L54.2758 36.332H54.2012H48.5527" stroke="white" stroke-width="0.66" stroke-linecap="round" stroke-linejoin="round"/>
<path d="M41.3945 45.2615V41.5517V37.8607V37.7861V37.7115L41.4132 37.637V37.5624L41.4318 37.4878L41.4505 37.4133L41.4691 37.3387L41.5064 37.2641L41.5437 37.2082L41.5623 37.1336L41.5996 37.0777L41.6369 37.0031L41.6928 36.9472L41.7301 36.8913L41.786 36.8354L41.8419 36.7794L41.8792 36.7235L41.9538 36.6862L42.0097 36.6303L42.0656 36.593L42.1216 36.5557L42.1961 36.5185L42.2521 36.4812L42.3266 36.4439L42.4012 36.4252L42.4758 36.4066L42.5317 36.388L42.6063 36.3693L42.6808 36.3507H42.7554L42.83 36.332H42.9045H48.553" stroke="white" stroke-width="0.66" stroke-linecap="round" stroke-linejoin="round"/>
<path d="M45.6074 47.8736L45.9803 47.8549L46.3531 47.8176L46.7259 47.799H47.0801L47.453 47.7804L47.8258 47.7617H48.1986H48.5528" stroke="white" stroke-width="0.26" stroke-linecap="round" stroke-linejoin="round"/>
<path d="M48.5527 47.7617H48.9256H49.2984L49.6712 47.7804H50.0254L50.3983 47.799L50.7711 47.8363L51.1253 47.8549L51.4981 47.8736" stroke="white" stroke-width="0.26" stroke-linecap="round" stroke-linejoin="round"/>
<circle cx="45.6076" cy="47.8713" r="0.242344" fill="white"/>
<circle cx="51.4982" cy="47.8713" r="0.242344" fill="white"/>
<path d="M51.6845 48.0762V48.0389L51.6658 48.0202V48.0016V47.9829L51.6472 47.9643V47.9457H51.6285L51.6099 47.927V47.9084H51.5913L51.5726 47.8897H51.554H51.5353L51.498 47.8711" stroke="white" stroke-width="0.26" stroke-linecap="round" stroke-linejoin="round"/>
<path d="M45.6063 47.8711L45.5691 47.8897H45.5504L45.5318 47.9084H45.5131L45.4945 47.927L45.4758 47.9457L45.4572 47.9643V47.9829L45.4386 48.0016V48.0202V48.0389V48.0762H45.4199" stroke="white" stroke-width="0.26" stroke-linecap="round" stroke-linejoin="round"/>
<path d="M51.6836 48.0781V50.3711" stroke="white" stroke-width="0.26" stroke-linecap="round" stroke-linejoin="round"/>
<path d="M45.4386 48.0781V50.3711H45.4199" stroke="white" stroke-width="0.26" stroke-linecap="round" stroke-linejoin="round"/>
<path d="M45.4395 50.3711V48.0781" stroke="white" stroke-width="0.26" stroke-linecap="round" stroke-linejoin="round"/>
<circle cx="51.4982" cy="50.5744" r="0.242344" fill="white"/>
<path d="M48.5527 50.6861H48.9256H49.2984L49.6712 50.6674H50.0254L50.3983 50.6488L50.7711 50.6301L51.1253 50.5929L51.4981 50.5742" stroke="white" stroke-width="0.26" stroke-linecap="round" stroke-linejoin="round"/>
<path d="M48.5528 50.6861H48.1986H47.8258L47.453 50.6674H47.0801L46.7259 50.6488L46.3531 50.6301L45.9803 50.5929L45.6074 50.5742" stroke="white" stroke-width="0.26" stroke-linecap="round" stroke-linejoin="round"/>
<path d="M51.498 50.5762H51.5353L51.554 50.5575H51.5726L51.5913 50.5389H51.6099V50.5202H51.6285L51.6472 50.5016V50.4829L51.6658 50.4643V50.4457V50.427L51.6845 50.4084V50.3711" stroke="white" stroke-width="0.26" stroke-linecap="round" stroke-linejoin="round"/>
<path d="M45.4395 50.3711V50.4084V50.427V50.4457L45.4581 50.4643V50.4829L45.4767 50.5016V50.5202H45.4954L45.514 50.5389H45.5327L45.5513 50.5575H45.5699V50.5762H45.6072" stroke="white" stroke-width="0.26" stroke-linecap="round" stroke-linejoin="round"/>
<circle cx="51.4982" cy="50.5744" r="0.242344" fill="white"/>
<circle cx="45.6076" cy="50.5744" r="0.242344" fill="white"/>
<circle cx="51.4982" cy="50.5744" r="0.242344" fill="white"/>
<circle cx="45.6076" cy="50.5744" r="0.242344" fill="white"/>
<path d="M55.7658 45.2641V37.8633H55.7472H55.7285" stroke="white" stroke-width="0.66" stroke-linecap="round" stroke-linejoin="round"/>
<path d="M41.3379 52.6649V45.2641V37.8633H41.3565H41.3752H41.3938" stroke="white" stroke-width="0.66" stroke-linecap="round" stroke-linejoin="round"/>
<path d="M55.7285 52.6625H55.7472H55.7658V45.2617" stroke="white" stroke-width="0.66" stroke-linecap="round" stroke-linejoin="round"/>
<path d="M42.9043 36.3342V36.3155V36.2969H48.5528" stroke="white" stroke-width="0.66" stroke-linecap="round" stroke-linejoin="round"/>
<path d="M48.5527 54.2287H54.2012V54.21V54.1914" stroke="white" stroke-width="0.66" stroke-linecap="round" stroke-linejoin="round"/>
<path d="M48.5527 36.2969H54.2012V36.3155V36.3342" stroke="white" stroke-width="0.66" stroke-linecap="round" stroke-linejoin="round"/>
<path d="M48.5528 54.2287H42.9043V54.21V54.1914" stroke="white" stroke-width="0.66" stroke-linecap="round" stroke-linejoin="round"/>
<path d="M42.9038 36.2969H42.8292H42.7547L42.6801 36.3155H42.6055L42.531 36.3342L42.4564 36.3528L42.3818 36.3901L42.3073 36.4087L42.2327 36.446L42.1768 36.4833L42.1022 36.5206L42.0463 36.5579L41.9717 36.5951L41.9158 36.6511L41.8599 36.707L41.8039 36.7443L41.748 36.8002L41.6921 36.8561L41.6548 36.9307L41.5989 36.9866L41.5616 37.0612L41.5243 37.1171L41.487 37.1917L41.4684 37.2663L41.4311 37.3222L41.4125 37.3967L41.3938 37.4713L41.3752 37.5459L41.3565 37.6204V37.695L41.3379 37.7696V37.8628" stroke="white" stroke-width="0.66" stroke-linecap="round" stroke-linejoin="round"/>
<path d="M54.2012 54.23H54.2944H54.3689L54.4435 54.2113H54.5181L54.5927 54.1927L54.6672 54.174L54.7418 54.1368L54.8164 54.1181L54.8723 54.0808L54.9468 54.0436L55.0214 54.0063L55.0773 53.969L55.1333 53.9317L55.2078 53.8758L55.2638 53.8199L55.3197 53.7826L55.3756 53.7266L55.4129 53.6521L55.4688 53.5962L55.5061 53.5402L55.5434 53.4657L55.5807 53.4097L55.6179 53.3352L55.6552 53.2606L55.6739 53.2047L55.7112 53.1301L55.7298 53.0555L55.7484 52.981V52.9064L55.7671 52.8318V52.7386V52.6641" stroke="white" stroke-width="0.66" stroke-linecap="round" stroke-linejoin="round"/>
<path d="M54.2012 36.2969H54.2944H54.3689L54.4435 36.3155H54.5181L54.5927 36.3342L54.6672 36.3528L54.7418 36.3901L54.8164 36.4087L54.8723 36.446L54.9468 36.4833L55.0214 36.5206L55.0773 36.5579L55.1333 36.5951L55.2078 36.6511L55.2638 36.707L55.3197 36.7443L55.3756 36.8002L55.4129 36.8561L55.4688 36.9307L55.5061 36.9866L55.5434 37.0612L55.5807 37.1171L55.6179 37.1917L55.6552 37.2663L55.6739 37.3222L55.7112 37.3967L55.7298 37.4713L55.7484 37.5459V37.6204L55.7671 37.695V37.7696V37.8628" stroke="white" stroke-width="0.66" stroke-linecap="round" stroke-linejoin="round"/>
<path d="M42.9038 54.23H42.8292H42.7547L42.6801 54.2113H42.6055L42.531 54.1927L42.4564 54.174L42.3818 54.1368L42.3073 54.1181L42.2327 54.0808L42.1768 54.0436L42.1022 54.0063L42.0463 53.969L41.9717 53.9317L41.9158 53.8758L41.8599 53.8199L41.8039 53.7826L41.748 53.7266L41.6921 53.6521L41.6548 53.5962L41.5989 53.5402L41.5616 53.4657L41.5243 53.4097L41.487 53.3352L41.4684 53.2606L41.4311 53.2047L41.4125 53.1301L41.3938 53.0555L41.3752 52.981L41.3565 52.9064V52.8318L41.3379 52.7386V52.6641" stroke="white" stroke-width="0.66" stroke-linecap="round" stroke-linejoin="round"/>
<path d="M54.2012 36.296V36.2773L54.2944 36.296H54.3689H54.4435L54.5181 36.3146L54.5927 36.3333L54.6672 36.3519L54.7418 36.3706L54.8164 36.4078L54.8723 36.4451L54.9468 36.4638L55.0214 36.501L55.0773 36.557L55.1519 36.5943L55.2078 36.6502L55.2638 36.6875L55.3197 36.7434L55.3756 36.7993L55.4129 36.8552L55.4688 36.9112L55.5061 36.9857L55.562 37.0417L55.5993 37.1162L55.6366 37.1908L55.6552 37.2467L55.6925 37.3213L55.7112 37.3959L55.7298 37.4704L55.7484 37.545L55.7671 37.6196V37.6941V37.7687L55.7857 37.8619H55.7671" stroke="white" stroke-width="0.66" stroke-linecap="round" stroke-linejoin="round"/>
<path d="M41.3379 37.8633V52.6649V52.7581V52.8327L41.3565 52.9072L41.3752 52.9818V53.0564L41.4125 53.1309L41.4311 53.2055L41.4497 53.2801L41.487 53.336L41.5243 53.4106L41.5616 53.4851L41.5989 53.541L41.6548 53.597L41.6921 53.6715L41.748 53.7275L41.8039 53.7834L41.8599 53.8393L41.9158 53.8766L41.9717 53.9325L42.0276 53.9698L42.1022 54.0257L42.1581 54.063L42.2327 54.0817L42.3073 54.1189L42.3818 54.1562L42.4564 54.1749L42.531 54.1935L42.6055 54.2122L42.6801 54.2308H42.7547H42.8292L42.9038 54.2494V54.2308" stroke="white" stroke-width="0.66" stroke-linecap="round" stroke-linejoin="round"/>
<path d="M55.7676 52.6649H55.7862V37.8633" stroke="white" stroke-width="0.66" stroke-linecap="round" stroke-linejoin="round"/>
<path d="M42.9043 36.296V36.2773H54.2012" stroke="white" stroke-width="0.66" stroke-linecap="round" stroke-linejoin="round"/>
<path d="M42.9043 54.2491H54.2012V54.2305" stroke="white" stroke-width="0.66" stroke-linecap="round" stroke-linejoin="round"/>
<path d="M42.9038 36.2773L42.8292 36.296H42.7547H42.6801L42.6055 36.3146L42.531 36.3333L42.4564 36.3519L42.3818 36.3706L42.3073 36.4078L42.2327 36.4451L42.1581 36.4638L42.1022 36.501L42.0276 36.557L41.9717 36.5943L41.9158 36.6502L41.8599 36.6875L41.8039 36.7434L41.748 36.7993L41.6921 36.8552L41.6548 36.9112L41.5989 36.9857L41.5616 37.0417L41.5243 37.1162L41.487 37.1908L41.4497 37.2467L41.4311 37.3213L41.4125 37.3959L41.3752 37.4704V37.545L41.3565 37.6196L41.3379 37.6941V37.7687V37.8619" stroke="white" stroke-width="0.66" stroke-linecap="round" stroke-linejoin="round"/>
<path d="M54.2012 54.2486L54.2944 54.23H54.3689H54.4435L54.5181 54.2113L54.5927 54.1927L54.6672 54.174L54.7418 54.1554L54.8164 54.1181L54.8723 54.0808L54.9468 54.0622L55.0214 54.0249L55.0773 53.969L55.1519 53.9317L55.2078 53.8758L55.2638 53.8385L55.3197 53.7826L55.3756 53.7266L55.4129 53.6707L55.4688 53.5962L55.5061 53.5402L55.562 53.4843L55.5993 53.4097L55.6366 53.3352L55.6552 53.2792L55.6925 53.2047L55.7112 53.1301L55.7298 53.0555L55.7484 52.981L55.7671 52.9064V52.8318V52.7573L55.7857 52.6641" stroke="white" stroke-width="0.66" stroke-linecap="round" stroke-linejoin="round"/>
<path d="M53.6609 55.4961H52.4492" stroke="white" stroke-width="0.66" stroke-linecap="round" stroke-linejoin="round"/>
<path d="M52.002 54.6953V54.714" stroke="white" stroke-width="0.66" stroke-linecap="round" stroke-linejoin="round"/>
<path d="M51.8711 54.585H51.8897L51.9084 54.5664" stroke="white" stroke-width="0.66" stroke-linecap="round" stroke-linejoin="round"/>
<path d="M54.1816 54.5664L54.2003 54.585H54.2189" stroke="white" stroke-width="0.66" stroke-linecap="round" stroke-linejoin="round"/>
<path d="M54.0898 54.714L54.1085 54.6953" stroke="white" stroke-width="0.66" stroke-linecap="round" stroke-linejoin="round"/>
<path d="M54.1445 54.25V54.4737" stroke="white" stroke-width="0.66" stroke-linecap="round" stroke-linejoin="round"/>
<path d="M51.964 54.4737L51.9453 54.25" stroke="white" stroke-width="0.66" stroke-linecap="round" stroke-linejoin="round"/>
<path d="M53.9219 54.6953V54.714V54.7326V54.7512" stroke="white" stroke-width="0.66" stroke-linecap="round" stroke-linejoin="round"/>
<path d="M52.168 54.7512V54.7326V54.714V54.6953" stroke="white" stroke-width="0.66" stroke-linecap="round" stroke-linejoin="round"/>
<path d="M49.8945 54.3242H50.6588" stroke="white" stroke-width="0.66" stroke-linecap="round" stroke-linejoin="round"/>
<circle cx="48.5529" cy="47.7619" r="0.242344" fill="white"/>
<path d="M38.2796 19.1998H53.0625V31.8576C53.0625 32.3422 53.4727 32.7524 53.9573 32.7524C54.442 32.7524 54.8521 32.3422 54.8521 31.8576V17.4102H38.2796C37.7949 17.4102 37.3848 17.8203 37.3848 18.305C37.3848 18.7896 37.7949 19.1998 38.2796 19.1998Z" fill="white"/>
<path d="M35.6702 52.3456H20.8873V39.6878C20.8873 39.2031 20.4771 38.793 19.9925 38.793C19.5078 38.793 19.0977 39.2031 19.0977 39.6878V54.1352H35.6702C36.1549 54.1352 36.565 53.7251 36.565 53.2404C36.565 52.7557 36.1736 52.3456 35.6702 52.3456Z" fill="white"/>
<path d="M33.321 15.5664H20.1599C18.6872 15.5664 17.4941 16.8527 17.4941 18.4372V26.9193C17.4941 28.5038 18.6872 29.7901 20.1599 29.7901H25.2491V31.8034H21.4276C21.1479 31.8034 20.9242 32.139 20.9242 32.5677V32.8287C20.9242 33.2575 21.1479 33.593 21.4276 33.593H30.7298C31.0095 33.593 31.2332 33.2575 31.2332 32.8287V32.5677C31.2332 32.139 31.0095 31.8034 30.7298 31.8034H27.0387V29.7901H33.321C34.7937 29.7901 35.9868 28.5038 35.9868 26.9193V18.4372C35.9868 16.8527 34.7937 15.5664 33.321 15.5664ZM34.1972 26.9193C34.1972 27.5158 33.8057 28.0005 33.321 28.0005H20.1599C19.6752 28.0005 19.2838 27.5158 19.2838 26.9193V18.4372C19.2838 17.8407 19.6752 17.356 20.1599 17.356H33.321C33.8057 17.356 34.1972 17.8407 34.1972 18.4372V26.9193Z" fill="white"/>
<path d="M32.1838 18.5469H21.3343C20.8401 18.5469 20.4395 18.9475 20.4395 19.4417V25.6867C20.4395 26.1809 20.8401 26.5815 21.3343 26.5815H32.1838C32.678 26.5815 33.0786 26.1809 33.0786 25.6867V19.4417C33.0786 18.9475 32.678 18.5469 32.1838 18.5469Z" fill="white"/>
</g>
<defs>
<clipPath id="clip0_364_24258">
<rect width="70" height="70" fill="white" transform="translate(0.921875)"/>
</clipPath>
</defs>
</svg>
