<svg width="71" height="70" viewBox="0 0 71 70" fill="none" xmlns="http://www.w3.org/2000/svg">
<g clip-path="url(#clip0_364_23813)">
<path fill-rule="evenodd" clip-rule="evenodd" d="M35.9126 35.0093C31.6063 35.0093 27.5237 36.9108 24.7461 40.229C23.8886 41.2543 24.0191 42.783 25.0444 43.6405C25.4918 44.032 26.051 44.2184 26.6103 44.2184C27.3 44.2184 27.9898 43.9201 28.4745 43.3609C30.32 41.1425 33.0417 39.8748 35.9126 39.8748C38.7834 39.8748 41.5051 41.1425 43.3506 43.3609C43.8353 43.9201 44.5251 44.2184 45.2148 44.2184C45.7741 44.2184 46.3147 44.032 46.7807 43.6405C47.806 42.783 47.9365 41.2357 47.079 40.229C44.3014 36.9108 40.2188 35.0093 35.9126 35.0093ZM35.9126 25.2783C28.7355 25.2783 21.9498 28.4474 17.308 33.9654C16.4505 34.9907 16.581 36.5379 17.6063 37.3955C18.0723 37.787 18.613 37.9734 19.1722 37.9734C19.862 37.9734 20.5517 37.6751 21.0364 37.1158C24.7648 32.6977 30.1709 30.1438 35.9126 30.1438C41.6542 30.1438 47.079 32.6791 50.7887 37.1158C51.2734 37.6937 51.9632 37.9734 52.6529 37.9734C53.2122 37.9734 53.7714 37.787 54.2188 37.3955C55.2441 36.5379 55.3746 34.9907 54.5171 33.9654C49.8753 28.4474 43.0897 25.2783 35.9126 25.2783ZM61.9738 27.7204C55.4678 19.984 45.9791 15.5473 35.9312 15.5473C25.8833 15.5473 16.3946 19.984 9.88859 27.7204C9.03106 28.7457 9.16156 30.2743 10.1869 31.1505C10.6343 31.5233 11.1935 31.7284 11.7528 31.7284C12.4425 31.7284 13.1323 31.4301 13.6169 30.8708C19.1909 24.2344 27.3373 20.4314 35.9498 20.4314C44.5624 20.4314 52.7088 24.2344 58.2827 30.8708C58.7488 31.4487 59.4385 31.747 60.1469 31.747C60.7062 31.747 61.2468 31.5606 61.7128 31.1691C62.7381 30.3116 62.8686 28.783 62.0111 27.739L61.9738 27.7204ZM35.9126 44.7217C33.2281 44.7217 31.047 46.9028 31.047 49.5872C31.047 52.2716 33.2281 54.4527 35.9126 54.4527C38.597 54.4527 40.7781 52.2716 40.7781 49.5872C40.7781 46.9028 38.597 44.7217 35.9126 44.7217ZM6.04837 0H65.7954C68.6103 0 70.9219 2.31158 70.9219 5.1265V64.8735C70.9219 67.6884 68.6103 70 65.7954 70H6.04837C3.23346 70 0.921875 67.6884 0.921875 64.8735V5.1265C0.921875 2.31158 3.23346 0 6.04837 0Z" fill="#C61724"/>
</g>
<defs>
<clipPath id="clip0_364_23813">
<rect width="70" height="70" fill="white" transform="translate(0.921875)"/>
</clipPath>
</defs>
</svg>
